M48
;Layer_Color=9474304
;FILE_FORMAT=4:3
METRIC
;TYPE=PLATED
T1F00S00C0.254
T2F00S00C0.305
T3F00S00C0.381
T4F00S00C0.508
T5F00S00C0.660
T6F00S00C0.711
T7F00S00C0.762
T8F00S00C1.016
T9F00S00C1.020
T10F00S00C1.321
;TYPE=NON_PLATED
T11F00S00C0.650
T12F00S00C2.642
%
T01
X-0031445Y0021717
X-0030074
X-0030099Y0023089
X-0031445Y0023139
X-0037821Y0023038
X-0037770Y0021844
X-0039116Y0021768
Y0022987
X-0040386Y0023012
X-0041681
X-0042926
Y0024308
X-0041681
X-0041605Y0025578
X-0040361
X-0039091
Y0024257
X-0040335Y0024282
X-0037795Y0024308
X-0037770Y0025654
X-0037846Y0026822
X-0037897Y0028143
X-0040386Y0026848
X-0041605
X-0035281
X-0034061
X-0034036Y0025603
X-0035306
X-0035281Y0024308
X-0033985
X-0032715
Y0025552
X-0032741Y0026822
X-0031445Y0024308
X-0030048
X-0035306Y0028118
T02
X-0036474Y0014910
X-0034646Y0015596
X-0033985Y0013259
X-0031064Y0015519
X-0029616Y0011506
X-0028321Y0012497
X-0026162Y0010516
X-0024155Y0011494
X-0023165Y0010516
X-0022174Y0011506
X-0021184Y0011532
Y0012522
Y0013513
X-0022174
X-0023165
X-0023190Y0012522
X-0022200Y0012548
X-0021184Y0010490
Y0007493
X-0023190Y0007518
X-0024206Y0009478
X-0025171Y0006502
X-0027178Y0007518
X-0029713Y0008656
X-0024181Y0014554
X-0025222Y0017704
X-0012395Y0015469
X-0015951Y0009437
X-0016002Y0007620
X-0019177Y0005359
X-0009474Y0004902
X-0004318Y0007468
X-0062128Y0015240
X-0044221Y0028042
T03
X-0026645Y0003378
X-0018339
X-0032715Y0023038
X-0034036Y0023012
X-0035281Y0023038
X-0035331Y0021742
X-0034011Y0021768
X-0040462Y0021742
X-0042901Y0021768
X-0044221Y0022581
X-0046228Y0018796
X-0044247Y0026797
X-0042901Y0026822
Y0028118
X-0031496Y0028143
X-0030175
Y0026848
X-0031471Y0026822
T04
X-0008915Y0017475
X-0007645Y0017501
X-0039878Y0015723
X-0044780Y0015850
X-0043459Y0019177
X-0054305Y0020701
Y0016688
X-0056591
X-0056007Y0009576
X-0061773Y0007671
X-0037922Y0011684
T05
X-0058420Y0025832
X-0057780Y0028448
X-0047473Y0027864
T06
X-0035255Y0006299
X-0043713Y0004166
T07
X-0031115Y0003404
T08
X-0009652Y0003175
X-0016891Y0029591
X-0023495Y0028575
X-0026035
X-0028575
T09
X-0012192Y0003175
X-0007112
X-0003327Y0017780
X-0003353Y0020218
Y0022758
X-0015240Y0022352
X-0060503Y0005080
Y0002540
X-0015240Y0024892
Y0027432
X-0006477Y0028575
X-0003327Y0027737
Y0030277
Y0025197
T10
X-0050089Y0006096
Y0018796
X-0058979Y0016256
X-0037389Y0018796
X-0046279Y0025146
T11
X-0036811Y0004587
X-0040811
T12
X0002972Y0016256
X-0066878
M30
