G04 Layer_Color=65535*
%FSLAX24Y24*%
%MOIN*%
G70*
G01*
G75*
%ADD40C,0.0060*%
%ADD41C,0.0100*%
%ADD45C,0.0080*%
%ADD46C,0.0094*%
%ADD47C,0.0050*%
%ADD48C,0.0040*%
%ADD49C,0.0010*%
%ADD50C,0.0000*%
%ADD79C,0.0079*%
%ADD80C,0.0039*%
%ADD81C,0.0020*%
G36*
X-14311Y4081D02*
X-14351D01*
Y4160D01*
X-14311D01*
Y4081D01*
D02*
G37*
G36*
X-14509D02*
X-14548D01*
Y4160D01*
X-14509D01*
Y4081D01*
D02*
G37*
G36*
X-4690Y4193D02*
X-5084D01*
Y4372D01*
X-4690D01*
Y4193D01*
D02*
G37*
G36*
Y4507D02*
X-5084D01*
Y4688D01*
X-4690D01*
Y4507D01*
D02*
G37*
G36*
X-1540Y4193D02*
X-1929D01*
Y4372D01*
X-1540D01*
Y4193D01*
D02*
G37*
G36*
X-14519Y3701D02*
X-14558D01*
Y3780D01*
X-14519D01*
Y3701D01*
D02*
G37*
G36*
X-1540Y3563D02*
X-1927D01*
Y3741D01*
X-1540D01*
Y3563D01*
D02*
G37*
G36*
X-14321Y3701D02*
X-14361D01*
Y3780D01*
X-14321D01*
Y3701D01*
D02*
G37*
G36*
X-1540Y3878D02*
X-1926D01*
Y4057D01*
X-1540D01*
Y3878D01*
D02*
G37*
G36*
X-4690D02*
X-5084D01*
Y4057D01*
X-4690D01*
Y3878D01*
D02*
G37*
G36*
X-1540Y4507D02*
X-1925D01*
Y4688D01*
X-1540D01*
Y4507D01*
D02*
G37*
G36*
X-4690Y4822D02*
X-5085D01*
Y5004D01*
X-4690D01*
Y4822D01*
D02*
G37*
G36*
X-13582Y4790D02*
X-13621D01*
Y4869D01*
X-13582D01*
Y4790D01*
D02*
G37*
G36*
X-1540Y4822D02*
X-1929D01*
Y5003D01*
X-1540D01*
Y4822D01*
D02*
G37*
G36*
Y5137D02*
X-1927D01*
Y5319D01*
X-1540D01*
Y5137D01*
D02*
G37*
G36*
X-4690D02*
X-5083D01*
Y5318D01*
X-4690D01*
Y5137D01*
D02*
G37*
G36*
X-12989Y4741D02*
X-13028D01*
Y4820D01*
X-12989D01*
Y4741D01*
D02*
G37*
G36*
X-12141Y4552D02*
X-12220D01*
Y4591D01*
X-12141D01*
Y4552D01*
D02*
G37*
G36*
X-12791Y4741D02*
X-12831D01*
Y4820D01*
X-12791D01*
Y4741D01*
D02*
G37*
G36*
X-13779Y4790D02*
X-13819D01*
Y4869D01*
X-13779D01*
Y4790D01*
D02*
G37*
G36*
X-12141Y4749D02*
X-12220D01*
Y4789D01*
X-12141D01*
Y4749D01*
D02*
G37*
G36*
X-4690Y3563D02*
X-5085D01*
Y3741D01*
X-4690D01*
Y3563D01*
D02*
G37*
G36*
X-12192Y2573D02*
X-12423D01*
Y2754D01*
X-12192D01*
Y2573D01*
D02*
G37*
G36*
X-17001Y2379D02*
X-17080D01*
Y2419D01*
X-17001D01*
Y2379D01*
D02*
G37*
G36*
X-4322Y2670D02*
X-4503D01*
Y3059D01*
X-4322D01*
Y2670D01*
D02*
G37*
G36*
X-3692D02*
X-3874D01*
Y3056D01*
X-3692D01*
Y2670D01*
D02*
G37*
G36*
X-4007D02*
X-4190D01*
Y3056D01*
X-4007D01*
Y2670D01*
D02*
G37*
G36*
X-9742Y1280D02*
X-9781D01*
Y1359D01*
X-9742D01*
Y1280D01*
D02*
G37*
G36*
X-9939Y1280D02*
X-9979D01*
Y1359D01*
X-9939D01*
Y1280D01*
D02*
G37*
G36*
X-12661Y1722D02*
X-12740D01*
Y1761D01*
X-12661D01*
Y1722D01*
D02*
G37*
G36*
X-17001Y2182D02*
X-17080D01*
Y2221D01*
X-17001D01*
Y2182D01*
D02*
G37*
G36*
X-12661Y1919D02*
X-12740D01*
Y1958D01*
X-12661D01*
Y1919D01*
D02*
G37*
G36*
X-3377Y2670D02*
X-3558D01*
Y3056D01*
X-3377D01*
Y2670D01*
D02*
G37*
G36*
X-1540Y3248D02*
X-1926D01*
Y3425D01*
X-1540D01*
Y3248D01*
D02*
G37*
G36*
X-4690D02*
X-5086D01*
Y3424D01*
X-4690D01*
Y3248D01*
D02*
G37*
G36*
X-21609Y3261D02*
X-21648D01*
Y3340D01*
X-21609D01*
Y3261D01*
D02*
G37*
G36*
X-12192Y3315D02*
X-12423D01*
Y3494D01*
X-12192D01*
Y3315D01*
D02*
G37*
G36*
X-21412Y3261D02*
X-21451D01*
Y3340D01*
X-21412D01*
Y3261D01*
D02*
G37*
G36*
X-2748Y2670D02*
X-2927D01*
Y3056D01*
X-2748D01*
Y2670D01*
D02*
G37*
G36*
X-3063D02*
X-3242D01*
Y3057D01*
X-3063D01*
Y2670D01*
D02*
G37*
G36*
X-2433D02*
X-2611D01*
Y3057D01*
X-2433D01*
Y2670D01*
D02*
G37*
G36*
X-12983Y2944D02*
X-12984D01*
Y2944D01*
X-12984D01*
Y2944D01*
X-12984D01*
Y2944D01*
X-12984D01*
Y2944D01*
X-12984D01*
Y2944D01*
X-13213D01*
Y2944D01*
Y2944D01*
Y2944D01*
Y3124D01*
X-12983D01*
Y2944D01*
D02*
G37*
G36*
X-2118Y2670D02*
X-2295D01*
Y3056D01*
X-2118D01*
Y2670D01*
D02*
G37*
G36*
X-12969Y5141D02*
X-13008D01*
Y5220D01*
X-12969D01*
Y5141D01*
D02*
G37*
G36*
X-9909Y7731D02*
X-9948D01*
Y7810D01*
X-9909D01*
Y7731D01*
D02*
G37*
G36*
X-10106D02*
X-10145D01*
Y7810D01*
X-10106D01*
Y7731D01*
D02*
G37*
G36*
X-10746Y7741D02*
X-10785D01*
Y7820D01*
X-10746D01*
Y7741D01*
D02*
G37*
G36*
X-17904Y8075D02*
X-18476D01*
Y8370D01*
X-17904D01*
Y8075D01*
D02*
G37*
G36*
X-10549Y7741D02*
X-10588D01*
Y7820D01*
X-10549D01*
Y7741D01*
D02*
G37*
G36*
X-12952Y7700D02*
X-12991D01*
Y7779D01*
X-12952D01*
Y7700D01*
D02*
G37*
G36*
X-12146Y7700D02*
X-12186D01*
Y7779D01*
X-12146D01*
Y7700D01*
D02*
G37*
G36*
X-11949Y7700D02*
X-11988D01*
Y7779D01*
X-11949D01*
Y7700D01*
D02*
G37*
G36*
X-16502Y7710D02*
X-16541D01*
Y7789D01*
X-16502D01*
Y7710D01*
D02*
G37*
G36*
X-16698Y7710D02*
X-16738D01*
Y7789D01*
X-16698D01*
Y7710D01*
D02*
G37*
G36*
X-23719Y8601D02*
X-23758D01*
Y8680D01*
X-23719D01*
Y8601D01*
D02*
G37*
G36*
X-14319Y11861D02*
X-14358D01*
Y11940D01*
X-14319D01*
Y11861D01*
D02*
G37*
G36*
X-24102Y10121D02*
X-24141D01*
Y10200D01*
X-24102D01*
Y10121D01*
D02*
G37*
G36*
X-14121Y11861D02*
X-14161D01*
Y11940D01*
X-14121D01*
Y11861D01*
D02*
G37*
G36*
X-14912Y11870D02*
X-14951D01*
Y11949D01*
X-14912D01*
Y11870D01*
D02*
G37*
G36*
X-15109Y11870D02*
X-15149D01*
Y11949D01*
X-15109D01*
Y11870D01*
D02*
G37*
G36*
X-23049Y8601D02*
X-23088D01*
Y8680D01*
X-23049D01*
Y8601D01*
D02*
G37*
G36*
X-23522D02*
X-23561D01*
Y8680D01*
X-23522D01*
Y8601D01*
D02*
G37*
G36*
X-22851D02*
X-22891D01*
Y8680D01*
X-22851D01*
Y8601D01*
D02*
G37*
G36*
X-24299Y10121D02*
X-24338D01*
Y10200D01*
X-24299D01*
Y10121D01*
D02*
G37*
G36*
X-17904Y8645D02*
X-18475D01*
Y8940D01*
X-17904D01*
Y8645D01*
D02*
G37*
G36*
X-13149Y7700D02*
X-13189D01*
Y7779D01*
X-13149D01*
Y7700D01*
D02*
G37*
G36*
X-12772Y5601D02*
X-12811D01*
Y5680D01*
X-12772D01*
Y5601D01*
D02*
G37*
G36*
X-12969D02*
X-13008D01*
Y5680D01*
X-12969D01*
Y5601D01*
D02*
G37*
G36*
X-4322Y5820D02*
X-4506D01*
Y6215D01*
X-4322D01*
Y5820D01*
D02*
G37*
G36*
X-3692D02*
X-3874D01*
Y6215D01*
X-3692D01*
Y5820D01*
D02*
G37*
G36*
X-4007D02*
X-4189D01*
Y6213D01*
X-4007D01*
Y5820D01*
D02*
G37*
G36*
X-13771Y5212D02*
X-13850D01*
Y5251D01*
X-13771D01*
Y5212D01*
D02*
G37*
G36*
X-12771Y5141D02*
X-12811D01*
Y5220D01*
X-12771D01*
Y5141D01*
D02*
G37*
G36*
X-13771Y5409D02*
X-13850D01*
Y5449D01*
X-13771D01*
Y5409D01*
D02*
G37*
G36*
X-1540Y5452D02*
X-1927D01*
Y5635D01*
X-1540D01*
Y5452D01*
D02*
G37*
G36*
X-4690D02*
X-5086D01*
Y5636D01*
X-4690D01*
Y5452D01*
D02*
G37*
G36*
X-3377Y5820D02*
X-3558D01*
Y6214D01*
X-3377D01*
Y5820D01*
D02*
G37*
G36*
X-12959Y6061D02*
X-12998D01*
Y6140D01*
X-12959D01*
Y6061D01*
D02*
G37*
G36*
X-18052Y5980D02*
X-18091D01*
Y6059D01*
X-18052D01*
Y5980D01*
D02*
G37*
G36*
X-12761Y6061D02*
X-12801D01*
Y6140D01*
X-12761D01*
Y6061D01*
D02*
G37*
G36*
X-14972Y6141D02*
X-15012D01*
Y6220D01*
X-14972D01*
Y6141D01*
D02*
G37*
G36*
X-15169D02*
X-15208D01*
Y6220D01*
X-15169D01*
Y6141D01*
D02*
G37*
G36*
X-2748Y5820D02*
X-2927D01*
Y6215D01*
X-2748D01*
Y5820D01*
D02*
G37*
G36*
X-3063D02*
X-3242D01*
Y6213D01*
X-3063D01*
Y5820D01*
D02*
G37*
G36*
X-2433D02*
X-2611D01*
Y6216D01*
X-2433D01*
Y5820D01*
D02*
G37*
G36*
X-18249Y5980D02*
X-18289D01*
Y6059D01*
X-18249D01*
Y5980D01*
D02*
G37*
G36*
X-2118Y5820D02*
X-2297D01*
Y6211D01*
X-2118D01*
Y5820D01*
D02*
G37*
D40*
X-2089Y5520D02*
G03*
X-2089Y5520I-141J0D01*
G01*
X-9480Y7991D02*
G03*
X-9480Y7991I-10J0D01*
G01*
X-18520Y11820D02*
X-17820D01*
X-18520Y11440D02*
Y11820D01*
Y11440D02*
X-17820D01*
Y11820D01*
X-11250Y9690D02*
Y10390D01*
Y9690D02*
X-10870D01*
Y10390D01*
X-11250D02*
X-10870D01*
X-16600Y3880D02*
X-16150D01*
X-17290D02*
X-16600D01*
X-17290Y5840D02*
X-16150D01*
X-4649Y3101D02*
X-1971D01*
X-4649D02*
Y5779D01*
X-1971D01*
Y3101D02*
Y5779D01*
X-13140Y5490D02*
X-12640D01*
Y5790D01*
X-13140D02*
X-12640D01*
X-13140Y5490D02*
Y5790D01*
X-12550Y1590D02*
Y2090D01*
X-12850D02*
X-12550D01*
X-12850Y1590D02*
Y2090D01*
Y1590D02*
X-12550D01*
X-14190Y4879D02*
Y5579D01*
X-14570Y4879D02*
X-14190D01*
X-14570D02*
Y5579D01*
X-14190D01*
X-13160Y4630D02*
X-12660D01*
Y4930D01*
X-13160D02*
X-12660D01*
X-13160Y4630D02*
Y4930D01*
X-13140Y5030D02*
Y5330D01*
X-12640D01*
Y5030D02*
Y5330D01*
X-13140Y5030D02*
X-12640D01*
X-17190Y2050D02*
Y2550D01*
Y2050D02*
X-16890D01*
X-17190Y2550D02*
X-16890D01*
Y2050D02*
Y2550D01*
X-16771Y2190D02*
Y2570D01*
X-16071D01*
Y2190D02*
Y2570D01*
X-16771Y2190D02*
X-16071D01*
X-24470Y10310D02*
X-23970D01*
X-24470Y10010D02*
Y10310D01*
X-23970Y10010D02*
Y10310D01*
X-24470Y10010D02*
X-23970D01*
X-24420Y8650D02*
Y9350D01*
Y8650D02*
X-24040D01*
Y9350D01*
X-24420D02*
X-24040D01*
X-23220Y8490D02*
Y8790D01*
X-22720D01*
Y8490D02*
Y8790D01*
X-23220Y8490D02*
X-22720D01*
X-23890D02*
Y8790D01*
X-23390D01*
Y8490D02*
Y8790D01*
X-23890Y8490D02*
X-23390D01*
X-24457Y11810D02*
X-22135D01*
X-24457Y10550D02*
Y11810D01*
Y10550D02*
X-22135D01*
Y11810D01*
X-22926Y10550D02*
X-22926Y11800D01*
X-18999Y11090D02*
Y11470D01*
X-19699Y11090D02*
X-18999D01*
X-19699D02*
Y11470D01*
X-18999D01*
X-22540Y8490D02*
Y8870D01*
X-21840D01*
Y8490D02*
Y8870D01*
X-22540Y8490D02*
X-21840D01*
X-14780Y11760D02*
Y12060D01*
X-15280Y11760D02*
X-14780D01*
X-15280D02*
Y12060D01*
X-14780D01*
X-16870Y7900D02*
X-16370D01*
X-16870Y7600D02*
Y7900D01*
Y7600D02*
X-16370D01*
Y7900D01*
X-13320Y7890D02*
X-12820D01*
X-13320Y7590D02*
Y7890D01*
Y7590D02*
X-12820D01*
Y7890D01*
X-22889Y2710D02*
Y3090D01*
X-23589Y2710D02*
X-22889D01*
X-23589D02*
Y3090D01*
X-22889D01*
X-17593Y8324D02*
Y11592D01*
X-11687D01*
Y8048D02*
Y11592D01*
X-17317Y8048D02*
X-11687D01*
X-21630Y11090D02*
X-20650D01*
Y11610D01*
X-21630D02*
X-20650D01*
X-21630Y11090D02*
Y11610D01*
X-14490Y11750D02*
Y12050D01*
X-13990D01*
Y11750D02*
Y12050D01*
X-14490Y11750D02*
X-13990D01*
X-10939Y1140D02*
Y1520D01*
X-11639Y1140D02*
X-10939D01*
X-11639D02*
Y1520D01*
X-10939D01*
X-11817Y7590D02*
Y7890D01*
X-12317Y7590D02*
X-11817D01*
X-12317D02*
Y7890D01*
X-11817D01*
X-13960Y5080D02*
X-13660D01*
X-13960D02*
Y5580D01*
X-13660D01*
Y5080D02*
Y5580D01*
X-13400Y1600D02*
Y2300D01*
Y1600D02*
X-13020D01*
Y2300D01*
X-13400D02*
X-13020D01*
X-13130Y5950D02*
X-12630D01*
Y6250D01*
X-13130D02*
X-12630D01*
X-13130Y5950D02*
Y6250D01*
X-13950Y4980D02*
X-13450D01*
X-13950Y4680D02*
Y4980D01*
Y4680D02*
X-13450D01*
Y4980D01*
X-21790Y2196D02*
X-20540Y2196D01*
X-21790Y2987D02*
X-20530D01*
Y665D02*
Y2987D01*
X-21790Y665D02*
X-20530D01*
X-21790D02*
Y2987D01*
X-18870Y2200D02*
X-17620Y2200D01*
X-18870Y2991D02*
X-17610D01*
Y669D02*
Y2991D01*
X-18870Y669D02*
X-17610D01*
X-18870D02*
Y2991D01*
X-21780Y3150D02*
X-21280D01*
Y3450D01*
X-21780D02*
X-21280D01*
X-21780Y3150D02*
Y3450D01*
X-14690Y3890D02*
X-14190D01*
Y3590D02*
Y3890D01*
X-14690Y3590D02*
Y3890D01*
Y3590D02*
X-14190D01*
X-14680Y4270D02*
X-14180D01*
Y3970D02*
Y4270D01*
X-14680Y3970D02*
Y4270D01*
Y3970D02*
X-14180D01*
X-10110Y1470D02*
X-9610D01*
X-10110Y1170D02*
Y1470D01*
Y1170D02*
X-9610D01*
Y1470D01*
X-10277Y7620D02*
X-9777D01*
Y7920D01*
X-10277D02*
X-9777D01*
X-10277Y7620D02*
Y7920D01*
X-8760Y955D02*
X-8445D01*
X-8760Y1545D02*
X-8445D01*
X-18420Y6170D02*
X-17920D01*
X-18420Y5870D02*
Y6170D01*
Y5870D02*
X-17920D01*
Y6170D01*
X-15340Y6030D02*
X-14840D01*
Y6330D01*
X-15340D02*
X-14840D01*
X-15340Y6030D02*
Y6330D01*
X-23897Y9053D02*
Y10313D01*
Y9053D02*
X-22277D01*
Y10313D01*
X-23897D02*
X-22277D01*
X-13975Y6407D02*
Y7270D01*
X-12195D01*
X-13975Y6407D02*
X-12195D01*
Y7270D01*
X-10917Y7630D02*
Y7930D01*
X-10417D01*
Y7630D02*
Y7930D01*
X-10917Y7630D02*
X-10417D01*
X-12963Y3283D02*
Y3594D01*
X-12630D01*
X-12963Y2474D02*
Y2775D01*
Y2474D02*
X-12630D01*
X-12030Y4420D02*
Y4920D01*
X-12330D02*
X-12030D01*
X-12330Y4420D02*
Y4920D01*
Y4420D02*
X-12030D01*
X-1380Y8110D02*
Y8177D01*
Y8143D01*
X-1580D01*
X-1547Y8110D01*
X-1380Y8377D02*
X-1580D01*
X-1480Y8277D01*
Y8410D01*
X-1987Y8060D02*
X-2020Y8093D01*
Y8160D01*
X-1987Y8193D01*
X-1953D01*
X-1920Y8160D01*
Y8127D01*
Y8160D01*
X-1887Y8193D01*
X-1853D01*
X-1820Y8160D01*
Y8093D01*
X-1853Y8060D01*
X-1987Y8260D02*
X-2020Y8293D01*
Y8360D01*
X-1987Y8393D01*
X-1853D01*
X-1820Y8360D01*
Y8293D01*
X-1853Y8260D01*
X-1987D01*
X-1537Y7550D02*
X-1570Y7583D01*
Y7650D01*
X-1537Y7683D01*
X-1503D01*
X-1470Y7650D01*
Y7617D01*
Y7650D01*
X-1437Y7683D01*
X-1403D01*
X-1370Y7650D01*
Y7583D01*
X-1403Y7550D01*
X-1370Y7883D02*
Y7750D01*
X-1503Y7883D01*
X-1537D01*
X-1570Y7850D01*
Y7783D01*
X-1537Y7750D01*
X-1830Y7683D02*
Y7550D01*
X-1963Y7683D01*
X-1997D01*
X-2030Y7650D01*
Y7583D01*
X-1997Y7550D01*
X-1863Y7750D02*
X-1830Y7783D01*
Y7850D01*
X-1863Y7883D01*
X-1997D01*
X-2030Y7850D01*
Y7783D01*
X-1997Y7750D01*
X-1963D01*
X-1930Y7783D01*
Y7883D01*
X-1547Y7060D02*
X-1580Y7093D01*
Y7160D01*
X-1547Y7193D01*
X-1513D01*
X-1480Y7160D01*
Y7127D01*
Y7160D01*
X-1447Y7193D01*
X-1413D01*
X-1380Y7160D01*
Y7093D01*
X-1413Y7060D01*
X-1380Y7260D02*
Y7327D01*
Y7293D01*
X-1580D01*
X-1547Y7260D01*
X-1997Y7033D02*
X-2030Y7000D01*
Y6933D01*
X-1997Y6900D01*
X-1863D01*
X-1830Y6933D01*
Y7000D01*
X-1863Y7033D01*
X-1930D01*
Y6967D01*
X-1830Y7100D02*
X-2030D01*
X-1830Y7233D01*
X-2030D01*
Y7300D02*
X-1830D01*
Y7400D01*
X-1863Y7433D01*
X-1997D01*
X-2030Y7400D01*
Y7300D01*
X-2355Y1115D02*
X-2389Y1082D01*
X-2390Y1016D01*
X-2357Y982D01*
X-2223Y980D01*
X-2190Y1013D01*
X-2189Y1080D01*
X-2222Y1114D01*
X-2288Y1114D01*
X-2289Y1048D01*
X-2188Y1180D02*
X-2388Y1182D01*
X-2186Y1313D01*
X-2386Y1315D01*
X-2385Y1382D02*
X-2186Y1380D01*
X-2184Y1480D01*
X-2217Y1514D01*
X-2351Y1515D01*
X-2384Y1482D01*
X-2385Y1382D01*
X-4400Y733D02*
Y600D01*
X-4300D01*
X-4333Y667D01*
Y700D01*
X-4300Y733D01*
X-4233D01*
X-4200Y700D01*
Y633D01*
X-4233Y600D01*
X-4400Y800D02*
X-4267D01*
X-4200Y867D01*
X-4267Y933D01*
X-4400D01*
Y1200D02*
X-4200D01*
Y1300D01*
X-4233Y1333D01*
X-4367D01*
X-4400Y1300D01*
Y1200D01*
X-4200Y1400D02*
X-4333D01*
X-4400Y1466D01*
X-4333Y1533D01*
X-4200D01*
X-4300D01*
Y1400D01*
X-4367Y1733D02*
X-4400Y1700D01*
Y1633D01*
X-4367Y1600D01*
X-4233D01*
X-4200Y1633D01*
Y1700D01*
X-4233Y1733D01*
X-3410Y980D02*
X-3210D01*
Y1080D01*
X-3243Y1113D01*
X-3377D01*
X-3410Y1080D01*
Y980D01*
X-3210Y1180D02*
X-3343D01*
X-3410Y1247D01*
X-3343Y1313D01*
X-3210D01*
X-3310D01*
Y1180D01*
X-3377Y1513D02*
X-3410Y1480D01*
Y1413D01*
X-3377Y1380D01*
X-3243D01*
X-3210Y1413D01*
Y1480D01*
X-3243Y1513D01*
X-5407Y9573D02*
X-5440Y9540D01*
Y9473D01*
X-5407Y9440D01*
X-5373D01*
X-5340Y9473D01*
Y9540D01*
X-5307Y9573D01*
X-5273D01*
X-5240Y9540D01*
Y9473D01*
X-5273Y9440D01*
X-5407Y9773D02*
X-5440Y9740D01*
Y9673D01*
X-5407Y9640D01*
X-5273D01*
X-5240Y9673D01*
Y9740D01*
X-5273Y9773D01*
X-5440Y9840D02*
X-5240D01*
Y9973D01*
X-5440Y10040D02*
X-5240D01*
X-5307D01*
X-5440Y10173D01*
X-5340Y10073D01*
X-5240Y10173D01*
X-5407Y10753D02*
X-5440Y10720D01*
Y10653D01*
X-5407Y10620D01*
X-5273D01*
X-5240Y10653D01*
Y10720D01*
X-5273Y10753D01*
X-5407Y10953D02*
X-5440Y10920D01*
Y10853D01*
X-5407Y10820D01*
X-5373D01*
X-5340Y10853D01*
Y10920D01*
X-5307Y10953D01*
X-5273D01*
X-5240Y10920D01*
Y10853D01*
X-5273Y10820D01*
X-5240Y8400D02*
X-5440D01*
X-5373Y8467D01*
X-5440Y8533D01*
X-5240D01*
X-5440Y8700D02*
Y8633D01*
X-5407Y8600D01*
X-5273D01*
X-5240Y8633D01*
Y8700D01*
X-5273Y8733D01*
X-5407D01*
X-5440Y8700D01*
X-5407Y8933D02*
X-5440Y8900D01*
Y8833D01*
X-5407Y8800D01*
X-5373D01*
X-5340Y8833D01*
Y8900D01*
X-5307Y8933D01*
X-5273D01*
X-5240Y8900D01*
Y8833D01*
X-5273Y8800D01*
X-5440Y9000D02*
Y9066D01*
Y9033D01*
X-5240D01*
Y9000D01*
Y9066D01*
X-11539Y10740D02*
X-11406Y10738D01*
X-11340Y10638D02*
X-11273Y10637D01*
X-11307Y10637D01*
X-11305Y10837D01*
X-11338Y10804D01*
X-11040Y10634D02*
X-11173Y10636D01*
X-11039Y10768D01*
X-11038Y10801D01*
X-11071Y10835D01*
X-11138Y10835D01*
X-11172Y10802D01*
X-10400Y10630D02*
X-10333Y10631D01*
X-10367Y10630D01*
X-10368Y10830D01*
X-10401Y10797D01*
X-10100Y10633D02*
X-10233Y10631D01*
X-10101Y10766D01*
X-10102Y10799D01*
X-10135Y10832D01*
X-10202Y10832D01*
X-10235Y10798D01*
X-9177Y10830D02*
X-9310D01*
Y10730D01*
X-9243Y10763D01*
X-9210D01*
X-9177Y10730D01*
Y10663D01*
X-9210Y10630D01*
X-9277D01*
X-9310Y10663D01*
X-2830Y10620D02*
Y10753D01*
X-2763Y10820D01*
X-2697Y10753D01*
Y10620D01*
Y10720D01*
X-2830D01*
X-2630Y10820D02*
Y10620D01*
X-2530D01*
X-2497Y10653D01*
Y10787D01*
X-2530Y10820D01*
X-2630D01*
X-2297Y10787D02*
X-2330Y10820D01*
X-2397D01*
X-2430Y10787D01*
Y10653D01*
X-2397Y10620D01*
X-2330D01*
X-2297Y10653D01*
X-12963Y2474D02*
Y3594D01*
Y2474D02*
X-12443D01*
Y3594D01*
X-12963D02*
X-12443D01*
D41*
X-22720Y823D02*
Y1177D01*
Y2061D02*
Y2397D01*
X-24394Y1326D02*
Y1912D01*
X-23644Y823D02*
X-22720D01*
X-23592Y2397D02*
X-22720D01*
X-24394D02*
X-22720D01*
X-24394Y823D02*
Y2397D01*
Y823D02*
X-22720D01*
Y2397D01*
D45*
X-9558Y7909D02*
X-9420D01*
X-9558Y7653D02*
Y7909D01*
Y7653D02*
X-9420D01*
Y7909D01*
D46*
X-17112Y7851D02*
G03*
X-17112Y7851I-47J0D01*
G01*
D02*
G03*
X-17112Y7851I-47J0D01*
G01*
D47*
X-16626Y58D02*
Y74D01*
X-17593Y8048D02*
Y8088D01*
Y8127D02*
Y8166D01*
Y8206D01*
Y8245D01*
Y8285D01*
Y8324D01*
X-17357Y8048D02*
X-17317D01*
X-17396D02*
X-17357D01*
X-17435D02*
X-17396D01*
X-17475D02*
X-17435D01*
X-17514D02*
X-17475D01*
X-17553D02*
X-17514D01*
X-17593D02*
X-17553D01*
X-17593Y8088D02*
X-17553Y8048D01*
X-17593Y8127D02*
X-17514Y8048D01*
X-17593Y8166D02*
X-17475Y8048D01*
X-17593Y8206D02*
X-17435Y8048D01*
X-17593Y8245D02*
X-17396Y8048D01*
X-17593Y8285D02*
X-17357Y8048D01*
X-17593Y8324D02*
X-17317Y8048D01*
X-17593Y8088D02*
Y8127D01*
X-18379Y11520D02*
Y11740D01*
X-17961D01*
Y11520D02*
Y11740D01*
X-18379Y11520D02*
X-17961D01*
X-11170Y9831D02*
X-10950D01*
X-11170D02*
Y10249D01*
X-10950D01*
Y9831D02*
Y10249D01*
X-12772Y5581D02*
Y5699D01*
X-13008D02*
X-12772D01*
X-13008Y5581D02*
Y5699D01*
Y5581D02*
X-12772D01*
X-12759Y1958D02*
X-12641D01*
X-12759Y1722D02*
Y1958D01*
Y1722D02*
X-12641D01*
Y1958D01*
X-14490Y5438D02*
X-14270D01*
Y5021D02*
Y5438D01*
X-14490Y5021D02*
X-14270D01*
X-14490D02*
Y5438D01*
X-12792Y4721D02*
Y4839D01*
X-13028D02*
X-12792D01*
X-13028Y4721D02*
Y4839D01*
Y4721D02*
X-12792D01*
X-13008Y5121D02*
X-12772D01*
X-13008D02*
Y5239D01*
X-12772D01*
Y5121D02*
Y5239D01*
X-16981Y2182D02*
Y2418D01*
X-17099Y2182D02*
X-16981D01*
X-17099D02*
Y2418D01*
X-16981D01*
X-16629Y2490D02*
X-16212D01*
X-16629Y2270D02*
Y2490D01*
Y2270D02*
X-16212D01*
Y2490D01*
X-24102Y10101D02*
Y10219D01*
X-24338D02*
X-24102D01*
X-24338Y10101D02*
Y10219D01*
Y10101D02*
X-24102D01*
X-24340Y8791D02*
X-24120D01*
X-24340D02*
Y9209D01*
X-24120D01*
Y8791D02*
Y9209D01*
X-23088Y8581D02*
X-22852D01*
X-23088D02*
Y8699D01*
X-22852D01*
Y8581D02*
Y8699D01*
X-23758Y8581D02*
X-23522D01*
X-23758D02*
Y8699D01*
X-23522D01*
Y8581D02*
Y8699D01*
X-19558Y11170D02*
X-19141D01*
Y11390D01*
X-19558D02*
X-19141D01*
X-19558Y11170D02*
Y11390D01*
X-22399Y8790D02*
X-21981D01*
X-22399Y8570D02*
Y8790D01*
Y8570D02*
X-21981D01*
Y8790D01*
X-15148Y11969D02*
X-14912D01*
Y11851D02*
Y11969D01*
X-15148Y11851D02*
X-14912D01*
X-15148D02*
Y11969D01*
X-16738Y7691D02*
Y7809D01*
Y7691D02*
X-16502D01*
Y7809D01*
X-16738D02*
X-16502D01*
X-13188Y7681D02*
Y7799D01*
Y7681D02*
X-12952D01*
Y7799D01*
X-13188D02*
X-12952D01*
X-23448Y2790D02*
X-23031D01*
Y3010D01*
X-23448D02*
X-23031D01*
X-23448Y2790D02*
Y3010D01*
X-17593Y8048D02*
Y11592D01*
X-11687D01*
Y8048D02*
Y11592D01*
X-17593Y8048D02*
X-11687D01*
X-14358Y11841D02*
X-14122D01*
X-14358D02*
Y11959D01*
X-14122D01*
Y11841D02*
Y11959D01*
X-11498Y1220D02*
X-11081D01*
Y1440D01*
X-11498D02*
X-11081D01*
X-11498Y1220D02*
Y1440D01*
X-12185Y7799D02*
X-11949D01*
Y7681D02*
Y7799D01*
X-12185Y7681D02*
X-11949D01*
X-12185D02*
Y7799D01*
X-13751Y5212D02*
Y5448D01*
X-13869Y5212D02*
X-13751D01*
X-13869D02*
Y5448D01*
X-13751D01*
X-13320Y1741D02*
X-13100D01*
X-13320D02*
Y2159D01*
X-13100D01*
Y1741D02*
Y2159D01*
X-12762Y6041D02*
Y6159D01*
X-12998D02*
X-12762D01*
X-12998Y6041D02*
Y6159D01*
Y6041D02*
X-12762D01*
X-13818Y4771D02*
Y4889D01*
Y4771D02*
X-13582D01*
Y4889D01*
X-13818D02*
X-13582D01*
X-21412Y3241D02*
Y3359D01*
X-21648D02*
X-21412D01*
X-21648Y3241D02*
Y3359D01*
Y3241D02*
X-21412D01*
X-14558Y3681D02*
X-14322D01*
X-14558D02*
Y3799D01*
X-14322D01*
Y3681D02*
Y3799D01*
X-14548Y4061D02*
X-14312D01*
X-14548D02*
Y4179D01*
X-14312D01*
Y4061D02*
Y4179D01*
X-9978Y1261D02*
Y1379D01*
Y1261D02*
X-9742D01*
Y1379D01*
X-9978D02*
X-9742D01*
X-9909Y7711D02*
Y7829D01*
X-10145D02*
X-9909D01*
X-10145Y7711D02*
Y7829D01*
Y7711D02*
X-9909D01*
X-9232Y1545D02*
X-7972D01*
Y955D02*
Y1545D01*
X-9232Y955D02*
X-7972D01*
X-9232D02*
Y1545D01*
X-18288Y5961D02*
Y6079D01*
Y5961D02*
X-18052D01*
Y6079D01*
X-18288D02*
X-18052D01*
X-14972Y6121D02*
Y6239D01*
X-15208D02*
X-14972D01*
X-15208Y6121D02*
Y6239D01*
Y6121D02*
X-14972D01*
X-13715Y6525D02*
Y7155D01*
Y6525D02*
X-12455D01*
Y7155D01*
X-13715D02*
X-12455D01*
X-10785Y7721D02*
X-10549D01*
X-10785D02*
Y7839D01*
X-10549D01*
Y7721D02*
Y7839D01*
X-6840Y668D02*
X-5580D01*
X-6840D02*
Y1652D01*
X-5580D01*
Y668D02*
Y1652D01*
X-12239Y4788D02*
X-12121D01*
X-12239Y4552D02*
Y4788D01*
Y4552D02*
X-12121D01*
Y4788D01*
D48*
X-18450Y8360D02*
Y8650D01*
X-17930Y8360D02*
Y8660D01*
D49*
X-9840Y9510D02*
X-9490D01*
X-9850Y9500D02*
X-9480D01*
X-9860Y9490D02*
X-9470D01*
X-9870Y9480D02*
X-9460D01*
X-9880Y9470D02*
X-9450D01*
X-9890Y9460D02*
X-9440D01*
X-9900Y9450D02*
X-9430D01*
X-9910Y9440D02*
X-9420D01*
X-9910Y9430D02*
X-9420D01*
X-9910Y9420D02*
X-9420D01*
X-9910Y9410D02*
X-9820D01*
X-9510D02*
X-9420D01*
X-9910Y9400D02*
X-9820D01*
X-9510D02*
X-9420D01*
X-9910Y9390D02*
X-9820D01*
X-9510D02*
X-9420D01*
X-9910Y9380D02*
X-9820D01*
X-9510D02*
X-9420D01*
X-9910Y9370D02*
X-9820D01*
X-9510D02*
X-9420D01*
X-9910Y9360D02*
X-9820D01*
X-9510D02*
X-9420D01*
X-9910Y9350D02*
X-9820D01*
X-9510D02*
X-9420D01*
X-9910Y9340D02*
X-9820D01*
X-9510D02*
X-9420D01*
X-9910Y9330D02*
X-9820D01*
X-9910Y9320D02*
X-9820D01*
X-9910Y9310D02*
X-9820D01*
X-9740D02*
X-9590D01*
X-9340D02*
X-9190D01*
X-9130D01*
X-9910Y9300D02*
X-9820D01*
X-9740D02*
X-9590D01*
X-9340D02*
X-9190D01*
X-9130D01*
X-9910Y9290D02*
X-9820D01*
X-9740D02*
X-9590D01*
X-9340D02*
X-9190D01*
X-9130D01*
X-9910Y9280D02*
X-9820D01*
X-9740D02*
X-9590D01*
X-9340D02*
X-9190D01*
X-9130D01*
X-9910Y9270D02*
X-9820D01*
X-9740D02*
X-9590D01*
X-9340D02*
X-9190D01*
X-9130D01*
X-9910Y9260D02*
X-9820D01*
X-9740D02*
X-9590D01*
X-9340D02*
X-9190D01*
X-9130D01*
X-9910Y9250D02*
X-9820D01*
X-9740D02*
X-9590D01*
X-9340D02*
X-9190D01*
X-9130D01*
X-9910Y9240D02*
X-9820D01*
X-9740D02*
X-9590D01*
X-9340D02*
X-9190D01*
X-9130D01*
X-9910Y9230D02*
X-9820D01*
X-9740D02*
X-9590D01*
X-9340D02*
X-9190D01*
X-9130D01*
X-9910Y9220D02*
X-9820D01*
X-9740D02*
X-9590D01*
X-9340D02*
X-9190D01*
X-9130D01*
X-9910Y9210D02*
X-9820D01*
X-9680D02*
X-9590D01*
X-9340D02*
X-9130D01*
X-9910Y9200D02*
X-9820D01*
X-9680D02*
X-9590D01*
X-9340D02*
X-9130D01*
X-9910Y9190D02*
X-9820D01*
X-9680D02*
X-9590D01*
X-9510D02*
X-9420D01*
X-9340D02*
X-9130D01*
X-9910Y9180D02*
X-9820D01*
X-9680D02*
X-9590D01*
X-9510D02*
X-9420D01*
X-9340D02*
X-9130D01*
X-9910Y9170D02*
X-9820D01*
X-9680D02*
X-9590D01*
X-9510D02*
X-9420D01*
X-9340D02*
X-9130D01*
X-9910Y9160D02*
X-9820D01*
X-9680D02*
X-9590D01*
X-9510D02*
X-9420D01*
X-9340D02*
X-9190D01*
X-9910Y9150D02*
X-9820D01*
X-9680D02*
X-9590D01*
X-9510D02*
X-9420D01*
X-9340D02*
X-9190D01*
X-9910Y9140D02*
X-9820D01*
X-9680D02*
X-9590D01*
X-9510D02*
X-9420D01*
X-9340D02*
X-9190D01*
X-9910Y9130D02*
X-9820D01*
X-9680D02*
X-9590D01*
X-9510D02*
X-9420D01*
X-9340D02*
X-9190D01*
X-9910Y9120D02*
X-9820D01*
X-9680D02*
X-9590D01*
X-9510D02*
X-9420D01*
X-9340D02*
X-9190D01*
X-9910Y9110D02*
X-9420D01*
X-9340D02*
X-9190D01*
X-9910Y9100D02*
X-9420D01*
X-9340D02*
X-9190D01*
X-9910Y9090D02*
X-9420D01*
X-9340D02*
X-9190D01*
X-9910Y9080D02*
X-9430D01*
X-9340D02*
X-9190D01*
X-9910Y9070D02*
X-9440D01*
X-9340D02*
X-9190D01*
X-9900Y9060D02*
X-9450D01*
X-9340D02*
X-9190D01*
X-9890Y9050D02*
X-9460D01*
X-9340D02*
X-9190D01*
X-9880Y9040D02*
X-9470D01*
X-9340D02*
X-9190D01*
X-9870Y9030D02*
X-9480D01*
X-9340D02*
X-9190D01*
X-9860Y9020D02*
X-9490D01*
X-9340D02*
X-9190D01*
X-9680Y9010D02*
X-9590D01*
X-9340D02*
X-9190D01*
X-9680Y9000D02*
X-9590D01*
X-9340D02*
X-9190D01*
X-9680Y8990D02*
X-9590D01*
X-9340D02*
X-9190D01*
X-9680Y8980D02*
X-9590D01*
X-9340D02*
X-9190D01*
X-9680Y8970D02*
X-9590D01*
X-9340D02*
X-9190D01*
X-9680Y8960D02*
X-9590D01*
X-9340D02*
X-9190D01*
X-9680Y8950D02*
X-9590D01*
X-9340D02*
X-9190D01*
X-9680Y8940D02*
X-9590D01*
X-9340D02*
X-9190D01*
X-9680Y8930D02*
X-9590D01*
X-9340D02*
X-9190D01*
X-9680Y8920D02*
X-9590D01*
X-9340D02*
X-9190D01*
X-9680Y8910D02*
X-9190D01*
X-9680Y8900D02*
X-9190D01*
X-9680Y8890D02*
X-9190D01*
X-9670Y8880D02*
X-9200D01*
X-9660Y8870D02*
X-9210D01*
X-9650Y8860D02*
X-9220D01*
X-9640Y8850D02*
X-9230D01*
X-9630Y8840D02*
X-9240D01*
X-9620Y8830D02*
X-9250D01*
X-9610Y8820D02*
X-9260D01*
X-27610Y4820D02*
X-25160D01*
Y70D02*
Y4820D01*
X-10Y4870D02*
X2490D01*
Y8020D01*
X40D02*
X2490D01*
X40D02*
Y12670D01*
X-27660Y4870D02*
X-27610Y4820D01*
X-27660Y4870D02*
Y7930D01*
X-27620Y7970D01*
X-25190D01*
X-25160D01*
Y12620D01*
X-25110Y12670D02*
X40D01*
X-10Y170D02*
Y4870D01*
X-160Y20D02*
X-10Y170D01*
X-25160Y70D02*
X-25110Y20D01*
X-25160Y12620D02*
X-25110Y12670D01*
D50*
X-16600Y3879D02*
G03*
X-16840Y3871I-120J-4D01*
G01*
X-1734Y6212D02*
G03*
X-1734Y6212I-100J0D01*
G01*
X-15760Y2365D02*
G03*
X-15760Y2365I-32J0D01*
G01*
X-21290Y11160D02*
Y11540D01*
X-21480D02*
X-21290D01*
X-21480Y11160D02*
X-21290D01*
X-20990D02*
Y11540D01*
Y11160D02*
X-20800D01*
X-20990Y11540D02*
X-20800D01*
X-21290Y11160D02*
X-20990D01*
X-20800D02*
Y11540D01*
X-21290D02*
X-20990D01*
X-21480Y11160D02*
Y11540D01*
D79*
X-16810Y-118D02*
G03*
X-16737Y74I-200J187D01*
G01*
X-13823Y74D02*
G03*
X-13750Y-118I286J0D01*
G01*
X-16626Y57D02*
G03*
X-16444Y-119I179J3D01*
G01*
X-14116D02*
G03*
X-13934Y57I3J179D01*
G01*
X-11420Y6721D02*
G03*
X-11420Y6721I-43J0D01*
G01*
X-16737Y2042D02*
X-16067D01*
X-14493D02*
X-13823D01*
Y1416D02*
Y2042D01*
Y74D02*
Y408D01*
X-16626Y74D02*
X-13823D01*
X-16737D02*
X-16626D01*
X-16737D02*
Y408D01*
Y1416D02*
Y2042D01*
X-16445Y-119D02*
X-14115D01*
X-23139Y4088D02*
Y5032D01*
X-11288Y7091D02*
X-6170D01*
X-11288Y1973D02*
Y7091D01*
Y1973D02*
X-6170D01*
Y7091D01*
D80*
X-23767Y10233D02*
G03*
X-23767Y10233I-20J0D01*
G01*
D81*
X-8200Y8900D02*
X-7970D01*
X-8990Y9320D02*
X-8690D01*
X-7890D02*
X-7830D01*
X-7510D02*
X-7450D01*
X-8990Y9300D02*
X-8670D01*
X-7890D02*
X-7830D01*
X-7510D02*
X-7450D01*
X-8990Y9280D02*
X-8930D01*
X-8750D02*
X-8650D01*
X-7890D02*
X-7830D01*
X-7510D02*
X-7450D01*
X-8990Y9260D02*
X-8930D01*
X-8730D02*
X-8650D01*
X-7890D02*
X-7830D01*
X-7510D02*
X-7450D01*
X-8990Y9240D02*
X-8930D01*
X-8710D02*
X-8630D01*
X-7890D02*
X-7830D01*
X-7510D02*
X-7450D01*
X-8990Y9220D02*
X-8930D01*
X-8710D02*
X-8630D01*
X-8490D02*
X-8370D01*
X-7890D02*
X-7830D01*
X-7690D02*
X-7570D01*
X-7510D02*
X-7450D01*
X-7310D02*
X-7190D01*
X-6950D02*
X-6870D01*
X-8990Y9200D02*
X-8930D01*
X-8710D02*
X-8650D01*
X-8530D02*
X-8330D01*
X-8230D02*
X-8170D01*
X-7990D02*
X-7930D01*
X-7890D02*
X-7830D01*
X-7710D02*
X-7530D01*
X-7510D02*
X-7450D01*
X-7350D02*
X-7150D01*
X-7070D02*
X-7010D01*
X-6980D02*
X-6870D01*
X-8990Y9180D02*
X-8930D01*
X-8730D02*
X-8650D01*
X-8550D02*
X-8310D01*
X-8230D02*
X-8170D01*
X-7990D02*
X-7930D01*
X-7890D02*
X-7830D01*
X-7730D02*
X-7450D01*
X-7370D02*
X-7130D01*
X-7070D02*
X-6870D01*
X-8990Y9160D02*
X-8930D01*
X-8750D02*
X-8650D01*
X-8570D02*
X-8470D01*
X-8390D02*
X-8290D01*
X-8230D02*
X-8170D01*
X-7990D02*
X-7930D01*
X-7890D02*
X-7830D01*
X-7750D02*
X-7670D01*
X-7570D02*
X-7450D01*
X-7390D02*
X-7290D01*
X-7210D02*
X-7130D01*
X-7070D02*
X-6910D01*
X-8990Y9140D02*
X-8670D01*
X-8570D02*
X-8510D01*
X-8370D02*
X-8290D01*
X-8230D02*
X-8170D01*
X-7990D02*
X-7930D01*
X-7890D02*
X-7830D01*
X-7770D02*
X-7690D01*
X-7550D02*
X-7450D01*
X-7390D02*
X-7310D01*
X-7190D02*
X-7110D01*
X-7070D02*
X-6950D01*
X-8990Y9120D02*
X-8690D01*
X-8590D02*
X-8510D01*
X-8350D02*
X-8270D01*
X-8230D02*
X-8170D01*
X-7990D02*
X-7930D01*
X-7890D02*
X-7830D01*
X-7770D02*
X-7690D01*
X-7530D02*
X-7450D01*
X-7410D02*
X-7330D01*
X-7170D02*
X-7110D01*
X-7070D02*
X-6970D01*
X-8990Y9100D02*
X-8650D01*
X-8590D02*
X-8530D01*
X-8330D02*
X-8270D01*
X-8230D02*
X-8170D01*
X-7990D02*
X-7930D01*
X-7890D02*
X-7830D01*
X-7770D02*
X-7710D01*
X-7530D02*
X-7450D01*
X-7410D02*
X-7350D01*
X-7170D02*
X-7110D01*
X-7070D02*
X-6990D01*
X-8990Y9080D02*
X-8930D01*
X-8750D02*
X-8650D01*
X-8590D02*
X-8530D01*
X-8330D02*
X-8270D01*
X-8230D02*
X-8170D01*
X-7990D02*
X-7930D01*
X-7890D02*
X-7830D01*
X-7770D02*
X-7710D01*
X-7510D02*
X-7450D01*
X-7410D02*
X-7350D01*
X-7170D02*
X-7090D01*
X-7070D02*
X-6990D01*
X-8990Y9060D02*
X-8930D01*
X-8710D02*
X-8630D01*
X-8590D02*
X-8530D01*
X-8330D02*
X-8270D01*
X-8230D02*
X-8170D01*
X-7990D02*
X-7930D01*
X-7890D02*
X-7830D01*
X-7770D02*
X-7710D01*
X-7510D02*
X-7450D01*
X-7410D02*
X-7090D01*
X-7070D02*
X-7010D01*
X-8990Y9040D02*
X-8930D01*
X-8690D02*
X-8630D01*
X-8590D02*
X-8530D01*
X-8330D02*
X-8270D01*
X-8230D02*
X-8170D01*
X-7990D02*
X-7930D01*
X-7890D02*
X-7830D01*
X-7770D02*
X-7710D01*
X-7510D02*
X-7450D01*
X-7410D02*
X-7090D01*
X-7070D02*
X-7010D01*
X-8990Y9020D02*
X-8930D01*
X-8690D02*
X-8630D01*
X-8590D02*
X-8530D01*
X-8330D02*
X-8270D01*
X-8230D02*
X-8170D01*
X-7990D02*
X-7930D01*
X-7890D02*
X-7830D01*
X-7770D02*
X-7710D01*
X-7510D02*
X-7450D01*
X-7410D02*
X-7350D01*
X-7070D02*
X-7010D01*
X-8990Y9000D02*
X-8930D01*
X-8690D02*
X-8630D01*
X-8590D02*
X-8530D01*
X-8330D02*
X-8270D01*
X-8230D02*
X-8170D01*
X-8010D02*
X-7930D01*
X-7890D02*
X-7830D01*
X-7770D02*
X-7710D01*
X-7510D02*
X-7450D01*
X-7410D02*
X-7350D01*
X-7070D02*
X-7010D01*
X-8990Y8980D02*
X-8930D01*
X-8690D02*
X-8630D01*
X-8590D02*
X-8530D01*
X-8350D02*
X-8270D01*
X-8230D02*
X-8170D01*
X-8010D02*
X-7930D01*
X-7890D02*
X-7830D01*
X-7770D02*
X-7710D01*
X-7530D02*
X-7450D01*
X-7410D02*
X-7330D01*
X-7170D02*
X-7090D01*
X-7070D02*
X-7010D01*
X-8990Y8960D02*
X-8930D01*
X-8710D02*
X-8630D01*
X-8590D02*
X-8510D01*
X-8350D02*
X-8270D01*
X-8230D02*
X-8150D01*
X-8010D02*
X-7930D01*
X-7890D02*
X-7830D01*
X-7770D02*
X-7690D01*
X-7530D02*
X-7450D01*
X-7410D02*
X-7330D01*
X-7170D02*
X-7110D01*
X-7070D02*
X-7010D01*
X-8990Y8940D02*
X-8930D01*
X-8730D02*
X-8630D01*
X-8570D02*
X-8490D01*
X-8370D02*
X-8290D01*
X-8210D02*
X-8150D01*
X-8030D02*
X-7930D01*
X-7890D02*
X-7830D01*
X-7750D02*
X-7670D01*
X-7550D02*
X-7450D01*
X-7390D02*
X-7310D01*
X-7190D02*
X-7110D01*
X-7070D02*
X-7010D01*
X-8990Y8920D02*
X-8650D01*
X-8570D02*
X-8450D01*
X-8410D02*
X-8290D01*
X-8210D02*
X-8110D01*
X-8070D02*
X-7930D01*
X-7890D02*
X-7830D01*
X-7750D02*
X-7650D01*
X-7590D02*
X-7450D01*
X-7390D02*
X-7270D01*
X-7230D02*
X-7130D01*
X-7070D02*
X-7010D01*
X-8990Y8900D02*
X-8670D01*
X-8550D02*
X-8310D01*
X-7890D02*
X-7830D01*
X-7730D02*
X-7450D01*
X-7370D02*
X-7130D01*
X-7070D02*
X-7010D01*
X-8990Y8880D02*
X-8710D01*
X-8510D02*
X-8350D01*
X-8170D02*
X-8010D01*
X-7890D02*
X-7830D01*
X-7710D02*
X-7550D01*
X-7510D02*
X-7450D01*
X-7330D02*
X-7170D01*
X-7070D02*
X-7010D01*
M02*
