M48
;Layer_Color=9474304
;FILE_FORMAT=2:4
INCH,LZ
;TYPE=PLATED
T1F00S00C0.0100
T2F00S00C0.0120
T3F00S00C0.0150
T4F00S00C0.0200
T5F00S00C0.0280
T6F00S00C0.0300
T7F00S00C0.0400
T8F00S00C0.0402
T9F00S00C0.0520
;TYPE=NON_PLATED
T10F00S00C0.0256
T11F00S00C0.1040
%
T01
X-01238Y00855
X-01184
X-01185Y00909
X-01238Y00911
X-01489Y00907
X-01487Y0086
X-0154Y00857
Y00905
X-0159Y00906
X-01641
X-0169
Y00957
X-01641
X-01638Y01007
X-01589
X-01539
Y00955
X-01588Y00956
X-01488Y00957
X-01487Y0101
X-0149Y01056
X-01492Y01108
X-0159Y01057
X-01638
X-01691Y01007
X-0139Y01008
X-01389Y01057
X-01341
X-0134Y01008
X-01338Y00957
X-01288
Y01006
X-01289Y01056
X-01238Y00957
X-01183
X-01389
X-0139Y01107
T02
X-01436Y00587
X-01364Y00614
X-01338Y00522
X-01223Y00611
X-01166Y00453
X-01115Y00492
X-0103Y00414
X-00951Y004525
X-00912Y00414
X-00873Y00453
X-00834Y00454
Y00493
Y00532
X-00873
X-00874Y00494
X-00913Y00493
X-00912Y00532
X-00952Y00573
X-00993Y00697
X-00953Y003731
X-00913Y00296
X-00834Y00295
Y00413
X-00628Y003716
X-0063Y003
X-00755Y00211
X-00991Y00256
X-0107Y00296
X-011698Y003408
X-00373Y00193
X-0017Y00294
X-00488Y00609
X-02446Y006
X-02196Y00907
X-01741Y01104
T03
X-01049Y00133
X-00722
X-01288Y00907
X-0134Y00906
X-01339Y00857
X-01391Y00856
X-01389Y00907
X-01593Y00856
X-01689Y00857
X-01741Y00889
X-0182Y0074
X-02148Y00951
X-02351Y00799
X-02417Y00952
Y00983
X-022043Y009683
X-02209Y01042
X-02188Y01107
X-02032Y01128
X-02336Y0114
X-01742Y01055
X-01689Y01056
Y01107
X-0124Y01108
X-01188
Y01057
X-01239Y01056
T04
X-00351Y00688
X-00301Y00689
X-0157Y00619
X-01763Y00624
X-01711Y00755
X-01493Y0046
X-02205Y00377
X-02243Y00256
X-02223Y00097
X-02228Y00657
X-02138
X-02201Y00819
X-02283Y00798
X-02422Y00801
X-02361Y01051
X-01857Y01108
T05
X-01388Y00248
X-0019Y009
X-0014
Y0095
X-0019
X-01721Y00164
X-0019Y01
X-0014
T06
X-01225Y00134
T07
X-0038Y00125
X-00925Y01125
X-01025
X-01125
T08
X-0048Y00125
X-0028
X-006Y0088
Y0098
Y0108
X-00255Y01125
T09
X-01971Y00246
Y00746
X-02321Y00646
X-01471Y00746
X-01821Y00996
T10
X-014493Y001806
X-016067
T11
X00118Y00646
X-02632
M30
