G04 Layer_Color=8421504*
%FSLAX24Y24*%
%MOIN*%
G70*
G01*
G75*
%ADD10R,0.0213X0.0236*%
%ADD11R,0.0236X0.0213*%
%ADD12R,0.0900X0.0900*%
%ADD13R,0.0750X0.0220*%
%ADD14R,0.0217X0.0591*%
%ADD15R,0.0591X0.0217*%
%ADD16R,0.0134X0.0142*%
%ADD17R,0.0157X0.0551*%
%ADD18R,0.0906X0.0748*%
%ADD19R,0.0591X0.0512*%
%ADD20R,0.0142X0.0134*%
%ADD21R,0.0612X0.0657*%
%ADD22R,0.2205X0.0610*%
%ADD23C,0.0240*%
%ADD24R,0.0709X0.0472*%
%ADD25R,0.0610X0.0236*%
%ADD26R,0.0260X0.0370*%
%ADD27R,0.0236X0.0610*%
%ADD28R,0.0472X0.0709*%
%ADD29R,0.0657X0.0612*%
%ADD30R,0.0138X0.0079*%
%ADD31R,0.0433X0.0748*%
%ADD32R,0.0646X0.0937*%
%ADD33R,0.0331X0.0106*%
%ADD34R,0.0453X0.0717*%
%ADD35R,0.0394X0.0354*%
%ADD36R,0.0217X0.0669*%
%ADD37R,0.0551X0.0394*%
%ADD38R,0.0450X0.0350*%
%ADD39C,0.0177*%
%ADD40C,0.0060*%
%ADD41C,0.0100*%
%ADD45C,0.0080*%
%ADD46C,0.0094*%
%ADD47C,0.0050*%
%ADD48C,0.0040*%
%ADD49C,0.0010*%
%ADD50C,0.0000*%
G36*
X-14912Y11870D02*
X-14951D01*
Y11949D01*
X-14912D01*
Y11870D01*
D02*
G37*
G36*
X-15109Y11870D02*
X-15149D01*
Y11949D01*
X-15109D01*
Y11870D01*
D02*
G37*
G36*
X-14121Y11861D02*
X-14161D01*
Y11940D01*
X-14121D01*
Y11861D01*
D02*
G37*
G36*
X-14319D02*
X-14358D01*
Y11940D01*
X-14319D01*
Y11861D01*
D02*
G37*
G36*
X-24102Y10121D02*
X-24141D01*
Y10200D01*
X-24102D01*
Y10121D01*
D02*
G37*
G36*
X-24299D02*
X-24338D01*
Y10200D01*
X-24299D01*
Y10121D01*
D02*
G37*
G36*
X-22883Y9345D02*
X-23320D01*
Y9979D01*
X-22883D01*
Y9345D01*
D02*
G37*
G36*
X-17904Y8645D02*
X-18475D01*
Y8940D01*
X-17904D01*
Y8645D01*
D02*
G37*
G36*
X-22851Y8601D02*
X-22891D01*
Y8680D01*
X-22851D01*
Y8601D01*
D02*
G37*
G36*
X-23049D02*
X-23088D01*
Y8680D01*
X-23049D01*
Y8601D01*
D02*
G37*
G36*
X-23522D02*
X-23561D01*
Y8680D01*
X-23522D01*
Y8601D01*
D02*
G37*
G36*
X-23719D02*
X-23758D01*
Y8680D01*
X-23719D01*
Y8601D01*
D02*
G37*
G36*
X-17904Y8075D02*
X-18476D01*
Y8370D01*
X-17904D01*
Y8075D01*
D02*
G37*
G36*
X-10549Y7741D02*
X-10588D01*
Y7820D01*
X-10549D01*
Y7741D01*
D02*
G37*
G36*
X-10746D02*
X-10785D01*
Y7820D01*
X-10746D01*
Y7741D01*
D02*
G37*
G36*
X-9909Y7731D02*
X-9948D01*
Y7810D01*
X-9909D01*
Y7731D01*
D02*
G37*
G36*
X-10106D02*
X-10145D01*
Y7810D01*
X-10106D01*
Y7731D01*
D02*
G37*
G36*
X-16502Y7710D02*
X-16541D01*
Y7789D01*
X-16502D01*
Y7710D01*
D02*
G37*
G36*
X-16698Y7710D02*
X-16738D01*
Y7789D01*
X-16698D01*
Y7710D01*
D02*
G37*
G36*
X-11949Y7700D02*
X-11988D01*
Y7779D01*
X-11949D01*
Y7700D01*
D02*
G37*
G36*
X-12952D02*
X-12991D01*
Y7779D01*
X-12952D01*
Y7700D01*
D02*
G37*
G36*
X-12146Y7700D02*
X-12186D01*
Y7779D01*
X-12146D01*
Y7700D01*
D02*
G37*
G36*
X-13149D02*
X-13189D01*
Y7779D01*
X-13149D01*
Y7700D01*
D02*
G37*
G36*
X-14972Y6141D02*
X-15012D01*
Y6220D01*
X-14972D01*
Y6141D01*
D02*
G37*
G36*
X-15169D02*
X-15208D01*
Y6220D01*
X-15169D01*
Y6141D01*
D02*
G37*
G36*
X-12761Y6061D02*
X-12801D01*
Y6140D01*
X-12761D01*
Y6061D01*
D02*
G37*
G36*
X-12959D02*
X-12998D01*
Y6140D01*
X-12959D01*
Y6061D01*
D02*
G37*
G36*
X-18052Y5980D02*
X-18091D01*
Y6059D01*
X-18052D01*
Y5980D01*
D02*
G37*
G36*
X-18249Y5980D02*
X-18289D01*
Y6059D01*
X-18249D01*
Y5980D01*
D02*
G37*
G36*
X-2118Y5820D02*
X-2297D01*
Y6211D01*
X-2118D01*
Y5820D01*
D02*
G37*
G36*
X-2433D02*
X-2611D01*
Y6216D01*
X-2433D01*
Y5820D01*
D02*
G37*
G36*
X-2748D02*
X-2927D01*
Y6215D01*
X-2748D01*
Y5820D01*
D02*
G37*
G36*
X-3063D02*
X-3242D01*
Y6213D01*
X-3063D01*
Y5820D01*
D02*
G37*
G36*
X-3377D02*
X-3558D01*
Y6214D01*
X-3377D01*
Y5820D01*
D02*
G37*
G36*
X-3692D02*
X-3874D01*
Y6215D01*
X-3692D01*
Y5820D01*
D02*
G37*
G36*
X-4007D02*
X-4189D01*
Y6213D01*
X-4007D01*
Y5820D01*
D02*
G37*
G36*
X-4322D02*
X-4506D01*
Y6215D01*
X-4322D01*
Y5820D01*
D02*
G37*
G36*
X-12772Y5601D02*
X-12811D01*
Y5680D01*
X-12772D01*
Y5601D01*
D02*
G37*
G36*
X-12969D02*
X-13008D01*
Y5680D01*
X-12969D01*
Y5601D01*
D02*
G37*
G36*
X-1540Y5452D02*
X-1927D01*
Y5635D01*
X-1540D01*
Y5452D01*
D02*
G37*
G36*
X-4690D02*
X-5086D01*
Y5636D01*
X-4690D01*
Y5452D01*
D02*
G37*
G36*
X-13771Y5409D02*
X-13850D01*
Y5449D01*
X-13771D01*
Y5409D01*
D02*
G37*
G36*
Y5212D02*
X-13850D01*
Y5251D01*
X-13771D01*
Y5212D01*
D02*
G37*
G36*
X-12771Y5141D02*
X-12811D01*
Y5220D01*
X-12771D01*
Y5141D01*
D02*
G37*
G36*
X-12969D02*
X-13008D01*
Y5220D01*
X-12969D01*
Y5141D01*
D02*
G37*
G36*
X-1540Y5137D02*
X-1927D01*
Y5319D01*
X-1540D01*
Y5137D01*
D02*
G37*
G36*
X-4690D02*
X-5083D01*
Y5318D01*
X-4690D01*
Y5137D01*
D02*
G37*
G36*
X-1540Y4822D02*
X-1929D01*
Y5003D01*
X-1540D01*
Y4822D01*
D02*
G37*
G36*
X-4690D02*
X-5085D01*
Y5004D01*
X-4690D01*
Y4822D01*
D02*
G37*
G36*
X-13582Y4790D02*
X-13621D01*
Y4869D01*
X-13582D01*
Y4790D01*
D02*
G37*
G36*
X-13779Y4790D02*
X-13819D01*
Y4869D01*
X-13779D01*
Y4790D01*
D02*
G37*
G36*
X-12141Y4749D02*
X-12220D01*
Y4789D01*
X-12141D01*
Y4749D01*
D02*
G37*
G36*
X-12791Y4741D02*
X-12831D01*
Y4820D01*
X-12791D01*
Y4741D01*
D02*
G37*
G36*
X-12989D02*
X-13028D01*
Y4820D01*
X-12989D01*
Y4741D01*
D02*
G37*
G36*
X-12141Y4552D02*
X-12220D01*
Y4591D01*
X-12141D01*
Y4552D01*
D02*
G37*
G36*
X-1540Y4507D02*
X-1925D01*
Y4688D01*
X-1540D01*
Y4507D01*
D02*
G37*
G36*
X-4690D02*
X-5084D01*
Y4688D01*
X-4690D01*
Y4507D01*
D02*
G37*
G36*
X-1540Y4193D02*
X-1929D01*
Y4372D01*
X-1540D01*
Y4193D01*
D02*
G37*
G36*
X-4690D02*
X-5084D01*
Y4372D01*
X-4690D01*
Y4193D01*
D02*
G37*
G36*
X-14311Y4081D02*
X-14351D01*
Y4160D01*
X-14311D01*
Y4081D01*
D02*
G37*
G36*
X-14509D02*
X-14548D01*
Y4160D01*
X-14509D01*
Y4081D01*
D02*
G37*
G36*
X-1540Y3878D02*
X-1926D01*
Y4057D01*
X-1540D01*
Y3878D01*
D02*
G37*
G36*
X-4690D02*
X-5084D01*
Y4057D01*
X-4690D01*
Y3878D01*
D02*
G37*
G36*
X-14321Y3701D02*
X-14361D01*
Y3780D01*
X-14321D01*
Y3701D01*
D02*
G37*
G36*
X-14519D02*
X-14558D01*
Y3780D01*
X-14519D01*
Y3701D01*
D02*
G37*
G36*
X-1540Y3563D02*
X-1927D01*
Y3741D01*
X-1540D01*
Y3563D01*
D02*
G37*
G36*
X-4690D02*
X-5085D01*
Y3741D01*
X-4690D01*
Y3563D01*
D02*
G37*
G36*
X-12192Y3315D02*
X-12423D01*
Y3494D01*
X-12192D01*
Y3315D01*
D02*
G37*
G36*
X-21412Y3261D02*
X-21451D01*
Y3340D01*
X-21412D01*
Y3261D01*
D02*
G37*
G36*
X-21609D02*
X-21648D01*
Y3340D01*
X-21609D01*
Y3261D01*
D02*
G37*
G36*
X-1540Y3248D02*
X-1926D01*
Y3425D01*
X-1540D01*
Y3248D01*
D02*
G37*
G36*
X-4690D02*
X-5086D01*
Y3424D01*
X-4690D01*
Y3248D01*
D02*
G37*
G36*
X-12983Y2944D02*
X-12984D01*
Y2944D01*
X-12984D01*
Y2944D01*
X-12984D01*
Y2944D01*
X-12984D01*
Y2944D01*
X-12984D01*
Y2944D01*
X-13213D01*
Y2944D01*
Y2944D01*
Y2944D01*
Y3124D01*
X-12983D01*
Y2944D01*
D02*
G37*
G36*
X-2118Y2670D02*
X-2295D01*
Y3056D01*
X-2118D01*
Y2670D01*
D02*
G37*
G36*
X-2433D02*
X-2611D01*
Y3057D01*
X-2433D01*
Y2670D01*
D02*
G37*
G36*
X-2748D02*
X-2927D01*
Y3056D01*
X-2748D01*
Y2670D01*
D02*
G37*
G36*
X-3063D02*
X-3242D01*
Y3057D01*
X-3063D01*
Y2670D01*
D02*
G37*
G36*
X-3377D02*
X-3558D01*
Y3056D01*
X-3377D01*
Y2670D01*
D02*
G37*
G36*
X-3692D02*
X-3874D01*
Y3056D01*
X-3692D01*
Y2670D01*
D02*
G37*
G36*
X-4007D02*
X-4190D01*
Y3056D01*
X-4007D01*
Y2670D01*
D02*
G37*
G36*
X-4322D02*
X-4503D01*
Y3059D01*
X-4322D01*
Y2670D01*
D02*
G37*
G36*
X-12192Y2573D02*
X-12423D01*
Y2754D01*
X-12192D01*
Y2573D01*
D02*
G37*
G36*
X-17001Y2379D02*
X-17080D01*
Y2419D01*
X-17001D01*
Y2379D01*
D02*
G37*
G36*
Y2182D02*
X-17080D01*
Y2221D01*
X-17001D01*
Y2182D01*
D02*
G37*
G36*
X-12661Y1919D02*
X-12740D01*
Y1958D01*
X-12661D01*
Y1919D01*
D02*
G37*
G36*
Y1722D02*
X-12740D01*
Y1761D01*
X-12661D01*
Y1722D01*
D02*
G37*
G36*
X-9742Y1280D02*
X-9781D01*
Y1359D01*
X-9742D01*
Y1280D01*
D02*
G37*
G36*
X-9939Y1280D02*
X-9979D01*
Y1359D01*
X-9939D01*
Y1280D01*
D02*
G37*
D10*
X-18339Y11630D02*
D03*
X-18001D02*
D03*
X-16590Y2380D02*
D03*
X-16251D02*
D03*
X-19180Y11280D02*
D03*
X-19519D02*
D03*
X-22359Y8680D02*
D03*
X-22021D02*
D03*
X-23070Y2900D02*
D03*
X-23409D02*
D03*
X-11120Y1330D02*
D03*
X-11459D02*
D03*
D11*
X-11060Y9871D02*
D03*
Y10209D02*
D03*
X-14380Y5399D02*
D03*
Y5060D02*
D03*
X-24230Y8831D02*
D03*
Y9169D02*
D03*
X-13210Y1781D02*
D03*
Y2119D02*
D03*
D12*
X-16720Y4860D02*
D03*
D13*
X-17700Y4110D02*
D03*
Y4610D02*
D03*
Y5110D02*
D03*
Y5610D02*
D03*
X-15740D02*
D03*
Y5110D02*
D03*
Y4610D02*
D03*
Y4110D02*
D03*
D14*
X-2208Y6133D02*
D03*
X-2523D02*
D03*
X-2838D02*
D03*
X-3153D02*
D03*
X-3467D02*
D03*
X-3782D02*
D03*
X-4097D02*
D03*
X-4412D02*
D03*
Y2747D02*
D03*
X-4097D02*
D03*
X-3782D02*
D03*
X-3467D02*
D03*
X-3153D02*
D03*
X-2838D02*
D03*
X-2523D02*
D03*
X-2208D02*
D03*
D15*
X-5003Y5542D02*
D03*
Y5227D02*
D03*
Y4912D02*
D03*
Y4597D02*
D03*
Y4283D02*
D03*
Y3968D02*
D03*
Y3653D02*
D03*
Y3338D02*
D03*
X-1617D02*
D03*
Y3653D02*
D03*
Y3968D02*
D03*
Y4283D02*
D03*
Y4597D02*
D03*
Y4912D02*
D03*
Y5227D02*
D03*
Y5542D02*
D03*
D16*
X-13000Y5640D02*
D03*
X-12780D02*
D03*
X-13020Y4780D02*
D03*
X-12800D02*
D03*
X-12780Y5180D02*
D03*
X-13000D02*
D03*
X-24330Y10160D02*
D03*
X-24110D02*
D03*
X-22860Y8640D02*
D03*
X-23080D02*
D03*
X-23530D02*
D03*
X-23750D02*
D03*
X-15140Y11910D02*
D03*
X-14920D02*
D03*
X-16510Y7750D02*
D03*
X-16730D02*
D03*
X-12960Y7740D02*
D03*
X-13180D02*
D03*
X-14130Y11900D02*
D03*
X-14350D02*
D03*
X-12177Y7740D02*
D03*
X-11957D02*
D03*
X-12990Y6100D02*
D03*
X-12770D02*
D03*
X-13590Y4830D02*
D03*
X-13810D02*
D03*
X-21640Y3300D02*
D03*
X-21420D02*
D03*
X-14550Y3740D02*
D03*
X-14540Y4120D02*
D03*
X-9750Y1320D02*
D03*
X-9970D02*
D03*
X-10137Y7770D02*
D03*
X-9917D02*
D03*
X-18060Y6020D02*
D03*
X-18280D02*
D03*
X-15200Y6180D02*
D03*
X-14980D02*
D03*
X-10557Y7780D02*
D03*
X-10777D02*
D03*
X-14320Y4120D02*
D03*
X-14330Y3740D02*
D03*
D17*
X-15792Y2003D02*
D03*
X-15536D02*
D03*
X-15280D02*
D03*
X-15024D02*
D03*
X-14768D02*
D03*
D18*
X-16756Y920D02*
D03*
X-13804D02*
D03*
D19*
X-18190Y8136D02*
D03*
Y8884D02*
D03*
D20*
X-12700Y1730D02*
D03*
Y1950D02*
D03*
X-17040Y2410D02*
D03*
Y2190D02*
D03*
X-13810Y5440D02*
D03*
Y5220D02*
D03*
X-12180Y4560D02*
D03*
Y4780D02*
D03*
D21*
X-24050Y11180D02*
D03*
X-22542D02*
D03*
D22*
X-20110Y8895D02*
D03*
Y10470D02*
D03*
D23*
X-17140Y8320D02*
D03*
Y8820D02*
D03*
Y9320D02*
D03*
Y9820D02*
D03*
Y10320D02*
D03*
Y10820D02*
D03*
Y11320D02*
D03*
X-16640Y8320D02*
D03*
X-16140D02*
D03*
X-15640D02*
D03*
X-15140D02*
D03*
X-14640D02*
D03*
X-14140D02*
D03*
X-13640D02*
D03*
X-13140D02*
D03*
X-12640D02*
D03*
X-12140D02*
D03*
X-16640Y8820D02*
D03*
Y9320D02*
D03*
Y9820D02*
D03*
Y10320D02*
D03*
Y10820D02*
D03*
Y11320D02*
D03*
X-16140Y8820D02*
D03*
Y9320D02*
D03*
Y9820D02*
D03*
Y10320D02*
D03*
Y10820D02*
D03*
Y11320D02*
D03*
X-15640Y8820D02*
D03*
Y9320D02*
D03*
Y9820D02*
D03*
Y10320D02*
D03*
Y10820D02*
D03*
Y11320D02*
D03*
X-15140Y8820D02*
D03*
Y9320D02*
D03*
Y9820D02*
D03*
Y10320D02*
D03*
Y10820D02*
D03*
Y11320D02*
D03*
X-14640Y8820D02*
D03*
Y9320D02*
D03*
Y9820D02*
D03*
Y10320D02*
D03*
Y10820D02*
D03*
Y11320D02*
D03*
X-14140Y8820D02*
D03*
Y9320D02*
D03*
Y9820D02*
D03*
Y10320D02*
D03*
Y10820D02*
D03*
Y11320D02*
D03*
X-13640Y8820D02*
D03*
Y9320D02*
D03*
Y9820D02*
D03*
Y10320D02*
D03*
Y10820D02*
D03*
Y11320D02*
D03*
X-13140Y8820D02*
D03*
Y9320D02*
D03*
Y9820D02*
D03*
Y10320D02*
D03*
Y10820D02*
D03*
Y11320D02*
D03*
X-12640Y8820D02*
D03*
Y9320D02*
D03*
Y9820D02*
D03*
Y10320D02*
D03*
Y10820D02*
D03*
Y11320D02*
D03*
X-12140Y8820D02*
D03*
Y9320D02*
D03*
Y9820D02*
D03*
Y10320D02*
D03*
Y10820D02*
D03*
Y11320D02*
D03*
D24*
X-24118Y901D02*
D03*
Y2319D02*
D03*
D25*
X-22592Y1413D02*
D03*
Y1807D02*
D03*
D26*
X-21420Y11350D02*
D03*
X-20860D02*
D03*
D27*
X-19363Y5828D02*
D03*
X-19756Y5828D02*
D03*
X-21633Y5798D02*
D03*
X-22026Y5798D02*
D03*
D28*
X-18860Y4870D02*
D03*
X-20234D02*
D03*
X-21130Y4840D02*
D03*
X-22504D02*
D03*
D29*
X-21160Y2580D02*
D03*
Y1072D02*
D03*
X-18240Y2584D02*
D03*
Y1076D02*
D03*
D30*
X-9490Y7703D02*
D03*
Y7860D02*
D03*
D31*
X-8110Y1250D02*
D03*
X-9094D02*
D03*
D32*
X-23087Y9683D02*
D03*
D33*
X-22520Y10077D02*
D03*
Y9880D02*
D03*
Y9683D02*
D03*
Y9486D02*
D03*
Y9289D02*
D03*
X-23654D02*
D03*
Y9486D02*
D03*
Y9683D02*
D03*
Y9880D02*
D03*
Y10077D02*
D03*
D34*
X-13670Y6840D02*
D03*
X-12501D02*
D03*
D35*
X-24005Y3753D02*
D03*
X-23375D02*
D03*
Y5367D02*
D03*
X-24005D02*
D03*
D36*
X-24251Y4560D02*
D03*
D37*
X-12270Y2660D02*
D03*
Y3408D02*
D03*
X-13136Y3034D02*
D03*
D38*
X-5710Y760D02*
D03*
X-6710D02*
D03*
X-5710Y1560D02*
D03*
X-6710D02*
D03*
D39*
X-10895Y6697D02*
D03*
X-10501D02*
D03*
X-10107D02*
D03*
X-9714D02*
D03*
X-9320D02*
D03*
X-8926D02*
D03*
X-8533D02*
D03*
X-8139D02*
D03*
X-7745D02*
D03*
X-7351D02*
D03*
X-6958D02*
D03*
X-6564D02*
D03*
X-10895Y6304D02*
D03*
X-10501D02*
D03*
X-10107D02*
D03*
X-9714D02*
D03*
X-9320D02*
D03*
X-8926D02*
D03*
X-8533D02*
D03*
X-8139D02*
D03*
X-7745D02*
D03*
X-7351D02*
D03*
X-6958D02*
D03*
X-6564D02*
D03*
X-10895Y5910D02*
D03*
X-10501D02*
D03*
X-10107D02*
D03*
X-9714D02*
D03*
X-9320D02*
D03*
X-8926D02*
D03*
X-8533D02*
D03*
X-8139D02*
D03*
X-7745D02*
D03*
X-7351D02*
D03*
X-6958D02*
D03*
X-6564D02*
D03*
X-10895Y5516D02*
D03*
X-10501D02*
D03*
X-10107D02*
D03*
X-9714D02*
D03*
X-9320D02*
D03*
X-8926D02*
D03*
X-8533D02*
D03*
X-8139D02*
D03*
X-7745D02*
D03*
X-7351D02*
D03*
X-6958D02*
D03*
X-6564D02*
D03*
X-10895Y5123D02*
D03*
Y4729D02*
D03*
Y4335D02*
D03*
Y3941D02*
D03*
Y3548D02*
D03*
Y3154D02*
D03*
Y2760D02*
D03*
Y2367D02*
D03*
X-10501Y5123D02*
D03*
Y4729D02*
D03*
Y4335D02*
D03*
Y3941D02*
D03*
Y3548D02*
D03*
Y3154D02*
D03*
Y2760D02*
D03*
Y2367D02*
D03*
X-10107Y5123D02*
D03*
Y4729D02*
D03*
Y4335D02*
D03*
Y3941D02*
D03*
Y3548D02*
D03*
Y3154D02*
D03*
Y2760D02*
D03*
Y2367D02*
D03*
X-9714Y5123D02*
D03*
Y4729D02*
D03*
Y4335D02*
D03*
Y3941D02*
D03*
Y3548D02*
D03*
Y3154D02*
D03*
Y2760D02*
D03*
Y2367D02*
D03*
X-9320Y5123D02*
D03*
Y4729D02*
D03*
Y4335D02*
D03*
Y3941D02*
D03*
Y3548D02*
D03*
Y3154D02*
D03*
Y2760D02*
D03*
Y2367D02*
D03*
X-8926Y5123D02*
D03*
Y4729D02*
D03*
Y4335D02*
D03*
Y3941D02*
D03*
Y3548D02*
D03*
Y3154D02*
D03*
Y2760D02*
D03*
Y2367D02*
D03*
X-8533Y5123D02*
D03*
Y4729D02*
D03*
Y4335D02*
D03*
Y3941D02*
D03*
Y3548D02*
D03*
Y3154D02*
D03*
Y2760D02*
D03*
Y2367D02*
D03*
X-8139Y5123D02*
D03*
Y4729D02*
D03*
Y4335D02*
D03*
Y3941D02*
D03*
Y3548D02*
D03*
Y3154D02*
D03*
Y2760D02*
D03*
Y2367D02*
D03*
X-7745Y5123D02*
D03*
Y4729D02*
D03*
Y4335D02*
D03*
Y3941D02*
D03*
Y3548D02*
D03*
Y3154D02*
D03*
Y2760D02*
D03*
Y2367D02*
D03*
X-7351Y5123D02*
D03*
Y4729D02*
D03*
Y4335D02*
D03*
Y3941D02*
D03*
Y3548D02*
D03*
Y3154D02*
D03*
Y2760D02*
D03*
Y2367D02*
D03*
X-6958Y5123D02*
D03*
Y4729D02*
D03*
Y4335D02*
D03*
Y3941D02*
D03*
Y3548D02*
D03*
Y3154D02*
D03*
Y2760D02*
D03*
Y2367D02*
D03*
X-6564Y5123D02*
D03*
Y4729D02*
D03*
Y4335D02*
D03*
Y3941D02*
D03*
Y3548D02*
D03*
Y3154D02*
D03*
Y2760D02*
D03*
Y2367D02*
D03*
D40*
X-12963Y2474D02*
Y3594D01*
Y2474D02*
X-12443D01*
Y3594D01*
X-12963D02*
X-12443D01*
D41*
X-24394Y2397D02*
X-22720D01*
X-24394Y823D02*
Y2397D01*
Y823D02*
X-22720D01*
Y2397D01*
D45*
X-9558Y7909D02*
X-9420D01*
X-9558Y7653D02*
Y7909D01*
Y7653D02*
X-9420D01*
Y7909D01*
D46*
X-17112Y7851D02*
G03*
X-17112Y7851I-47J0D01*
G01*
D47*
X-18379Y11520D02*
Y11740D01*
X-17961D01*
Y11520D02*
Y11740D01*
X-18379Y11520D02*
X-17961D01*
X-11170Y9831D02*
X-10950D01*
X-11170D02*
Y10249D01*
X-10950D01*
Y9831D02*
Y10249D01*
X-12772Y5581D02*
Y5699D01*
X-13008D02*
X-12772D01*
X-13008Y5581D02*
Y5699D01*
Y5581D02*
X-12772D01*
X-12759Y1958D02*
X-12641D01*
X-12759Y1722D02*
Y1958D01*
Y1722D02*
X-12641D01*
Y1958D01*
X-14490Y5438D02*
X-14270D01*
Y5021D02*
Y5438D01*
X-14490Y5021D02*
X-14270D01*
X-14490D02*
Y5438D01*
X-12792Y4721D02*
Y4839D01*
X-13028D02*
X-12792D01*
X-13028Y4721D02*
Y4839D01*
Y4721D02*
X-12792D01*
X-13008Y5121D02*
X-12772D01*
X-13008D02*
Y5239D01*
X-12772D01*
Y5121D02*
Y5239D01*
X-16981Y2182D02*
Y2418D01*
X-17099Y2182D02*
X-16981D01*
X-17099D02*
Y2418D01*
X-16981D01*
X-16629Y2490D02*
X-16212D01*
X-16629Y2270D02*
Y2490D01*
Y2270D02*
X-16212D01*
Y2490D01*
X-24102Y10101D02*
Y10219D01*
X-24338D02*
X-24102D01*
X-24338Y10101D02*
Y10219D01*
Y10101D02*
X-24102D01*
X-24340Y8791D02*
X-24120D01*
X-24340D02*
Y9209D01*
X-24120D01*
Y8791D02*
Y9209D01*
X-23088Y8581D02*
X-22852D01*
X-23088D02*
Y8699D01*
X-22852D01*
Y8581D02*
Y8699D01*
X-23758Y8581D02*
X-23522D01*
X-23758D02*
Y8699D01*
X-23522D01*
Y8581D02*
Y8699D01*
X-19558Y11170D02*
X-19141D01*
Y11390D01*
X-19558D02*
X-19141D01*
X-19558Y11170D02*
Y11390D01*
X-22399Y8790D02*
X-21981D01*
X-22399Y8570D02*
Y8790D01*
Y8570D02*
X-21981D01*
Y8790D01*
X-15148Y11969D02*
X-14912D01*
Y11851D02*
Y11969D01*
X-15148Y11851D02*
X-14912D01*
X-15148D02*
Y11969D01*
X-16738Y7691D02*
Y7809D01*
Y7691D02*
X-16502D01*
Y7809D01*
X-16738D02*
X-16502D01*
X-13188Y7681D02*
Y7799D01*
Y7681D02*
X-12952D01*
Y7799D01*
X-13188D02*
X-12952D01*
X-23448Y2790D02*
X-23031D01*
Y3010D01*
X-23448D02*
X-23031D01*
X-23448Y2790D02*
Y3010D01*
X-17593Y8048D02*
Y11592D01*
X-11687D01*
Y8048D02*
Y11592D01*
X-17593Y8048D02*
X-11687D01*
X-14358Y11841D02*
X-14122D01*
X-14358D02*
Y11959D01*
X-14122D01*
Y11841D02*
Y11959D01*
X-11498Y1220D02*
X-11081D01*
Y1440D01*
X-11498D02*
X-11081D01*
X-11498Y1220D02*
Y1440D01*
X-12185Y7799D02*
X-11949D01*
Y7681D02*
Y7799D01*
X-12185Y7681D02*
X-11949D01*
X-12185D02*
Y7799D01*
X-13751Y5212D02*
Y5448D01*
X-13869Y5212D02*
X-13751D01*
X-13869D02*
Y5448D01*
X-13751D01*
X-13320Y1741D02*
X-13100D01*
X-13320D02*
Y2159D01*
X-13100D01*
Y1741D02*
Y2159D01*
X-12762Y6041D02*
Y6159D01*
X-12998D02*
X-12762D01*
X-12998Y6041D02*
Y6159D01*
Y6041D02*
X-12762D01*
X-13818Y4771D02*
Y4889D01*
Y4771D02*
X-13582D01*
Y4889D01*
X-13818D02*
X-13582D01*
X-21412Y3241D02*
Y3359D01*
X-21648D02*
X-21412D01*
X-21648Y3241D02*
Y3359D01*
Y3241D02*
X-21412D01*
X-14558Y3681D02*
X-14322D01*
X-14558D02*
Y3799D01*
X-14322D01*
Y3681D02*
Y3799D01*
X-14548Y4061D02*
X-14312D01*
X-14548D02*
Y4179D01*
X-14312D01*
Y4061D02*
Y4179D01*
X-9978Y1261D02*
Y1379D01*
Y1261D02*
X-9742D01*
Y1379D01*
X-9978D02*
X-9742D01*
X-9909Y7711D02*
Y7829D01*
X-10145D02*
X-9909D01*
X-10145Y7711D02*
Y7829D01*
Y7711D02*
X-9909D01*
X-9232Y1545D02*
X-7972D01*
Y955D02*
Y1545D01*
X-9232Y955D02*
X-7972D01*
X-9232D02*
Y1545D01*
X-18288Y5961D02*
Y6079D01*
Y5961D02*
X-18052D01*
Y6079D01*
X-18288D02*
X-18052D01*
X-14972Y6121D02*
Y6239D01*
X-15208D02*
X-14972D01*
X-15208Y6121D02*
Y6239D01*
Y6121D02*
X-14972D01*
X-13715Y6525D02*
Y7155D01*
Y6525D02*
X-12455D01*
Y7155D01*
X-13715D02*
X-12455D01*
X-10785Y7721D02*
X-10549D01*
X-10785D02*
Y7839D01*
X-10549D01*
Y7721D02*
Y7839D01*
X-6840Y668D02*
X-5580D01*
X-6840D02*
Y1652D01*
X-5580D01*
Y668D02*
Y1652D01*
X-12239Y4788D02*
X-12121D01*
X-12239Y4552D02*
Y4788D01*
Y4552D02*
X-12121D01*
Y4788D01*
D48*
X-18450Y8360D02*
Y8650D01*
X-17930Y8360D02*
Y8660D01*
D49*
X-27610Y4820D02*
X-25160D01*
Y70D02*
Y4820D01*
X-10Y4870D02*
X2490D01*
Y8020D01*
X40D02*
X2490D01*
X40D02*
Y12670D01*
X-27660Y4870D02*
X-27610Y4820D01*
X-27660Y4870D02*
Y7930D01*
X-27620Y7970D01*
X-25190D01*
X-25160D01*
Y12620D01*
X-25110Y12670D02*
X40D01*
X-10Y170D02*
Y4870D01*
X-160Y20D02*
X-10Y170D01*
X-25160Y70D02*
X-25110Y20D01*
X-25160Y12620D02*
X-25110Y12670D01*
D50*
X-21290Y11160D02*
Y11540D01*
X-21480D02*
X-21290D01*
X-21480Y11160D02*
X-21290D01*
X-20990D02*
Y11540D01*
Y11160D02*
X-20800D01*
X-20990Y11540D02*
X-20800D01*
X-21290Y11160D02*
X-20990D01*
X-20800D02*
Y11540D01*
X-21290D02*
X-20990D01*
X-21480Y11160D02*
Y11540D01*
M02*
