G04 Layer_Color=65535*
%FSLAX43Y43*%
%MOMM*%
G71*
G01*
G75*
%ADD34C,0.152*%
%ADD35C,0.254*%
%ADD50C,0.025*%
%ADD71C,0.140*%
%ADD72C,0.200*%
%ADD73C,0.240*%
%ADD74C,0.000*%
%ADD75C,0.127*%
%ADD76C,0.051*%
D34*
X-5305Y14021D02*
G03*
X-5305Y14021I-359J0D01*
G01*
X-59665Y27534D02*
Y28804D01*
Y27534D02*
X-58903D01*
Y28804D01*
X-59665D02*
X-58903D01*
X-55092Y23012D02*
X-53822D01*
Y23774D01*
X-55092D02*
X-53822D01*
X-55092Y23012D02*
Y23774D01*
X-31318Y11227D02*
X-30556D01*
X-31318D02*
Y12497D01*
X-30556D01*
Y11227D02*
Y12497D01*
X-32926Y6284D02*
X-32080D01*
X-32926D02*
Y7049D01*
Y9129D02*
X-32080D01*
X-32926Y8339D02*
Y9129D01*
X-27730Y19380D02*
X-26460D01*
Y20142D01*
X-27730D02*
X-26460D01*
X-27730Y19380D02*
Y20142D01*
X-30976Y16274D02*
Y18466D01*
X-35497Y16274D02*
X-30976D01*
X-35497Y18466D02*
X-30976D01*
X-35497Y16274D02*
Y18466D01*
X-38964Y15316D02*
Y16078D01*
X-37694D01*
Y15316D02*
Y16078D01*
X-38964Y15316D02*
X-37694D01*
X-45517Y14910D02*
Y15672D01*
X-46787Y14910D02*
X-45517D01*
X-46787D02*
Y15672D01*
X-45517D01*
X-22249Y3925D02*
X-21449D01*
X-22249Y2425D02*
X-21449D01*
X-26104Y19355D02*
Y20117D01*
X-24834D01*
Y19355D02*
Y20117D01*
X-26104Y19355D02*
X-24834D01*
X-24410Y2972D02*
Y3734D01*
X-25680Y2972D02*
X-24410D01*
X-25680D02*
Y3734D01*
X-24410D01*
X-37287Y10084D02*
X-36017D01*
X-37287D02*
Y10846D01*
X-36017Y10084D02*
Y10846D01*
X-37287D02*
X-36017D01*
X-37312Y9119D02*
X-36042D01*
X-37312D02*
Y9881D01*
X-36042Y9119D02*
Y9881D01*
X-37312D02*
X-36042D01*
X-55322Y8001D02*
Y8763D01*
X-54052D01*
Y8001D02*
Y8763D01*
X-55322Y8001D02*
X-54052D01*
X-47930Y1698D02*
Y7598D01*
Y1698D02*
X-44730D01*
Y7598D01*
X-47930D02*
X-44730D01*
X-47930Y5588D02*
X-44755Y5587D01*
X-55346Y1688D02*
Y7588D01*
Y1688D02*
X-52146D01*
Y7588D01*
X-55346D02*
X-52146D01*
X-55347Y5578D02*
X-52172Y5577D01*
X-34164Y11887D02*
Y12649D01*
X-35434Y11887D02*
X-34164D01*
X-35434D02*
Y12649D01*
X-34164D01*
X-33350Y15113D02*
Y15875D01*
X-32080D01*
Y15113D02*
Y15875D01*
X-33350Y15113D02*
X-32080D01*
X-34036Y5842D02*
X-33071D01*
Y4064D02*
Y5842D01*
X-34036Y4064D02*
X-33071D01*
X-34036D02*
Y5842D01*
X-34696Y12904D02*
Y14174D01*
X-35458D02*
X-34696D01*
X-35458Y12904D02*
Y14174D01*
Y12904D02*
X-34696D01*
X-31286Y20041D02*
X-30016D01*
X-31286Y19279D02*
Y20041D01*
Y19279D02*
X-30016D01*
Y20041D01*
X-29564Y3861D02*
X-27786D01*
X-29564Y2896D02*
Y3861D01*
Y2896D02*
X-27786D01*
Y3861D01*
X-36804Y29845D02*
X-35534D01*
Y30607D01*
X-36804D02*
X-35534D01*
X-36804Y29845D02*
Y30607D01*
X-43986Y20443D02*
X-29686D01*
Y29443D01*
X-44686D02*
X-29686D01*
X-44686Y21143D02*
Y29443D01*
X-59563Y7239D02*
X-57785D01*
Y8204D01*
X-59563D02*
X-57785D01*
X-59563Y7239D02*
Y8204D01*
X-32563Y19279D02*
Y20041D01*
X-33833Y19279D02*
X-32563D01*
X-33833D02*
Y20041D01*
X-32563D01*
X-41579Y19304D02*
Y20066D01*
X-42849Y19304D02*
X-41579D01*
X-42849D02*
Y20066D01*
X-41579D01*
X-38812Y30632D02*
X-37542D01*
X-38812Y29870D02*
Y30632D01*
Y29870D02*
X-37542D01*
Y30632D01*
X-42598Y5563D02*
X-40820D01*
Y6528D01*
X-42598D02*
X-40820D01*
X-42598Y5563D02*
Y6528D01*
X-42901Y5208D02*
Y6478D01*
X-43663D02*
X-42901D01*
X-43663Y5208D02*
X-42901D01*
X-43663D02*
Y6478D01*
X-33375Y12776D02*
X-32105D01*
Y13538D01*
X-33375D02*
X-32105D01*
X-33375Y12776D02*
Y13538D01*
X-33426Y11760D02*
Y12522D01*
X-32156D01*
Y11760D02*
Y12522D01*
X-33426Y11760D02*
X-32156D01*
X-37008Y14171D02*
X-36043D01*
X-37008Y12393D02*
Y14171D01*
Y12393D02*
X-36043D01*
Y14171D01*
X-32639Y4038D02*
X-31877D01*
X-32639D02*
Y5308D01*
X-31877D01*
Y4038D02*
Y5308D01*
X-33376Y13945D02*
Y14707D01*
X-32106D01*
Y13945D02*
Y14707D01*
X-33376Y13945D02*
X-32106D01*
X-5007Y7878D02*
Y14678D01*
X-11807D02*
X-5007D01*
X-11807Y7878D02*
Y14678D01*
Y7878D02*
X-5007D01*
X-43917Y14834D02*
X-41021D01*
X-43917Y9855D02*
X-42164D01*
X-41021D01*
X-28575Y26391D02*
X-27610D01*
Y24613D02*
Y26391D01*
X-28575Y24613D02*
X-27610D01*
X-28575D02*
Y26391D01*
X-45263Y29058D02*
Y30023D01*
X-47041Y29058D02*
X-45263D01*
X-47041D02*
Y30023D01*
X-45263D01*
X-62738Y3937D02*
Y3598D01*
X-62569Y3429D01*
X-62399Y3598D01*
Y3937D01*
X-62230D02*
X-62061D01*
X-62146D01*
Y3429D01*
X-62230D01*
X-62061D01*
X-61807D02*
Y3937D01*
X-61468Y3429D01*
Y3937D01*
X-15714Y30395D02*
X-15799Y30480D01*
X-15968D01*
X-16053Y30395D01*
Y30057D01*
X-15968Y29972D01*
X-15799D01*
X-15714Y30057D01*
Y30226D01*
X-15884D01*
X-15545Y29972D02*
Y30480D01*
X-15206Y29972D01*
Y30480D01*
X-15037D02*
Y29972D01*
X-14783D01*
X-14699Y30057D01*
Y30395D01*
X-14783Y30480D01*
X-15037D01*
X-8941Y28397D02*
Y28736D01*
X-8772Y28905D01*
X-8602Y28736D01*
Y28397D01*
Y28651D01*
X-8941D01*
X-8433Y28905D02*
Y28397D01*
X-8179D01*
X-8094Y28482D01*
Y28820D01*
X-8179Y28905D01*
X-8433D01*
X-7587Y28820D02*
X-7671Y28905D01*
X-7840D01*
X-7925Y28820D01*
Y28482D01*
X-7840Y28397D01*
X-7671D01*
X-7587Y28482D01*
X-23309Y27508D02*
X-23647D01*
Y27254D01*
X-23478Y27339D01*
X-23393D01*
X-23309Y27254D01*
Y27085D01*
X-23393Y27000D01*
X-23563D01*
X-23647Y27085D01*
X-26416Y27000D02*
X-26247Y27002D01*
X-26331Y27001D01*
X-26336Y27509D01*
X-26420Y27423D01*
X-25654Y27007D02*
X-25993Y27004D01*
X-25657Y27345D01*
X-25658Y27430D01*
X-25743Y27514D01*
X-25913Y27512D01*
X-25996Y27427D01*
X-29309Y27279D02*
X-28970Y27276D01*
X-28804Y27020D02*
X-28635Y27018D01*
X-28719Y27019D01*
X-28713Y27527D01*
X-28799Y27443D01*
X-28042Y27011D02*
X-28381Y27015D01*
X-28038Y27350D01*
X-28037Y27435D01*
X-28121Y27520D01*
X-28290Y27522D01*
X-28376Y27438D01*
X-13310Y21336D02*
X-13817D01*
X-13648Y21505D01*
X-13817Y21675D01*
X-13310D01*
X-13817Y22098D02*
Y21928D01*
X-13733Y21844D01*
X-13394D01*
X-13310Y21928D01*
Y22098D01*
X-13394Y22182D01*
X-13733D01*
X-13817Y22098D01*
X-13733Y22690D02*
X-13817Y22606D01*
Y22436D01*
X-13733Y22352D01*
X-13648D01*
X-13564Y22436D01*
Y22606D01*
X-13479Y22690D01*
X-13394D01*
X-13310Y22606D01*
Y22436D01*
X-13394Y22352D01*
X-13817Y22860D02*
Y23029D01*
Y22944D01*
X-13310D01*
Y22860D01*
Y23029D01*
X-13733Y27313D02*
X-13817Y27229D01*
Y27059D01*
X-13733Y26975D01*
X-13394D01*
X-13310Y27059D01*
Y27229D01*
X-13394Y27313D01*
X-13733Y27821D02*
X-13817Y27737D01*
Y27567D01*
X-13733Y27483D01*
X-13648D01*
X-13564Y27567D01*
Y27737D01*
X-13479Y27821D01*
X-13394D01*
X-13310Y27737D01*
Y27567D01*
X-13394Y27483D01*
X-13733Y24316D02*
X-13817Y24232D01*
Y24062D01*
X-13733Y23978D01*
X-13648D01*
X-13564Y24062D01*
Y24232D01*
X-13479Y24316D01*
X-13394D01*
X-13310Y24232D01*
Y24062D01*
X-13394Y23978D01*
X-13733Y24824D02*
X-13817Y24739D01*
Y24570D01*
X-13733Y24485D01*
X-13394D01*
X-13310Y24570D01*
Y24739D01*
X-13394Y24824D01*
X-13817Y24993D02*
X-13310D01*
Y25332D01*
X-13817Y25501D02*
X-13310D01*
X-13479D01*
X-13817Y25840D01*
X-13564Y25586D01*
X-13310Y25840D01*
X-8661Y2489D02*
X-8153D01*
Y2743D01*
X-8238Y2828D01*
X-8577D01*
X-8661Y2743D01*
Y2489D01*
X-8153Y2997D02*
X-8492D01*
X-8661Y3166D01*
X-8492Y3336D01*
X-8153D01*
X-8407D01*
Y2997D01*
X-8577Y3843D02*
X-8661Y3759D01*
Y3590D01*
X-8577Y3505D01*
X-8238D01*
X-8153Y3590D01*
Y3759D01*
X-8238Y3843D01*
X-11176Y1863D02*
Y1524D01*
X-10922D01*
X-11007Y1693D01*
Y1778D01*
X-10922Y1863D01*
X-10753D01*
X-10668Y1778D01*
Y1609D01*
X-10753Y1524D01*
X-11176Y2032D02*
X-10837D01*
X-10668Y2201D01*
X-10837Y2370D01*
X-11176D01*
Y3047D02*
X-10668D01*
Y3301D01*
X-10753Y3386D01*
X-11091D01*
X-11176Y3301D01*
Y3047D01*
X-10668Y3555D02*
X-11007D01*
X-11176Y3725D01*
X-11007Y3894D01*
X-10668D01*
X-10922D01*
Y3555D01*
X-11091Y4402D02*
X-11176Y4317D01*
Y4148D01*
X-11091Y4063D01*
X-10753D01*
X-10668Y4148D01*
Y4317D01*
X-10753Y4402D01*
X-5982Y2832D02*
X-6068Y2749D01*
X-6069Y2579D01*
X-5986Y2494D01*
X-5647Y2490D01*
X-5562Y2574D01*
X-5560Y2743D01*
X-5643Y2829D01*
X-5813Y2831D01*
X-5815Y2661D01*
X-5557Y2997D02*
X-6065Y3003D01*
X-5553Y3336D01*
X-6061Y3341D01*
X-6059Y3510D02*
X-5551Y3505D01*
X-5548Y3759D01*
X-5632Y3844D01*
X-5971Y3848D01*
X-6056Y3764D01*
X-6059Y3510D01*
X-5656Y17848D02*
X-5740Y17932D01*
X-5910D01*
X-5994Y17848D01*
Y17509D01*
X-5910Y17424D01*
X-5740D01*
X-5656Y17509D01*
Y17678D01*
X-5825D01*
X-5487Y17424D02*
Y17932D01*
X-5148Y17424D01*
Y17932D01*
X-4979D02*
Y17424D01*
X-4725D01*
X-4640Y17509D01*
Y17848D01*
X-4725Y17932D01*
X-4979D01*
X-5055Y20438D02*
X-4970Y20523D01*
X-4801D01*
X-4716Y20438D01*
Y20354D01*
X-4801Y20269D01*
X-4885D01*
X-4801D01*
X-4716Y20184D01*
Y20100D01*
X-4801Y20015D01*
X-4970D01*
X-5055Y20100D01*
X-4547Y20015D02*
X-4377D01*
X-4462D01*
Y20523D01*
X-4547Y20438D01*
X-4894Y24994D02*
X-5232D01*
X-4894Y25332D01*
Y25417D01*
X-4978Y25501D01*
X-5148D01*
X-5232Y25417D01*
X-4725Y25078D02*
X-4640Y24994D01*
X-4471D01*
X-4386Y25078D01*
Y25417D01*
X-4471Y25501D01*
X-4640D01*
X-4725Y25417D01*
Y25332D01*
X-4640Y25248D01*
X-4386D01*
X-5283Y22953D02*
X-5199Y23038D01*
X-5029D01*
X-4945Y22953D01*
Y22868D01*
X-5029Y22784D01*
X-5114D01*
X-5029D01*
X-4945Y22699D01*
Y22614D01*
X-5029Y22530D01*
X-5199D01*
X-5283Y22614D01*
X-4437Y22530D02*
X-4775D01*
X-4437Y22868D01*
Y22953D01*
X-4521Y23038D01*
X-4691D01*
X-4775Y22953D01*
X-5232Y30471D02*
X-5148Y30556D01*
X-4978D01*
X-4894Y30471D01*
Y30387D01*
X-4978Y30302D01*
X-5063D01*
X-4978D01*
X-4894Y30217D01*
Y30133D01*
X-4978Y30048D01*
X-5148D01*
X-5232Y30133D01*
X-4725Y30471D02*
X-4640Y30556D01*
X-4471D01*
X-4386Y30471D01*
Y30133D01*
X-4471Y30048D01*
X-4640D01*
X-4725Y30133D01*
Y30471D01*
X-5080Y27457D02*
X-4911D01*
X-4995D01*
Y27965D01*
X-5080Y27881D01*
X-4403Y27457D02*
Y27965D01*
X-4657Y27711D01*
X-4318D01*
D35*
X-12645Y29491D02*
G03*
X-12649Y29515I72J24D01*
G01*
D50*
X-24409Y22403D02*
X-23520D01*
X-24435Y22428D02*
X-23495D01*
X-24460Y22454D02*
X-23470D01*
X-24486Y22479D02*
X-23444D01*
X-24511Y22504D02*
X-23419D01*
X-24536Y22530D02*
X-23393D01*
X-24562Y22555D02*
X-23368D01*
X-24587Y22581D02*
X-23343D01*
X-24587Y22606D02*
X-23343D01*
X-24587Y22631D02*
X-23343D01*
X-23724Y22657D02*
X-23343D01*
X-24587D02*
X-24359D01*
X-23724Y22682D02*
X-23343D01*
X-24587D02*
X-24359D01*
X-23724Y22708D02*
X-23343D01*
X-24587D02*
X-24359D01*
X-23724Y22733D02*
X-23343D01*
X-24587D02*
X-24359D01*
X-23724Y22758D02*
X-23343D01*
X-24587D02*
X-24359D01*
X-23724Y22784D02*
X-23343D01*
X-24587D02*
X-24359D01*
X-23724Y22809D02*
X-23343D01*
X-24587D02*
X-24359D01*
X-23724Y22835D02*
X-23343D01*
X-24587D02*
X-24359D01*
X-23724Y22860D02*
X-23343D01*
X-24587D02*
X-24359D01*
X-23724Y22885D02*
X-23343D01*
X-24587D02*
X-24359D01*
X-23724Y22911D02*
X-23343D01*
X-25044D02*
X-24105D01*
X-23724Y22936D02*
X-23343D01*
X-25070D02*
X-24079D01*
X-23724Y22962D02*
X-23343D01*
X-25095D02*
X-24054D01*
X-23724Y22987D02*
X-23343D01*
X-25121D02*
X-24028D01*
X-23724Y23012D02*
X-23343D01*
X-25146D02*
X-24003D01*
X-23724Y23038D02*
X-23343D01*
X-25171D02*
X-23978D01*
X-23724Y23063D02*
X-23343D01*
X-25171D02*
X-23952D01*
X-23724Y23089D02*
X-23343D01*
X-25171D02*
X-23927D01*
X-23724Y23114D02*
X-23343D01*
X-25171D02*
X-23927D01*
X-23724Y23139D02*
X-23343D01*
X-25171D02*
X-23927D01*
X-23724Y23165D02*
X-23343D01*
X-24155D02*
X-23927D01*
X-24587D02*
X-24359D01*
X-25171D02*
X-24943D01*
X-23724Y23190D02*
X-23343D01*
X-24155D02*
X-23927D01*
X-24587D02*
X-24359D01*
X-25171D02*
X-24943D01*
X-23724Y23216D02*
X-23343D01*
X-24155D02*
X-23927D01*
X-24587D02*
X-24359D01*
X-25171D02*
X-24943D01*
X-23724Y23241D02*
X-23343D01*
X-24155D02*
X-23927D01*
X-24587D02*
X-24359D01*
X-25171D02*
X-24943D01*
X-23724Y23266D02*
X-23343D01*
X-24155D02*
X-23927D01*
X-24587D02*
X-24359D01*
X-25171D02*
X-24943D01*
X-23724Y23292D02*
X-23190D01*
X-24155D02*
X-23927D01*
X-24587D02*
X-24359D01*
X-25171D02*
X-24943D01*
X-23724Y23317D02*
X-23190D01*
X-24155D02*
X-23927D01*
X-24587D02*
X-24359D01*
X-25171D02*
X-24943D01*
X-23724Y23343D02*
X-23190D01*
X-24155D02*
X-23927D01*
X-24587D02*
X-24359D01*
X-25171D02*
X-24943D01*
X-23724Y23368D02*
X-23190D01*
X-24587D02*
X-24359D01*
X-25171D02*
X-24943D01*
X-23724Y23393D02*
X-23190D01*
X-24587D02*
X-24359D01*
X-25171D02*
X-24943D01*
X-23343Y23419D02*
X-23190D01*
X-23724D02*
X-23343D01*
X-24740D02*
X-24359D01*
X-25171D02*
X-24943D01*
X-23343Y23444D02*
X-23190D01*
X-23724D02*
X-23343D01*
X-24740D02*
X-24359D01*
X-25171D02*
X-24943D01*
X-23343Y23470D02*
X-23190D01*
X-23724D02*
X-23343D01*
X-24740D02*
X-24359D01*
X-25171D02*
X-24943D01*
X-23343Y23495D02*
X-23190D01*
X-23724D02*
X-23343D01*
X-24740D02*
X-24359D01*
X-25171D02*
X-24943D01*
X-23343Y23520D02*
X-23190D01*
X-23724D02*
X-23343D01*
X-24740D02*
X-24359D01*
X-25171D02*
X-24943D01*
X-23343Y23546D02*
X-23190D01*
X-23724D02*
X-23343D01*
X-24740D02*
X-24359D01*
X-25171D02*
X-24943D01*
X-23343Y23571D02*
X-23190D01*
X-23724D02*
X-23343D01*
X-24740D02*
X-24359D01*
X-25171D02*
X-24943D01*
X-23343Y23597D02*
X-23190D01*
X-23724D02*
X-23343D01*
X-24740D02*
X-24359D01*
X-25171D02*
X-24943D01*
X-23343Y23622D02*
X-23190D01*
X-23724D02*
X-23343D01*
X-24740D02*
X-24359D01*
X-25171D02*
X-24943D01*
X-23343Y23647D02*
X-23190D01*
X-23724D02*
X-23343D01*
X-24740D02*
X-24359D01*
X-25171D02*
X-24943D01*
X-25171Y23673D02*
X-24943D01*
X-25171Y23698D02*
X-24943D01*
X-24155Y23724D02*
X-23927D01*
X-25171D02*
X-24943D01*
X-24155Y23749D02*
X-23927D01*
X-25171D02*
X-24943D01*
X-24155Y23774D02*
X-23927D01*
X-25171D02*
X-24943D01*
X-24155Y23800D02*
X-23927D01*
X-25171D02*
X-24943D01*
X-24155Y23825D02*
X-23927D01*
X-25171D02*
X-24943D01*
X-24155Y23851D02*
X-23927D01*
X-25171D02*
X-24943D01*
X-24155Y23876D02*
X-23927D01*
X-25171D02*
X-24943D01*
X-24155Y23901D02*
X-23927D01*
X-25171D02*
X-24943D01*
X-25171Y23927D02*
X-23927D01*
X-25171Y23952D02*
X-23927D01*
X-25171Y23978D02*
X-23927D01*
X-25146Y24003D02*
X-23952D01*
X-25121Y24028D02*
X-23978D01*
X-25095Y24054D02*
X-24003D01*
X-25070Y24079D02*
X-24028D01*
X-25044Y24105D02*
X-24054D01*
X-25019Y24130D02*
X-24079D01*
X-24994Y24155D02*
X-24105D01*
D71*
X-56859Y26832D02*
G03*
X-56859Y26832I-70J0D01*
G01*
D72*
X-29008Y17072D02*
G03*
X-29008Y17072I-110J0D01*
G01*
X-35854Y-303D02*
G03*
X-35391Y144I8J455D01*
G01*
X-42231D02*
G03*
X-41768Y-303I455J8D01*
G01*
X-35111Y187D02*
G03*
X-34925Y-300I727J0D01*
G01*
X-42698Y-300D02*
G03*
X-42511Y187I-509J474D01*
G01*
X-15673Y5011D02*
Y18011D01*
X-28673Y5011D02*
X-15673D01*
X-28673D02*
Y18011D01*
X-15673D01*
X-58773Y10382D02*
Y12782D01*
X-41771Y-303D02*
X-35851D01*
X-42511Y3597D02*
Y5187D01*
Y187D02*
Y1037D01*
Y187D02*
X-42231D01*
X-35111D01*
Y1037D01*
Y3597D02*
Y5187D01*
X-36811D02*
X-35111D01*
X-42511D02*
X-40811D01*
X-8791Y30683D02*
Y31496D01*
X-12344D02*
X-8791D01*
X-12344Y29845D02*
Y31496D01*
Y29845D02*
X-8788D01*
X-8791Y29870D02*
Y30683D01*
D73*
X-43466Y19943D02*
G03*
X-43466Y19943I-120J0D01*
G01*
D74*
X-40031Y6007D02*
G03*
X-40031Y6007I-81J0D01*
G01*
X-4403Y15778D02*
G03*
X-4403Y15778I-254J0D01*
G01*
X-42164Y9853D02*
G03*
X-42774Y9832I-305J-11D01*
G01*
D75*
X-59334Y2540D02*
X-58318D01*
X-59360Y5080D02*
X-58344D01*
X-58852Y4572D02*
Y5588D01*
X-44686Y20543D02*
Y20643D01*
Y21143D02*
X-43986Y20443D01*
X-44686Y21043D02*
X-44086Y20443D01*
X-44686Y20943D02*
X-44186Y20443D01*
X-44686Y20843D02*
X-44286Y20443D01*
X-44686Y20743D02*
X-44386Y20443D01*
X-44686Y20643D02*
X-44486Y20443D01*
X-44686Y20543D02*
X-44586Y20443D01*
X-44686D02*
X-44586D01*
X-44486D01*
X-44386D01*
X-44286D01*
X-44186D01*
X-44086D01*
X-43986D01*
X-44686Y21043D02*
Y21143D01*
Y20943D02*
Y21043D01*
Y20843D02*
Y20943D01*
Y20743D02*
Y20843D01*
Y20643D02*
Y20743D01*
Y20443D02*
Y20543D01*
X-42231Y147D02*
Y187D01*
D76*
X-17958Y22555D02*
X-17805D01*
X-18618D02*
X-18212D01*
X-19075D02*
X-18923D01*
X-19583D02*
X-19177D01*
X-20041D02*
X-19888D01*
X-20752D02*
X-20345D01*
X-21615D02*
X-21209D01*
X-22835D02*
X-22123D01*
X-17958Y22606D02*
X-17805D01*
X-18720D02*
X-18110D01*
X-19634D02*
X-18923D01*
X-20041D02*
X-19888D01*
X-21717D02*
X-21107D01*
X-22835D02*
X-22022D01*
X-17958Y22657D02*
X-17805D01*
X-18364D02*
X-18110D01*
X-18771D02*
X-18466D01*
X-19279D02*
X-18923D01*
X-19685D02*
X-19431D01*
X-20041D02*
X-19888D01*
X-20498D02*
X-20142D01*
X-20853D02*
X-20599D01*
X-21361D02*
X-21057D01*
X-21768D02*
X-21463D01*
X-22835D02*
X-21971D01*
X-17958Y22708D02*
X-17805D01*
X-18263D02*
X-18059D01*
X-18771D02*
X-18567D01*
X-19177D02*
X-18923D01*
X-19685D02*
X-19482D01*
X-20041D02*
X-19888D01*
X-20396D02*
X-20142D01*
X-20853D02*
X-20701D01*
X-21260D02*
X-21057D01*
X-21768D02*
X-21565D01*
X-22174D02*
X-21920D01*
X-22835D02*
X-22682D01*
X-17958Y22758D02*
X-17805D01*
X-18212D02*
X-18059D01*
X-18821D02*
X-18618D01*
X-19126D02*
X-18923D01*
X-19736D02*
X-19533D01*
X-20041D02*
X-19888D01*
X-20345D02*
X-20142D01*
X-20904D02*
X-20701D01*
X-21209D02*
X-21006D01*
X-21819D02*
X-21615D01*
X-22123D02*
X-21920D01*
X-22835D02*
X-22682D01*
X-17958Y22809D02*
X-17805D01*
X-18212D02*
X-18009D01*
X-18821D02*
X-18618D01*
X-19126D02*
X-18923D01*
X-19736D02*
X-19583D01*
X-20041D02*
X-19888D01*
X-20345D02*
X-20142D01*
X-20904D02*
X-20752D01*
X-21209D02*
X-21006D01*
X-21819D02*
X-21666D01*
X-22073D02*
X-21920D01*
X-22835D02*
X-22682D01*
X-17958Y22860D02*
X-17805D01*
X-18821D02*
X-18669D01*
X-19075D02*
X-18923D01*
X-19736D02*
X-19583D01*
X-20041D02*
X-19888D01*
X-20345D02*
X-20142D01*
X-20904D02*
X-20752D01*
X-21158D02*
X-21006D01*
X-21819D02*
X-21666D01*
X-22073D02*
X-21920D01*
X-22835D02*
X-22682D01*
X-17958Y22911D02*
X-17805D01*
X-18821D02*
X-18669D01*
X-19075D02*
X-18923D01*
X-19736D02*
X-19583D01*
X-20041D02*
X-19888D01*
X-20295D02*
X-20142D01*
X-20904D02*
X-20752D01*
X-21158D02*
X-21006D01*
X-21819D02*
X-21666D01*
X-22073D02*
X-21920D01*
X-22835D02*
X-22682D01*
X-17958Y22962D02*
X-17805D01*
X-18821D02*
X-18009D01*
X-19075D02*
X-18923D01*
X-19736D02*
X-19583D01*
X-20041D02*
X-19888D01*
X-20295D02*
X-20142D01*
X-20904D02*
X-20752D01*
X-21158D02*
X-21006D01*
X-21819D02*
X-21666D01*
X-22073D02*
X-21920D01*
X-22835D02*
X-22682D01*
X-17958Y23012D02*
X-17805D01*
X-18821D02*
X-18009D01*
X-19075D02*
X-18923D01*
X-19736D02*
X-19583D01*
X-20041D02*
X-19888D01*
X-20295D02*
X-20142D01*
X-20904D02*
X-20752D01*
X-21158D02*
X-21006D01*
X-21819D02*
X-21666D01*
X-22123D02*
X-21920D01*
X-22835D02*
X-22682D01*
X-17958Y23063D02*
X-17755D01*
X-18212D02*
X-18009D01*
X-18821D02*
X-18669D01*
X-19075D02*
X-18923D01*
X-19736D02*
X-19583D01*
X-20041D02*
X-19888D01*
X-20295D02*
X-20142D01*
X-20904D02*
X-20752D01*
X-21158D02*
X-21006D01*
X-21819D02*
X-21666D01*
X-22225D02*
X-21971D01*
X-22835D02*
X-22682D01*
X-17958Y23114D02*
X-17755D01*
X-18212D02*
X-18059D01*
X-18821D02*
X-18669D01*
X-19126D02*
X-18923D01*
X-19736D02*
X-19583D01*
X-20041D02*
X-19888D01*
X-20295D02*
X-20142D01*
X-20904D02*
X-20752D01*
X-21158D02*
X-21006D01*
X-21819D02*
X-21666D01*
X-22835D02*
X-21971D01*
X-17958Y23165D02*
X-17704D01*
X-18212D02*
X-18059D01*
X-18821D02*
X-18618D01*
X-19126D02*
X-18923D01*
X-19736D02*
X-19533D01*
X-20041D02*
X-19888D01*
X-20295D02*
X-20142D01*
X-20904D02*
X-20752D01*
X-21209D02*
X-21006D01*
X-21819D02*
X-21615D01*
X-22835D02*
X-22073D01*
X-17958Y23216D02*
X-17653D01*
X-18263D02*
X-18059D01*
X-18771D02*
X-18567D01*
X-19177D02*
X-18923D01*
X-19736D02*
X-19533D01*
X-20041D02*
X-19888D01*
X-20295D02*
X-20142D01*
X-20904D02*
X-20752D01*
X-21260D02*
X-21057D01*
X-21768D02*
X-21615D01*
X-22835D02*
X-22022D01*
X-17958Y23266D02*
X-17551D01*
X-18313D02*
X-18110D01*
X-18771D02*
X-18517D01*
X-19228D02*
X-18923D01*
X-19685D02*
X-19482D01*
X-20041D02*
X-19888D01*
X-20295D02*
X-20142D01*
X-20904D02*
X-20752D01*
X-21311D02*
X-21057D01*
X-21768D02*
X-21514D01*
X-22225D02*
X-21971D01*
X-22835D02*
X-22682D01*
X-17958Y23317D02*
X-17450D01*
X-18720D02*
X-18110D01*
X-19634D02*
X-18923D01*
X-20041D02*
X-19888D01*
X-20295D02*
X-20142D01*
X-20904D02*
X-20752D01*
X-21717D02*
X-21107D01*
X-22174D02*
X-21971D01*
X-22835D02*
X-22682D01*
X-17729Y23368D02*
X-17450D01*
X-17958D02*
X-17805D01*
X-18669D02*
X-18161D01*
X-19075D02*
X-18923D01*
X-19583D02*
X-19126D01*
X-20041D02*
X-19888D01*
X-20295D02*
X-20142D01*
X-20904D02*
X-20752D01*
X-21666D02*
X-21158D01*
X-22123D02*
X-21971D01*
X-22835D02*
X-22682D01*
X-17653Y23419D02*
X-17450D01*
X-18567D02*
X-18263D01*
X-19075D02*
X-18923D01*
X-19533D02*
X-19228D01*
X-20041D02*
X-19888D01*
X-21565D02*
X-21260D01*
X-22123D02*
X-21920D01*
X-22835D02*
X-22682D01*
X-19075Y23470D02*
X-18923D01*
X-20041D02*
X-19888D01*
X-22123D02*
X-21920D01*
X-22835D02*
X-22682D01*
X-19075Y23520D02*
X-18923D01*
X-20041D02*
X-19888D01*
X-22174D02*
X-21971D01*
X-22835D02*
X-22682D01*
X-19075Y23571D02*
X-18923D01*
X-20041D02*
X-19888D01*
X-22225D02*
X-21971D01*
X-22835D02*
X-22682D01*
X-19075Y23622D02*
X-18923D01*
X-20041D02*
X-19888D01*
X-22835D02*
X-22022D01*
X-19075Y23673D02*
X-18923D01*
X-20041D02*
X-19888D01*
X-22835D02*
X-22073D01*
X-20828Y22606D02*
X-20244D01*
M02*
