G04 Layer_Physical_Order=1*
G04 Layer_Color=255*
%FSLAX24Y24*%
%MOIN*%
G70*
G01*
G75*
%ADD10R,0.0213X0.0236*%
%ADD11R,0.0236X0.0213*%
%ADD12R,0.0900X0.0900*%
%ADD13R,0.0750X0.0220*%
%ADD14R,0.0217X0.0591*%
%ADD15R,0.0591X0.0217*%
%ADD16R,0.0134X0.0142*%
%ADD17R,0.0157X0.0551*%
%ADD18R,0.0906X0.0748*%
%ADD19R,0.0591X0.0512*%
%ADD20R,0.0142X0.0134*%
%ADD21R,0.0612X0.0657*%
%ADD22R,0.2205X0.0610*%
%ADD23C,0.0240*%
%ADD24R,0.0709X0.0472*%
%ADD25R,0.0610X0.0236*%
%ADD26R,0.0260X0.0370*%
%ADD27R,0.0236X0.0610*%
%ADD28R,0.0472X0.0709*%
%ADD29R,0.0657X0.0612*%
%ADD30R,0.0138X0.0079*%
%ADD31R,0.0433X0.0748*%
%ADD32R,0.0646X0.0937*%
%ADD33R,0.0331X0.0106*%
%ADD34R,0.0453X0.0717*%
%ADD35R,0.0394X0.0354*%
%ADD36R,0.0217X0.0669*%
%ADD37R,0.0551X0.0394*%
%ADD38R,0.0450X0.0350*%
%ADD39C,0.0177*%
%ADD40C,0.0060*%
%ADD41C,0.0100*%
%ADD42C,0.0150*%
%ADD43C,0.0200*%
%ADD44C,0.0120*%
%ADD45C,0.0080*%
%ADD46C,0.0094*%
%ADD47C,0.0050*%
%ADD48C,0.0040*%
%ADD49C,0.0010*%
%ADD50C,0.0000*%
%ADD51C,0.0900*%
%ADD52C,0.0256*%
%ADD53C,0.0500*%
%ADD54C,0.0550*%
%ADD55C,0.0400*%
%ADD56C,0.0250*%
%ADD57C,0.0380*%
%ADD58C,0.0180*%
%ADD59C,0.0200*%
G36*
X-14311Y4081D02*
X-14351D01*
Y4160D01*
X-14311D01*
Y4081D01*
D02*
G37*
G36*
X-14509D02*
X-14548D01*
Y4160D01*
X-14509D01*
Y4081D01*
D02*
G37*
G36*
X-4690Y4193D02*
X-5084D01*
Y4372D01*
X-4690D01*
Y4193D01*
D02*
G37*
G36*
Y4507D02*
X-5084D01*
Y4688D01*
X-4690D01*
Y4507D01*
D02*
G37*
G36*
X-1540Y4193D02*
X-1929D01*
Y4372D01*
X-1540D01*
Y4193D01*
D02*
G37*
G36*
X-14519Y3701D02*
X-14558D01*
Y3780D01*
X-14519D01*
Y3701D01*
D02*
G37*
G36*
X-1540Y3563D02*
X-1927D01*
Y3741D01*
X-1540D01*
Y3563D01*
D02*
G37*
G36*
X-14321Y3701D02*
X-14361D01*
Y3780D01*
X-14321D01*
Y3701D01*
D02*
G37*
G36*
X-1540Y3878D02*
X-1926D01*
Y4057D01*
X-1540D01*
Y3878D01*
D02*
G37*
G36*
X-4690D02*
X-5084D01*
Y4057D01*
X-4690D01*
Y3878D01*
D02*
G37*
G36*
X-1540Y4507D02*
X-1925D01*
Y4688D01*
X-1540D01*
Y4507D01*
D02*
G37*
G36*
X-4690Y4822D02*
X-5085D01*
Y5004D01*
X-4690D01*
Y4822D01*
D02*
G37*
G36*
X-13582Y4790D02*
X-13621D01*
Y4869D01*
X-13582D01*
Y4790D01*
D02*
G37*
G36*
X-1540Y4822D02*
X-1929D01*
Y5003D01*
X-1540D01*
Y4822D01*
D02*
G37*
G36*
Y5137D02*
X-1927D01*
Y5319D01*
X-1540D01*
Y5137D01*
D02*
G37*
G36*
X-4690D02*
X-5083D01*
Y5318D01*
X-4690D01*
Y5137D01*
D02*
G37*
G36*
X-12989Y4741D02*
X-13028D01*
Y4820D01*
X-12989D01*
Y4741D01*
D02*
G37*
G36*
X-12141Y4552D02*
X-12220D01*
Y4591D01*
X-12141D01*
Y4552D01*
D02*
G37*
G36*
X-12791Y4741D02*
X-12831D01*
Y4820D01*
X-12791D01*
Y4741D01*
D02*
G37*
G36*
X-13779Y4790D02*
X-13819D01*
Y4869D01*
X-13779D01*
Y4790D01*
D02*
G37*
G36*
X-12141Y4749D02*
X-12220D01*
Y4789D01*
X-12141D01*
Y4749D01*
D02*
G37*
G36*
X-4690Y3563D02*
X-5085D01*
Y3741D01*
X-4690D01*
Y3563D01*
D02*
G37*
G36*
X-12192Y2573D02*
X-12423D01*
Y2754D01*
X-12192D01*
Y2573D01*
D02*
G37*
G36*
X-17001Y2379D02*
X-17080D01*
Y2419D01*
X-17001D01*
Y2379D01*
D02*
G37*
G36*
X-4322Y2670D02*
X-4503D01*
Y3059D01*
X-4322D01*
Y2670D01*
D02*
G37*
G36*
X-3692D02*
X-3874D01*
Y3056D01*
X-3692D01*
Y2670D01*
D02*
G37*
G36*
X-4007D02*
X-4190D01*
Y3056D01*
X-4007D01*
Y2670D01*
D02*
G37*
G36*
X-9742Y1280D02*
X-9781D01*
Y1359D01*
X-9742D01*
Y1280D01*
D02*
G37*
G36*
X-9939Y1280D02*
X-9979D01*
Y1359D01*
X-9939D01*
Y1280D01*
D02*
G37*
G36*
X-12661Y1722D02*
X-12740D01*
Y1761D01*
X-12661D01*
Y1722D01*
D02*
G37*
G36*
X-17001Y2182D02*
X-17080D01*
Y2221D01*
X-17001D01*
Y2182D01*
D02*
G37*
G36*
X-12661Y1919D02*
X-12740D01*
Y1958D01*
X-12661D01*
Y1919D01*
D02*
G37*
G36*
X-3377Y2670D02*
X-3558D01*
Y3056D01*
X-3377D01*
Y2670D01*
D02*
G37*
G36*
X-1540Y3248D02*
X-1926D01*
Y3425D01*
X-1540D01*
Y3248D01*
D02*
G37*
G36*
X-4690D02*
X-5086D01*
Y3424D01*
X-4690D01*
Y3248D01*
D02*
G37*
G36*
X-21609Y3261D02*
X-21648D01*
Y3340D01*
X-21609D01*
Y3261D01*
D02*
G37*
G36*
X-12192Y3315D02*
X-12423D01*
Y3494D01*
X-12192D01*
Y3315D01*
D02*
G37*
G36*
X-21412Y3261D02*
X-21451D01*
Y3340D01*
X-21412D01*
Y3261D01*
D02*
G37*
G36*
X-2748Y2670D02*
X-2927D01*
Y3056D01*
X-2748D01*
Y2670D01*
D02*
G37*
G36*
X-3063D02*
X-3242D01*
Y3057D01*
X-3063D01*
Y2670D01*
D02*
G37*
G36*
X-2433D02*
X-2611D01*
Y3057D01*
X-2433D01*
Y2670D01*
D02*
G37*
G36*
X-12983Y2944D02*
X-12984D01*
Y2944D01*
X-12984D01*
Y2944D01*
X-12984D01*
Y2944D01*
X-12984D01*
Y2944D01*
X-12984D01*
Y2944D01*
X-13213D01*
Y2944D01*
Y2944D01*
Y2944D01*
Y3124D01*
X-12983D01*
Y2944D01*
D02*
G37*
G36*
X-2118Y2670D02*
X-2295D01*
Y3056D01*
X-2118D01*
Y2670D01*
D02*
G37*
G36*
X-12969Y5141D02*
X-13008D01*
Y5220D01*
X-12969D01*
Y5141D01*
D02*
G37*
G36*
X-9909Y7731D02*
X-9948D01*
Y7810D01*
X-9909D01*
Y7731D01*
D02*
G37*
G36*
X-10106D02*
X-10145D01*
Y7810D01*
X-10106D01*
Y7731D01*
D02*
G37*
G36*
X-10746Y7741D02*
X-10785D01*
Y7820D01*
X-10746D01*
Y7741D01*
D02*
G37*
G36*
X-17904Y8075D02*
X-18476D01*
Y8370D01*
X-17904D01*
Y8075D01*
D02*
G37*
G36*
X-10549Y7741D02*
X-10588D01*
Y7820D01*
X-10549D01*
Y7741D01*
D02*
G37*
G36*
X-12952Y7700D02*
X-12991D01*
Y7779D01*
X-12952D01*
Y7700D01*
D02*
G37*
G36*
X-12146Y7700D02*
X-12186D01*
Y7779D01*
X-12146D01*
Y7700D01*
D02*
G37*
G36*
X-11949Y7700D02*
X-11988D01*
Y7779D01*
X-11949D01*
Y7700D01*
D02*
G37*
G36*
X-16502Y7710D02*
X-16541D01*
Y7789D01*
X-16502D01*
Y7710D01*
D02*
G37*
G36*
X-16698Y7710D02*
X-16738D01*
Y7789D01*
X-16698D01*
Y7710D01*
D02*
G37*
G36*
X-23719Y8601D02*
X-23758D01*
Y8680D01*
X-23719D01*
Y8601D01*
D02*
G37*
G36*
X-14319Y11861D02*
X-14358D01*
Y11940D01*
X-14319D01*
Y11861D01*
D02*
G37*
G36*
X-24102Y10121D02*
X-24141D01*
Y10200D01*
X-24102D01*
Y10121D01*
D02*
G37*
G36*
X-14121Y11861D02*
X-14161D01*
Y11940D01*
X-14121D01*
Y11861D01*
D02*
G37*
G36*
X-14912Y11870D02*
X-14951D01*
Y11949D01*
X-14912D01*
Y11870D01*
D02*
G37*
G36*
X-15109Y11870D02*
X-15149D01*
Y11949D01*
X-15109D01*
Y11870D01*
D02*
G37*
G36*
X-23049Y8601D02*
X-23088D01*
Y8680D01*
X-23049D01*
Y8601D01*
D02*
G37*
G36*
X-23522D02*
X-23561D01*
Y8680D01*
X-23522D01*
Y8601D01*
D02*
G37*
G36*
X-22851D02*
X-22891D01*
Y8680D01*
X-22851D01*
Y8601D01*
D02*
G37*
G36*
X-24299Y10121D02*
X-24338D01*
Y10200D01*
X-24299D01*
Y10121D01*
D02*
G37*
G36*
X-17904Y8645D02*
X-18475D01*
Y8940D01*
X-17904D01*
Y8645D01*
D02*
G37*
G36*
X-13149Y7700D02*
X-13189D01*
Y7779D01*
X-13149D01*
Y7700D01*
D02*
G37*
G36*
X-12772Y5601D02*
X-12811D01*
Y5680D01*
X-12772D01*
Y5601D01*
D02*
G37*
G36*
X-12969D02*
X-13008D01*
Y5680D01*
X-12969D01*
Y5601D01*
D02*
G37*
G36*
X-4322Y5820D02*
X-4506D01*
Y6215D01*
X-4322D01*
Y5820D01*
D02*
G37*
G36*
X-3692D02*
X-3874D01*
Y6215D01*
X-3692D01*
Y5820D01*
D02*
G37*
G36*
X-4007D02*
X-4189D01*
Y6213D01*
X-4007D01*
Y5820D01*
D02*
G37*
G36*
X-13771Y5212D02*
X-13850D01*
Y5251D01*
X-13771D01*
Y5212D01*
D02*
G37*
G36*
X-12771Y5141D02*
X-12811D01*
Y5220D01*
X-12771D01*
Y5141D01*
D02*
G37*
G36*
X-13771Y5409D02*
X-13850D01*
Y5449D01*
X-13771D01*
Y5409D01*
D02*
G37*
G36*
X-1540Y5452D02*
X-1927D01*
Y5635D01*
X-1540D01*
Y5452D01*
D02*
G37*
G36*
X-4690D02*
X-5086D01*
Y5636D01*
X-4690D01*
Y5452D01*
D02*
G37*
G36*
X-3377Y5820D02*
X-3558D01*
Y6214D01*
X-3377D01*
Y5820D01*
D02*
G37*
G36*
X-12959Y6061D02*
X-12998D01*
Y6140D01*
X-12959D01*
Y6061D01*
D02*
G37*
G36*
X-18052Y5980D02*
X-18091D01*
Y6059D01*
X-18052D01*
Y5980D01*
D02*
G37*
G36*
X-12761Y6061D02*
X-12801D01*
Y6140D01*
X-12761D01*
Y6061D01*
D02*
G37*
G36*
X-14972Y6141D02*
X-15012D01*
Y6220D01*
X-14972D01*
Y6141D01*
D02*
G37*
G36*
X-15169D02*
X-15208D01*
Y6220D01*
X-15169D01*
Y6141D01*
D02*
G37*
G36*
X-2748Y5820D02*
X-2927D01*
Y6215D01*
X-2748D01*
Y5820D01*
D02*
G37*
G36*
X-3063D02*
X-3242D01*
Y6213D01*
X-3063D01*
Y5820D01*
D02*
G37*
G36*
X-2433D02*
X-2611D01*
Y6216D01*
X-2433D01*
Y5820D01*
D02*
G37*
G36*
X-18249Y5980D02*
X-18289D01*
Y6059D01*
X-18249D01*
Y5980D01*
D02*
G37*
G36*
X-2118Y5820D02*
X-2297D01*
Y6211D01*
X-2118D01*
Y5820D01*
D02*
G37*
D10*
X-18339Y11630D02*
D03*
X-18001D02*
D03*
X-16590Y2380D02*
D03*
X-16251D02*
D03*
X-19180Y11280D02*
D03*
X-19519D02*
D03*
X-22359Y8680D02*
D03*
X-22021D02*
D03*
X-23070Y2900D02*
D03*
X-23409D02*
D03*
X-11120Y1330D02*
D03*
X-11459D02*
D03*
D11*
X-11060Y9871D02*
D03*
Y10209D02*
D03*
X-14380Y5399D02*
D03*
Y5060D02*
D03*
X-24230Y8831D02*
D03*
Y9169D02*
D03*
X-13210Y1781D02*
D03*
Y2119D02*
D03*
D12*
X-16720Y4860D02*
D03*
D13*
X-17700Y4110D02*
D03*
Y4610D02*
D03*
Y5110D02*
D03*
Y5610D02*
D03*
X-15740D02*
D03*
Y5110D02*
D03*
Y4610D02*
D03*
Y4110D02*
D03*
D14*
X-2208Y6133D02*
D03*
X-2523D02*
D03*
X-2838D02*
D03*
X-3153D02*
D03*
X-3467D02*
D03*
X-3782D02*
D03*
X-4097D02*
D03*
X-4412D02*
D03*
Y2747D02*
D03*
X-4097D02*
D03*
X-3782D02*
D03*
X-3467D02*
D03*
X-3153D02*
D03*
X-2838D02*
D03*
X-2523D02*
D03*
X-2208D02*
D03*
D15*
X-5003Y5542D02*
D03*
Y5227D02*
D03*
Y4912D02*
D03*
Y4597D02*
D03*
Y4283D02*
D03*
Y3968D02*
D03*
Y3653D02*
D03*
Y3338D02*
D03*
X-1617D02*
D03*
Y3653D02*
D03*
Y3968D02*
D03*
Y4283D02*
D03*
Y4597D02*
D03*
Y4912D02*
D03*
Y5227D02*
D03*
Y5542D02*
D03*
D16*
X-13000Y5640D02*
D03*
X-12780D02*
D03*
X-13020Y4780D02*
D03*
X-12800D02*
D03*
X-12780Y5180D02*
D03*
X-13000D02*
D03*
X-24330Y10160D02*
D03*
X-24110D02*
D03*
X-22860Y8640D02*
D03*
X-23080D02*
D03*
X-23530D02*
D03*
X-23750D02*
D03*
X-15140Y11910D02*
D03*
X-14920D02*
D03*
X-16510Y7750D02*
D03*
X-16730D02*
D03*
X-12960Y7740D02*
D03*
X-13180D02*
D03*
X-14130Y11900D02*
D03*
X-14350D02*
D03*
X-12177Y7740D02*
D03*
X-11957D02*
D03*
X-12990Y6100D02*
D03*
X-12770D02*
D03*
X-13590Y4830D02*
D03*
X-13810D02*
D03*
X-21640Y3300D02*
D03*
X-21420D02*
D03*
X-14550Y3740D02*
D03*
X-14540Y4120D02*
D03*
X-9750Y1320D02*
D03*
X-9970D02*
D03*
X-10137Y7770D02*
D03*
X-9917D02*
D03*
X-18060Y6020D02*
D03*
X-18280D02*
D03*
X-15200Y6180D02*
D03*
X-14980D02*
D03*
X-10557Y7780D02*
D03*
X-10777D02*
D03*
X-14320Y4120D02*
D03*
X-14330Y3740D02*
D03*
D17*
X-15792Y2003D02*
D03*
X-15536D02*
D03*
X-15280D02*
D03*
X-15024D02*
D03*
X-14768D02*
D03*
D18*
X-16756Y920D02*
D03*
X-13804D02*
D03*
D19*
X-18190Y8136D02*
D03*
Y8884D02*
D03*
D20*
X-12700Y1730D02*
D03*
Y1950D02*
D03*
X-17040Y2410D02*
D03*
Y2190D02*
D03*
X-13810Y5440D02*
D03*
Y5220D02*
D03*
X-12180Y4560D02*
D03*
Y4780D02*
D03*
D21*
X-24050Y11180D02*
D03*
X-22542D02*
D03*
D22*
X-20110Y8895D02*
D03*
Y10470D02*
D03*
D23*
X-17140Y8320D02*
D03*
Y8820D02*
D03*
Y9320D02*
D03*
Y9820D02*
D03*
Y10320D02*
D03*
Y10820D02*
D03*
Y11320D02*
D03*
X-16640Y8320D02*
D03*
X-16140D02*
D03*
X-15640D02*
D03*
X-15140D02*
D03*
X-14640D02*
D03*
X-14140D02*
D03*
X-13640D02*
D03*
X-13140D02*
D03*
X-12640D02*
D03*
X-12140D02*
D03*
X-16640Y8820D02*
D03*
Y9320D02*
D03*
Y9820D02*
D03*
Y10320D02*
D03*
Y10820D02*
D03*
Y11320D02*
D03*
X-16140Y8820D02*
D03*
Y9320D02*
D03*
Y9820D02*
D03*
Y10320D02*
D03*
Y10820D02*
D03*
Y11320D02*
D03*
X-15640Y8820D02*
D03*
Y9320D02*
D03*
Y9820D02*
D03*
Y10320D02*
D03*
Y10820D02*
D03*
Y11320D02*
D03*
X-15140Y8820D02*
D03*
Y9320D02*
D03*
Y9820D02*
D03*
Y10320D02*
D03*
Y10820D02*
D03*
Y11320D02*
D03*
X-14640Y8820D02*
D03*
Y9320D02*
D03*
Y9820D02*
D03*
Y10320D02*
D03*
Y10820D02*
D03*
Y11320D02*
D03*
X-14140Y8820D02*
D03*
Y9320D02*
D03*
Y9820D02*
D03*
Y10320D02*
D03*
Y10820D02*
D03*
Y11320D02*
D03*
X-13640Y8820D02*
D03*
Y9320D02*
D03*
Y9820D02*
D03*
Y10320D02*
D03*
Y10820D02*
D03*
Y11320D02*
D03*
X-13140Y8820D02*
D03*
Y9320D02*
D03*
Y9820D02*
D03*
Y10320D02*
D03*
Y10820D02*
D03*
Y11320D02*
D03*
X-12640Y8820D02*
D03*
Y9320D02*
D03*
Y9820D02*
D03*
Y10320D02*
D03*
Y10820D02*
D03*
Y11320D02*
D03*
X-12140Y8820D02*
D03*
Y9320D02*
D03*
Y9820D02*
D03*
Y10320D02*
D03*
Y10820D02*
D03*
Y11320D02*
D03*
D24*
X-24118Y901D02*
D03*
Y2319D02*
D03*
D25*
X-22592Y1413D02*
D03*
Y1807D02*
D03*
D26*
X-21420Y11350D02*
D03*
X-20860D02*
D03*
D27*
X-19363Y5828D02*
D03*
X-19756Y5828D02*
D03*
X-21633Y5798D02*
D03*
X-22026Y5798D02*
D03*
D28*
X-18860Y4870D02*
D03*
X-20234D02*
D03*
X-21130Y4840D02*
D03*
X-22504D02*
D03*
D29*
X-21160Y2580D02*
D03*
Y1072D02*
D03*
X-18240Y2584D02*
D03*
Y1076D02*
D03*
D30*
X-9490Y7703D02*
D03*
Y7860D02*
D03*
D31*
X-8110Y1250D02*
D03*
X-9094D02*
D03*
D32*
X-23087Y9683D02*
D03*
D33*
X-22520Y10077D02*
D03*
Y9880D02*
D03*
Y9683D02*
D03*
Y9486D02*
D03*
Y9289D02*
D03*
X-23654D02*
D03*
Y9486D02*
D03*
Y9683D02*
D03*
Y9880D02*
D03*
Y10077D02*
D03*
D34*
X-13670Y6840D02*
D03*
X-12501D02*
D03*
D35*
X-24005Y3753D02*
D03*
X-23375D02*
D03*
Y5367D02*
D03*
X-24005D02*
D03*
D36*
X-24251Y4560D02*
D03*
D37*
X-12270Y2660D02*
D03*
Y3408D02*
D03*
X-13136Y3034D02*
D03*
D38*
X-5710Y760D02*
D03*
X-6710D02*
D03*
X-5710Y1560D02*
D03*
X-6710D02*
D03*
D39*
X-10895Y6697D02*
D03*
X-10501D02*
D03*
X-10107D02*
D03*
X-9714D02*
D03*
X-9320D02*
D03*
X-8926D02*
D03*
X-8533D02*
D03*
X-8139D02*
D03*
X-7745D02*
D03*
X-7351D02*
D03*
X-6958D02*
D03*
X-6564D02*
D03*
X-10895Y6304D02*
D03*
X-10501D02*
D03*
X-10107D02*
D03*
X-9714D02*
D03*
X-9320D02*
D03*
X-8926D02*
D03*
X-8533D02*
D03*
X-8139D02*
D03*
X-7745D02*
D03*
X-7351D02*
D03*
X-6958D02*
D03*
X-6564D02*
D03*
X-10895Y5910D02*
D03*
X-10501D02*
D03*
X-10107D02*
D03*
X-9714D02*
D03*
X-9320D02*
D03*
X-8926D02*
D03*
X-8533D02*
D03*
X-8139D02*
D03*
X-7745D02*
D03*
X-7351D02*
D03*
X-6958D02*
D03*
X-6564D02*
D03*
X-10895Y5516D02*
D03*
X-10501D02*
D03*
X-10107D02*
D03*
X-9714D02*
D03*
X-9320D02*
D03*
X-8926D02*
D03*
X-8533D02*
D03*
X-8139D02*
D03*
X-7745D02*
D03*
X-7351D02*
D03*
X-6958D02*
D03*
X-6564D02*
D03*
X-10895Y5123D02*
D03*
Y4729D02*
D03*
Y4335D02*
D03*
Y3941D02*
D03*
Y3548D02*
D03*
Y3154D02*
D03*
Y2760D02*
D03*
Y2367D02*
D03*
X-10501Y5123D02*
D03*
Y4729D02*
D03*
Y4335D02*
D03*
Y3941D02*
D03*
Y3548D02*
D03*
Y3154D02*
D03*
Y2760D02*
D03*
Y2367D02*
D03*
X-10107Y5123D02*
D03*
Y4729D02*
D03*
Y4335D02*
D03*
Y3941D02*
D03*
Y3548D02*
D03*
Y3154D02*
D03*
Y2760D02*
D03*
Y2367D02*
D03*
X-9714Y5123D02*
D03*
Y4729D02*
D03*
Y4335D02*
D03*
Y3941D02*
D03*
Y3548D02*
D03*
Y3154D02*
D03*
Y2760D02*
D03*
Y2367D02*
D03*
X-9320Y5123D02*
D03*
Y4729D02*
D03*
Y4335D02*
D03*
Y3941D02*
D03*
Y3548D02*
D03*
Y3154D02*
D03*
Y2760D02*
D03*
Y2367D02*
D03*
X-8926Y5123D02*
D03*
Y4729D02*
D03*
Y4335D02*
D03*
Y3941D02*
D03*
Y3548D02*
D03*
Y3154D02*
D03*
Y2760D02*
D03*
Y2367D02*
D03*
X-8533Y5123D02*
D03*
Y4729D02*
D03*
Y4335D02*
D03*
Y3941D02*
D03*
Y3548D02*
D03*
Y3154D02*
D03*
Y2760D02*
D03*
Y2367D02*
D03*
X-8139Y5123D02*
D03*
Y4729D02*
D03*
Y4335D02*
D03*
Y3941D02*
D03*
Y3548D02*
D03*
Y3154D02*
D03*
Y2760D02*
D03*
Y2367D02*
D03*
X-7745Y5123D02*
D03*
Y4729D02*
D03*
Y4335D02*
D03*
Y3941D02*
D03*
Y3548D02*
D03*
Y3154D02*
D03*
Y2760D02*
D03*
Y2367D02*
D03*
X-7351Y5123D02*
D03*
Y4729D02*
D03*
Y4335D02*
D03*
Y3941D02*
D03*
Y3548D02*
D03*
Y3154D02*
D03*
Y2760D02*
D03*
Y2367D02*
D03*
X-6958Y5123D02*
D03*
Y4729D02*
D03*
Y4335D02*
D03*
Y3941D02*
D03*
Y3548D02*
D03*
Y3154D02*
D03*
Y2760D02*
D03*
Y2367D02*
D03*
X-6564Y5123D02*
D03*
Y4729D02*
D03*
Y4335D02*
D03*
Y3941D02*
D03*
Y3548D02*
D03*
Y3154D02*
D03*
Y2760D02*
D03*
Y2367D02*
D03*
D40*
X-3155Y6133D02*
Y6635D01*
X-14955Y6205D02*
X-14740Y5990D01*
X-12800Y4780D02*
X-12180D01*
X-15730Y4060D02*
Y4600D01*
X-12270Y1820D02*
Y2660D01*
X-12400Y1950D02*
X-12270Y1820D01*
X-12250Y1800D01*
X-12170Y1330D02*
X-11459D01*
X-12250Y1340D02*
X-12170Y1330D01*
X-14370Y5399D02*
Y5870D01*
X-15730Y4600D02*
X-14930D01*
X-11910Y7280D02*
X-10240D01*
X-12177Y7547D02*
X-11910Y7280D01*
X-12177Y7547D02*
Y7740D01*
X-12760Y6110D02*
X-12230D01*
X-12770Y6100D02*
X-12760Y6110D01*
X-12720Y2958D02*
X-12270Y3408D01*
X-12720Y2609D02*
Y2958D01*
X-12250Y1340D02*
Y1800D01*
X-12700Y1950D02*
X-12400D01*
X-4774Y6196D02*
X-4412D01*
X-1620Y3020D02*
Y3401D01*
X-5210Y5290D02*
X-5005D01*
X-6360Y4140D02*
X-5210Y5290D01*
X-7010Y4140D02*
X-6360D01*
X-4880Y6090D02*
X-4774Y6196D01*
X-6240Y8810D02*
X-6050Y9000D01*
X-6520Y8810D02*
X-6240D01*
X-7940Y7390D02*
X-6520Y8810D01*
X-7940Y7860D02*
X-6000Y9800D01*
X-9490Y7860D02*
X-7940D01*
X-5620Y8640D02*
Y10420D01*
X-6000Y10800D02*
X-5620Y10420D01*
X-6330Y7470D02*
X-2550Y11250D01*
X-6330Y6538D02*
Y7470D01*
X-1700Y8700D02*
X-1400Y9000D01*
X-2790Y8700D02*
X-1700D01*
X-4645Y2580D02*
X-4415Y2810D01*
X-6280Y3716D02*
X-5003D01*
X-14930Y4600D02*
X-14740Y4790D01*
Y5990D01*
X-1700Y2940D02*
X-1620Y3020D01*
X-9132Y3360D02*
X-5046D01*
X-5580Y2090D02*
Y2220D01*
X-5890Y2090D02*
X-5580D01*
X-5890Y1960D02*
Y2090D01*
X-5580Y1690D02*
Y1960D01*
X-5890D02*
X-5580D01*
X-5727Y2367D02*
X-5580Y2220D01*
X-6564Y2367D02*
X-5727D01*
X-2840Y6196D02*
Y6620D01*
X-3010Y6790D02*
X-2840Y6620D01*
X-10240Y7280D02*
X-9930Y6970D01*
X-10240Y7280D02*
Y7463D01*
X-10557Y7780D02*
X-10240Y7463D01*
X-13210Y2119D02*
X-12720Y2609D01*
X-12780Y5640D02*
X-12460Y5320D01*
X-9530D01*
X-9333Y5123D01*
X-9320D01*
X-13150Y6100D02*
X-12990D01*
X-13810Y5440D02*
X-13150Y6100D01*
X-9130Y2960D02*
X-8930Y2760D01*
X-8926D01*
X-11150Y4590D02*
Y4920D01*
Y4590D02*
X-10895Y4335D01*
X-11960Y4310D02*
X-11740Y4530D01*
X-13400Y4310D02*
X-11960D01*
X-13810Y4720D02*
X-13400Y4310D01*
X-11740Y4530D02*
X-11660D01*
X-9510Y4525D02*
X-9320Y4335D01*
X-9530Y3731D02*
X-9320Y3941D01*
X-10300Y4140D02*
X-10107Y3947D01*
X-10700Y2960D02*
X-10506Y3154D01*
X-12270Y2660D02*
Y2820D01*
X-12910Y4560D02*
X-12180D01*
X-13020Y4670D02*
X-12910Y4560D01*
X-13020Y4670D02*
Y4780D01*
X-8340Y4930D02*
X-8139Y4729D01*
Y4729D02*
Y4729D01*
X-8740Y4940D02*
X-8533Y4733D01*
X-9130Y4930D02*
X-8929Y4729D01*
X-7351Y2308D02*
Y2367D01*
X-7550Y2110D02*
X-7351Y2308D01*
X-7480Y1580D02*
X-6958Y2102D01*
X-7480Y1170D02*
Y1580D01*
X-6958Y2102D02*
Y2367D01*
X-7070Y760D02*
X-6710D01*
X-7480Y1170D02*
X-7070Y760D01*
X-12040Y4920D02*
X-11150D01*
X-9550D01*
X-12180Y4780D02*
X-12040Y4920D01*
X-9550D02*
X-9359Y4729D01*
X-9320D01*
X-8340Y5320D02*
X-8143Y5123D01*
X-8139D01*
X-8730Y5320D02*
X-8533Y5123D01*
Y5123D02*
Y5123D01*
X-9120Y5316D02*
Y5320D01*
Y5316D02*
X-8926Y5123D01*
X-9317D02*
X-9120Y5320D01*
X-9320Y5123D02*
X-9317D01*
X-9910Y2560D02*
Y2563D01*
X-10107Y2760D02*
X-9910Y2563D01*
X-7940Y6109D02*
Y7390D01*
X-8139Y5910D02*
X-7940Y6109D01*
X-3010Y6790D02*
Y6890D01*
Y6780D02*
Y6790D01*
X-3155Y6635D02*
X-3010Y6780D01*
X-6540Y2760D02*
X-6300Y3000D01*
X-7160Y3990D02*
X-7010Y4140D01*
X-7160Y3850D02*
Y3990D01*
X-7250Y3760D02*
X-7160Y3850D01*
X-8690Y3760D02*
X-7250D01*
X-8902Y3548D02*
X-8690Y3760D01*
X-8640Y2580D02*
X-4645D01*
X-8730Y2670D02*
X-8640Y2580D01*
X-8730Y2670D02*
Y2930D01*
X-8926Y3126D02*
X-8730Y2930D01*
X-8350Y2950D02*
X-8340D01*
X-8533Y3133D02*
X-8350Y2950D01*
X-9320Y3548D02*
X-9132Y3360D01*
X-10107Y2367D02*
X-9750Y2009D01*
X-8533Y2367D02*
X-8110Y1944D01*
X-9094Y2199D02*
X-8926Y2367D01*
X-9750Y1320D02*
Y2009D01*
X-8110Y1250D02*
Y1944D01*
X-9094Y1250D02*
Y2199D01*
X-10952Y5180D02*
X-10895Y5123D01*
X-12780Y5180D02*
X-10952D01*
X-9849Y7703D02*
X-9490D01*
X-11910Y8550D02*
X-11840D01*
X-15140Y11320D02*
X-15140Y11320D01*
X-9917Y7770D02*
X-9849Y7703D01*
X-16410Y9060D02*
Y9090D01*
X-15400Y8560D02*
Y8570D01*
X-15140Y8320D02*
X-15120D01*
X-14660D02*
X-14640D01*
X-16900Y9570D02*
Y9580D01*
X-16390Y10570D02*
X-16380D01*
Y10070D02*
Y10080D01*
X-14650Y10320D02*
X-14640D01*
X-13410Y10570D02*
X-13390D01*
X-12890Y10560D02*
Y10570D01*
X-13640Y9320D02*
X-13630D01*
X-12650Y10320D02*
X-12640D01*
X-11870Y9090D02*
X-11850D01*
X-12640Y9320D02*
X-12620D01*
X-14890Y9570D02*
X-14880D01*
X-15880Y9560D02*
Y9580D01*
X-16910Y10070D02*
X-16890D01*
X-17140Y10320D02*
X-17130D01*
X-15140Y10820D02*
X-15130D01*
X-13650Y11320D02*
X-13640D01*
X-13900Y11070D02*
X-13650Y11320D01*
X-11900Y11080D02*
X-11880D01*
X-12140Y10820D02*
X-12130D01*
X-12150Y10320D02*
X-12140D01*
X-14140Y11320D02*
X-14130Y11330D01*
X-12640Y8320D02*
X-12610D01*
X-14920Y11037D02*
Y11080D01*
X-13140Y9810D02*
Y9820D01*
X-14640Y11320D02*
X-14620Y11340D01*
X-13640Y9820D02*
Y9840D01*
X-14140Y9820D02*
Y9840D01*
X-14640Y8800D02*
Y8820D01*
X-16140Y10810D02*
Y10820D01*
X-15140Y9800D02*
Y9820D01*
X-15640Y9290D02*
Y9320D01*
X-16140Y9300D02*
Y9320D01*
X-16640Y9800D02*
Y9820D01*
X-17140Y9300D02*
Y9320D01*
X-15140Y8800D02*
Y8820D01*
X-15640Y8810D02*
Y8820D01*
X-15133Y10825D02*
X-14920Y11037D01*
X-15133Y10825D02*
X-15130Y10820D01*
X-7745Y6697D02*
X-7563D01*
X-5620Y8640D01*
X-8600Y5710D02*
X-8333D01*
X-8139Y5516D01*
X-8730Y5840D02*
X-8600Y5710D01*
X-8730Y5840D02*
Y7070D01*
X-7940Y7860D01*
X-6564Y6304D02*
X-6330Y6538D01*
X-9714Y5536D02*
X-9520Y5730D01*
X-6958Y5516D02*
X-6774Y5700D01*
X-6450D01*
X-2150Y10000D01*
X-6464Y5516D02*
X-2480Y9500D01*
X-1900D01*
X-6927Y5123D02*
X-6720Y5330D01*
X-6420D01*
X-6564Y5123D02*
X-6367D01*
X-2150Y10000D02*
X-1900D01*
X-6420Y5330D02*
X-2500Y9250D01*
X-1650D01*
X-1400Y9500D01*
X-6367Y5123D02*
X-2790Y8700D01*
X-12963Y2474D02*
Y3594D01*
Y2474D02*
X-12443D01*
Y3594D01*
X-12963D02*
X-12443D01*
D41*
X-23375Y3753D02*
X-21703D01*
X-18200Y8116D02*
X-18180Y8136D01*
X-15140Y8280D02*
X-14870Y8550D01*
Y8570D02*
X-13670Y7370D01*
X-13140Y9320D02*
X-12885Y9575D01*
X-3785Y6196D02*
X-3470D01*
X-12620Y9320D02*
X-12380Y9080D01*
X-12140Y9260D02*
X-11830Y9570D01*
X-18200Y7400D02*
Y8116D01*
X-17630Y6120D02*
Y6240D01*
X-17730Y6020D02*
X-17630Y6120D01*
X-18060Y6020D02*
X-17730D01*
X-18658Y5828D02*
X-18510Y5680D01*
X-18320Y4110D02*
X-17700D01*
X-18430Y4220D02*
X-18320Y4110D01*
X-15240Y5110D02*
X-15200Y5150D01*
Y6180D01*
X-16970Y4610D02*
X-16720Y4860D01*
X-17700Y4610D02*
X-16970D01*
X-18030D02*
X-17700D01*
X-18230Y4810D02*
X-18030Y4610D01*
X-18230Y4810D02*
Y5330D01*
Y5740D01*
X-18010Y5110D02*
X-17700D01*
X-18230Y5330D02*
X-18010Y5110D01*
X-21633Y5798D02*
Y6317D01*
X-21380Y6570D01*
X-10630Y8080D02*
X-10340D01*
X-10769Y7941D02*
X-10630Y8080D01*
X-10769Y7815D02*
Y7941D01*
X-10137Y7770D02*
Y7877D01*
X-10340Y8080D02*
X-10137Y7877D01*
X-13686Y3034D02*
X-13136D01*
X-13880Y2840D02*
X-13686Y3034D01*
X-13880Y2480D02*
Y2840D01*
X-4100Y2300D02*
Y2747D01*
Y2300D02*
X-3730Y1930D01*
X-3510Y6236D02*
Y6880D01*
Y6236D02*
X-3470Y6196D01*
X-11361Y9570D02*
X-11060Y9871D01*
X-11830Y9570D02*
X-11361D01*
X-17940Y10670D02*
Y10990D01*
X-18339Y11389D02*
X-17940Y10990D01*
X-18339Y11389D02*
Y11630D01*
X-24300Y6160D02*
X-24090D01*
X-24460Y6000D02*
X-24300Y6160D01*
X-21703Y3753D02*
X-21640Y3690D01*
X-15700Y6190D02*
X-15690Y6180D01*
X-15200D01*
X-5046Y3360D02*
X-5005Y3401D01*
X-17340Y10070D02*
X-16910D01*
X-17940Y10670D02*
X-17340Y10070D01*
X-18430Y4220D02*
Y5600D01*
X-15740Y5110D02*
X-15240D01*
X-18230Y5740D02*
X-18060Y5910D01*
Y6020D01*
X-18510Y5680D02*
X-18430Y5600D01*
X-14720Y5060D02*
X-14380D01*
X-17040Y5900D02*
Y6260D01*
X-17300Y5640D02*
X-17040Y5900D01*
X-17670Y5640D02*
X-17300D01*
X-17360Y6580D02*
X-17040Y6260D01*
X-17700Y5610D02*
X-17670Y5640D01*
X-18040Y6580D02*
X-17360D01*
X-18280Y6340D02*
X-18040Y6580D01*
X-18280Y6020D02*
Y6340D01*
X-18510Y5790D02*
X-18280Y6020D01*
X-18510Y5680D02*
Y5790D01*
X-5710Y1560D02*
X-5580Y1690D01*
X-14870Y8550D02*
Y8570D01*
Y8600D01*
X-16220Y8320D02*
X-16207Y8290D01*
X-16140Y8120D02*
Y8320D01*
X-16510Y7750D02*
X-16140Y8120D01*
X-11740Y8450D02*
X-11070Y7780D01*
X-11840Y8550D02*
X-11740Y8450D01*
Y7957D02*
Y8450D01*
X-11957Y7740D02*
X-11740Y7957D01*
X-11070Y7780D02*
X-10777D01*
X-13030Y6140D02*
X-12990Y6100D01*
X-13640Y6140D02*
X-13030D01*
X-12270Y3408D02*
X-11698D01*
X-10107Y3941D02*
Y3947D01*
X-10506Y3154D02*
X-10501D01*
X-9120Y4140D02*
X-8926Y3946D01*
Y3941D02*
Y3946D01*
X-9120Y4140D02*
Y4141D01*
X-8926Y4335D01*
X-8529Y3941D02*
X-8340Y4130D01*
X-8533Y3941D02*
X-8529D01*
X-8340Y4130D02*
X-8152Y3941D01*
X-8139D01*
X-8340Y4536D02*
Y4540D01*
Y4536D02*
X-8139Y4335D01*
X-8730Y4530D02*
X-8535Y4335D01*
X-8533D01*
Y4729D02*
Y4733D01*
X-8929Y4729D02*
X-8926D01*
X-10490Y1330D02*
X-9980D01*
X-11120D02*
X-10490D01*
X-9980D02*
X-9970Y1320D01*
X-6564Y2760D02*
X-6540D01*
X-7220Y1330D02*
X-6990Y1560D01*
X-6710D01*
X-8926Y3548D02*
X-8902D01*
X-8926Y3126D02*
Y3154D01*
X-8533Y3133D02*
Y3154D01*
X-11120Y1330D02*
X-11110Y1320D01*
X-23520Y7990D02*
X-23510D01*
X-23530Y8000D02*
X-23520Y7990D01*
X-24460Y10030D02*
X-24330Y10160D01*
X-24460Y9399D02*
Y10030D01*
Y9399D02*
X-24230Y9169D01*
X-24170Y9520D02*
X-24020D01*
X-24170Y9830D02*
Y9860D01*
X-24150Y9880D01*
X-13880Y2480D02*
X-13530Y2130D01*
Y1930D02*
Y2130D01*
Y1930D02*
X-13381Y1781D01*
X-13210D01*
X-23530Y8000D02*
Y8640D01*
X-13880Y2451D02*
Y2480D01*
X-13210Y1781D02*
X-13159Y1730D01*
X-12700D01*
X-15930Y8560D02*
X-15890Y8520D01*
X-20110Y10470D02*
X-19710D01*
X-19180Y11280D02*
X-18980Y11080D01*
X-18570D01*
X-20161Y10419D02*
X-20110Y10470D01*
X-23750Y8380D02*
Y8640D01*
X-24120Y8010D02*
X-23750Y8380D01*
X-23530Y8640D02*
X-23080D01*
X-24220Y8010D02*
X-24120D01*
X-16620Y2410D02*
X-16590Y2380D01*
X-18240Y1076D02*
Y1460D01*
X-24150Y9880D02*
X-23654D01*
X-24020Y9520D02*
X-23857Y9683D01*
X-21891Y9289D02*
X-21670Y9510D01*
X-22520Y9289D02*
X-21891D01*
X-21670Y9510D02*
X-21480D01*
X-22359Y8891D02*
X-22180Y9070D01*
X-22359Y8680D02*
Y8891D01*
X-22180Y9070D02*
X-21960D01*
X-22021Y8201D02*
X-22010Y8190D01*
X-22592Y1332D02*
Y1413D01*
X-22520Y9683D02*
Y9870D01*
X-14870Y10100D02*
X-14650Y10320D01*
X-12610Y8320D02*
X-12380Y8550D01*
X-16890Y10070D02*
X-16640Y10320D01*
X-13390Y10570D02*
X-13140Y10820D01*
X-12890Y10560D02*
X-12650Y10320D01*
X-12880Y10060D02*
X-12640Y9820D01*
X-14890Y9070D02*
X-14640Y8820D01*
X-14900Y10560D02*
X-14640Y10820D01*
X-17410Y11040D02*
Y11050D01*
X-17140Y11320D01*
X-17420Y10550D02*
X-17410D01*
X-17140Y10820D01*
X-12890Y10570D02*
X-12640Y10820D01*
X-13380Y9570D02*
X-13140Y9810D01*
X-15390Y10070D02*
X-15140Y10320D01*
X-15890Y10070D02*
X-15640Y10320D01*
X-16380Y10080D02*
X-16140Y10320D01*
X-15880Y9580D02*
X-15640Y9820D01*
X-15390Y9550D02*
X-15140Y9800D01*
X-16890Y11070D02*
X-16640Y11320D01*
X-15140Y11320D02*
Y11910D01*
X-14360D02*
X-14350Y11900D01*
X-14620Y11340D02*
Y11910D01*
X-14920D02*
X-14620D01*
X-14360D01*
X-14130Y11330D02*
Y11900D01*
X-12380Y9570D02*
Y9580D01*
X-12140Y9820D01*
X-12885Y9575D02*
X-12880Y9570D01*
X-12390Y10560D02*
X-12150Y10320D01*
X-22520Y9870D02*
Y9880D01*
X-13180Y7740D02*
Y7860D01*
X-13140Y8160D02*
X-12960Y7980D01*
Y7740D02*
Y7980D01*
X-21640Y3300D02*
Y3690D01*
X-24027Y10077D02*
X-23654D01*
X-24110Y10160D02*
X-24027Y10077D01*
X-23857Y9683D02*
X-23654D01*
X-20470Y9120D02*
X-20280Y8930D01*
X-22520Y9683D02*
X-22043D01*
X-23654Y9486D02*
X-23284D01*
X-23087Y9683D01*
X-23654Y9289D02*
X-23284D01*
Y9486D01*
X-23087Y9683D02*
Y9797D01*
X-13380Y5220D02*
Y5420D01*
X-13170Y5630D01*
X-13030D01*
X-13590Y4830D02*
Y5010D01*
X-13380Y5220D01*
X-13810Y4830D02*
Y5220D01*
X-13810Y4830D02*
X-13810Y4830D01*
X-13810Y4720D02*
Y4830D01*
X-16850Y920D02*
X-16756D01*
X-13340Y5180D02*
X-13000D01*
X-13380Y5220D02*
X-13340Y5180D01*
X-13380Y5140D02*
Y5220D01*
Y5140D02*
X-13020Y4780D01*
X-18240Y1460D02*
X-17510Y2190D01*
X-17040D01*
X-13140Y10320D02*
X-12880Y10060D01*
X-12140Y9260D02*
Y9320D01*
X-13640Y10320D02*
X-13400Y10080D01*
X-14140Y10320D02*
X-13890Y10570D01*
X-14640Y10820D02*
Y11320D01*
X-13640Y9840D02*
X-13400Y10080D01*
X-13630Y9320D02*
X-13380Y9570D01*
X-14140Y9840D02*
X-13900Y10080D01*
X-14140Y9320D02*
X-13890Y9570D01*
X-12140Y8820D02*
X-11870Y9090D01*
X-12640Y8820D02*
X-12380Y9080D01*
X-12140Y8320D02*
X-11910Y8550D01*
X-16140Y10820D02*
X-15640Y11320D01*
X-16140Y10810D02*
X-15900Y10570D01*
X-16640Y10820D02*
X-16390Y10570D01*
X-15140Y9320D02*
X-14890Y9570D01*
X-15640Y9290D02*
X-15400Y9050D01*
X-16140Y9820D02*
X-15880Y9560D01*
X-16140Y9300D02*
X-15900Y9060D01*
X-16640Y9800D02*
X-16410Y9570D01*
X-17140Y9820D02*
X-16900Y9580D01*
X-16640Y9320D02*
X-16410Y9090D01*
X-17140Y9300D02*
X-16900Y9060D01*
X-15140Y8820D02*
X-14890Y9070D01*
X-15140Y8280D02*
Y8320D01*
X-16140Y8820D02*
X-15900Y9060D01*
X-15640Y8810D02*
X-15400Y8570D01*
X-15640Y8320D02*
X-15400Y8560D01*
X-13140Y8160D02*
Y8320D01*
X-12140Y11320D02*
X-11900Y11080D01*
X-12640Y11320D02*
X-12400Y11080D01*
X-12130Y10820D02*
X-11880Y10570D01*
X-17130Y10320D02*
X-16890Y10560D01*
X-13640Y8320D02*
X-13180Y7860D01*
X-13670Y6840D02*
Y7370D01*
X-8139Y6304D02*
Y6309D01*
X-24005Y5367D02*
Y6075D01*
X-24090Y6160D02*
X-24005Y6075D01*
X-9714Y5516D02*
Y5536D01*
X-6564Y5516D02*
X-6464D01*
X-6958Y5123D02*
X-6927D01*
X-24394Y2397D02*
X-22720D01*
X-24394Y823D02*
Y2397D01*
Y823D02*
X-22720D01*
Y2397D01*
D42*
X-18164Y8910D02*
X-18144Y8890D01*
X-17410Y8910D02*
X-17320Y8820D01*
X-14768Y2003D02*
X-14291Y2480D01*
X-16730Y8230D02*
X-16640Y8320D01*
X-16730Y7750D02*
Y8230D01*
X-10501Y3941D02*
Y3971D01*
X-17410Y8890D02*
Y8910D01*
X-18144Y8890D02*
X-17410D01*
X-23590Y11400D02*
X-23360D01*
X-13880Y996D02*
Y2451D01*
Y996D02*
X-13804Y920D01*
X-18190Y8884D02*
X-18164Y8910D01*
X-19180Y11000D02*
Y11280D01*
X-19710Y10470D02*
X-19180Y11000D01*
X-21701Y10419D02*
X-20161D01*
X-20725Y9510D02*
X-20110Y8895D01*
X-21480Y9510D02*
X-20725D01*
X-20470Y8900D02*
Y9120D01*
X-16410Y8560D02*
X-15930D01*
X-17320Y8820D02*
X-17140D01*
X-14291Y2480D02*
X-13880D01*
X-17210Y1280D02*
Y1640D01*
Y1280D02*
X-16850Y920D01*
X-20390Y11350D02*
X-20320Y11280D01*
X-20860Y11350D02*
X-20390D01*
X-23810Y11180D02*
X-23590Y11400D01*
X-22250Y9870D02*
X-21701Y10419D01*
X-13910Y8510D02*
Y8560D01*
Y8010D02*
Y8510D01*
Y8560D02*
X-13885Y8535D01*
X-20320Y11280D02*
X-19519D01*
X-23870Y11180D02*
X-23810D01*
X-16890Y8570D02*
X-16640Y8820D01*
X-13140D02*
X-13130D01*
X-20690Y8900D02*
X-20470D01*
X-16640Y8330D02*
X-16410Y8560D01*
X-17140Y8320D02*
X-16890Y8570D01*
X-16640Y8320D02*
Y8330D01*
X-17140Y8320D02*
Y8330D01*
X-13130Y8820D02*
X-12880Y9070D01*
X-13640Y8820D02*
X-13400Y9060D01*
X-13640Y8320D02*
X-13390Y8570D01*
X-14140Y8820D02*
X-13890Y9070D01*
X-13910Y8010D02*
X-12740Y6840D01*
X-12501D01*
X-14140Y8280D02*
X-13910Y8510D01*
X-13885Y8535D01*
D43*
X-19756Y4100D02*
Y5828D01*
X-20620Y4100D02*
X-19756D01*
X-22026Y5798D02*
Y6316D01*
X-22280Y6570D02*
X-22026Y6316D01*
X-19756Y4100D02*
X-18240Y2584D01*
X-23280Y3230D02*
X-22480D01*
X-23409Y3101D02*
X-23280Y3230D01*
X-23409Y2900D02*
Y3101D01*
X-22770Y2900D02*
X-22430Y2560D01*
X-23070Y2900D02*
X-22770D01*
X-22430Y1969D02*
Y2560D01*
X-24230Y8020D02*
Y8831D01*
Y8020D02*
X-24220Y8010D01*
X-23530Y10510D02*
X-23087Y10067D01*
X-23610Y10510D02*
X-23530D01*
X-23087Y9797D02*
Y10067D01*
X-22021Y8201D02*
Y8680D01*
X-21160Y2580D02*
Y3040D01*
X-22480Y3230D02*
X-21970Y2720D01*
Y1882D02*
Y2720D01*
Y1882D02*
X-21160Y1072D01*
X-22592Y1807D02*
X-22430Y1969D01*
X-22592Y1332D02*
X-22230Y970D01*
D44*
X-19363Y5828D02*
X-18658D01*
X-22520Y9870D02*
X-22250D01*
X-11421Y10570D02*
X-11060Y10209D01*
X-11880Y10570D02*
X-11421D01*
X-21420Y3300D02*
X-20620Y4100D01*
X-17720Y10850D02*
Y11500D01*
X-17850Y11630D02*
X-17720Y11500D01*
X-18001Y11630D02*
X-17850D01*
X-17720Y10850D02*
X-17420Y10550D01*
X-22860Y8640D02*
X-22830Y8610D01*
Y7980D02*
Y8610D01*
X-16169Y2380D02*
X-15792Y2003D01*
X-17040Y2410D02*
X-16620D01*
X-21700Y11070D02*
X-21420Y11350D01*
X-21880Y11070D02*
X-21700D01*
X-22052Y11490D02*
X-21560D01*
X-22362Y11180D02*
X-22052Y11490D01*
X-21560D02*
X-21420Y11350D01*
Y3300D02*
X-21160Y3040D01*
X-22542Y11180D02*
X-22362D01*
X-16251Y2380D02*
X-16169D01*
D45*
X-13330Y3630D02*
Y3740D01*
X-13520Y3630D02*
X-13330D01*
X-13520D02*
Y3740D01*
X-13760Y3650D02*
Y3740D01*
X-13970Y3650D02*
X-13760D01*
X-13970D02*
Y3740D01*
X-13760D02*
X-13520D01*
X-14330D02*
X-13970D01*
X-11096D02*
X-10895Y3941D01*
X-13330Y3740D02*
X-11096D01*
X-10650Y4120D02*
X-10501Y3971D01*
X-14320Y4120D02*
X-10650D01*
X-15310Y3310D02*
X-14880Y3740D01*
X-14550D01*
X-22433Y10077D02*
X-22090Y10420D01*
X-22520Y10077D02*
X-22433D01*
X-15320Y2680D02*
X-15200D01*
X-15320Y2550D02*
Y2680D01*
Y2550D02*
X-15200D01*
X-15310Y2810D02*
Y3310D01*
X-14780Y4120D02*
X-14540D01*
X-15536Y3364D02*
X-14780Y4120D01*
X-15536Y2003D02*
Y3364D01*
X-15280Y2003D02*
Y2420D01*
X-15200D01*
Y2550D01*
X-15310Y2810D02*
X-15200D01*
Y2680D02*
Y2810D01*
X-9558Y7909D02*
X-9420D01*
X-9558Y7653D02*
Y7909D01*
Y7653D02*
X-9420D01*
Y7909D01*
D46*
X-17112Y7851D02*
G03*
X-17112Y7851I-47J0D01*
G01*
D47*
X-18379Y11520D02*
Y11740D01*
X-17961D01*
Y11520D02*
Y11740D01*
X-18379Y11520D02*
X-17961D01*
X-11170Y9831D02*
X-10950D01*
X-11170D02*
Y10249D01*
X-10950D01*
Y9831D02*
Y10249D01*
X-12772Y5581D02*
Y5699D01*
X-13008D02*
X-12772D01*
X-13008Y5581D02*
Y5699D01*
Y5581D02*
X-12772D01*
X-12759Y1958D02*
X-12641D01*
X-12759Y1722D02*
Y1958D01*
Y1722D02*
X-12641D01*
Y1958D01*
X-14490Y5438D02*
X-14270D01*
Y5021D02*
Y5438D01*
X-14490Y5021D02*
X-14270D01*
X-14490D02*
Y5438D01*
X-12792Y4721D02*
Y4839D01*
X-13028D02*
X-12792D01*
X-13028Y4721D02*
Y4839D01*
Y4721D02*
X-12792D01*
X-13008Y5121D02*
X-12772D01*
X-13008D02*
Y5239D01*
X-12772D01*
Y5121D02*
Y5239D01*
X-16981Y2182D02*
Y2418D01*
X-17099Y2182D02*
X-16981D01*
X-17099D02*
Y2418D01*
X-16981D01*
X-16629Y2490D02*
X-16212D01*
X-16629Y2270D02*
Y2490D01*
Y2270D02*
X-16212D01*
Y2490D01*
X-24102Y10101D02*
Y10219D01*
X-24338D02*
X-24102D01*
X-24338Y10101D02*
Y10219D01*
Y10101D02*
X-24102D01*
X-24340Y8791D02*
X-24120D01*
X-24340D02*
Y9209D01*
X-24120D01*
Y8791D02*
Y9209D01*
X-23088Y8581D02*
X-22852D01*
X-23088D02*
Y8699D01*
X-22852D01*
Y8581D02*
Y8699D01*
X-23758Y8581D02*
X-23522D01*
X-23758D02*
Y8699D01*
X-23522D01*
Y8581D02*
Y8699D01*
X-19558Y11170D02*
X-19141D01*
Y11390D01*
X-19558D02*
X-19141D01*
X-19558Y11170D02*
Y11390D01*
X-22399Y8790D02*
X-21981D01*
X-22399Y8570D02*
Y8790D01*
Y8570D02*
X-21981D01*
Y8790D01*
X-15148Y11969D02*
X-14912D01*
Y11851D02*
Y11969D01*
X-15148Y11851D02*
X-14912D01*
X-15148D02*
Y11969D01*
X-16738Y7691D02*
Y7809D01*
Y7691D02*
X-16502D01*
Y7809D01*
X-16738D02*
X-16502D01*
X-13188Y7681D02*
Y7799D01*
Y7681D02*
X-12952D01*
Y7799D01*
X-13188D02*
X-12952D01*
X-23448Y2790D02*
X-23031D01*
Y3010D01*
X-23448D02*
X-23031D01*
X-23448Y2790D02*
Y3010D01*
X-17593Y8048D02*
Y11592D01*
X-11687D01*
Y8048D02*
Y11592D01*
X-17593Y8048D02*
X-11687D01*
X-14358Y11841D02*
X-14122D01*
X-14358D02*
Y11959D01*
X-14122D01*
Y11841D02*
Y11959D01*
X-11498Y1220D02*
X-11081D01*
Y1440D01*
X-11498D02*
X-11081D01*
X-11498Y1220D02*
Y1440D01*
X-12185Y7799D02*
X-11949D01*
Y7681D02*
Y7799D01*
X-12185Y7681D02*
X-11949D01*
X-12185D02*
Y7799D01*
X-13751Y5212D02*
Y5448D01*
X-13869Y5212D02*
X-13751D01*
X-13869D02*
Y5448D01*
X-13751D01*
X-13320Y1741D02*
X-13100D01*
X-13320D02*
Y2159D01*
X-13100D01*
Y1741D02*
Y2159D01*
X-12762Y6041D02*
Y6159D01*
X-12998D02*
X-12762D01*
X-12998Y6041D02*
Y6159D01*
Y6041D02*
X-12762D01*
X-13818Y4771D02*
Y4889D01*
Y4771D02*
X-13582D01*
Y4889D01*
X-13818D02*
X-13582D01*
X-21412Y3241D02*
Y3359D01*
X-21648D02*
X-21412D01*
X-21648Y3241D02*
Y3359D01*
Y3241D02*
X-21412D01*
X-14558Y3681D02*
X-14322D01*
X-14558D02*
Y3799D01*
X-14322D01*
Y3681D02*
Y3799D01*
X-14548Y4061D02*
X-14312D01*
X-14548D02*
Y4179D01*
X-14312D01*
Y4061D02*
Y4179D01*
X-9978Y1261D02*
Y1379D01*
Y1261D02*
X-9742D01*
Y1379D01*
X-9978D02*
X-9742D01*
X-9909Y7711D02*
Y7829D01*
X-10145D02*
X-9909D01*
X-10145Y7711D02*
Y7829D01*
Y7711D02*
X-9909D01*
X-9232Y1545D02*
X-7972D01*
Y955D02*
Y1545D01*
X-9232Y955D02*
X-7972D01*
X-9232D02*
Y1545D01*
X-18288Y5961D02*
Y6079D01*
Y5961D02*
X-18052D01*
Y6079D01*
X-18288D02*
X-18052D01*
X-14972Y6121D02*
Y6239D01*
X-15208D02*
X-14972D01*
X-15208Y6121D02*
Y6239D01*
Y6121D02*
X-14972D01*
X-13715Y6525D02*
Y7155D01*
Y6525D02*
X-12455D01*
Y7155D01*
X-13715D02*
X-12455D01*
X-10785Y7721D02*
X-10549D01*
X-10785D02*
Y7839D01*
X-10549D01*
Y7721D02*
Y7839D01*
X-6840Y668D02*
X-5580D01*
X-6840D02*
Y1652D01*
X-5580D01*
Y668D02*
Y1652D01*
X-12239Y4788D02*
X-12121D01*
X-12239Y4552D02*
Y4788D01*
Y4552D02*
X-12121D01*
Y4788D01*
D48*
X-18450Y8360D02*
Y8650D01*
X-17930Y8360D02*
Y8660D01*
D49*
X-27610Y4820D02*
X-25160D01*
Y70D02*
Y4820D01*
X-10Y4870D02*
X2490D01*
Y8020D01*
X40D02*
X2490D01*
X40D02*
Y12670D01*
X-27660Y4870D02*
X-27610Y4820D01*
X-27660Y4870D02*
Y7930D01*
X-27620Y7970D01*
X-25190D01*
X-25160D01*
Y12620D01*
X-25110Y12670D02*
X40D01*
X-10Y170D02*
Y4870D01*
X-160Y20D02*
X-10Y170D01*
X-25160Y70D02*
X-25110Y20D01*
X-25160Y12620D02*
X-25110Y12670D01*
D50*
X-21290Y11160D02*
Y11540D01*
X-21480D02*
X-21290D01*
X-21480Y11160D02*
X-21290D01*
X-20990D02*
Y11540D01*
Y11160D02*
X-20800D01*
X-20990Y11540D02*
X-20800D01*
X-21290Y11160D02*
X-20990D01*
X-20800D02*
Y11540D01*
X-21290D02*
X-20990D01*
X-21480Y11160D02*
Y11540D01*
D51*
X-19710Y7460D02*
D03*
X-23210Y6460D02*
D03*
X-19710Y2460D02*
D03*
X-18210Y9960D02*
D03*
X-14710Y7460D02*
D03*
D52*
X-16067Y1806D02*
D03*
X-14493D02*
D03*
D53*
X-12250Y1340D02*
D03*
X-13880Y2480D02*
D03*
X-17210Y1640D02*
D03*
D54*
X-11250Y11250D02*
D03*
X-10250D02*
D03*
X-9250D02*
D03*
X-6000Y10800D02*
D03*
Y9800D02*
D03*
Y8800D02*
D03*
X-4800Y1250D02*
D03*
X-3800D02*
D03*
X-2550Y11250D02*
D03*
X-2800Y1250D02*
D03*
D55*
X-1900Y10000D02*
D03*
X-1400D02*
D03*
Y9500D02*
D03*
Y9000D02*
D03*
X-1900D02*
D03*
Y9500D02*
D03*
X-18570Y11080D02*
D03*
X-21380Y6570D02*
D03*
X-24220Y8010D02*
D03*
X-22830Y7980D02*
D03*
X-22280Y6570D02*
D03*
X-22430Y2560D02*
D03*
X-22230Y970D02*
D03*
X-22010Y8190D02*
D03*
X-23610Y10510D02*
D03*
D56*
X-18200Y7400D02*
D03*
X-10490Y1330D02*
D03*
X-7220D02*
D03*
X-17410Y8890D02*
D03*
X-23510Y7990D02*
D03*
X-22090Y10420D02*
D03*
X-24170Y9520D02*
D03*
Y9830D02*
D03*
X-23360Y11400D02*
D03*
X-15930Y8560D02*
D03*
X-13910D02*
D03*
X-21880Y11070D02*
D03*
X-16890Y8570D02*
D03*
X-13390D02*
D03*
X-13890Y9070D02*
D03*
X-13400Y9060D02*
D03*
X-12880Y9070D02*
D03*
X-16890Y10560D02*
D03*
X-17410Y11040D02*
D03*
X-17420Y10550D02*
D03*
X-16890Y11070D02*
D03*
X-12400Y11080D02*
D03*
X-12390Y10560D02*
D03*
X-11880Y11080D02*
D03*
Y10570D02*
D03*
X-20320Y11280D02*
D03*
X-22043Y9683D02*
D03*
X-21480Y9510D02*
D03*
D57*
X-17630Y6240D02*
D03*
X-15700Y6190D02*
D03*
X-14930Y4600D02*
D03*
X-17110Y7550D02*
D03*
X-3510Y6880D02*
D03*
X-3010Y6890D02*
D03*
X-22050Y3770D02*
D03*
D58*
X-14360Y5870D02*
D03*
X-9930Y6970D02*
D03*
X-13640Y6140D02*
D03*
X-11698Y3408D02*
D03*
X-12230Y6110D02*
D03*
X-9130Y2960D02*
D03*
X-11660Y4530D02*
D03*
X-9510Y4525D02*
D03*
X-9530Y3731D02*
D03*
X-10300Y4140D02*
D03*
X-10700Y2960D02*
D03*
X-9120Y4140D02*
D03*
X-8340Y4130D02*
D03*
Y4540D02*
D03*
X-8730Y4530D02*
D03*
X-11150Y4920D02*
D03*
X-8340Y4930D02*
D03*
X-8740Y4940D02*
D03*
X-9130Y4930D02*
D03*
X-8340Y5320D02*
D03*
X-8730D02*
D03*
X-9120D02*
D03*
X-9910Y2560D02*
D03*
X-6300Y3000D02*
D03*
X-7550Y2110D02*
D03*
X-8340Y2950D02*
D03*
X-6280Y3716D02*
D03*
X-3730Y1930D02*
D03*
X-24460Y6000D02*
D03*
X-9520Y5730D02*
D03*
D59*
X-14870Y8600D02*
D03*
X-4880Y6090D02*
D03*
X-1700Y2940D02*
D03*
X-15400Y9050D02*
D03*
X-11840Y8550D02*
D03*
X-16900Y9570D02*
D03*
X-16380Y10070D02*
D03*
X-16410Y9570D02*
D03*
X-16380Y10570D02*
D03*
X-15900D02*
D03*
X-15890Y10070D02*
D03*
X-15880Y9560D02*
D03*
X-15390Y9550D02*
D03*
Y10070D02*
D03*
X-14870Y10100D02*
D03*
X-14880Y9570D02*
D03*
X-15400Y8570D02*
D03*
X-13890Y9570D02*
D03*
X-13380D02*
D03*
X-12880D02*
D03*
X-12380D02*
D03*
Y8550D02*
D03*
X-11850Y9090D02*
D03*
X-12380Y9110D02*
D03*
X-11830Y9570D02*
D03*
X-12890Y10560D02*
D03*
X-13410Y10570D02*
D03*
X-13890D02*
D03*
X-12880Y10060D02*
D03*
X-13400Y10080D02*
D03*
X-13900D02*
D03*
X-15900Y9060D02*
D03*
X-16900D02*
D03*
X-16410D02*
D03*
X-14890Y9070D02*
D03*
X-14900Y10560D02*
D03*
X-16910Y10070D02*
D03*
X-13900Y11070D02*
D03*
X-21960Y9070D02*
D03*
X-14920Y11080D02*
D03*
X-13380Y5220D02*
D03*
M02*
