G04 Layer_Color=32896*
%FSLAX43Y43*%
%MOMM*%
G71*
G01*
G75*
%ADD34C,0.152*%
%ADD74C,0.000*%
%ADD75C,0.127*%
%ADD76C,0.051*%
%ADD113C,0.050*%
G36*
X-14171Y1676D02*
X-17374D01*
Y4218D01*
X-14171D01*
Y1676D01*
D02*
G37*
D34*
X-40488Y10185D02*
Y10693D01*
Y10185D02*
X-39370D01*
Y10693D01*
X-40488D02*
X-39370D01*
X-40488Y11455D02*
Y11963D01*
Y11455D02*
X-39370D01*
Y11963D01*
X-40488D02*
X-39370D01*
X-40488Y12725D02*
Y13233D01*
Y12725D02*
X-39370D01*
Y13233D01*
X-40488D02*
X-39370D01*
X-40488Y13995D02*
Y14503D01*
Y13995D02*
X-39370D01*
Y14503D01*
X-40488D02*
X-39370D01*
X-44450Y13995D02*
Y14503D01*
X-45568D02*
X-44450D01*
X-45568Y13995D02*
Y14503D01*
Y13995D02*
X-44450D01*
Y12725D02*
Y13233D01*
X-45568D02*
X-44450D01*
X-45568Y12725D02*
Y13233D01*
Y12725D02*
X-44450D01*
Y11455D02*
Y11963D01*
X-45568D02*
X-44450D01*
X-45568Y11455D02*
Y11963D01*
Y11455D02*
X-44450D01*
Y10185D02*
Y10693D01*
X-45568D02*
X-44450D01*
X-45568Y10185D02*
Y10693D01*
Y10185D02*
X-44450D01*
Y14834D02*
X-40488D01*
X-44450Y9855D02*
Y14834D01*
Y9855D02*
X-42164D01*
X-40488D01*
Y14834D01*
Y10185D02*
Y10693D01*
Y10185D02*
X-39370D01*
Y10693D01*
X-40488D02*
X-39370D01*
X-40488Y11455D02*
Y11963D01*
Y11455D02*
X-39370D01*
Y11963D01*
X-40488D02*
X-39370D01*
X-40488Y12725D02*
Y13233D01*
Y12725D02*
X-39370D01*
Y13233D01*
X-40488D02*
X-39370D01*
X-40488Y13995D02*
Y14503D01*
Y13995D02*
X-39370D01*
Y14503D01*
X-40488D02*
X-39370D01*
X-44450Y13995D02*
Y14503D01*
X-45568D02*
X-44450D01*
X-45568Y13995D02*
Y14503D01*
Y13995D02*
X-44450D01*
Y12725D02*
Y13233D01*
X-45568D02*
X-44450D01*
X-45568Y12725D02*
Y13233D01*
Y12725D02*
X-44450D01*
Y11455D02*
Y11963D01*
X-45568D02*
X-44450D01*
X-45568Y11455D02*
Y11963D01*
Y11455D02*
X-44450D01*
Y10185D02*
Y10693D01*
X-45568D02*
X-44450D01*
X-45568Y10185D02*
Y10693D01*
Y10185D02*
X-44450D01*
Y14834D02*
X-40488D01*
X-44450Y9855D02*
Y14834D01*
Y9855D02*
X-42164D01*
X-40488D01*
Y14834D01*
D74*
X-42164Y9853D02*
G03*
X-42774Y9832I-305J-11D01*
G01*
X-42164Y9853D02*
G03*
X-42774Y9832I-305J-11D01*
G01*
D75*
X-55409Y27362D02*
X-53649D01*
Y24302D02*
Y27362D01*
X-55409Y24302D02*
X-53649D01*
X-55409D02*
Y27362D01*
X-53649D01*
Y24302D02*
Y27362D01*
X-55409Y24302D02*
X-53649D01*
X-55409D02*
Y27362D01*
X-61573Y9482D02*
X-58773D01*
Y13682D01*
X-61573D02*
X-58773D01*
X-61573Y9482D02*
Y13682D01*
Y9482D02*
X-58773D01*
Y13682D01*
X-61573D02*
X-58773D01*
X-61573Y9482D02*
Y13682D01*
D76*
X-45220Y19742D02*
Y23488D01*
X-47186Y19742D02*
Y23488D01*
X-45220D01*
X-47186Y19742D02*
X-45220D01*
D113*
X-29673Y4011D02*
Y19011D01*
Y4011D02*
X-14673D01*
Y19011D01*
X-29673D02*
X-14673D01*
X-23899Y1975D02*
Y4375D01*
Y1975D02*
X-19799D01*
Y4375D01*
X-23899D02*
X-19799D01*
X-44886Y20243D02*
X-29486D01*
Y29643D01*
X-44886D02*
X-29486D01*
X-44886Y20243D02*
Y29643D01*
X-13907Y16778D02*
X-2907D01*
Y5778D02*
Y16778D01*
X-13907Y5778D02*
X-2907D01*
X-13907D02*
Y16778D01*
M02*
