G04 Layer_Color=16711935*
%FSLAX43Y43*%
%MOMM*%
G71*
G01*
G75*
%ADD34C,0.152*%
%ADD50C,0.025*%
%ADD73C,0.240*%
%ADD75C,0.127*%
%ADD111C,0.025*%
%ADD112C,0.102*%
G36*
X-36852Y10365D02*
X-36952D01*
Y10565D01*
X-36852D01*
Y10365D01*
D02*
G37*
G36*
X-3911Y9849D02*
X-4892D01*
Y10304D01*
X-3911D01*
Y9849D01*
D02*
G37*
G36*
X-36350Y10365D02*
X-36452D01*
Y10565D01*
X-36350D01*
Y10365D01*
D02*
G37*
G36*
X-3911Y10649D02*
X-4900D01*
Y11106D01*
X-3911D01*
Y10649D01*
D02*
G37*
G36*
X-11913D02*
X-12913D01*
Y11106D01*
X-11913D01*
Y10649D01*
D02*
G37*
G36*
X-3911Y9049D02*
X-4896D01*
Y9503D01*
X-3911D01*
Y9049D01*
D02*
G37*
G36*
X-11913D02*
X-12917D01*
Y9501D01*
X-11913D01*
Y9049D01*
D02*
G37*
G36*
X-36878Y9400D02*
X-36977D01*
Y9600D01*
X-36878D01*
Y9400D01*
D02*
G37*
G36*
X-11913Y9849D02*
X-12912D01*
Y10304D01*
X-11913D01*
Y9849D01*
D02*
G37*
G36*
X-36376Y9400D02*
X-36477D01*
Y9600D01*
X-36376D01*
Y9400D01*
D02*
G37*
G36*
X-11913Y11449D02*
X-12912D01*
Y11907D01*
X-11913D01*
Y11449D01*
D02*
G37*
G36*
X-34499Y12168D02*
X-34598D01*
Y12368D01*
X-34499D01*
Y12168D01*
D02*
G37*
G36*
X-34999Y12168D02*
X-35100D01*
Y12368D01*
X-34999D01*
Y12168D01*
D02*
G37*
G36*
X-11913Y12249D02*
X-12915D01*
Y12710D01*
X-11913D01*
Y12249D01*
D02*
G37*
G36*
Y13049D02*
X-12910D01*
Y13509D01*
X-11913D01*
Y13049D01*
D02*
G37*
G36*
X-3911Y12249D02*
X-4899D01*
Y12707D01*
X-3911D01*
Y12249D01*
D02*
G37*
G36*
X-30837Y11562D02*
X-31038D01*
Y11662D01*
X-30837D01*
Y11562D01*
D02*
G37*
G36*
X-3911Y11449D02*
X-4889D01*
Y11908D01*
X-3911D01*
Y11449D01*
D02*
G37*
G36*
X-32992Y12041D02*
X-33091D01*
Y12242D01*
X-32992D01*
Y12041D01*
D02*
G37*
G36*
X-30837Y12062D02*
X-31038D01*
Y12164D01*
X-30837D01*
Y12062D01*
D02*
G37*
G36*
X-32490Y12041D02*
X-32591D01*
Y12242D01*
X-32490D01*
Y12041D01*
D02*
G37*
G36*
X-30968Y6536D02*
X-31555D01*
Y6995D01*
X-30968D01*
Y6536D01*
D02*
G37*
G36*
X-43182Y6043D02*
X-43382D01*
Y6144D01*
X-43182D01*
Y6043D01*
D02*
G37*
G36*
X-10979Y6781D02*
X-11438D01*
Y7769D01*
X-10979D01*
Y6781D01*
D02*
G37*
G36*
X-9379D02*
X-9840D01*
Y7762D01*
X-9379D01*
Y6781D01*
D02*
G37*
G36*
X-10179D02*
X-10642D01*
Y7762D01*
X-10179D01*
Y6781D01*
D02*
G37*
G36*
X-24745Y3252D02*
X-24844D01*
Y3453D01*
X-24745D01*
Y3252D01*
D02*
G37*
G36*
X-25245Y3252D02*
X-25346D01*
Y3453D01*
X-25245D01*
Y3252D01*
D02*
G37*
G36*
X-32158Y4373D02*
X-32358D01*
Y4472D01*
X-32158D01*
Y4373D01*
D02*
G37*
G36*
X-43182Y5543D02*
X-43382D01*
Y5642D01*
X-43182D01*
Y5543D01*
D02*
G37*
G36*
X-32158Y4873D02*
X-32358D01*
Y4974D01*
X-32158D01*
Y4873D01*
D02*
G37*
G36*
X-8579Y6781D02*
X-9038D01*
Y7762D01*
X-8579D01*
Y6781D01*
D02*
G37*
G36*
X-3911Y8249D02*
X-4891D01*
Y8698D01*
X-3911D01*
Y8249D01*
D02*
G37*
G36*
X-11913D02*
X-12919D01*
Y8698D01*
X-11913D01*
Y8249D01*
D02*
G37*
G36*
X-54888Y8282D02*
X-54987D01*
Y8482D01*
X-54888D01*
Y8282D01*
D02*
G37*
G36*
X-30967Y8419D02*
X-31555D01*
Y8875D01*
X-30967D01*
Y8419D01*
D02*
G37*
G36*
X-54386Y8282D02*
X-54487D01*
Y8482D01*
X-54386D01*
Y8282D01*
D02*
G37*
G36*
X-6979Y6781D02*
X-7434D01*
Y7763D01*
X-6979D01*
Y6781D01*
D02*
G37*
G36*
X-7779D02*
X-8236D01*
Y7764D01*
X-7779D01*
Y6781D01*
D02*
G37*
G36*
X-6179D02*
X-6632D01*
Y7764D01*
X-6179D01*
Y6781D01*
D02*
G37*
G36*
X-32978Y7478D02*
X-32978D01*
Y7477D01*
X-32979D01*
Y7477D01*
X-32979D01*
Y7477D01*
X-32979D01*
Y7477D01*
X-32980D01*
Y7477D01*
X-33561D01*
Y7477D01*
Y7477D01*
Y7935D01*
X-32978D01*
Y7478D01*
D02*
G37*
G36*
X-5379Y6781D02*
X-5828D01*
Y7761D01*
X-5379D01*
Y6781D01*
D02*
G37*
G36*
X-3911Y13049D02*
X-4895D01*
Y13510D01*
X-3911D01*
Y13049D01*
D02*
G37*
G36*
X-41914Y19585D02*
X-42013D01*
Y19785D01*
X-41914D01*
Y19585D01*
D02*
G37*
G36*
X-42414Y19585D02*
X-42515D01*
Y19785D01*
X-42414D01*
Y19585D01*
D02*
G37*
G36*
X-25670Y19636D02*
X-25769D01*
Y19836D01*
X-25670D01*
Y19636D01*
D02*
G37*
G36*
X-27295Y19661D02*
X-27395D01*
Y19862D01*
X-27295D01*
Y19661D01*
D02*
G37*
G36*
X-25168Y19636D02*
X-25269D01*
Y19836D01*
X-25168D01*
Y19636D01*
D02*
G37*
G36*
X-33398Y19559D02*
X-33500D01*
Y19760D01*
X-33398D01*
Y19559D01*
D02*
G37*
G36*
X-38028Y15597D02*
X-38129D01*
Y15798D01*
X-38028D01*
Y15597D01*
D02*
G37*
G36*
X-30851Y19559D02*
X-30952D01*
Y19760D01*
X-30851D01*
Y19559D01*
D02*
G37*
G36*
X-30351Y19559D02*
X-30450D01*
Y19760D01*
X-30351D01*
Y19559D01*
D02*
G37*
G36*
X-32898D02*
X-32998D01*
Y19760D01*
X-32898D01*
Y19559D01*
D02*
G37*
G36*
X-26793Y19661D02*
X-26895D01*
Y19862D01*
X-26793D01*
Y19661D01*
D02*
G37*
G36*
X-36370Y30126D02*
X-36469D01*
Y30326D01*
X-36370D01*
Y30126D01*
D02*
G37*
G36*
X-59183Y28370D02*
X-59384D01*
Y28469D01*
X-59183D01*
Y28370D01*
D02*
G37*
G36*
X-35868Y30126D02*
X-35969D01*
Y30326D01*
X-35868D01*
Y30126D01*
D02*
G37*
G36*
X-37877Y30151D02*
X-37976D01*
Y30351D01*
X-37877D01*
Y30151D01*
D02*
G37*
G36*
X-38377Y30151D02*
X-38478D01*
Y30351D01*
X-38377D01*
Y30151D01*
D02*
G37*
G36*
X-45476Y21958D02*
X-46927D01*
Y22708D01*
X-45476D01*
Y21958D01*
D02*
G37*
G36*
Y20510D02*
X-46929D01*
Y21259D01*
X-45476D01*
Y20510D01*
D02*
G37*
G36*
X-54658Y23293D02*
X-54757D01*
Y23494D01*
X-54658D01*
Y23293D01*
D02*
G37*
G36*
X-59183Y27868D02*
X-59384D01*
Y27969D01*
X-59183D01*
Y27868D01*
D02*
G37*
G36*
X-54156Y23293D02*
X-54257D01*
Y23494D01*
X-54156D01*
Y23293D01*
D02*
G37*
G36*
X-32942Y14226D02*
X-33041D01*
Y14426D01*
X-32942D01*
Y14226D01*
D02*
G37*
G36*
X-3911Y13849D02*
X-4895D01*
Y14312D01*
X-3911D01*
Y13849D01*
D02*
G37*
G36*
X-32440Y14226D02*
X-32541D01*
Y14426D01*
X-32440D01*
Y14226D01*
D02*
G37*
G36*
X-10179Y14784D02*
X-10639D01*
Y15781D01*
X-10179D01*
Y14784D01*
D02*
G37*
G36*
X-10979D02*
X-11444D01*
Y15787D01*
X-10979D01*
Y14784D01*
D02*
G37*
G36*
X-32439Y13057D02*
X-32540D01*
Y13258D01*
X-32439D01*
Y13057D01*
D02*
G37*
G36*
X-32941D02*
X-33040D01*
Y13258D01*
X-32941D01*
Y13057D01*
D02*
G37*
G36*
X-34977Y13239D02*
X-35178D01*
Y13338D01*
X-34977D01*
Y13239D01*
D02*
G37*
G36*
X-11913Y13849D02*
X-12918D01*
Y14316D01*
X-11913D01*
Y13849D01*
D02*
G37*
G36*
X-34977Y13739D02*
X-35178D01*
Y13840D01*
X-34977D01*
Y13739D01*
D02*
G37*
G36*
X-9379Y14784D02*
X-9840D01*
Y15786D01*
X-9379D01*
Y14784D01*
D02*
G37*
G36*
X-45852Y15190D02*
X-45952D01*
Y15391D01*
X-45852D01*
Y15190D01*
D02*
G37*
G36*
X-46352Y15190D02*
X-46454D01*
Y15391D01*
X-46352D01*
Y15190D01*
D02*
G37*
G36*
X-32915Y15394D02*
X-33015D01*
Y15594D01*
X-32915D01*
Y15394D01*
D02*
G37*
G36*
X-38530Y15597D02*
X-38629D01*
Y15798D01*
X-38530D01*
Y15597D01*
D02*
G37*
G36*
X-32413Y15394D02*
X-32515D01*
Y15594D01*
X-32413D01*
Y15394D01*
D02*
G37*
G36*
X-7779Y14784D02*
X-8236D01*
Y15782D01*
X-7779D01*
Y14784D01*
D02*
G37*
G36*
X-8579D02*
X-9037D01*
Y15783D01*
X-8579D01*
Y14784D01*
D02*
G37*
G36*
X-6979D02*
X-7433D01*
Y15786D01*
X-6979D01*
Y14784D01*
D02*
G37*
G36*
X-5379D02*
X-5835D01*
Y15777D01*
X-5379D01*
Y14784D01*
D02*
G37*
G36*
X-6179D02*
X-6631D01*
Y15788D01*
X-6179D01*
Y14784D01*
D02*
G37*
D34*
X-32926Y9129D02*
X-31605D01*
Y6284D02*
Y9129D01*
X-32926Y6284D02*
X-31605D01*
X-32926D02*
Y9129D01*
D50*
X-63779Y51D02*
X-63195D01*
X-63906Y32055D02*
X-63779Y32182D01*
X-63906Y178D02*
X-63779Y51D01*
X-406D02*
X-25Y432D01*
Y12370D01*
X-63779Y32182D02*
X102D01*
X-63906Y20244D02*
Y32055D01*
X-63983Y20244D02*
X-63906D01*
X-70155D02*
X-63983D01*
X-70256Y20142D02*
X-70155Y20244D01*
X-70256Y12370D02*
Y20142D01*
Y12370D02*
X-70129Y12243D01*
X102Y20371D02*
Y32182D01*
Y20371D02*
X6325D01*
Y12370D02*
Y20371D01*
X-25Y12370D02*
X6325D01*
X-63906Y178D02*
Y12243D01*
X-70129D02*
X-63906D01*
D73*
X-43466Y19943D02*
G03*
X-43466Y19943I-120J0D01*
G01*
D75*
X-59434Y27869D02*
X-59134D01*
Y28469D01*
X-59434D02*
X-59134D01*
X-59434Y27869D02*
Y28469D01*
X-54157Y23243D02*
Y23543D01*
X-54757D02*
X-54157D01*
X-54757Y23243D02*
Y23543D01*
Y23243D02*
X-54157D01*
X-30787Y11562D02*
Y12162D01*
X-31087Y11562D02*
X-30787D01*
X-31087D02*
Y12162D01*
X-30787D01*
X-14173Y1696D02*
Y4196D01*
X-17373D02*
X-14173D01*
X-17373Y1696D02*
Y4196D01*
Y1696D02*
X-14173D01*
X-26795Y19611D02*
Y19911D01*
X-27395D02*
X-26795D01*
X-27395Y19611D02*
Y19911D01*
Y19611D02*
X-26795D01*
X-34837Y18174D02*
X-31637D01*
Y16574D02*
Y18174D01*
X-34837Y16574D02*
X-31637D01*
X-34837D02*
Y18174D01*
X-38629Y15547D02*
X-38029D01*
X-38629D02*
Y15847D01*
X-38029D01*
Y15547D02*
Y15847D01*
X-46452Y15441D02*
X-45852D01*
Y15141D02*
Y15441D01*
X-46452Y15141D02*
X-45852D01*
X-46452D02*
Y15441D01*
X-23449Y2425D02*
Y3925D01*
Y2425D02*
X-20249D01*
Y3925D01*
X-23449D02*
X-20249D01*
X-25769Y19586D02*
X-25169D01*
X-25769D02*
Y19886D01*
X-25169D01*
Y19586D02*
Y19886D01*
X-25345Y3503D02*
X-24745D01*
Y3203D02*
Y3503D01*
X-25345Y3203D02*
X-24745D01*
X-25345D02*
Y3503D01*
X-36352Y10315D02*
Y10615D01*
X-36952D02*
X-36352D01*
X-36952Y10315D02*
Y10615D01*
Y10315D02*
X-36352D01*
X-36377Y9350D02*
Y9650D01*
X-36977D02*
X-36377D01*
X-36977Y9350D02*
Y9650D01*
Y9350D02*
X-36377D01*
X-54987Y8232D02*
X-54387D01*
X-54987D02*
Y8532D01*
X-54387D01*
Y8232D02*
Y8532D01*
X-35099Y12418D02*
X-34499D01*
Y12118D02*
Y12418D01*
X-35099Y12118D02*
X-34499D01*
X-35099D02*
Y12418D01*
X-33015Y15344D02*
X-32415D01*
X-33015D02*
Y15644D01*
X-32415D01*
Y15344D02*
Y15644D01*
X-33273Y4423D02*
Y5483D01*
X-33833D02*
X-33273D01*
X-33833Y4423D02*
Y5483D01*
Y4423D02*
X-33273D01*
X-35227Y13839D02*
X-34927D01*
X-35227Y13239D02*
Y13839D01*
Y13239D02*
X-34927D01*
Y13839D01*
X-30951Y19510D02*
Y19810D01*
Y19510D02*
X-30351D01*
Y19810D01*
X-30951D02*
X-30351D01*
X-29205Y3098D02*
Y3658D01*
X-28145D01*
Y3098D02*
Y3658D01*
X-29205Y3098D02*
X-28145D01*
X-35869Y30076D02*
Y30376D01*
X-36469D02*
X-35869D01*
X-36469Y30076D02*
Y30376D01*
Y30076D02*
X-35869D01*
X-44686Y20443D02*
X-29686D01*
Y29443D01*
X-44686D02*
X-29686D01*
X-44686Y20443D02*
Y29443D01*
X-58144Y7442D02*
Y8002D01*
X-59204Y7442D02*
X-58144D01*
X-59204D02*
Y8002D01*
X-58144D01*
X-33498Y19810D02*
X-32898D01*
Y19510D02*
Y19810D01*
X-33498Y19510D02*
X-32898D01*
X-33498D02*
Y19810D01*
X-42514Y19835D02*
X-41914D01*
Y19535D02*
Y19835D01*
X-42514Y19535D02*
X-41914D01*
X-42514D02*
Y19835D01*
X-38477Y30101D02*
Y30401D01*
Y30101D02*
X-37877D01*
Y30401D01*
X-38477D02*
X-37877D01*
X-41179Y5765D02*
Y6325D01*
X-42239Y5765D02*
X-41179D01*
X-42239D02*
Y6325D01*
X-41179D01*
X-43432Y6143D02*
X-43132D01*
X-43432Y5543D02*
Y6143D01*
Y5543D02*
X-43132D01*
Y6143D01*
X-32440Y13007D02*
Y13307D01*
X-33040D02*
X-32440D01*
X-33040Y13007D02*
Y13307D01*
Y13007D02*
X-32440D01*
X-33091Y11991D02*
X-32491D01*
X-33091D02*
Y12291D01*
X-32491D01*
Y11991D02*
Y12291D01*
X-36805Y12752D02*
Y13812D01*
Y12752D02*
X-36245D01*
Y13812D01*
X-36805D02*
X-36245D01*
X-32108Y4373D02*
Y4973D01*
X-32408Y4373D02*
X-32108D01*
X-32408D02*
Y4973D01*
X-32108D01*
X-33041Y14176D02*
X-32441D01*
X-33041D02*
Y14476D01*
X-32441D01*
Y14176D02*
Y14476D01*
X-27812Y24972D02*
Y26032D01*
X-28372D02*
X-27812D01*
X-28372Y24972D02*
Y26032D01*
Y24972D02*
X-27812D01*
X-46682Y29260D02*
X-45622D01*
Y29820D01*
X-46682D02*
X-45622D01*
X-46682Y29260D02*
Y29820D01*
D111*
X-63195Y51D02*
X-406D01*
D112*
X-45543Y21234D02*
Y21996D01*
X-46863Y21234D02*
Y21971D01*
M02*
