G04 Layer_Color=16711935*
%FSLAX24Y24*%
%MOIN*%
G70*
G01*
G75*
%ADD40C,0.0060*%
%ADD41C,0.0100*%
%ADD45C,0.0080*%
%ADD46C,0.0094*%
%ADD47C,0.0050*%
%ADD48C,0.0040*%
%ADD49C,0.0010*%
%ADD50C,0.0000*%
G36*
X-14912Y11870D02*
X-14951D01*
Y11949D01*
X-14912D01*
Y11870D01*
D02*
G37*
G36*
X-15109Y11870D02*
X-15149D01*
Y11949D01*
X-15109D01*
Y11870D01*
D02*
G37*
G36*
X-14121Y11861D02*
X-14161D01*
Y11940D01*
X-14121D01*
Y11861D01*
D02*
G37*
G36*
X-14319D02*
X-14358D01*
Y11940D01*
X-14319D01*
Y11861D01*
D02*
G37*
G36*
X-24102Y10121D02*
X-24141D01*
Y10200D01*
X-24102D01*
Y10121D01*
D02*
G37*
G36*
X-24299D02*
X-24338D01*
Y10200D01*
X-24299D01*
Y10121D01*
D02*
G37*
G36*
X-17904Y8645D02*
X-18475D01*
Y8940D01*
X-17904D01*
Y8645D01*
D02*
G37*
G36*
X-22851Y8601D02*
X-22891D01*
Y8680D01*
X-22851D01*
Y8601D01*
D02*
G37*
G36*
X-23049D02*
X-23088D01*
Y8680D01*
X-23049D01*
Y8601D01*
D02*
G37*
G36*
X-23522D02*
X-23561D01*
Y8680D01*
X-23522D01*
Y8601D01*
D02*
G37*
G36*
X-23719D02*
X-23758D01*
Y8680D01*
X-23719D01*
Y8601D01*
D02*
G37*
G36*
X-17904Y8075D02*
X-18476D01*
Y8370D01*
X-17904D01*
Y8075D01*
D02*
G37*
G36*
X-10549Y7741D02*
X-10588D01*
Y7820D01*
X-10549D01*
Y7741D01*
D02*
G37*
G36*
X-10746D02*
X-10785D01*
Y7820D01*
X-10746D01*
Y7741D01*
D02*
G37*
G36*
X-9909Y7731D02*
X-9948D01*
Y7810D01*
X-9909D01*
Y7731D01*
D02*
G37*
G36*
X-10106D02*
X-10145D01*
Y7810D01*
X-10106D01*
Y7731D01*
D02*
G37*
G36*
X-16502Y7710D02*
X-16541D01*
Y7789D01*
X-16502D01*
Y7710D01*
D02*
G37*
G36*
X-16698Y7710D02*
X-16738D01*
Y7789D01*
X-16698D01*
Y7710D01*
D02*
G37*
G36*
X-11949Y7700D02*
X-11988D01*
Y7779D01*
X-11949D01*
Y7700D01*
D02*
G37*
G36*
X-12952D02*
X-12991D01*
Y7779D01*
X-12952D01*
Y7700D01*
D02*
G37*
G36*
X-12146Y7700D02*
X-12186D01*
Y7779D01*
X-12146D01*
Y7700D01*
D02*
G37*
G36*
X-13149D02*
X-13189D01*
Y7779D01*
X-13149D01*
Y7700D01*
D02*
G37*
G36*
X-14972Y6141D02*
X-15012D01*
Y6220D01*
X-14972D01*
Y6141D01*
D02*
G37*
G36*
X-15169D02*
X-15208D01*
Y6220D01*
X-15169D01*
Y6141D01*
D02*
G37*
G36*
X-12761Y6061D02*
X-12801D01*
Y6140D01*
X-12761D01*
Y6061D01*
D02*
G37*
G36*
X-12959D02*
X-12998D01*
Y6140D01*
X-12959D01*
Y6061D01*
D02*
G37*
G36*
X-18052Y5980D02*
X-18091D01*
Y6059D01*
X-18052D01*
Y5980D01*
D02*
G37*
G36*
X-18249Y5980D02*
X-18289D01*
Y6059D01*
X-18249D01*
Y5980D01*
D02*
G37*
G36*
X-2118Y5820D02*
X-2297D01*
Y6211D01*
X-2118D01*
Y5820D01*
D02*
G37*
G36*
X-2433D02*
X-2611D01*
Y6216D01*
X-2433D01*
Y5820D01*
D02*
G37*
G36*
X-2748D02*
X-2927D01*
Y6215D01*
X-2748D01*
Y5820D01*
D02*
G37*
G36*
X-3063D02*
X-3242D01*
Y6213D01*
X-3063D01*
Y5820D01*
D02*
G37*
G36*
X-3377D02*
X-3558D01*
Y6214D01*
X-3377D01*
Y5820D01*
D02*
G37*
G36*
X-3692D02*
X-3874D01*
Y6215D01*
X-3692D01*
Y5820D01*
D02*
G37*
G36*
X-4007D02*
X-4189D01*
Y6213D01*
X-4007D01*
Y5820D01*
D02*
G37*
G36*
X-4322D02*
X-4506D01*
Y6215D01*
X-4322D01*
Y5820D01*
D02*
G37*
G36*
X-12772Y5601D02*
X-12811D01*
Y5680D01*
X-12772D01*
Y5601D01*
D02*
G37*
G36*
X-12969D02*
X-13008D01*
Y5680D01*
X-12969D01*
Y5601D01*
D02*
G37*
G36*
X-1540Y5452D02*
X-1927D01*
Y5635D01*
X-1540D01*
Y5452D01*
D02*
G37*
G36*
X-4690D02*
X-5086D01*
Y5636D01*
X-4690D01*
Y5452D01*
D02*
G37*
G36*
X-13771Y5409D02*
X-13850D01*
Y5449D01*
X-13771D01*
Y5409D01*
D02*
G37*
G36*
Y5212D02*
X-13850D01*
Y5251D01*
X-13771D01*
Y5212D01*
D02*
G37*
G36*
X-12771Y5141D02*
X-12811D01*
Y5220D01*
X-12771D01*
Y5141D01*
D02*
G37*
G36*
X-12969D02*
X-13008D01*
Y5220D01*
X-12969D01*
Y5141D01*
D02*
G37*
G36*
X-1540Y5137D02*
X-1927D01*
Y5319D01*
X-1540D01*
Y5137D01*
D02*
G37*
G36*
X-4690D02*
X-5083D01*
Y5318D01*
X-4690D01*
Y5137D01*
D02*
G37*
G36*
X-1540Y4822D02*
X-1929D01*
Y5003D01*
X-1540D01*
Y4822D01*
D02*
G37*
G36*
X-4690D02*
X-5085D01*
Y5004D01*
X-4690D01*
Y4822D01*
D02*
G37*
G36*
X-13582Y4790D02*
X-13621D01*
Y4869D01*
X-13582D01*
Y4790D01*
D02*
G37*
G36*
X-13779Y4790D02*
X-13819D01*
Y4869D01*
X-13779D01*
Y4790D01*
D02*
G37*
G36*
X-12141Y4749D02*
X-12220D01*
Y4789D01*
X-12141D01*
Y4749D01*
D02*
G37*
G36*
X-12791Y4741D02*
X-12831D01*
Y4820D01*
X-12791D01*
Y4741D01*
D02*
G37*
G36*
X-12989D02*
X-13028D01*
Y4820D01*
X-12989D01*
Y4741D01*
D02*
G37*
G36*
X-12141Y4552D02*
X-12220D01*
Y4591D01*
X-12141D01*
Y4552D01*
D02*
G37*
G36*
X-1540Y4507D02*
X-1925D01*
Y4688D01*
X-1540D01*
Y4507D01*
D02*
G37*
G36*
X-4690D02*
X-5084D01*
Y4688D01*
X-4690D01*
Y4507D01*
D02*
G37*
G36*
X-1540Y4193D02*
X-1929D01*
Y4372D01*
X-1540D01*
Y4193D01*
D02*
G37*
G36*
X-4690D02*
X-5084D01*
Y4372D01*
X-4690D01*
Y4193D01*
D02*
G37*
G36*
X-14311Y4081D02*
X-14351D01*
Y4160D01*
X-14311D01*
Y4081D01*
D02*
G37*
G36*
X-14509D02*
X-14548D01*
Y4160D01*
X-14509D01*
Y4081D01*
D02*
G37*
G36*
X-1540Y3878D02*
X-1926D01*
Y4057D01*
X-1540D01*
Y3878D01*
D02*
G37*
G36*
X-4690D02*
X-5084D01*
Y4057D01*
X-4690D01*
Y3878D01*
D02*
G37*
G36*
X-14321Y3701D02*
X-14361D01*
Y3780D01*
X-14321D01*
Y3701D01*
D02*
G37*
G36*
X-14519D02*
X-14558D01*
Y3780D01*
X-14519D01*
Y3701D01*
D02*
G37*
G36*
X-1540Y3563D02*
X-1927D01*
Y3741D01*
X-1540D01*
Y3563D01*
D02*
G37*
G36*
X-4690D02*
X-5085D01*
Y3741D01*
X-4690D01*
Y3563D01*
D02*
G37*
G36*
X-12192Y3315D02*
X-12423D01*
Y3494D01*
X-12192D01*
Y3315D01*
D02*
G37*
G36*
X-21412Y3261D02*
X-21451D01*
Y3340D01*
X-21412D01*
Y3261D01*
D02*
G37*
G36*
X-21609D02*
X-21648D01*
Y3340D01*
X-21609D01*
Y3261D01*
D02*
G37*
G36*
X-1540Y3248D02*
X-1926D01*
Y3425D01*
X-1540D01*
Y3248D01*
D02*
G37*
G36*
X-4690D02*
X-5086D01*
Y3424D01*
X-4690D01*
Y3248D01*
D02*
G37*
G36*
X-12983Y2944D02*
X-12984D01*
Y2944D01*
X-12984D01*
Y2944D01*
X-12984D01*
Y2944D01*
X-12984D01*
Y2944D01*
X-12984D01*
Y2944D01*
X-13213D01*
Y2944D01*
Y2944D01*
Y2944D01*
Y3124D01*
X-12983D01*
Y2944D01*
D02*
G37*
G36*
X-2118Y2670D02*
X-2295D01*
Y3056D01*
X-2118D01*
Y2670D01*
D02*
G37*
G36*
X-2433D02*
X-2611D01*
Y3057D01*
X-2433D01*
Y2670D01*
D02*
G37*
G36*
X-2748D02*
X-2927D01*
Y3056D01*
X-2748D01*
Y2670D01*
D02*
G37*
G36*
X-3063D02*
X-3242D01*
Y3057D01*
X-3063D01*
Y2670D01*
D02*
G37*
G36*
X-3377D02*
X-3558D01*
Y3056D01*
X-3377D01*
Y2670D01*
D02*
G37*
G36*
X-3692D02*
X-3874D01*
Y3056D01*
X-3692D01*
Y2670D01*
D02*
G37*
G36*
X-4007D02*
X-4190D01*
Y3056D01*
X-4007D01*
Y2670D01*
D02*
G37*
G36*
X-4322D02*
X-4503D01*
Y3059D01*
X-4322D01*
Y2670D01*
D02*
G37*
G36*
X-12192Y2573D02*
X-12423D01*
Y2754D01*
X-12192D01*
Y2573D01*
D02*
G37*
G36*
X-17001Y2379D02*
X-17080D01*
Y2419D01*
X-17001D01*
Y2379D01*
D02*
G37*
G36*
Y2182D02*
X-17080D01*
Y2221D01*
X-17001D01*
Y2182D01*
D02*
G37*
G36*
X-12661Y1919D02*
X-12740D01*
Y1958D01*
X-12661D01*
Y1919D01*
D02*
G37*
G36*
Y1722D02*
X-12740D01*
Y1761D01*
X-12661D01*
Y1722D01*
D02*
G37*
G36*
X-9742Y1280D02*
X-9781D01*
Y1359D01*
X-9742D01*
Y1280D01*
D02*
G37*
G36*
X-9939Y1280D02*
X-9979D01*
Y1359D01*
X-9939D01*
Y1280D01*
D02*
G37*
D40*
X-12963Y2474D02*
Y3594D01*
Y2474D02*
X-12443D01*
Y3594D01*
X-12963D02*
X-12443D01*
X-12963Y2474D02*
Y3594D01*
Y2474D02*
X-12443D01*
Y3594D01*
X-12963D02*
X-12443D01*
D41*
X-24394Y2397D02*
X-22720D01*
X-24394Y823D02*
Y2397D01*
Y823D02*
X-22720D01*
Y2397D01*
X-24394D02*
X-22720D01*
X-24394Y823D02*
Y2397D01*
Y823D02*
X-22720D01*
Y2397D01*
D45*
X-9558Y7909D02*
X-9420D01*
X-9558Y7653D02*
Y7909D01*
Y7653D02*
X-9420D01*
Y7909D01*
X-9558D02*
X-9420D01*
X-9558Y7653D02*
Y7909D01*
Y7653D02*
X-9420D01*
Y7909D01*
D46*
X-17112Y7851D02*
G03*
X-17112Y7851I-47J0D01*
G01*
D02*
G03*
X-17112Y7851I-47J0D01*
G01*
D47*
X-18379Y11520D02*
Y11740D01*
X-17961D01*
Y11520D02*
Y11740D01*
X-18379Y11520D02*
X-17961D01*
X-11170Y9831D02*
X-10950D01*
X-11170D02*
Y10249D01*
X-10950D01*
Y9831D02*
Y10249D01*
X-12772Y5581D02*
Y5699D01*
X-13008D02*
X-12772D01*
X-13008Y5581D02*
Y5699D01*
Y5581D02*
X-12772D01*
X-12759Y1958D02*
X-12641D01*
X-12759Y1722D02*
Y1958D01*
Y1722D02*
X-12641D01*
Y1958D01*
X-14490Y5438D02*
X-14270D01*
Y5021D02*
Y5438D01*
X-14490Y5021D02*
X-14270D01*
X-14490D02*
Y5438D01*
X-12792Y4721D02*
Y4839D01*
X-13028D02*
X-12792D01*
X-13028Y4721D02*
Y4839D01*
Y4721D02*
X-12792D01*
X-13008Y5121D02*
X-12772D01*
X-13008D02*
Y5239D01*
X-12772D01*
Y5121D02*
Y5239D01*
X-16981Y2182D02*
Y2418D01*
X-17099Y2182D02*
X-16981D01*
X-17099D02*
Y2418D01*
X-16981D01*
X-16629Y2490D02*
X-16212D01*
X-16629Y2270D02*
Y2490D01*
Y2270D02*
X-16212D01*
Y2490D01*
X-24102Y10101D02*
Y10219D01*
X-24338D02*
X-24102D01*
X-24338Y10101D02*
Y10219D01*
Y10101D02*
X-24102D01*
X-24340Y8791D02*
X-24120D01*
X-24340D02*
Y9209D01*
X-24120D01*
Y8791D02*
Y9209D01*
X-23088Y8581D02*
X-22852D01*
X-23088D02*
Y8699D01*
X-22852D01*
Y8581D02*
Y8699D01*
X-23758Y8581D02*
X-23522D01*
X-23758D02*
Y8699D01*
X-23522D01*
Y8581D02*
Y8699D01*
X-19558Y11170D02*
X-19141D01*
Y11390D01*
X-19558D02*
X-19141D01*
X-19558Y11170D02*
Y11390D01*
X-22399Y8790D02*
X-21981D01*
X-22399Y8570D02*
Y8790D01*
Y8570D02*
X-21981D01*
Y8790D01*
X-15148Y11969D02*
X-14912D01*
Y11851D02*
Y11969D01*
X-15148Y11851D02*
X-14912D01*
X-15148D02*
Y11969D01*
X-16738Y7691D02*
Y7809D01*
Y7691D02*
X-16502D01*
Y7809D01*
X-16738D02*
X-16502D01*
X-13188Y7681D02*
Y7799D01*
Y7681D02*
X-12952D01*
Y7799D01*
X-13188D02*
X-12952D01*
X-23448Y2790D02*
X-23031D01*
Y3010D01*
X-23448D02*
X-23031D01*
X-23448Y2790D02*
Y3010D01*
X-17593Y8048D02*
Y11592D01*
X-11687D01*
Y8048D02*
Y11592D01*
X-17593Y8048D02*
X-11687D01*
X-14358Y11841D02*
X-14122D01*
X-14358D02*
Y11959D01*
X-14122D01*
Y11841D02*
Y11959D01*
X-11498Y1220D02*
X-11081D01*
Y1440D01*
X-11498D02*
X-11081D01*
X-11498Y1220D02*
Y1440D01*
X-12185Y7799D02*
X-11949D01*
Y7681D02*
Y7799D01*
X-12185Y7681D02*
X-11949D01*
X-12185D02*
Y7799D01*
X-13751Y5212D02*
Y5448D01*
X-13869Y5212D02*
X-13751D01*
X-13869D02*
Y5448D01*
X-13751D01*
X-13320Y1741D02*
X-13100D01*
X-13320D02*
Y2159D01*
X-13100D01*
Y1741D02*
Y2159D01*
X-12762Y6041D02*
Y6159D01*
X-12998D02*
X-12762D01*
X-12998Y6041D02*
Y6159D01*
Y6041D02*
X-12762D01*
X-13818Y4771D02*
Y4889D01*
Y4771D02*
X-13582D01*
Y4889D01*
X-13818D02*
X-13582D01*
X-21412Y3241D02*
Y3359D01*
X-21648D02*
X-21412D01*
X-21648Y3241D02*
Y3359D01*
Y3241D02*
X-21412D01*
X-14558Y3681D02*
X-14322D01*
X-14558D02*
Y3799D01*
X-14322D01*
Y3681D02*
Y3799D01*
X-14548Y4061D02*
X-14312D01*
X-14548D02*
Y4179D01*
X-14312D01*
Y4061D02*
Y4179D01*
X-9978Y1261D02*
Y1379D01*
Y1261D02*
X-9742D01*
Y1379D01*
X-9978D02*
X-9742D01*
X-9909Y7711D02*
Y7829D01*
X-10145D02*
X-9909D01*
X-10145Y7711D02*
Y7829D01*
Y7711D02*
X-9909D01*
X-9232Y1545D02*
X-7972D01*
Y955D02*
Y1545D01*
X-9232Y955D02*
X-7972D01*
X-9232D02*
Y1545D01*
X-18288Y5961D02*
Y6079D01*
Y5961D02*
X-18052D01*
Y6079D01*
X-18288D02*
X-18052D01*
X-14972Y6121D02*
Y6239D01*
X-15208D02*
X-14972D01*
X-15208Y6121D02*
Y6239D01*
Y6121D02*
X-14972D01*
X-13715Y6525D02*
Y7155D01*
Y6525D02*
X-12455D01*
Y7155D01*
X-13715D02*
X-12455D01*
X-10785Y7721D02*
X-10549D01*
X-10785D02*
Y7839D01*
X-10549D01*
Y7721D02*
Y7839D01*
X-6840Y668D02*
X-5580D01*
X-6840D02*
Y1652D01*
X-5580D01*
Y668D02*
Y1652D01*
X-12239Y4788D02*
X-12121D01*
X-12239Y4552D02*
Y4788D01*
Y4552D02*
X-12121D01*
Y4788D01*
X-18379Y11520D02*
Y11740D01*
X-17961D01*
Y11520D02*
Y11740D01*
X-18379Y11520D02*
X-17961D01*
X-11170Y9831D02*
X-10950D01*
X-11170D02*
Y10249D01*
X-10950D01*
Y9831D02*
Y10249D01*
X-12772Y5581D02*
Y5699D01*
X-13008D02*
X-12772D01*
X-13008Y5581D02*
Y5699D01*
Y5581D02*
X-12772D01*
X-12759Y1958D02*
X-12641D01*
X-12759Y1722D02*
Y1958D01*
Y1722D02*
X-12641D01*
Y1958D01*
X-14490Y5438D02*
X-14270D01*
Y5021D02*
Y5438D01*
X-14490Y5021D02*
X-14270D01*
X-14490D02*
Y5438D01*
X-12792Y4721D02*
Y4839D01*
X-13028D02*
X-12792D01*
X-13028Y4721D02*
Y4839D01*
Y4721D02*
X-12792D01*
X-13008Y5121D02*
X-12772D01*
X-13008D02*
Y5239D01*
X-12772D01*
Y5121D02*
Y5239D01*
X-16981Y2182D02*
Y2418D01*
X-17099Y2182D02*
X-16981D01*
X-17099D02*
Y2418D01*
X-16981D01*
X-16629Y2490D02*
X-16212D01*
X-16629Y2270D02*
Y2490D01*
Y2270D02*
X-16212D01*
Y2490D01*
X-24102Y10101D02*
Y10219D01*
X-24338D02*
X-24102D01*
X-24338Y10101D02*
Y10219D01*
Y10101D02*
X-24102D01*
X-24340Y8791D02*
X-24120D01*
X-24340D02*
Y9209D01*
X-24120D01*
Y8791D02*
Y9209D01*
X-23088Y8581D02*
X-22852D01*
X-23088D02*
Y8699D01*
X-22852D01*
Y8581D02*
Y8699D01*
X-23758Y8581D02*
X-23522D01*
X-23758D02*
Y8699D01*
X-23522D01*
Y8581D02*
Y8699D01*
X-19558Y11170D02*
X-19141D01*
Y11390D01*
X-19558D02*
X-19141D01*
X-19558Y11170D02*
Y11390D01*
X-22399Y8790D02*
X-21981D01*
X-22399Y8570D02*
Y8790D01*
Y8570D02*
X-21981D01*
Y8790D01*
X-15148Y11969D02*
X-14912D01*
Y11851D02*
Y11969D01*
X-15148Y11851D02*
X-14912D01*
X-15148D02*
Y11969D01*
X-16738Y7691D02*
Y7809D01*
Y7691D02*
X-16502D01*
Y7809D01*
X-16738D02*
X-16502D01*
X-13188Y7681D02*
Y7799D01*
Y7681D02*
X-12952D01*
Y7799D01*
X-13188D02*
X-12952D01*
X-23448Y2790D02*
X-23031D01*
Y3010D01*
X-23448D02*
X-23031D01*
X-23448Y2790D02*
Y3010D01*
X-17593Y8048D02*
Y11592D01*
X-11687D01*
Y8048D02*
Y11592D01*
X-17593Y8048D02*
X-11687D01*
X-14358Y11841D02*
X-14122D01*
X-14358D02*
Y11959D01*
X-14122D01*
Y11841D02*
Y11959D01*
X-11498Y1220D02*
X-11081D01*
Y1440D01*
X-11498D02*
X-11081D01*
X-11498Y1220D02*
Y1440D01*
X-12185Y7799D02*
X-11949D01*
Y7681D02*
Y7799D01*
X-12185Y7681D02*
X-11949D01*
X-12185D02*
Y7799D01*
X-13751Y5212D02*
Y5448D01*
X-13869Y5212D02*
X-13751D01*
X-13869D02*
Y5448D01*
X-13751D01*
X-13320Y1741D02*
X-13100D01*
X-13320D02*
Y2159D01*
X-13100D01*
Y1741D02*
Y2159D01*
X-12762Y6041D02*
Y6159D01*
X-12998D02*
X-12762D01*
X-12998Y6041D02*
Y6159D01*
Y6041D02*
X-12762D01*
X-13818Y4771D02*
Y4889D01*
Y4771D02*
X-13582D01*
Y4889D01*
X-13818D02*
X-13582D01*
X-21412Y3241D02*
Y3359D01*
X-21648D02*
X-21412D01*
X-21648Y3241D02*
Y3359D01*
Y3241D02*
X-21412D01*
X-14558Y3681D02*
X-14322D01*
X-14558D02*
Y3799D01*
X-14322D01*
Y3681D02*
Y3799D01*
X-14548Y4061D02*
X-14312D01*
X-14548D02*
Y4179D01*
X-14312D01*
Y4061D02*
Y4179D01*
X-9978Y1261D02*
Y1379D01*
Y1261D02*
X-9742D01*
Y1379D01*
X-9978D02*
X-9742D01*
X-9909Y7711D02*
Y7829D01*
X-10145D02*
X-9909D01*
X-10145Y7711D02*
Y7829D01*
Y7711D02*
X-9909D01*
X-9232Y1545D02*
X-7972D01*
Y955D02*
Y1545D01*
X-9232Y955D02*
X-7972D01*
X-9232D02*
Y1545D01*
X-18288Y5961D02*
Y6079D01*
Y5961D02*
X-18052D01*
Y6079D01*
X-18288D02*
X-18052D01*
X-14972Y6121D02*
Y6239D01*
X-15208D02*
X-14972D01*
X-15208Y6121D02*
Y6239D01*
Y6121D02*
X-14972D01*
X-13715Y6525D02*
Y7155D01*
Y6525D02*
X-12455D01*
Y7155D01*
X-13715D02*
X-12455D01*
X-10785Y7721D02*
X-10549D01*
X-10785D02*
Y7839D01*
X-10549D01*
Y7721D02*
Y7839D01*
X-6840Y668D02*
X-5580D01*
X-6840D02*
Y1652D01*
X-5580D01*
Y668D02*
Y1652D01*
X-12239Y4788D02*
X-12121D01*
X-12239Y4552D02*
Y4788D01*
Y4552D02*
X-12121D01*
Y4788D01*
D48*
X-18450Y8360D02*
Y8650D01*
X-17930Y8360D02*
Y8660D01*
X-18450Y8360D02*
Y8650D01*
X-17930Y8360D02*
Y8660D01*
D49*
X-27610Y4820D02*
X-25160D01*
Y70D02*
Y4820D01*
X-10Y4870D02*
X2490D01*
Y8020D01*
X40D02*
X2490D01*
X40D02*
Y12670D01*
X-27660Y4870D02*
X-27610Y4820D01*
X-27660Y4870D02*
Y7930D01*
X-27620Y7970D01*
X-25190D01*
X-25160D01*
Y12620D01*
X-25110Y12670D02*
X40D01*
X-10Y170D02*
Y4870D01*
X-160Y20D02*
X-10Y170D01*
X-25160Y70D02*
X-25110Y20D01*
X-25160Y12620D02*
X-25110Y12670D01*
X-27610Y4820D02*
X-25160D01*
Y70D02*
Y4820D01*
X-10Y4870D02*
X2490D01*
Y8020D01*
X40D02*
X2490D01*
X40D02*
Y12670D01*
X-27660Y4870D02*
X-27610Y4820D01*
X-27660Y4870D02*
Y7930D01*
X-27620Y7970D01*
X-25190D01*
X-25160D01*
Y12620D01*
X-25110Y12670D02*
X40D01*
X-10Y170D02*
Y4870D01*
X-160Y20D02*
X-10Y170D01*
X-25160Y70D02*
X-25110Y20D01*
X-25160Y12620D02*
X-25110Y12670D01*
D50*
X-21290Y11160D02*
Y11540D01*
X-21480D02*
X-21290D01*
X-21480Y11160D02*
X-21290D01*
X-20990D02*
Y11540D01*
Y11160D02*
X-20800D01*
X-20990Y11540D02*
X-20800D01*
X-21290Y11160D02*
X-20990D01*
X-20800D02*
Y11540D01*
X-21290D02*
X-20990D01*
X-21480Y11160D02*
Y11540D01*
X-21290Y11160D02*
Y11540D01*
X-21480D02*
X-21290D01*
X-21480Y11160D02*
X-21290D01*
X-20990D02*
Y11540D01*
Y11160D02*
X-20800D01*
X-20990Y11540D02*
X-20800D01*
X-21290Y11160D02*
X-20990D01*
X-20800D02*
Y11540D01*
X-21290D02*
X-20990D01*
X-21480Y11160D02*
Y11540D01*
M02*
