G04 Layer_Color=255*
%FSLAX43Y43*%
%MOMM*%
G71*
G01*
G75*
%ADD10R,0.360X0.340*%
%ADD11R,0.340X0.360*%
%ADD12R,1.210X0.590*%
%ADD13C,0.450*%
%ADD14R,1.143X0.889*%
%ADD15R,1.400X1.000*%
%ADD16R,0.550X1.700*%
%ADD17R,1.000X0.900*%
%ADD18R,1.150X1.820*%
%ADD19R,1.200X1.800*%
%ADD20R,0.600X1.550*%
%ADD21R,1.100X1.900*%
%ADD22R,1.670X1.555*%
%ADD23R,0.600X0.540*%
%ADD24R,0.540X0.600*%
%ADD25C,0.610*%
%ADD26R,1.500X1.300*%
%ADD27R,2.300X1.900*%
%ADD28R,0.400X1.400*%
%ADD29R,1.500X0.550*%
%ADD30R,0.550X1.500*%
%ADD31R,1.905X0.559*%
%ADD32R,2.286X2.286*%
%ADD33R,0.800X0.800*%
%ADD40C,1.397*%
%ADD41C,1.270*%
%ADD42C,0.650*%
%ADD43C,2.286*%
D10*
X-59284Y28449D02*
D03*
Y27889D02*
D03*
X-30937Y12142D02*
D03*
Y11582D02*
D03*
X-35077Y13259D02*
D03*
Y13819D02*
D03*
X-43282Y5563D02*
D03*
Y6123D02*
D03*
X-32258Y4953D02*
D03*
Y4393D02*
D03*
D11*
X-54737Y23393D02*
D03*
X-54177D02*
D03*
X-36397Y9500D02*
D03*
X-36372Y10465D02*
D03*
X-27375Y19761D02*
D03*
X-26815D02*
D03*
X-38049Y15697D02*
D03*
X-38609D02*
D03*
X-46432Y15291D02*
D03*
X-45872D02*
D03*
X-25189Y19736D02*
D03*
X-25749D02*
D03*
X-25325Y3353D02*
D03*
X-24765D02*
D03*
X-36932Y10465D02*
D03*
X-36957Y9500D02*
D03*
X-54407Y8382D02*
D03*
X-54967D02*
D03*
X-35079Y12268D02*
D03*
X-34519D02*
D03*
X-32435Y15494D02*
D03*
X-32995D02*
D03*
X-30371Y19660D02*
D03*
X-30931D02*
D03*
X-36449Y30226D02*
D03*
X-35889D02*
D03*
X-33478Y19660D02*
D03*
X-32918D02*
D03*
X-42494Y19685D02*
D03*
X-41934D02*
D03*
X-37897Y30251D02*
D03*
X-38457D02*
D03*
X-33020Y13157D02*
D03*
X-32460D02*
D03*
X-32511Y12141D02*
D03*
X-33071D02*
D03*
X-32461Y14326D02*
D03*
X-33021D02*
D03*
D12*
X-53274Y26782D02*
D03*
X-55784Y24882D02*
D03*
Y25832D02*
D03*
X-53274Y24882D02*
D03*
X-55784Y26782D02*
D03*
D13*
X-16673Y6011D02*
D03*
Y7011D02*
D03*
Y8011D02*
D03*
Y9011D02*
D03*
Y10011D02*
D03*
Y11011D02*
D03*
Y12011D02*
D03*
Y13011D02*
D03*
X-17673Y6011D02*
D03*
Y7011D02*
D03*
Y8011D02*
D03*
Y9011D02*
D03*
Y10011D02*
D03*
Y11011D02*
D03*
Y12011D02*
D03*
Y13011D02*
D03*
X-18673Y6011D02*
D03*
Y7011D02*
D03*
Y8011D02*
D03*
Y9011D02*
D03*
Y10011D02*
D03*
Y11011D02*
D03*
Y12011D02*
D03*
Y13011D02*
D03*
X-19673Y6011D02*
D03*
Y7011D02*
D03*
Y8011D02*
D03*
Y9011D02*
D03*
Y10011D02*
D03*
Y11011D02*
D03*
Y12011D02*
D03*
Y13011D02*
D03*
X-20673Y6011D02*
D03*
Y7011D02*
D03*
Y8011D02*
D03*
Y9011D02*
D03*
Y10011D02*
D03*
Y11011D02*
D03*
Y12011D02*
D03*
Y13011D02*
D03*
X-21673Y6011D02*
D03*
Y7011D02*
D03*
Y8011D02*
D03*
Y9011D02*
D03*
Y10011D02*
D03*
Y11011D02*
D03*
Y12011D02*
D03*
Y13011D02*
D03*
X-22673Y6011D02*
D03*
Y7011D02*
D03*
Y8011D02*
D03*
Y9011D02*
D03*
Y10011D02*
D03*
Y11011D02*
D03*
Y12011D02*
D03*
Y13011D02*
D03*
X-23673Y6011D02*
D03*
Y7011D02*
D03*
Y8011D02*
D03*
Y9011D02*
D03*
Y10011D02*
D03*
Y11011D02*
D03*
Y12011D02*
D03*
Y13011D02*
D03*
X-24673Y6011D02*
D03*
Y7011D02*
D03*
Y8011D02*
D03*
Y9011D02*
D03*
Y10011D02*
D03*
Y11011D02*
D03*
Y12011D02*
D03*
Y13011D02*
D03*
X-25673Y6011D02*
D03*
Y7011D02*
D03*
Y8011D02*
D03*
Y9011D02*
D03*
Y10011D02*
D03*
Y11011D02*
D03*
Y12011D02*
D03*
Y13011D02*
D03*
X-26673Y6011D02*
D03*
Y7011D02*
D03*
Y8011D02*
D03*
Y9011D02*
D03*
Y10011D02*
D03*
Y11011D02*
D03*
Y12011D02*
D03*
Y13011D02*
D03*
X-27673Y6011D02*
D03*
Y7011D02*
D03*
Y8011D02*
D03*
Y9011D02*
D03*
Y10011D02*
D03*
Y11011D02*
D03*
Y12011D02*
D03*
Y13011D02*
D03*
X-16673Y14011D02*
D03*
X-17673D02*
D03*
X-18673D02*
D03*
X-19673D02*
D03*
X-20673D02*
D03*
X-21673D02*
D03*
X-22673D02*
D03*
X-23673D02*
D03*
X-24673D02*
D03*
X-25673D02*
D03*
X-26673D02*
D03*
X-27673D02*
D03*
X-16673Y15011D02*
D03*
X-17673D02*
D03*
X-18673D02*
D03*
X-19673D02*
D03*
X-20673D02*
D03*
X-21673D02*
D03*
X-22673D02*
D03*
X-23673D02*
D03*
X-24673D02*
D03*
X-25673D02*
D03*
X-26673D02*
D03*
X-27673D02*
D03*
X-16673Y16011D02*
D03*
X-17673D02*
D03*
X-18673D02*
D03*
X-19673D02*
D03*
X-20673D02*
D03*
X-21673D02*
D03*
X-22673D02*
D03*
X-23673D02*
D03*
X-24673D02*
D03*
X-25673D02*
D03*
X-26673D02*
D03*
X-27673D02*
D03*
X-16673Y17011D02*
D03*
X-17673D02*
D03*
X-18673D02*
D03*
X-19673D02*
D03*
X-20673D02*
D03*
X-21673D02*
D03*
X-22673D02*
D03*
X-23673D02*
D03*
X-24673D02*
D03*
X-25673D02*
D03*
X-26673D02*
D03*
X-27673D02*
D03*
D14*
X-17043Y3962D02*
D03*
X-14503D02*
D03*
X-17043Y1930D02*
D03*
X-14503D02*
D03*
D15*
X-33366Y7706D02*
D03*
X-31166Y8656D02*
D03*
Y6756D02*
D03*
D16*
X-61598Y11582D02*
D03*
D17*
X-60973Y13632D02*
D03*
X-59373D02*
D03*
Y9532D02*
D03*
X-60973D02*
D03*
D18*
X-31752Y17374D02*
D03*
X-34722D02*
D03*
D19*
X-57161Y12294D02*
D03*
X-53670D02*
D03*
X-51395Y12370D02*
D03*
X-47904D02*
D03*
D20*
X-55947Y14728D02*
D03*
X-54947Y14728D02*
D03*
X-50181Y14804D02*
D03*
X-49181Y14804D02*
D03*
D21*
X-23099Y3175D02*
D03*
X-20599D02*
D03*
D22*
X-46330Y2733D02*
D03*
Y6563D02*
D03*
X-53746Y2723D02*
D03*
Y6553D02*
D03*
D23*
X-33553Y5383D02*
D03*
Y4523D02*
D03*
X-36525Y12852D02*
D03*
Y13712D02*
D03*
X-28092Y25932D02*
D03*
Y25072D02*
D03*
D24*
X-29105Y3378D02*
D03*
X-28245D02*
D03*
X-58244Y7722D02*
D03*
X-59104D02*
D03*
X-41279Y6045D02*
D03*
X-42139D02*
D03*
X-45722Y29540D02*
D03*
X-46582D02*
D03*
D25*
X-30836Y28753D02*
D03*
Y27483D02*
D03*
Y26213D02*
D03*
Y24943D02*
D03*
Y23673D02*
D03*
Y22403D02*
D03*
X-32106Y28753D02*
D03*
Y27483D02*
D03*
Y26213D02*
D03*
Y24943D02*
D03*
Y23673D02*
D03*
Y22403D02*
D03*
X-33376Y28753D02*
D03*
Y27483D02*
D03*
Y26213D02*
D03*
Y24943D02*
D03*
Y23673D02*
D03*
Y22403D02*
D03*
X-34646Y28753D02*
D03*
Y27483D02*
D03*
Y26213D02*
D03*
Y24943D02*
D03*
Y23673D02*
D03*
Y22403D02*
D03*
X-35916Y28753D02*
D03*
Y27483D02*
D03*
Y26213D02*
D03*
Y24943D02*
D03*
Y23673D02*
D03*
Y22403D02*
D03*
X-37186Y28753D02*
D03*
Y27483D02*
D03*
Y26213D02*
D03*
Y24943D02*
D03*
Y23673D02*
D03*
Y22403D02*
D03*
X-38456Y28753D02*
D03*
Y27483D02*
D03*
Y26213D02*
D03*
Y24943D02*
D03*
Y23673D02*
D03*
Y22403D02*
D03*
X-39726Y28753D02*
D03*
Y27483D02*
D03*
Y26213D02*
D03*
Y24943D02*
D03*
Y23673D02*
D03*
Y22403D02*
D03*
X-40996Y28753D02*
D03*
Y27483D02*
D03*
Y26213D02*
D03*
Y24943D02*
D03*
Y23673D02*
D03*
Y22403D02*
D03*
X-42266Y28753D02*
D03*
Y27483D02*
D03*
Y26213D02*
D03*
Y24943D02*
D03*
Y23673D02*
D03*
Y22403D02*
D03*
X-30836Y21133D02*
D03*
X-32106D02*
D03*
X-33376D02*
D03*
X-34646D02*
D03*
X-35916D02*
D03*
X-37186D02*
D03*
X-38456D02*
D03*
X-39726D02*
D03*
X-40996D02*
D03*
X-42266D02*
D03*
X-43536Y28753D02*
D03*
Y27483D02*
D03*
Y26213D02*
D03*
Y24943D02*
D03*
Y23673D02*
D03*
Y22403D02*
D03*
Y21133D02*
D03*
D26*
X-46203Y22565D02*
D03*
Y20665D02*
D03*
D27*
X-35061Y2337D02*
D03*
X-42561D02*
D03*
D28*
X-37511Y5087D02*
D03*
X-38161D02*
D03*
X-38811D02*
D03*
X-39461D02*
D03*
X-40111D02*
D03*
D29*
X-4107Y14078D02*
D03*
Y13278D02*
D03*
Y12478D02*
D03*
Y11678D02*
D03*
Y10878D02*
D03*
Y10078D02*
D03*
Y9278D02*
D03*
Y8478D02*
D03*
X-12707D02*
D03*
Y9278D02*
D03*
Y10078D02*
D03*
Y10878D02*
D03*
Y11678D02*
D03*
Y12478D02*
D03*
Y13278D02*
D03*
Y14078D02*
D03*
D30*
X-5607Y6978D02*
D03*
X-6407D02*
D03*
X-7207D02*
D03*
X-8007D02*
D03*
X-8807D02*
D03*
X-9607D02*
D03*
X-10407D02*
D03*
X-11207D02*
D03*
Y15578D02*
D03*
X-10407D02*
D03*
X-9607D02*
D03*
X-8807D02*
D03*
X-8007D02*
D03*
X-7207D02*
D03*
X-6407D02*
D03*
X-5607D02*
D03*
D31*
X-39980Y10439D02*
D03*
Y11709D02*
D03*
Y12979D02*
D03*
Y14249D02*
D03*
X-44958D02*
D03*
Y12979D02*
D03*
Y11709D02*
D03*
Y10439D02*
D03*
D32*
X-42469Y12344D02*
D03*
D33*
X-9716Y30658D02*
D03*
X-11366D02*
D03*
D40*
X-60503Y2540D02*
D03*
Y5080D02*
D03*
X-16891Y29591D02*
D03*
X-3353Y22758D02*
D03*
Y20218D02*
D03*
X-3327Y17780D02*
D03*
Y30277D02*
D03*
Y27737D02*
D03*
Y25197D02*
D03*
X-7112Y3175D02*
D03*
X-6477Y28575D02*
D03*
X-9652Y3175D02*
D03*
X-12192D02*
D03*
X-15240Y22352D02*
D03*
Y24892D02*
D03*
Y27432D02*
D03*
X-23495Y28575D02*
D03*
X-26035D02*
D03*
X-28575D02*
D03*
D41*
X-31115Y3404D02*
D03*
D42*
X-36811Y4587D02*
D03*
X-40811D02*
D03*
D43*
X-37389Y18796D02*
D03*
X-46279Y25146D02*
D03*
X-50089Y6096D02*
D03*
X-58979Y16256D02*
D03*
X-50089Y18796D02*
D03*
M02*
