G04 Layer_Physical_Order=4*
G04 Layer_Color=16711680*
%FSLAX43Y43*%
%MOMM*%
G71*
G01*
G75*
%ADD34C,0.152*%
%ADD35C,0.254*%
%ADD38C,0.508*%
%ADD40C,1.397*%
%ADD41C,1.270*%
%ADD42C,0.650*%
%ADD43C,2.286*%
%ADD44C,1.016*%
%ADD45C,0.457*%
%ADD46C,0.965*%
%ADD47C,0.508*%
%ADD48C,0.635*%
D34*
X-37897Y28143D02*
X-35306D01*
X-4750Y26314D02*
X-3327Y27737D01*
X-8687Y26314D02*
X-4750D01*
X-13741Y21260D02*
X-8687Y26314D01*
X-17475Y21260D02*
X-13741D01*
X-24181Y14554D02*
X-17475Y21260D01*
X-21184Y7493D02*
X-19239Y9437D01*
X-15951D01*
X-15850Y7468D02*
X-4318D01*
X-29604Y11494D02*
X-24155D01*
X-32973Y9478D02*
X-24206D01*
X-37186Y13691D02*
X-32973Y9478D01*
X-16002Y7620D02*
X-12395Y11227D01*
X-37186Y13691D02*
Y14580D01*
X-36855Y14910D01*
X-36474D01*
X-25171Y6502D02*
X-12979D01*
X-9652Y3175D01*
D35*
X-47625Y24079D02*
X-46330Y25375D01*
X-47625Y21869D02*
X-39472Y13716D01*
X-62255Y13970D02*
Y15113D01*
X-62128Y15240D01*
X-62255Y13970D02*
X-50267Y1981D01*
X-9042D01*
X-8306Y2718D01*
X-16002Y7620D02*
X-15850Y7468D01*
X-29616Y11506D02*
X-29604Y11494D01*
X-37744Y13614D02*
Y14935D01*
X-39472Y8712D02*
Y13716D01*
Y8712D02*
X-35331Y4572D01*
X-17704D01*
X-12395Y11227D02*
Y15469D01*
X-9474Y4902D02*
X-8306Y3734D01*
Y2718D02*
Y3734D01*
X-47625Y21869D02*
Y24079D01*
X-37744Y14935D02*
X-37084Y15596D01*
X-34646D01*
X-37744Y13614D02*
X-32786Y8656D01*
X-29713D01*
X-17704Y4572D02*
X-16307Y3175D01*
X-12192D01*
D38*
X-54305Y16688D02*
Y20701D01*
D40*
X-60503Y2540D02*
D03*
Y5080D02*
D03*
X-16891Y29591D02*
D03*
X-3353Y22758D02*
D03*
Y20218D02*
D03*
X-3327Y17780D02*
D03*
Y30277D02*
D03*
Y27737D02*
D03*
Y25197D02*
D03*
X-7112Y3175D02*
D03*
X-6477Y28575D02*
D03*
X-9652Y3175D02*
D03*
X-12192D02*
D03*
X-15240Y22352D02*
D03*
Y24892D02*
D03*
Y27432D02*
D03*
X-23495Y28575D02*
D03*
X-26035D02*
D03*
X-28575D02*
D03*
D41*
X-31115Y3404D02*
D03*
X-47473Y27864D02*
D03*
X-57780Y28448D02*
D03*
X-58420Y25832D02*
D03*
X-43713Y4166D02*
D03*
X-35255Y6299D02*
D03*
D42*
X-36811Y4587D02*
D03*
X-40811D02*
D03*
D43*
X-37389Y18796D02*
D03*
X-46279Y25146D02*
D03*
X-50089Y6096D02*
D03*
X-58979Y16256D02*
D03*
X-50089Y18796D02*
D03*
D44*
X-54305Y20701D02*
D03*
X-61773Y7671D02*
D03*
X-56591Y16688D02*
D03*
X-54305D02*
D03*
D45*
X-24181Y14554D02*
D03*
X-62128Y15240D02*
D03*
X-9474Y4902D02*
D03*
X-15951Y9437D02*
D03*
X-21184Y7493D02*
D03*
X-19177Y5359D02*
D03*
X-16002Y7620D02*
D03*
X-25171Y6502D02*
D03*
X-23165Y13513D02*
D03*
X-22174D02*
D03*
X-21184D02*
D03*
X-23190Y12522D02*
D03*
X-22200Y12548D02*
D03*
X-21184Y12522D02*
D03*
X-28321Y12497D02*
D03*
X-22174Y11506D02*
D03*
X-21184Y11532D02*
D03*
Y10490D02*
D03*
X-23165Y10516D02*
D03*
X-27178Y7518D02*
D03*
X-26162Y10516D02*
D03*
X-24206Y9478D02*
D03*
X-24155Y11494D02*
D03*
X-29616Y11506D02*
D03*
X-23190Y7518D02*
D03*
X-31064Y15519D02*
D03*
X-29713Y8656D02*
D03*
X-34646Y15596D02*
D03*
X-25222Y17704D02*
D03*
X-36474Y14910D02*
D03*
D46*
X-56007Y9576D02*
D03*
X-7645Y17501D02*
D03*
X-8915Y17475D02*
D03*
X-43459Y19177D02*
D03*
X-37922Y11684D02*
D03*
X-39878Y15723D02*
D03*
X-44780Y15850D02*
D03*
D47*
X-33985Y13259D02*
D03*
X-37897Y28143D02*
D03*
X-35306Y28118D02*
D03*
X-37846Y26822D02*
D03*
X-37821Y23038D02*
D03*
X-41681Y23012D02*
D03*
X-42926D02*
D03*
X-40386D02*
D03*
X-35306Y25603D02*
D03*
X-34036D02*
D03*
X-32715Y25552D02*
D03*
X-35281Y26848D02*
D03*
X-34061D02*
D03*
X-32741Y26822D02*
D03*
X-30048Y24308D02*
D03*
X-31445Y23139D02*
D03*
X-30099Y23089D02*
D03*
X-31445Y21717D02*
D03*
Y24308D02*
D03*
X-32715D02*
D03*
X-33985D02*
D03*
X-35281D02*
D03*
X-39116Y21768D02*
D03*
X-37795Y24308D02*
D03*
X-37770Y25654D02*
D03*
X-39091Y25578D02*
D03*
Y24257D02*
D03*
X-40335Y24282D02*
D03*
X-40361Y25578D02*
D03*
X-40386Y26848D02*
D03*
X-41605D02*
D03*
X-41681Y24308D02*
D03*
X-41605Y25578D02*
D03*
X-42926Y24308D02*
D03*
X-30074Y21717D02*
D03*
X-39116Y22987D02*
D03*
X-4318Y7468D02*
D03*
X-12395Y15469D02*
D03*
X-37770Y21844D02*
D03*
D48*
X-30175Y26848D02*
D03*
Y28143D02*
D03*
X-31471Y26822D02*
D03*
X-31496Y28143D02*
D03*
X-42901Y28118D02*
D03*
X-44247Y26797D02*
D03*
X-44221Y28042D02*
D03*
X-42901Y26822D02*
D03*
X-32715Y23038D02*
D03*
X-34036Y23012D02*
D03*
X-35281Y23038D02*
D03*
X-34011Y21768D02*
D03*
X-42901D02*
D03*
X-35331Y21742D02*
D03*
X-40462D02*
D03*
X-44221Y22581D02*
D03*
X-18339Y3378D02*
D03*
X-26645D02*
D03*
X-46228Y18796D02*
D03*
M02*
