G04 Layer_Physical_Order=2*
G04 Layer_Color=16711680*
%FSLAX24Y24*%
%MOIN*%
G70*
G01*
G75*
%ADD21C,0.0080*%
%ADD22C,0.0550*%
%ADD23C,0.0500*%
%ADD24C,0.0380*%
%ADD25C,0.0400*%
D21*
X-2050Y1100D02*
Y2650D01*
X-2300Y850D02*
X-2050Y1100D01*
X-3400Y850D02*
X-2300D01*
X-3800Y1250D02*
X-3400Y850D01*
X-4400Y700D02*
X-2100D01*
X-4800Y1100D02*
X-4400Y700D01*
X-4800Y1100D02*
Y1250D01*
X-2100Y700D02*
X-1200Y1600D01*
X-1700Y550D02*
X-610Y1640D01*
X-7250Y550D02*
X-1700D01*
X-7900Y1200D02*
X-7250Y550D01*
X-2750Y2150D02*
X-2450Y1850D01*
X-610Y1640D02*
Y4660D01*
X-1200Y1600D02*
Y2450D01*
X-2600Y3850D02*
X-1200Y2450D01*
X-1050Y5100D02*
X-610Y4660D01*
X-2200Y5100D02*
X-1050D01*
X-2600Y3850D02*
Y5232D01*
X-2050Y5782D01*
X-6400Y6700D02*
X-5890Y6190D01*
X-7490Y6700D02*
X-6400D01*
X-8140Y6050D02*
X-7490Y6700D01*
X-11300Y12000D02*
X-7000D01*
X-11850Y11450D02*
X-11300Y12000D01*
X-11850Y8250D02*
Y11450D01*
X-7000Y12000D02*
X-6650Y11650D01*
X-11850Y8250D02*
X-11100Y7500D01*
X-2200Y6090D02*
Y11450D01*
X-2400Y11650D02*
X-2200Y11450D01*
X-2900Y11650D02*
X-2400D01*
X-3300Y11250D02*
X-2900Y11650D01*
X-11000Y8700D02*
X-8350Y6050D01*
X-11000Y8700D02*
Y11035D01*
X-8350Y6050D02*
X-8140D01*
X-11100Y7500D02*
X-11000D01*
X-12250Y6350D02*
X-11100Y7500D01*
X-2060Y10990D02*
X-1800Y11250D01*
X-2060Y6148D02*
Y10990D01*
X-2190Y5840D02*
Y6080D01*
X-2360Y5670D02*
X-2190Y5840D01*
X-2380Y5670D02*
X-2360D01*
X-4050Y4000D02*
X-2380Y5670D01*
X-4050Y3850D02*
Y4000D01*
X-7450Y1200D02*
X-6450D01*
X-8595Y2345D02*
X-7450Y1200D01*
X-5650Y7350D02*
X-4300Y6000D01*
X-7250Y7350D02*
X-5650D01*
X-3510Y5960D02*
X-2480D01*
X-4690Y7140D02*
X-3510Y5960D01*
X-12250Y1250D02*
Y6350D01*
X-10750Y1200D02*
X-7900D01*
X-9145Y2345D02*
X-8595D01*
X-9500Y11000D02*
X-9250Y11250D01*
X-9500Y9600D02*
Y11000D01*
X-8850Y9450D02*
Y11450D01*
X-9100Y11700D02*
X-8850Y11450D01*
X-9800Y11700D02*
X-9100D01*
X-11214Y11250D02*
X-11000Y11035D01*
X-9450Y3150D02*
X-7650Y4950D01*
X-8963Y5480D02*
X-7160D01*
X-9450Y3000D02*
Y3150D01*
X-2060Y6148D02*
X-2050Y6138D01*
Y5782D02*
Y6138D01*
X-2200Y6090D02*
X-2190Y6080D01*
X-2550Y8750D02*
Y11250D01*
X-4150Y7150D02*
X-2550Y8750D01*
X-4690Y7140D02*
Y7550D01*
X-5890Y5700D02*
Y6190D01*
X-4890Y2150D02*
X-4450D01*
X-2750D01*
X-5890Y3150D02*
X-4890Y2150D01*
X-6550Y6090D02*
Y6300D01*
X-7160Y5480D02*
X-6550Y6090D01*
X-5890Y3150D02*
Y5700D01*
X-5000Y7860D02*
X-4690Y7550D01*
X-7260Y7860D02*
X-5000D01*
X-8850Y9450D02*
X-7260Y7860D01*
X-10243Y6760D02*
X-8963Y5480D01*
X-10250Y11250D02*
X-9800Y11700D01*
X-9500Y9600D02*
X-7250Y7350D01*
X-12250Y1250D02*
X-12200Y1200D01*
X-7200Y4750D02*
X-6550D01*
X-10750Y1200D02*
X-7200Y4750D01*
X-11300Y800D02*
Y1200D01*
X-12200D02*
X-11300D01*
X-10750D01*
D22*
X-2800Y1250D02*
D03*
X-4800D02*
D03*
X-3800D02*
D03*
X-6000Y9800D02*
D03*
X-11250Y11250D02*
D03*
X-10250D02*
D03*
X-6000Y10800D02*
D03*
Y8800D02*
D03*
X-9250Y11250D02*
D03*
D23*
X-6650Y11650D02*
D03*
X-6450Y1200D02*
D03*
X-5650Y11650D02*
D03*
X-4800Y11250D02*
D03*
X-4050D02*
D03*
X-12250Y1250D02*
D03*
X-2550Y11250D02*
D03*
X-3300D02*
D03*
X-1800D02*
D03*
D24*
X-2450Y1850D02*
D03*
X-2050Y2650D02*
D03*
X-1200Y1600D02*
D03*
X-2200Y5100D02*
D03*
X-11000Y7500D02*
D03*
X-7650Y4950D02*
D03*
X-9450Y3000D02*
D03*
X-2480Y5960D02*
D03*
X-4150Y7150D02*
D03*
X-4300Y6000D02*
D03*
X-8300Y7750D02*
D03*
X-4450Y2150D02*
D03*
X-6550Y6300D02*
D03*
X-5890Y5700D02*
D03*
X-4050Y3850D02*
D03*
X-4000Y3350D02*
D03*
X-9145Y2345D02*
D03*
X-10243Y6760D02*
D03*
X-8140Y6050D02*
D03*
X-4690Y7550D02*
D03*
X-6550Y4750D02*
D03*
D25*
X-11300Y800D02*
D03*
M02*
