G04 Layer_Color=16711935*
%FSLAX24Y24*%
%MOIN*%
G70*
G01*
G75*
%ADD26C,0.0060*%
%ADD30C,0.0050*%
%ADD46C,0.0100*%
G36*
X-1511Y4342D02*
X-1590D01*
Y4381D01*
X-1511D01*
Y4342D01*
D02*
G37*
G36*
X-2211Y4539D02*
X-2290D01*
Y4579D01*
X-2211D01*
Y4539D01*
D02*
G37*
G36*
Y4342D02*
X-2290D01*
Y4381D01*
X-2211D01*
Y4342D01*
D02*
G37*
G36*
X-2910Y4342D02*
X-2989D01*
Y4381D01*
X-2910D01*
Y4342D01*
D02*
G37*
G36*
X-1060Y4342D02*
X-1139D01*
Y4381D01*
X-1060D01*
Y4342D01*
D02*
G37*
G36*
X-1511Y4539D02*
X-1590D01*
Y4579D01*
X-1511D01*
Y4539D01*
D02*
G37*
G36*
X-6239Y5210D02*
X-6279D01*
Y5289D01*
X-6239D01*
Y5210D01*
D02*
G37*
G36*
X-6042Y5210D02*
X-6081D01*
Y5289D01*
X-6042D01*
Y5210D01*
D02*
G37*
G36*
X-4354Y5142D02*
X-4433D01*
Y5181D01*
X-4354D01*
Y5142D01*
D02*
G37*
G36*
X-2910Y4539D02*
X-2989D01*
Y4578D01*
X-2910D01*
Y4539D01*
D02*
G37*
G36*
X-1060Y4539D02*
X-1139D01*
Y4578D01*
X-1060D01*
Y4539D01*
D02*
G37*
G36*
X-4354Y4319D02*
X-4433D01*
Y4358D01*
X-4354D01*
Y4319D01*
D02*
G37*
G36*
X-7365Y1710D02*
X-7404D01*
Y1789D01*
X-7365D01*
Y1710D01*
D02*
G37*
G36*
X-11961Y1842D02*
X-12040D01*
Y1881D01*
X-11961D01*
Y1842D01*
D02*
G37*
G36*
X-7562Y1710D02*
X-7602D01*
Y1789D01*
X-7562D01*
Y1710D01*
D02*
G37*
G36*
X-1711Y1192D02*
X-1790D01*
Y1231D01*
X-1711D01*
Y1192D01*
D02*
G37*
G36*
Y1389D02*
X-1790D01*
Y1429D01*
X-1711D01*
Y1389D01*
D02*
G37*
G36*
X-13819Y1910D02*
X-13858D01*
Y1989D01*
X-13819D01*
Y1910D01*
D02*
G37*
G36*
X-4354Y3239D02*
X-4433D01*
Y3278D01*
X-4354D01*
Y3239D01*
D02*
G37*
G36*
X-4354Y4121D02*
X-4433D01*
Y4161D01*
X-4354D01*
Y4121D01*
D02*
G37*
G36*
Y3042D02*
X-4433D01*
Y3081D01*
X-4354D01*
Y3042D01*
D02*
G37*
G36*
X-13622Y1910D02*
X-13661D01*
Y1989D01*
X-13622D01*
Y1910D01*
D02*
G37*
G36*
X-11961Y2039D02*
X-12040D01*
Y2079D01*
X-11961D01*
Y2039D01*
D02*
G37*
G36*
X-5469Y5211D02*
X-5508D01*
Y5290D01*
X-5469D01*
Y5211D01*
D02*
G37*
G36*
X-10389Y8711D02*
X-10428D01*
Y8790D01*
X-10389D01*
Y8711D01*
D02*
G37*
G36*
X-10192D02*
X-10231D01*
Y8790D01*
X-10192D01*
Y8711D01*
D02*
G37*
G36*
X-4410Y8369D02*
X-4489D01*
Y8408D01*
X-4410D01*
Y8369D01*
D02*
G37*
G36*
X-3811Y8368D02*
X-3890D01*
Y8408D01*
X-3811D01*
Y8368D01*
D02*
G37*
G36*
X-3254Y8369D02*
X-3333D01*
Y8408D01*
X-3254D01*
Y8369D01*
D02*
G37*
G36*
X-8060Y10042D02*
X-8139D01*
Y10081D01*
X-8060D01*
Y10042D01*
D02*
G37*
G36*
X-9121Y10111D02*
X-9161D01*
Y10190D01*
X-9121D01*
Y10111D01*
D02*
G37*
G36*
X-8060Y10239D02*
X-8139D01*
Y10278D01*
X-8060D01*
Y10239D01*
D02*
G37*
G36*
X-9319Y10111D02*
X-9358D01*
Y10190D01*
X-9319D01*
Y10111D01*
D02*
G37*
G36*
X-10389D02*
X-10428D01*
Y10190D01*
X-10389D01*
Y10111D01*
D02*
G37*
G36*
X-10192D02*
X-10231D01*
Y10190D01*
X-10192D01*
Y10111D01*
D02*
G37*
G36*
X-5342Y8311D02*
X-5382D01*
Y8390D01*
X-5342D01*
Y8311D01*
D02*
G37*
G36*
X-2814Y6472D02*
X-2993D01*
Y6703D01*
X-2814D01*
Y6472D01*
D02*
G37*
G36*
X-3554Y6472D02*
X-3735D01*
Y6703D01*
X-3554D01*
Y6472D01*
D02*
G37*
G36*
X-11204Y6442D02*
X-11283D01*
Y6481D01*
X-11204D01*
Y6442D01*
D02*
G37*
G36*
X-5271Y5211D02*
X-5311D01*
Y5290D01*
X-5271D01*
Y5211D01*
D02*
G37*
G36*
X-4354Y5339D02*
X-4433D01*
Y5378D01*
X-4354D01*
Y5339D01*
D02*
G37*
G36*
X-11204Y6639D02*
X-11283D01*
Y6679D01*
X-11204D01*
Y6639D01*
D02*
G37*
G36*
X-3811Y8172D02*
X-3890D01*
Y8211D01*
X-3811D01*
Y8172D01*
D02*
G37*
G36*
X-5539Y8311D02*
X-5578D01*
Y8390D01*
X-5539D01*
Y8311D01*
D02*
G37*
G36*
X-4410Y8171D02*
X-4489D01*
Y8211D01*
X-4410D01*
Y8171D01*
D02*
G37*
G36*
X-3184Y7264D02*
Y7263D01*
X-3364D01*
Y7264D01*
X-3364D01*
Y7264D01*
X-3364D01*
Y7264D01*
X-3364D01*
Y7264D01*
X-3364D01*
Y7264D01*
X-3364D01*
Y7493D01*
X-3184D01*
Y7264D01*
D02*
G37*
G36*
X-3254Y8171D02*
X-3333D01*
Y8211D01*
X-3254D01*
Y8171D01*
D02*
G37*
D26*
X-3060Y3560D02*
Y3740D01*
X-3500D02*
X-3060D01*
X-3500Y3550D02*
Y3740D01*
Y3550D02*
X-3060Y3560D01*
Y3060D02*
Y3240D01*
X-3500D02*
X-3060D01*
X-3500Y3050D02*
Y3240D01*
Y3050D02*
X-3060Y3060D01*
Y2560D02*
Y2740D01*
X-3500D02*
X-3060D01*
X-3500Y2550D02*
Y2740D01*
Y2550D02*
X-3060Y2560D01*
Y2060D02*
Y2240D01*
X-3500D02*
X-3060D01*
X-3500Y2050D02*
Y2240D01*
Y2050D02*
X-3060Y2060D01*
X-1500D02*
Y2240D01*
Y2060D02*
X-1060D01*
Y2250D01*
X-1500Y2240D02*
X-1060Y2250D01*
X-1500Y2560D02*
Y2740D01*
Y2560D02*
X-1060D01*
Y2750D01*
X-1500Y2740D02*
X-1060Y2750D01*
X-1500Y3060D02*
Y3240D01*
Y3060D02*
X-1060D01*
Y3250D01*
X-1500Y3240D02*
X-1060Y3250D01*
X-1500Y3560D02*
Y3740D01*
Y3560D02*
X-1060D01*
Y3750D01*
X-1500Y3740D02*
X-1060Y3750D01*
X-3060Y1920D02*
X-1500D01*
Y3880D01*
X-2400D02*
X-1500D01*
X-3060D02*
X-2400D01*
X-3060Y1920D02*
Y3880D01*
X-7190Y5850D02*
Y7810D01*
X-6530D01*
X-5630D01*
Y5850D02*
Y7810D01*
X-7190Y5850D02*
X-5630D01*
Y7670D02*
X-5190Y7680D01*
Y7490D02*
Y7680D01*
X-5630Y7490D02*
X-5190D01*
X-5630D02*
Y7670D01*
Y7170D02*
X-5190Y7180D01*
Y6990D02*
Y7180D01*
X-5630Y6990D02*
X-5190D01*
X-5630D02*
Y7170D01*
Y6670D02*
X-5190Y6680D01*
Y6490D02*
Y6680D01*
X-5630Y6490D02*
X-5190D01*
X-5630D02*
Y6670D01*
Y6170D02*
X-5190Y6180D01*
Y5990D02*
Y6180D01*
X-5630Y5990D02*
X-5190D01*
X-5630D02*
Y6170D01*
X-7630Y5980D02*
X-7190Y5990D01*
X-7630Y5980D02*
Y6170D01*
X-7190D01*
Y5990D02*
Y6170D01*
X-7630Y6480D02*
X-7190Y6490D01*
X-7630Y6480D02*
Y6670D01*
X-7190D01*
Y6490D02*
Y6670D01*
X-7630Y6980D02*
X-7190Y6990D01*
X-7630Y6980D02*
Y7170D01*
X-7190D01*
Y6990D02*
Y7170D01*
X-7630Y7480D02*
X-7190Y7490D01*
X-7630Y7480D02*
Y7670D01*
X-7190D01*
Y7490D02*
Y7670D01*
X-7203Y2470D02*
Y4430D01*
X-6543D01*
X-5643D01*
Y2470D02*
Y4430D01*
X-7203Y2470D02*
X-5643D01*
Y4290D02*
X-5203Y4300D01*
Y4110D02*
Y4300D01*
X-5643Y4110D02*
X-5203D01*
X-5643D02*
Y4290D01*
Y3790D02*
X-5203Y3800D01*
Y3610D02*
Y3800D01*
X-5643Y3610D02*
X-5203D01*
X-5643D02*
Y3790D01*
Y3290D02*
X-5203Y3300D01*
Y3110D02*
Y3300D01*
X-5643Y3110D02*
X-5203D01*
X-5643D02*
Y3290D01*
Y2790D02*
X-5203Y2800D01*
Y2610D02*
Y2800D01*
X-5643Y2610D02*
X-5203D01*
X-5643D02*
Y2790D01*
X-7643Y2600D02*
X-7203Y2610D01*
X-7643Y2600D02*
Y2790D01*
X-7203D01*
Y2610D02*
Y2790D01*
X-7643Y3100D02*
X-7203Y3110D01*
X-7643Y3100D02*
Y3290D01*
X-7203D01*
Y3110D02*
Y3290D01*
X-7643Y3600D02*
X-7203Y3610D01*
X-7643Y3600D02*
Y3790D01*
X-7203D01*
Y3610D02*
Y3790D01*
X-7643Y4100D02*
X-7203Y4110D01*
X-7643Y4100D02*
Y4290D01*
X-7203D01*
Y4110D02*
Y4290D01*
X-3834Y7243D02*
X-2714D01*
X-3834Y6723D02*
Y7243D01*
Y6723D02*
X-2714D01*
Y7243D01*
X-13603Y2620D02*
Y4580D01*
X-12943D01*
X-12043D01*
Y2620D02*
Y4580D01*
X-13603Y2620D02*
X-12043D01*
Y4440D02*
X-11603Y4450D01*
Y4260D02*
Y4450D01*
X-12043Y4260D02*
X-11603D01*
X-12043D02*
Y4440D01*
Y3940D02*
X-11603Y3950D01*
Y3760D02*
Y3950D01*
X-12043Y3760D02*
X-11603D01*
X-12043D02*
Y3940D01*
Y3440D02*
X-11603Y3450D01*
Y3260D02*
Y3450D01*
X-12043Y3260D02*
X-11603D01*
X-12043D02*
Y3440D01*
Y2940D02*
X-11603Y2950D01*
Y2760D02*
Y2950D01*
X-12043Y2760D02*
X-11603D01*
X-12043D02*
Y2940D01*
X-14043Y2750D02*
X-13603Y2760D01*
X-14043Y2750D02*
Y2940D01*
X-13603D01*
Y2760D02*
Y2940D01*
X-14043Y3250D02*
X-13603Y3260D01*
X-14043Y3250D02*
Y3440D01*
X-13603D01*
Y3260D02*
Y3440D01*
X-14043Y3750D02*
X-13603Y3760D01*
X-14043Y3750D02*
Y3940D01*
X-13603D01*
Y3760D02*
Y3940D01*
X-14043Y4250D02*
X-13603Y4260D01*
X-14043Y4250D02*
Y4440D01*
X-13603D01*
Y4260D02*
Y4440D01*
D30*
X-14150Y7800D02*
Y10250D01*
X-10950D01*
X-14150Y7800D02*
X-10950D01*
Y10250D01*
X-8159Y10042D02*
Y10278D01*
X-8041D01*
Y10042D02*
Y10278D01*
X-8159Y10042D02*
X-8041D01*
X-8109Y10860D02*
X-7691D01*
X-8109Y10640D02*
Y10860D01*
Y10640D02*
X-7691D01*
Y10860D01*
X-5508Y5191D02*
X-5272D01*
X-5508D02*
Y5309D01*
X-5272D01*
Y5191D02*
Y5309D01*
X-7178Y5240D02*
X-6761D01*
Y5460D01*
X-7178D02*
X-6761D01*
X-7178Y5240D02*
Y5460D01*
X-10428Y8691D02*
X-10192D01*
X-10428D02*
Y8809D01*
X-10192D01*
Y8691D02*
Y8809D01*
X-3710Y5272D02*
Y5689D01*
Y5272D02*
X-3490D01*
Y5689D01*
X-3710D02*
X-3490D01*
X-2191Y4342D02*
Y4578D01*
X-2309Y4342D02*
X-2191D01*
X-2309D02*
Y4578D01*
X-2191D01*
X-1691Y1192D02*
Y1428D01*
X-1809Y1192D02*
X-1691D01*
X-1809D02*
Y1428D01*
X-1691D01*
X-7601Y1809D02*
X-7365D01*
Y1691D02*
Y1809D01*
X-7601Y1691D02*
X-7365D01*
X-7601D02*
Y1809D01*
X-10428Y10091D02*
X-10192D01*
X-10428D02*
Y10209D01*
X-10192D01*
Y10091D02*
Y10209D01*
X-4509Y8172D02*
Y8408D01*
X-4391D01*
Y8172D02*
Y8408D01*
X-4509Y8172D02*
X-4391D01*
X-5342Y8291D02*
Y8409D01*
X-5578D02*
X-5342D01*
X-5578Y8291D02*
Y8409D01*
Y8291D02*
X-5342D01*
X-9358Y10091D02*
X-9122D01*
X-9358D02*
Y10209D01*
X-9122D01*
Y10091D02*
Y10209D01*
X-10559Y9390D02*
X-10141D01*
Y9610D01*
X-10559D02*
X-10141D01*
X-10559Y9390D02*
Y9610D01*
X-6278Y5309D02*
X-6042D01*
Y5191D02*
Y5309D01*
X-6278Y5191D02*
X-6042D01*
X-6278D02*
Y5309D01*
X-11184Y6442D02*
Y6678D01*
X-11302Y6442D02*
X-11184D01*
X-11302D02*
Y6678D01*
X-11184D01*
X-3352Y8172D02*
X-3234D01*
Y8408D01*
X-3352D02*
X-3234D01*
X-3352Y8172D02*
Y8408D01*
X-3909D02*
X-3791D01*
X-3909Y8172D02*
Y8408D01*
Y8172D02*
X-3791D01*
Y8408D01*
X-12059Y2078D02*
X-11941D01*
X-12059Y1842D02*
Y2078D01*
Y1842D02*
X-11941D01*
Y2078D01*
X-13858Y2009D02*
X-13622D01*
Y1891D02*
Y2009D01*
X-13858Y1891D02*
X-13622D01*
X-13858D02*
Y2009D01*
X-4452Y4122D02*
X-4334D01*
Y4358D01*
X-4452D02*
X-4334D01*
X-4452Y4122D02*
Y4358D01*
Y5142D02*
Y5378D01*
X-4334D01*
Y5142D02*
Y5378D01*
X-4452Y5142D02*
X-4334D01*
X-1159Y4342D02*
X-1041D01*
Y4578D01*
X-1159D02*
X-1041D01*
X-1159Y4342D02*
Y4578D01*
X-4452Y3042D02*
X-4334D01*
Y3278D01*
X-4452D02*
X-4334D01*
X-4452Y3042D02*
Y3278D01*
X-3009Y4342D02*
Y4578D01*
X-2891D01*
Y4342D02*
Y4578D01*
X-3009Y4342D02*
X-2891D01*
X-1609Y4578D02*
X-1491D01*
X-1609Y4342D02*
Y4578D01*
Y4342D02*
X-1491D01*
Y4578D01*
X-9252Y1690D02*
X-8835D01*
Y1910D01*
X-9252D02*
X-8835D01*
X-9252Y1690D02*
Y1910D01*
X-5778D02*
X-5361D01*
X-5778Y1690D02*
Y1910D01*
Y1690D02*
X-5361D01*
Y1910D01*
D46*
X-15550Y12750D02*
X0D01*
X-15550Y0D02*
Y12750D01*
Y0D02*
X0D01*
Y12750D01*
X-8372Y2555D02*
Y4445D01*
X-10672Y4500D02*
X-8372D01*
X-10672Y2500D02*
Y4500D01*
Y2500D02*
X-8372D01*
X-8365Y5155D02*
Y7045D01*
X-10665Y7100D02*
X-8365D01*
X-10665Y5100D02*
Y7100D01*
Y5100D02*
X-8365D01*
X-11893Y5155D02*
Y7045D01*
X-14193Y7100D02*
X-11893D01*
X-14193Y5100D02*
Y7100D01*
Y5100D02*
X-11893D01*
M02*
