M48
;Layer_Color=9474304
;FILE_FORMAT=2:4
INCH,LZ
;TYPE=PLATED
T1F00S00C0.0200
T2F00S00C0.0300
T3F00S00C0.0390
T4F00S00C0.0400
T5F00S00C0.0402
%
T01
X-0113Y0008
X-009145Y002345
X-00945Y003
X-00765Y00495
X-00655Y00475
X-00405Y00385
X-004Y00335
X-00445Y00215
X-00245Y00185
X-00205Y00265
X-0012Y0016
X-0022Y0051
X-00248Y00596
X-0043Y006
X-00415Y00715
X-00469Y00755
X-00589Y0057
X-00655Y0063
X-00814Y00605
X-0083Y00775
X-010243Y00676
X-011Y0075
T02
X-01225Y00125
X-00645Y0012
T03
X-00665Y01165
X-00565
X-0048Y01125
X-00405
X-0033
X-00255
X-0018
T04
X-0028Y00125
X-006Y0098
T05
X-0048Y00125
X-0038
X-006Y0088
Y0108
X-00925Y01125
X-01025
X-01125
M30
