G04 Layer_Color=8388736*
%FSLAX24Y24*%
%MOIN*%
G70*
G01*
G75*
%ADD33R,0.0489X0.0261*%
%ADD34R,0.0293X0.0316*%
%ADD35R,0.0222X0.0214*%
%ADD36R,0.0214X0.0222*%
%ADD37R,0.0860X0.0290*%
%ADD38R,0.0474X0.0631*%
%ADD39R,0.0710X0.0867*%
%ADD40R,0.0710X0.0592*%
%ADD41R,0.0710X0.0820*%
%ADD42R,0.0400X0.0200*%
%ADD43R,0.0316X0.0293*%
%ADD44R,0.0600X0.0190*%
%ADD45R,0.0788X0.0709*%
%ADD46C,0.0580*%
%ADD47C,0.0630*%
%ADD48C,0.0460*%
%ADD49C,0.0480*%
D33*
X-8637Y900D02*
D03*
X-7700D02*
D03*
X-9431D02*
D03*
X-10368D02*
D03*
D34*
X-5400Y1800D02*
D03*
X-5739D02*
D03*
X-9213D02*
D03*
X-8874D02*
D03*
X-10519Y9500D02*
D03*
X-10181D02*
D03*
X-7139Y5350D02*
D03*
X-6800D02*
D03*
X-7731Y10750D02*
D03*
X-8069D02*
D03*
D35*
X-1550Y2750D02*
D03*
Y2970D02*
D03*
X-3693Y4150D02*
D03*
Y4370D02*
D03*
X-2450Y4520D02*
D03*
Y4300D02*
D03*
X-4393Y3050D02*
D03*
Y3270D02*
D03*
X-1550Y3530D02*
D03*
Y3750D02*
D03*
X-3043Y4370D02*
D03*
Y4150D02*
D03*
X-4393Y5370D02*
D03*
Y5150D02*
D03*
Y4130D02*
D03*
Y4350D02*
D03*
X-12000Y2070D02*
D03*
Y1850D02*
D03*
X-3850Y8400D02*
D03*
Y8180D02*
D03*
X-3293D02*
D03*
Y8400D02*
D03*
X-11243Y6450D02*
D03*
Y6670D02*
D03*
X-4450Y8400D02*
D03*
Y8180D02*
D03*
X-1700Y1650D02*
D03*
Y1430D02*
D03*
X-1643Y4400D02*
D03*
Y4620D02*
D03*
X-8100Y10270D02*
D03*
Y10050D02*
D03*
D36*
X-13630Y1950D02*
D03*
X-13850D02*
D03*
X-6050Y5250D02*
D03*
X-6270D02*
D03*
X-9350Y10150D02*
D03*
X-9130D02*
D03*
X-5350Y8350D02*
D03*
X-5570D02*
D03*
X-10420Y10150D02*
D03*
X-10200D02*
D03*
X-7373Y1750D02*
D03*
X-7593D02*
D03*
X-10420Y8750D02*
D03*
X-10200D02*
D03*
X-5500Y5250D02*
D03*
X-5280D02*
D03*
D37*
X-13793Y4350D02*
D03*
Y3850D02*
D03*
Y3350D02*
D03*
Y2850D02*
D03*
X-11853D02*
D03*
Y3350D02*
D03*
Y3850D02*
D03*
Y4350D02*
D03*
X-7393Y4200D02*
D03*
Y3700D02*
D03*
Y3200D02*
D03*
Y2700D02*
D03*
X-5453D02*
D03*
Y3200D02*
D03*
Y3700D02*
D03*
Y4200D02*
D03*
X-7380Y7580D02*
D03*
Y7080D02*
D03*
Y6580D02*
D03*
Y6080D02*
D03*
X-5440D02*
D03*
Y6580D02*
D03*
Y7080D02*
D03*
Y7580D02*
D03*
D38*
X-3274Y7416D02*
D03*
X-2900Y6550D02*
D03*
X-3648D02*
D03*
D39*
X-13772Y6100D02*
D03*
X-10243D02*
D03*
X-10250Y3500D02*
D03*
D40*
X-12315Y6600D02*
D03*
Y5600D02*
D03*
X-8787Y6600D02*
D03*
Y5600D02*
D03*
X-8793Y4000D02*
D03*
Y3000D02*
D03*
D41*
X-2943Y2650D02*
D03*
D42*
X-2343Y2950D02*
D03*
Y2750D02*
D03*
Y2550D02*
D03*
Y2350D02*
D03*
X-3543D02*
D03*
Y2550D02*
D03*
Y2750D02*
D03*
Y2950D02*
D03*
D43*
X-3600Y5650D02*
D03*
Y5311D02*
D03*
D44*
X-9400Y9444D02*
D03*
Y9247D02*
D03*
Y9050D02*
D03*
Y8853D02*
D03*
Y8656D02*
D03*
X-7668D02*
D03*
Y8853D02*
D03*
Y9050D02*
D03*
Y9247D02*
D03*
Y9444D02*
D03*
D45*
X-13550Y8197D02*
D03*
X-11550Y9850D02*
D03*
Y8197D02*
D03*
X-13550Y9850D02*
D03*
D46*
X-1800Y11250D02*
D03*
X-3300D02*
D03*
X-2550D02*
D03*
X-12250Y1250D02*
D03*
X-4050Y11250D02*
D03*
X-4800D02*
D03*
X-5650Y11650D02*
D03*
X-6450Y1200D02*
D03*
X-6650Y11650D02*
D03*
D47*
X-9250Y11250D02*
D03*
X-6000Y8800D02*
D03*
Y10800D02*
D03*
X-10250Y11250D02*
D03*
X-11250D02*
D03*
X-6000Y9800D02*
D03*
X-3800Y1250D02*
D03*
X-4800D02*
D03*
X-2800D02*
D03*
D48*
X-6550Y4750D02*
D03*
X-4690Y7550D02*
D03*
X-8140Y6050D02*
D03*
X-10243Y6760D02*
D03*
X-9145Y2345D02*
D03*
X-2780Y3270D02*
D03*
X-4000Y3350D02*
D03*
X-4050Y3850D02*
D03*
X-5890Y5700D02*
D03*
X-6550Y6300D02*
D03*
X-4450Y2150D02*
D03*
X-8300Y7750D02*
D03*
X-4300Y6000D02*
D03*
X-4150Y7150D02*
D03*
X-2480Y5960D02*
D03*
X-2200Y5100D02*
D03*
X-9450Y3000D02*
D03*
X-7650Y4950D02*
D03*
X-1250Y2150D02*
D03*
X-2250Y1750D02*
D03*
X-11000Y7500D02*
D03*
D49*
X-11300Y800D02*
D03*
M02*
