G04 Layer_Color=8421504*
%FSLAX24Y24*%
%MOIN*%
G70*
G01*
G75*
%ADD10R,0.0630X0.0512*%
%ADD11R,0.0630X0.0787*%
%ADD12R,0.0134X0.0142*%
%ADD13R,0.0213X0.0236*%
%ADD14R,0.0780X0.0210*%
%ADD15R,0.0708X0.0629*%
%ADD16R,0.0520X0.0110*%
%ADD17R,0.0236X0.0213*%
%ADD18R,0.0320X0.0120*%
%ADD19R,0.0630X0.0740*%
%ADD20R,0.0142X0.0134*%
%ADD21R,0.0394X0.0551*%
D10*
X-8793Y3000D02*
D03*
Y4000D02*
D03*
X-8787Y5600D02*
D03*
Y6600D02*
D03*
X-12315Y5600D02*
D03*
Y6600D02*
D03*
D11*
X-10250Y3500D02*
D03*
X-10243Y6100D02*
D03*
X-13772D02*
D03*
D12*
X-5280Y5250D02*
D03*
X-5500D02*
D03*
X-10143Y8250D02*
D03*
X-10364D02*
D03*
X-7593Y1750D02*
D03*
X-7373D02*
D03*
X-10173Y10350D02*
D03*
X-10393D02*
D03*
X-5570Y8350D02*
D03*
X-5350D02*
D03*
X-9123Y10350D02*
D03*
X-9343D02*
D03*
X-6270Y5250D02*
D03*
X-6050D02*
D03*
X-13850Y1950D02*
D03*
X-13630D02*
D03*
D13*
X-6800Y5350D02*
D03*
X-7139D02*
D03*
X-10174Y9720D02*
D03*
X-10513D02*
D03*
X-8874Y1800D02*
D03*
X-9213D02*
D03*
X-5739D02*
D03*
X-5400D02*
D03*
D14*
X-5453Y4200D02*
D03*
Y3700D02*
D03*
Y3200D02*
D03*
Y2700D02*
D03*
X-7393D02*
D03*
Y3200D02*
D03*
Y3700D02*
D03*
Y4200D02*
D03*
X-5443Y7550D02*
D03*
Y7050D02*
D03*
Y6550D02*
D03*
Y6050D02*
D03*
X-7383D02*
D03*
Y6550D02*
D03*
Y7050D02*
D03*
Y7550D02*
D03*
X-11853Y4350D02*
D03*
Y3850D02*
D03*
Y3350D02*
D03*
Y2850D02*
D03*
X-13793D02*
D03*
Y3350D02*
D03*
Y3850D02*
D03*
Y4350D02*
D03*
D15*
X-11643Y8147D02*
D03*
X-13643Y9800D02*
D03*
Y8147D02*
D03*
X-11643Y9800D02*
D03*
D16*
X-7668Y9444D02*
D03*
Y9247D02*
D03*
Y9050D02*
D03*
Y8853D02*
D03*
Y8656D02*
D03*
X-9400D02*
D03*
Y8853D02*
D03*
Y9050D02*
D03*
Y9247D02*
D03*
Y9444D02*
D03*
D17*
X-3600Y5311D02*
D03*
Y5650D02*
D03*
D18*
X-3543Y2950D02*
D03*
Y2750D02*
D03*
Y2550D02*
D03*
Y2350D02*
D03*
X-2343D02*
D03*
Y2550D02*
D03*
Y2750D02*
D03*
Y2950D02*
D03*
D19*
X-2943Y2650D02*
D03*
D20*
X-1643Y4620D02*
D03*
Y4400D02*
D03*
X-1700Y1430D02*
D03*
Y1650D02*
D03*
X-4450Y8180D02*
D03*
Y8400D02*
D03*
X-11243Y6670D02*
D03*
Y6450D02*
D03*
X-3293Y8400D02*
D03*
Y8180D02*
D03*
X-3850D02*
D03*
Y8400D02*
D03*
X-12000Y1850D02*
D03*
Y2070D02*
D03*
X-4393Y4350D02*
D03*
Y4130D02*
D03*
Y5150D02*
D03*
Y5370D02*
D03*
X-3043Y4150D02*
D03*
Y4370D02*
D03*
X-1550Y3750D02*
D03*
Y3530D02*
D03*
X-4393Y3270D02*
D03*
Y3050D02*
D03*
X-2450Y4300D02*
D03*
Y4520D02*
D03*
X-3693Y4370D02*
D03*
Y4150D02*
D03*
X-1550Y2970D02*
D03*
Y2750D02*
D03*
D21*
X-3648Y6550D02*
D03*
X-2900D02*
D03*
X-3274Y7416D02*
D03*
M02*
