G04 Layer_Color=8388736*
%FSLAX24Y24*%
%MOIN*%
G70*
G01*
G75*
%ADD31R,0.0710X0.0592*%
%ADD32R,0.0710X0.0867*%
%ADD33R,0.0214X0.0222*%
%ADD34R,0.0293X0.0316*%
%ADD35R,0.0860X0.0290*%
%ADD36R,0.0788X0.0709*%
%ADD37R,0.0600X0.0190*%
%ADD38R,0.0316X0.0293*%
%ADD39R,0.0400X0.0200*%
%ADD40R,0.0710X0.0820*%
%ADD41R,0.0222X0.0214*%
%ADD42R,0.0474X0.0631*%
%ADD43C,0.0630*%
%ADD44C,0.0580*%
%ADD45C,0.0460*%
D31*
X-8793Y3000D02*
D03*
Y4000D02*
D03*
X-8787Y5600D02*
D03*
Y6600D02*
D03*
X-12315Y5600D02*
D03*
Y6600D02*
D03*
D32*
X-10250Y3500D02*
D03*
X-10243Y6100D02*
D03*
X-13772D02*
D03*
D33*
X-5280Y5250D02*
D03*
X-5500D02*
D03*
X-10143Y8250D02*
D03*
X-10364D02*
D03*
X-7593Y1750D02*
D03*
X-7373D02*
D03*
X-10173Y10350D02*
D03*
X-10393D02*
D03*
X-5570Y8350D02*
D03*
X-5350D02*
D03*
X-9123Y10350D02*
D03*
X-9343D02*
D03*
X-6270Y5250D02*
D03*
X-6050D02*
D03*
X-13850Y1950D02*
D03*
X-13630D02*
D03*
D34*
X-6800Y5350D02*
D03*
X-7139D02*
D03*
X-10174Y9720D02*
D03*
X-10513D02*
D03*
X-8874Y1800D02*
D03*
X-9213D02*
D03*
X-5739D02*
D03*
X-5400D02*
D03*
D35*
X-5453Y4200D02*
D03*
Y3700D02*
D03*
Y3200D02*
D03*
Y2700D02*
D03*
X-7393D02*
D03*
Y3200D02*
D03*
Y3700D02*
D03*
Y4200D02*
D03*
X-5443Y7550D02*
D03*
Y7050D02*
D03*
Y6550D02*
D03*
Y6050D02*
D03*
X-7383D02*
D03*
Y6550D02*
D03*
Y7050D02*
D03*
Y7550D02*
D03*
X-11853Y4350D02*
D03*
Y3850D02*
D03*
Y3350D02*
D03*
Y2850D02*
D03*
X-13793D02*
D03*
Y3350D02*
D03*
Y3850D02*
D03*
Y4350D02*
D03*
D36*
X-11643Y8147D02*
D03*
X-13643Y9800D02*
D03*
Y8147D02*
D03*
X-11643Y9800D02*
D03*
D37*
X-7668Y9444D02*
D03*
Y9247D02*
D03*
Y9050D02*
D03*
Y8853D02*
D03*
Y8656D02*
D03*
X-9400D02*
D03*
Y8853D02*
D03*
Y9050D02*
D03*
Y9247D02*
D03*
Y9444D02*
D03*
D38*
X-3600Y5311D02*
D03*
Y5650D02*
D03*
D39*
X-3543Y2950D02*
D03*
Y2750D02*
D03*
Y2550D02*
D03*
Y2350D02*
D03*
X-2343D02*
D03*
Y2550D02*
D03*
Y2750D02*
D03*
Y2950D02*
D03*
D40*
X-2943Y2650D02*
D03*
D41*
X-1643Y4620D02*
D03*
Y4400D02*
D03*
X-1700Y1430D02*
D03*
Y1650D02*
D03*
X-4450Y8180D02*
D03*
Y8400D02*
D03*
X-11243Y6670D02*
D03*
Y6450D02*
D03*
X-3293Y8400D02*
D03*
Y8180D02*
D03*
X-3850D02*
D03*
Y8400D02*
D03*
X-12000Y1850D02*
D03*
Y2070D02*
D03*
X-4393Y4350D02*
D03*
Y4130D02*
D03*
Y5150D02*
D03*
Y5370D02*
D03*
X-3043Y4150D02*
D03*
Y4370D02*
D03*
X-1550Y3750D02*
D03*
Y3530D02*
D03*
X-4393Y3270D02*
D03*
Y3050D02*
D03*
X-2450Y4300D02*
D03*
Y4520D02*
D03*
X-3693Y4370D02*
D03*
Y4150D02*
D03*
X-1550Y2970D02*
D03*
Y2750D02*
D03*
D42*
X-3648Y6550D02*
D03*
X-2900D02*
D03*
X-3274Y7416D02*
D03*
D43*
X-2800Y1250D02*
D03*
X-4800D02*
D03*
X-3800D02*
D03*
X-6000Y9800D02*
D03*
X-11250Y11250D02*
D03*
X-10250D02*
D03*
X-6000Y10800D02*
D03*
Y8800D02*
D03*
X-9250Y11250D02*
D03*
D44*
X-6500D02*
D03*
X-6450Y1200D02*
D03*
X-5550Y11250D02*
D03*
X-4800D02*
D03*
X-4050D02*
D03*
X-12250Y1250D02*
D03*
X-2550Y11250D02*
D03*
X-3300D02*
D03*
X-1800D02*
D03*
D45*
X-2250Y1750D02*
D03*
X-1250Y2150D02*
D03*
X-6550Y4750D02*
D03*
X-7650Y4950D02*
D03*
X-9450Y3000D02*
D03*
X-2200Y5100D02*
D03*
X-2480Y5960D02*
D03*
X-4150Y7150D02*
D03*
X-4300Y6000D02*
D03*
X-8300Y7750D02*
D03*
X-4450Y2150D02*
D03*
X-11300Y7300D02*
D03*
X-6550Y6300D02*
D03*
X-5890Y5700D02*
D03*
X-4050Y3850D02*
D03*
X-4000Y3350D02*
D03*
X-2780Y3270D02*
D03*
X-9145Y2345D02*
D03*
X-10243Y6760D02*
D03*
X-8140Y6050D02*
D03*
X-4690Y7550D02*
D03*
M02*
