G04 Layer_Physical_Order=1*
G04 Layer_Color=255*
%FSLAX24Y24*%
%MOIN*%
G70*
G01*
G75*
%ADD10R,0.0630X0.0512*%
%ADD11R,0.0630X0.0787*%
%ADD12R,0.0134X0.0142*%
%ADD13R,0.0213X0.0236*%
%ADD14R,0.0780X0.0210*%
%ADD15R,0.0708X0.0629*%
%ADD16R,0.0520X0.0110*%
%ADD17R,0.0236X0.0213*%
%ADD18R,0.0320X0.0120*%
%ADD19R,0.0630X0.0740*%
%ADD20R,0.0142X0.0134*%
%ADD21R,0.0394X0.0551*%
%ADD22C,0.0080*%
%ADD23C,0.0550*%
%ADD24C,0.0500*%
%ADD25C,0.0380*%
G36*
X0Y0D02*
X-15550D01*
Y12750D01*
X0D01*
Y0D01*
D02*
G37*
%LPC*%
G36*
X-11829Y1800D02*
X-11950D01*
Y1683D01*
X-11829D01*
Y1800D01*
D02*
G37*
G36*
X-12050D02*
X-12171D01*
Y1683D01*
X-12050D01*
Y1800D01*
D02*
G37*
G36*
X-1529Y1817D02*
X-1650D01*
Y1700D01*
X-1529D01*
Y1817D01*
D02*
G37*
G36*
X-1750D02*
X-1871D01*
Y1700D01*
X-1750D01*
Y1817D01*
D02*
G37*
G36*
X-5789Y1750D02*
X-5945D01*
Y1582D01*
X-5789D01*
Y1750D01*
D02*
G37*
G36*
X-2750Y1622D02*
Y1300D01*
X-2428D01*
X-2435Y1348D01*
X-2472Y1439D01*
X-2533Y1517D01*
X-2611Y1578D01*
X-2702Y1615D01*
X-2750Y1622D01*
D02*
G37*
G36*
X-2850D02*
X-2898Y1615D01*
X-2989Y1578D01*
X-3067Y1517D01*
X-3128Y1439D01*
X-3165Y1348D01*
X-3172Y1300D01*
X-2850D01*
Y1622D01*
D02*
G37*
G36*
X-8668Y1750D02*
X-8824D01*
Y1582D01*
X-8668D01*
Y1750D01*
D02*
G37*
G36*
X-7206Y1700D02*
X-7323D01*
Y1579D01*
X-7206D01*
Y1700D01*
D02*
G37*
G36*
X-13463Y1900D02*
X-13580D01*
Y1779D01*
X-13463D01*
Y1900D01*
D02*
G37*
G36*
X-5503Y2905D02*
X-5943D01*
Y2750D01*
X-5503D01*
Y2905D01*
D02*
G37*
G36*
X-4963D02*
X-5403D01*
Y2750D01*
X-4963D01*
Y2905D01*
D02*
G37*
G36*
X-5503Y2650D02*
X-5943D01*
Y2495D01*
X-5503D01*
Y2650D01*
D02*
G37*
G36*
X-4963D02*
X-5403D01*
Y2495D01*
X-4963D01*
Y2650D01*
D02*
G37*
G36*
X-1472Y4350D02*
X-1593D01*
Y4233D01*
X-1472D01*
Y4350D01*
D02*
G37*
G36*
X-8668Y2018D02*
X-8824D01*
Y1850D01*
X-8668D01*
Y2018D01*
D02*
G37*
G36*
X-7206Y1921D02*
X-7323D01*
Y1800D01*
X-7206D01*
Y1921D01*
D02*
G37*
G36*
X-5600Y2343D02*
X-5600Y2343D01*
X-6210D01*
X-6210Y2343D01*
X-6264Y2332D01*
X-6310Y2301D01*
X-6310Y2301D01*
X-6551Y2060D01*
X-6582Y2014D01*
X-6593Y1960D01*
X-6593Y1960D01*
Y1520D01*
X-6627Y1506D01*
X-6700Y1450D01*
X-6756Y1377D01*
X-6791Y1291D01*
X-6803Y1200D01*
X-6791Y1109D01*
X-6756Y1023D01*
X-6700Y950D01*
X-6627Y894D01*
X-6541Y859D01*
X-6450Y847D01*
X-6359Y859D01*
X-6273Y894D01*
X-6200Y950D01*
X-6144Y1023D01*
X-6109Y1109D01*
X-6097Y1200D01*
X-6109Y1291D01*
X-6144Y1377D01*
X-6200Y1450D01*
X-6273Y1506D01*
X-6307Y1520D01*
Y1900D01*
X-6150Y2057D01*
X-5971D01*
X-5945Y2018D01*
Y1850D01*
X-5739D01*
Y1800D01*
X-5689D01*
Y1582D01*
X-5194D01*
Y2018D01*
X-5261D01*
X-5268Y2055D01*
X-5299Y2101D01*
X-5299Y2101D01*
X-5499Y2301D01*
X-5545Y2332D01*
X-5600Y2343D01*
D02*
G37*
G36*
X-13463Y2121D02*
X-13580D01*
Y2000D01*
X-13463D01*
Y2121D01*
D02*
G37*
G36*
X-12300Y1200D02*
X-12596D01*
X-12591Y1159D01*
X-12556Y1073D01*
X-12500Y1000D01*
X-12427Y944D01*
X-12341Y909D01*
X-12300Y904D01*
Y1200D01*
D02*
G37*
G36*
X-11904D02*
X-12200D01*
Y904D01*
X-12159Y909D01*
X-12073Y944D01*
X-12000Y1000D01*
X-11944Y1073D01*
X-11909Y1159D01*
X-11904Y1200D01*
D02*
G37*
G36*
X-2850D02*
X-3172D01*
X-3165Y1152D01*
X-3128Y1061D01*
X-3067Y983D01*
X-2989Y922D01*
X-2898Y885D01*
X-2850Y878D01*
Y1200D01*
D02*
G37*
G36*
X-2428D02*
X-2750D01*
Y878D01*
X-2702Y885D01*
X-2611Y922D01*
X-2533Y983D01*
X-2472Y1061D01*
X-2435Y1152D01*
X-2428Y1200D01*
D02*
G37*
G36*
X-2250Y2042D02*
X-2326Y2033D01*
X-2396Y2003D01*
X-2457Y1957D01*
X-2503Y1896D01*
X-2533Y1826D01*
X-2542Y1750D01*
X-2533Y1674D01*
X-2503Y1604D01*
X-2457Y1543D01*
X-2396Y1497D01*
X-2326Y1467D01*
X-2318Y1467D01*
X-2180Y1329D01*
X-2180Y1329D01*
X-2134Y1298D01*
X-2080Y1287D01*
X-2080Y1287D01*
X-1871D01*
Y1263D01*
X-1529D01*
Y1483D01*
Y1600D01*
X-1700D01*
X-1871D01*
Y1572D01*
X-1958D01*
X-1967Y1579D01*
X-1989Y1622D01*
X-1967Y1674D01*
X-1957Y1750D01*
X-1967Y1826D01*
X-1997Y1896D01*
X-2043Y1957D01*
X-2104Y2003D01*
X-2174Y2033D01*
X-2250Y2042D01*
D02*
G37*
G36*
X-12200Y1596D02*
Y1300D01*
X-11904D01*
X-11909Y1341D01*
X-11944Y1427D01*
X-12000Y1500D01*
X-12073Y1556D01*
X-12159Y1591D01*
X-12200Y1596D01*
D02*
G37*
G36*
X-5550Y12073D02*
X-5550Y12073D01*
X-10570D01*
X-10570Y12073D01*
X-10625Y12062D01*
X-10671Y12031D01*
X-10671Y12031D01*
X-10751Y11951D01*
X-10782Y11905D01*
X-10793Y11850D01*
X-10793Y11850D01*
Y11164D01*
X-10849Y11108D01*
X-10891Y11136D01*
X-10885Y11152D01*
X-10872Y11250D01*
X-10885Y11348D01*
X-10922Y11439D01*
X-10983Y11517D01*
X-11061Y11578D01*
X-11152Y11615D01*
X-11250Y11628D01*
X-11348Y11615D01*
X-11439Y11578D01*
X-11517Y11517D01*
X-11578Y11439D01*
X-11597Y11393D01*
X-13400D01*
X-13400Y11393D01*
X-13455Y11382D01*
X-13501Y11351D01*
X-13501Y11351D01*
X-14524Y10328D01*
X-14555Y10281D01*
X-14566Y10227D01*
X-14566Y10227D01*
Y3073D01*
X-14566Y3073D01*
X-14555Y3019D01*
X-14524Y2972D01*
X-14301Y2749D01*
X-14301Y2749D01*
X-14283Y2737D01*
Y2645D01*
X-13936D01*
Y2486D01*
X-13951Y2471D01*
X-13982Y2425D01*
X-13993Y2370D01*
X-13993Y2370D01*
Y2121D01*
X-14017D01*
Y2027D01*
X-14032Y2005D01*
X-14043Y1950D01*
Y980D01*
X-14043Y980D01*
X-14032Y925D01*
X-14001Y879D01*
X-13571Y449D01*
X-13571Y449D01*
X-13525Y418D01*
X-13470Y407D01*
X-13470Y407D01*
X-9250D01*
X-9250Y407D01*
X-9195Y418D01*
X-9149Y449D01*
X-7991Y1607D01*
X-7760D01*
Y1579D01*
X-7423D01*
Y1750D01*
Y1921D01*
X-7451D01*
Y2061D01*
X-7292Y2219D01*
X-7292Y2219D01*
X-7261Y2265D01*
X-7251Y2320D01*
X-7251Y2320D01*
Y2495D01*
X-6903D01*
Y2905D01*
X-7883D01*
Y2495D01*
X-7536D01*
Y2379D01*
X-7694Y2221D01*
X-7725Y2175D01*
X-7736Y2120D01*
X-7736Y2120D01*
Y1921D01*
X-7760D01*
Y1893D01*
X-8050D01*
X-8105Y1882D01*
X-8151Y1851D01*
X-8151Y1851D01*
X-9309Y693D01*
X-13411D01*
X-13757Y1039D01*
Y1779D01*
X-13680D01*
Y1950D01*
Y2121D01*
X-13707D01*
Y2311D01*
X-13692Y2326D01*
X-13692Y2326D01*
X-13661Y2372D01*
X-13651Y2427D01*
X-13651Y2427D01*
Y2645D01*
X-13303D01*
Y2766D01*
X-13257Y2785D01*
X-12441Y1970D01*
X-12441Y1970D01*
X-12395Y1939D01*
X-12340Y1928D01*
X-12340Y1928D01*
X-12171D01*
Y1900D01*
X-12000D01*
X-11829D01*
Y1904D01*
Y2237D01*
X-12171D01*
Y2213D01*
X-12281D01*
X-12495Y2427D01*
X-12475Y2477D01*
X-11340D01*
X-11340Y2477D01*
X-11285Y2488D01*
X-11239Y2519D01*
X-10909Y2849D01*
X-10909Y2849D01*
X-10878Y2895D01*
X-10867Y2950D01*
Y4371D01*
X-10443Y4795D01*
X-10393Y4775D01*
Y3994D01*
X-10665D01*
Y3006D01*
X-10393D01*
Y2210D01*
X-10393Y2210D01*
X-10382Y2155D01*
X-10351Y2109D01*
X-9941Y1699D01*
X-9941Y1699D01*
X-9895Y1668D01*
X-9840Y1657D01*
X-9840Y1657D01*
X-9419D01*
Y1582D01*
X-8924D01*
Y1800D01*
Y2018D01*
X-9046D01*
X-9056Y2068D01*
X-8999Y2092D01*
X-8938Y2138D01*
X-8892Y2199D01*
X-8862Y2269D01*
X-8852Y2345D01*
X-8862Y2421D01*
X-8864Y2424D01*
X-8692Y2596D01*
X-8692Y2596D01*
X-8661Y2642D01*
X-8661Y2644D01*
X-8378D01*
Y3306D01*
X-8328Y3326D01*
X-8101Y3099D01*
X-8101Y3099D01*
X-8055Y3068D01*
X-8000Y3057D01*
X-8000Y3057D01*
X-7883D01*
Y2995D01*
X-6903D01*
Y3287D01*
X-6142D01*
X-5954Y3099D01*
X-5954Y3099D01*
X-5943Y3092D01*
Y2995D01*
X-4963D01*
Y3405D01*
X-5856D01*
X-5896Y3445D01*
X-5876Y3495D01*
X-4963D01*
Y3905D01*
X-5801D01*
Y3995D01*
X-4963D01*
Y4405D01*
X-5637D01*
X-5656Y4451D01*
X-5179Y4929D01*
X-5179Y4929D01*
X-5148Y4975D01*
X-5137Y5030D01*
X-5137Y5030D01*
Y5079D01*
X-5113D01*
Y5421D01*
X-5113D01*
X-5117Y5471D01*
X-4822Y5766D01*
X-4758Y5760D01*
X-4751Y5749D01*
X-4582Y5580D01*
X-4564Y5537D01*
X-4564Y5537D01*
Y5483D01*
X-4581Y5471D01*
X-4581Y5471D01*
X-4671Y5381D01*
X-4671Y5381D01*
X-4791Y5261D01*
X-4822Y5215D01*
X-4833Y5160D01*
X-4833Y5160D01*
Y3260D01*
X-4833Y3260D01*
X-4822Y3205D01*
X-4791Y3159D01*
X-4581Y2949D01*
X-4581Y2949D01*
X-4564Y2938D01*
Y2883D01*
X-4222D01*
X-4193Y2845D01*
Y2780D01*
X-4193Y2780D01*
X-4182Y2725D01*
X-4151Y2679D01*
X-3921Y2449D01*
X-3921Y2449D01*
X-3875Y2418D01*
X-3858Y2415D01*
X-3841Y2361D01*
X-3909Y2293D01*
X-4195D01*
X-4197Y2296D01*
X-4243Y2357D01*
X-4304Y2403D01*
X-4374Y2433D01*
X-4450Y2442D01*
X-4526Y2433D01*
X-4596Y2403D01*
X-4657Y2357D01*
X-4703Y2296D01*
X-4733Y2226D01*
X-4742Y2150D01*
X-4733Y2074D01*
X-4703Y2004D01*
X-4657Y1943D01*
X-4596Y1897D01*
X-4526Y1867D01*
X-4450Y1857D01*
X-4374Y1867D01*
X-4304Y1897D01*
X-4243Y1943D01*
X-4197Y2004D01*
X-4195Y2007D01*
X-3850D01*
X-3850Y2007D01*
X-3795Y2018D01*
X-3749Y2049D01*
X-3608Y2190D01*
X-3358D01*
Y2180D01*
X-2827D01*
X-2808Y2134D01*
X-2849Y2093D01*
X-3450D01*
X-3450Y2093D01*
X-3505Y2082D01*
X-3551Y2051D01*
X-3551Y2051D01*
X-3901Y1701D01*
X-3932Y1655D01*
X-3943Y1600D01*
X-3943Y1600D01*
Y1597D01*
X-3989Y1578D01*
X-4067Y1517D01*
X-4128Y1439D01*
X-4165Y1348D01*
X-4178Y1250D01*
X-4165Y1152D01*
X-4128Y1061D01*
X-4067Y983D01*
X-3989Y922D01*
X-3898Y885D01*
X-3800Y872D01*
X-3702Y885D01*
X-3611Y922D01*
X-3533Y983D01*
X-3472Y1061D01*
X-3435Y1152D01*
X-3422Y1250D01*
X-3435Y1348D01*
X-3472Y1439D01*
X-3533Y1517D01*
X-3576Y1551D01*
X-3581Y1617D01*
X-3391Y1807D01*
X-2790D01*
X-2790Y1807D01*
X-2735Y1818D01*
X-2689Y1849D01*
X-2399Y2139D01*
X-2399Y2139D01*
X-2368Y2185D01*
X-2367Y2190D01*
X-2083D01*
Y2374D01*
X-2050Y2407D01*
X-1995Y2418D01*
X-1949Y2449D01*
X-1791Y2608D01*
X-1791Y2608D01*
X-1771Y2637D01*
X-1721Y2622D01*
Y2583D01*
X-1600D01*
Y2750D01*
X-1500D01*
Y2583D01*
X-1393D01*
Y2405D01*
X-1396Y2403D01*
X-1457Y2357D01*
X-1503Y2296D01*
X-1533Y2226D01*
X-1542Y2150D01*
X-1533Y2074D01*
X-1503Y2004D01*
X-1457Y1943D01*
X-1396Y1897D01*
X-1326Y1867D01*
X-1250Y1857D01*
X-1174Y1867D01*
X-1104Y1897D01*
X-1043Y1943D01*
X-997Y2004D01*
X-967Y2074D01*
X-957Y2150D01*
X-967Y2226D01*
X-997Y2296D01*
X-1043Y2357D01*
X-1104Y2403D01*
X-1107Y2405D01*
Y3550D01*
X-1107Y3550D01*
X-1118Y3605D01*
X-1149Y3651D01*
X-1149Y3651D01*
X-1349Y3851D01*
X-1379Y3871D01*
Y3917D01*
X-1721D01*
Y3893D01*
X-1840D01*
X-1840Y3893D01*
X-1895Y3882D01*
X-1941Y3851D01*
X-1941Y3851D01*
X-2081Y3711D01*
X-2127Y3730D01*
Y4161D01*
X-1864Y4424D01*
X-1814Y4403D01*
Y4233D01*
X-1693D01*
Y4400D01*
X-1643D01*
Y4450D01*
X-1472D01*
Y4454D01*
Y4787D01*
X-1501D01*
Y5123D01*
X-1511Y5178D01*
X-1542Y5224D01*
X-1542Y5224D01*
X-2199Y5881D01*
X-2197Y5884D01*
X-2188Y5960D01*
X-2197Y6036D01*
X-2227Y6106D01*
X-2273Y6167D01*
X-2334Y6213D01*
X-2404Y6243D01*
X-2480Y6252D01*
X-2553Y6243D01*
X-2566Y6243D01*
X-2603Y6268D01*
Y6645D01*
X-2399Y6849D01*
X-2399Y6849D01*
X-2368Y6895D01*
X-2357Y6950D01*
Y7400D01*
X-2357Y7400D01*
X-2368Y7455D01*
X-2399Y7501D01*
X-2399Y7501D01*
X-3122Y8224D01*
Y8567D01*
X-3151D01*
Y9621D01*
X-2449Y10322D01*
X-2418Y10369D01*
X-2407Y10423D01*
X-2407Y10423D01*
Y10930D01*
X-2373Y10944D01*
X-2300Y11000D01*
X-2244Y11073D01*
X-2209Y11159D01*
X-2200Y11225D01*
X-2200Y11225D01*
X-2150D01*
X-2150Y11225D01*
X-2141Y11159D01*
X-2106Y11073D01*
X-2050Y11000D01*
X-1977Y10944D01*
X-1891Y10909D01*
X-1800Y10897D01*
X-1709Y10909D01*
X-1623Y10944D01*
X-1550Y11000D01*
X-1494Y11073D01*
X-1459Y11159D01*
X-1447Y11250D01*
X-1459Y11341D01*
X-1494Y11427D01*
X-1550Y11500D01*
X-1623Y11556D01*
X-1709Y11591D01*
X-1800Y11603D01*
X-1891Y11591D01*
X-1977Y11556D01*
X-2050Y11500D01*
X-2106Y11427D01*
X-2141Y11341D01*
X-2150Y11275D01*
X-2150Y11275D01*
X-2200D01*
X-2200Y11275D01*
X-2209Y11341D01*
X-2244Y11427D01*
X-2300Y11500D01*
X-2373Y11556D01*
X-2459Y11591D01*
X-2550Y11603D01*
X-2641Y11591D01*
X-2727Y11556D01*
X-2779Y11516D01*
X-2793Y11512D01*
X-2835Y11519D01*
X-2844Y11524D01*
X-2849Y11531D01*
X-2849Y11531D01*
X-3019Y11701D01*
X-3065Y11732D01*
X-3120Y11743D01*
X-3120Y11743D01*
X-4450D01*
X-4450Y11743D01*
X-4505Y11732D01*
X-4551Y11701D01*
X-4551Y11701D01*
X-4675Y11577D01*
X-4709Y11591D01*
X-4800Y11603D01*
X-4891Y11591D01*
X-4977Y11556D01*
X-5007Y11532D01*
X-5057Y11557D01*
Y11580D01*
X-5057Y11580D01*
X-5068Y11635D01*
X-5099Y11681D01*
X-5099Y11681D01*
X-5449Y12031D01*
X-5495Y12062D01*
X-5550Y12073D01*
D02*
G37*
G36*
X-4800Y1628D02*
X-4898Y1615D01*
X-4989Y1578D01*
X-5067Y1517D01*
X-5128Y1439D01*
X-5165Y1348D01*
X-5178Y1250D01*
X-5165Y1152D01*
X-5128Y1061D01*
X-5067Y983D01*
X-4989Y922D01*
X-4898Y885D01*
X-4800Y872D01*
X-4702Y885D01*
X-4611Y922D01*
X-4533Y983D01*
X-4472Y1061D01*
X-4435Y1152D01*
X-4422Y1250D01*
X-4435Y1348D01*
X-4472Y1439D01*
X-4533Y1517D01*
X-4611Y1578D01*
X-4702Y1615D01*
X-4800Y1628D01*
D02*
G37*
G36*
X-12300Y1596D02*
X-12341Y1591D01*
X-12427Y1556D01*
X-12500Y1500D01*
X-12556Y1427D01*
X-12591Y1341D01*
X-12596Y1300D01*
X-12300D01*
Y1596D01*
D02*
G37*
%LPD*%
G36*
X-9202Y5581D02*
Y5244D01*
X-8372D01*
Y5324D01*
X-8325Y5344D01*
X-8293Y5311D01*
Y3820D01*
X-8293Y3820D01*
X-8282Y3765D01*
X-8251Y3719D01*
X-8181Y3649D01*
X-8212Y3610D01*
X-8245Y3632D01*
X-8300Y3643D01*
X-8300Y3643D01*
X-8329D01*
X-8378Y3644D01*
X-8378Y3693D01*
Y4356D01*
X-9208D01*
X-9208Y3644D01*
X-9258Y3643D01*
X-9835D01*
Y3994D01*
X-10107D01*
Y4741D01*
X-9248Y5600D01*
X-9202Y5581D01*
D02*
G37*
G36*
X-9510Y10179D02*
X-9266D01*
Y9986D01*
X-9501Y9751D01*
X-9532Y9705D01*
X-9543Y9650D01*
X-9543Y9650D01*
Y9599D01*
X-9760D01*
Y9573D01*
X-9806Y9554D01*
X-9968Y9716D01*
Y9938D01*
X-10030D01*
Y10179D01*
X-10006D01*
Y10207D01*
X-9510D01*
Y10179D01*
D02*
G37*
G36*
X-6865Y11737D02*
X-7769Y10833D01*
X-7800Y10787D01*
X-7810Y10732D01*
X-7810Y10732D01*
Y9599D01*
X-8028D01*
Y9586D01*
X-8156D01*
X-8156Y9586D01*
X-8211Y9576D01*
X-8257Y9545D01*
X-8257Y9545D01*
X-8581Y9221D01*
X-8612Y9175D01*
X-8623Y9120D01*
X-8623Y9120D01*
Y8469D01*
X-8681Y8411D01*
X-8727Y8430D01*
Y11470D01*
X-8727Y11470D01*
X-8738Y11525D01*
X-8769Y11571D01*
X-8769Y11571D01*
X-8939Y11741D01*
X-8920Y11787D01*
X-6884D01*
X-6865Y11737D01*
D02*
G37*
G36*
X-14083Y7521D02*
Y6594D01*
X-14187D01*
Y5606D01*
X-13914D01*
Y5442D01*
X-13914Y5442D01*
X-13904Y5387D01*
X-13873Y5341D01*
X-13771Y5239D01*
X-13771Y5239D01*
X-13725Y5208D01*
X-13670Y5197D01*
X-13670Y5197D01*
X-13350D01*
X-13350Y5197D01*
X-13295Y5208D01*
X-13249Y5239D01*
X-12776Y5712D01*
X-12730Y5693D01*
Y5244D01*
X-12458D01*
Y4854D01*
X-13270Y4041D01*
X-13303Y4055D01*
Y4055D01*
X-14281D01*
Y4145D01*
X-13303D01*
Y4555D01*
X-14281D01*
Y7653D01*
X-14234Y7672D01*
X-14083Y7521D01*
D02*
G37*
G36*
X-5337Y10921D02*
X-5331Y10914D01*
X-5301Y10869D01*
X-5141Y10709D01*
X-5141Y10709D01*
X-5095Y10678D01*
X-5040Y10667D01*
X-5040Y10667D01*
X-4490D01*
X-4490Y10667D01*
X-4435Y10678D01*
X-4389Y10709D01*
X-4239Y10859D01*
X-4193Y10840D01*
Y10259D01*
X-5585Y8867D01*
X-5633Y8883D01*
X-5635Y8898D01*
X-5672Y8989D01*
X-5733Y9067D01*
X-5811Y9128D01*
X-5902Y9165D01*
X-5999Y9178D01*
X-6011Y9193D01*
X-6026Y9223D01*
X-5899Y9349D01*
X-5899Y9349D01*
X-5868Y9395D01*
X-5857Y9450D01*
Y9453D01*
X-5811Y9472D01*
X-5733Y9533D01*
X-5672Y9611D01*
X-5635Y9702D01*
X-5622Y9800D01*
X-5635Y9898D01*
X-5672Y9989D01*
X-5733Y10067D01*
X-5811Y10128D01*
X-5902Y10165D01*
X-6000Y10178D01*
X-6098Y10165D01*
X-6189Y10128D01*
X-6235Y10092D01*
X-6268Y10130D01*
X-5973Y10425D01*
X-5902Y10435D01*
X-5811Y10472D01*
X-5733Y10533D01*
X-5672Y10611D01*
X-5635Y10702D01*
X-5622Y10800D01*
X-5629Y10857D01*
X-5585Y10902D01*
X-5550Y10897D01*
X-5459Y10909D01*
X-5387Y10938D01*
X-5337Y10921D01*
D02*
G37*
G36*
X-11578Y11061D02*
X-11517Y10983D01*
X-11479Y10953D01*
X-11496Y10903D01*
X-13480D01*
X-13499Y10949D01*
X-13341Y11107D01*
X-11597D01*
X-11578Y11061D01*
D02*
G37*
G36*
X-9525Y11507D02*
X-9578Y11439D01*
X-9615Y11348D01*
X-9628Y11250D01*
X-9615Y11152D01*
X-9578Y11061D01*
X-9517Y10983D01*
X-9486Y10958D01*
Y10521D01*
X-9510D01*
Y10493D01*
X-10006D01*
Y10521D01*
X-10040D01*
X-10041Y10527D01*
X-10072Y10574D01*
X-10072Y10574D01*
X-10199Y10701D01*
X-10245Y10732D01*
X-10300Y10743D01*
X-10300Y10743D01*
X-10745D01*
X-10764Y10789D01*
X-10576Y10977D01*
X-10518Y10982D01*
X-10508Y10976D01*
X-10439Y10922D01*
X-10348Y10885D01*
X-10250Y10872D01*
X-10152Y10885D01*
X-10061Y10922D01*
X-9983Y10983D01*
X-9922Y11061D01*
X-9885Y11152D01*
X-9872Y11250D01*
X-9885Y11348D01*
X-9904Y11394D01*
X-9741Y11557D01*
X-9541D01*
X-9525Y11507D01*
D02*
G37*
G36*
X-9208Y3356D02*
X-9208Y3239D01*
X-9258Y3218D01*
X-9304Y3253D01*
X-9374Y3283D01*
X-9450Y3293D01*
X-9526Y3283D01*
X-9596Y3253D01*
X-9657Y3207D01*
X-9703Y3146D01*
X-9733Y3076D01*
X-9743Y3000D01*
X-9733Y2924D01*
X-9703Y2854D01*
X-9657Y2793D01*
X-9596Y2747D01*
X-9526Y2717D01*
X-9450Y2707D01*
X-9374Y2717D01*
X-9304Y2747D01*
X-9258Y2782D01*
X-9208Y2761D01*
Y2644D01*
X-9247Y2617D01*
X-9291Y2598D01*
X-9352Y2552D01*
X-9398Y2491D01*
X-9428Y2421D01*
X-9438Y2345D01*
X-9428Y2269D01*
X-9398Y2199D01*
X-9352Y2138D01*
X-9291Y2092D01*
X-9234Y2068D01*
X-9244Y2018D01*
X-9419D01*
Y1943D01*
X-9781D01*
X-10107Y2269D01*
Y3006D01*
X-9835D01*
Y3357D01*
X-9258D01*
X-9208Y3356D01*
D02*
G37*
G36*
X-12493Y4350D02*
Y3350D01*
X-12482Y3295D01*
X-12451Y3249D01*
X-12405Y3218D01*
X-12350Y3207D01*
X-12343D01*
Y3145D01*
X-11363D01*
Y3555D01*
X-12207D01*
Y3645D01*
X-11363D01*
Y3785D01*
X-11199Y3949D01*
X-11153Y3930D01*
Y3009D01*
X-11317Y2845D01*
X-11363Y2864D01*
Y3055D01*
X-12343D01*
Y2763D01*
X-12451D01*
X-13139Y3451D01*
X-13185Y3482D01*
X-13240Y3493D01*
X-13240Y3493D01*
X-13303D01*
Y3555D01*
X-14021D01*
X-14040Y3601D01*
X-13996Y3645D01*
X-13303D01*
Y3688D01*
X-13260Y3707D01*
X-13205Y3718D01*
X-13159Y3749D01*
X-12539Y4369D01*
X-12493Y4350D01*
D02*
G37*
G36*
X-4400Y8013D02*
X-4279D01*
Y8037D01*
X-4021D01*
Y8013D01*
X-3993D01*
Y7950D01*
X-3982Y7895D01*
X-3951Y7849D01*
X-3905Y7818D01*
X-3850Y7807D01*
X-3614D01*
X-3571Y7792D01*
Y7466D01*
X-3274D01*
Y7366D01*
X-3571D01*
Y7041D01*
X-3417D01*
Y6926D01*
X-3894D01*
X-3918Y6976D01*
X-3897Y7004D01*
X-3867Y7074D01*
X-3857Y7150D01*
X-3867Y7226D01*
X-3897Y7296D01*
X-3943Y7357D01*
X-4004Y7403D01*
X-4074Y7433D01*
X-4150Y7442D01*
X-4226Y7433D01*
X-4296Y7403D01*
X-4357Y7357D01*
X-4403Y7296D01*
X-4433Y7226D01*
X-4442Y7150D01*
X-4433Y7074D01*
X-4431Y7071D01*
X-4621Y6881D01*
X-4667Y6900D01*
Y7260D01*
X-4614Y7267D01*
X-4544Y7297D01*
X-4483Y7343D01*
X-4437Y7404D01*
X-4407Y7474D01*
X-4397Y7550D01*
X-4407Y7626D01*
X-4437Y7696D01*
X-4483Y7757D01*
X-4544Y7803D01*
X-4614Y7833D01*
X-4690Y7843D01*
X-4766Y7833D01*
X-4836Y7803D01*
X-4880Y7770D01*
X-4929Y7780D01*
X-4938Y7786D01*
X-4944Y7804D01*
X-4667Y8081D01*
X-4621Y8062D01*
Y8013D01*
X-4500D01*
Y8180D01*
X-4400D01*
Y8013D01*
D02*
G37*
G36*
X-3417Y6174D02*
X-3406Y6119D01*
X-3375Y6073D01*
X-2481Y5179D01*
X-2483Y5176D01*
X-2486Y5150D01*
X-2200D01*
Y5100D01*
X-2150D01*
Y4814D01*
X-2124Y4817D01*
X-2054Y4847D01*
X-1993Y4893D01*
X-1947Y4954D01*
X-1917Y5024D01*
X-1908Y5100D01*
X-1910Y5117D01*
X-1862Y5141D01*
X-1786Y5064D01*
Y4787D01*
X-1814D01*
Y4763D01*
X-1870D01*
X-1924Y4752D01*
X-1970Y4721D01*
X-1970Y4721D01*
X-2233Y4459D01*
X-2261Y4470D01*
X-2450D01*
X-2621D01*
Y4354D01*
Y4133D01*
X-2593D01*
Y3659D01*
X-2701Y3551D01*
X-2704Y3553D01*
X-2780Y3562D01*
X-2856Y3553D01*
X-2926Y3523D01*
X-2959Y3561D01*
X-2769Y3751D01*
X-2769Y3751D01*
X-2738Y3797D01*
X-2727Y3852D01*
Y4280D01*
X-2738Y4335D01*
X-2769Y4381D01*
X-2769Y4381D01*
X-2859Y4471D01*
X-2872Y4480D01*
Y4537D01*
X-3214D01*
Y4506D01*
X-3234Y4502D01*
X-3280Y4471D01*
X-3280Y4471D01*
X-3459Y4293D01*
X-3522D01*
Y4320D01*
X-3693D01*
X-3902D01*
X-3912Y4316D01*
X-3914Y4316D01*
X-3957Y4359D01*
Y5091D01*
X-3879Y5169D01*
X-3818D01*
Y5105D01*
X-3382D01*
Y5444D01*
Y5856D01*
X-3818D01*
Y5793D01*
X-4030D01*
X-4055Y5843D01*
X-4047Y5854D01*
X-4017Y5924D01*
X-4008Y6000D01*
X-4017Y6076D01*
X-4019Y6079D01*
X-3924Y6174D01*
X-3464D01*
X-3417Y6174D01*
D02*
G37*
G36*
X-7345Y5346D02*
X-7494Y5196D01*
X-7504Y5203D01*
X-7574Y5233D01*
X-7650Y5242D01*
X-7726Y5233D01*
X-7796Y5203D01*
X-7857Y5157D01*
X-7903Y5096D01*
X-7933Y5026D01*
X-7943Y4950D01*
X-7933Y4874D01*
X-7903Y4804D01*
X-7857Y4743D01*
X-7796Y4697D01*
X-7726Y4667D01*
X-7674Y4661D01*
X-7468Y4455D01*
X-7472Y4431D01*
X-7486Y4405D01*
X-7883D01*
Y3995D01*
X-6943D01*
Y3919D01*
X-6957Y3905D01*
X-7883D01*
Y3821D01*
X-7929Y3801D01*
X-8007Y3879D01*
Y5370D01*
X-8007Y5370D01*
X-8015Y5407D01*
X-7984Y5457D01*
X-7345D01*
Y5346D01*
D02*
G37*
G36*
X-13786Y9020D02*
X-13786Y9020D01*
X-13775Y8965D01*
X-13744Y8919D01*
X-13433Y8608D01*
X-13452Y8561D01*
X-13593D01*
Y8197D01*
X-13189D01*
Y8507D01*
X-12097D01*
Y7732D01*
X-11189D01*
Y8069D01*
X-11185Y8072D01*
X-11139Y8087D01*
X-10501Y7449D01*
X-10501Y7449D01*
X-10455Y7418D01*
X-10400Y7407D01*
X-10400Y7407D01*
X-10080D01*
X-10061Y7361D01*
X-10129Y7293D01*
X-10263D01*
X-10263Y7293D01*
X-10318Y7282D01*
X-10364Y7251D01*
X-10364Y7251D01*
X-11026Y6589D01*
X-11072Y6608D01*
Y6620D01*
X-11243D01*
X-11414D01*
Y6504D01*
Y6283D01*
X-11386D01*
Y6170D01*
X-11386Y6170D01*
X-11386Y6170D01*
Y4555D01*
X-12088D01*
X-12107Y4601D01*
X-11709Y4999D01*
X-11709Y4999D01*
X-11678Y5045D01*
X-11667Y5100D01*
Y5850D01*
X-11678Y5905D01*
X-11709Y5951D01*
X-11709Y5951D01*
X-11819Y6061D01*
X-11865Y6092D01*
X-11920Y6103D01*
X-11920Y6103D01*
X-12730D01*
X-12785Y6092D01*
X-12831Y6061D01*
X-12831Y6061D01*
X-13409Y5483D01*
X-13611D01*
X-13629Y5501D01*
Y5606D01*
X-13357D01*
Y6594D01*
X-13797D01*
Y7580D01*
X-13797Y7580D01*
X-13808Y7635D01*
X-13839Y7681D01*
X-13839Y7681D01*
X-13844Y7686D01*
X-13825Y7732D01*
X-13693D01*
Y8147D01*
Y8561D01*
X-14095D01*
Y9385D01*
X-13786D01*
Y9020D01*
D02*
G37*
G36*
X-3945Y6879D02*
Y6557D01*
X-4221Y6281D01*
X-4224Y6283D01*
X-4300Y6292D01*
X-4376Y6283D01*
X-4446Y6253D01*
X-4457Y6245D01*
X-4507Y6270D01*
Y6591D01*
X-4229Y6869D01*
X-4226Y6867D01*
X-4150Y6858D01*
X-4074Y6867D01*
X-4004Y6897D01*
X-3995Y6903D01*
X-3945Y6879D01*
D02*
G37*
G36*
X-3641Y11159D02*
X-3606Y11073D01*
X-3550Y11000D01*
X-3477Y10944D01*
X-3443Y10930D01*
Y10459D01*
X-5381Y8521D01*
X-5462D01*
X-5481Y8567D01*
X-3949Y10099D01*
X-3949Y10099D01*
X-3918Y10145D01*
X-3907Y10200D01*
X-3907Y10200D01*
Y10930D01*
X-3873Y10944D01*
X-3800Y11000D01*
X-3744Y11073D01*
X-3709Y11159D01*
X-3700Y11225D01*
X-3650D01*
X-3641Y11159D01*
D02*
G37*
G36*
X-6894Y11300D02*
X-6500D01*
Y11250D01*
X-6450D01*
Y10904D01*
X-6413Y10908D01*
X-6403Y10904D01*
X-6369Y10871D01*
X-6378Y10800D01*
X-6365Y10702D01*
X-6328Y10611D01*
X-6268Y10534D01*
X-6551Y10251D01*
X-6582Y10205D01*
X-6593Y10150D01*
X-6593Y10150D01*
Y9509D01*
X-6909Y9193D01*
X-7308D01*
Y9205D01*
X-8028D01*
Y8895D01*
Y8501D01*
X-7308D01*
Y8514D01*
X-6243D01*
X-6189Y8472D01*
X-6098Y8435D01*
X-6083Y8433D01*
X-6067Y8385D01*
X-6561Y7891D01*
X-6592Y7845D01*
X-6603Y7790D01*
X-6603Y7790D01*
Y7519D01*
X-6679Y7443D01*
X-6893D01*
Y7755D01*
X-7873D01*
Y7443D01*
X-7928Y7432D01*
X-7974Y7401D01*
X-8005Y7355D01*
X-8016Y7300D01*
Y7057D01*
X-8062Y7038D01*
X-8157Y7133D01*
Y7495D01*
X-8154Y7497D01*
X-8093Y7543D01*
X-8047Y7604D01*
X-8017Y7674D01*
X-8014Y7700D01*
X-8586D01*
X-8583Y7674D01*
X-8553Y7604D01*
X-8507Y7543D01*
X-8446Y7497D01*
X-8443Y7495D01*
Y7103D01*
X-9210D01*
X-9265Y7092D01*
X-9311Y7061D01*
X-9342Y7015D01*
X-9353Y6960D01*
Y5899D01*
X-9597Y5655D01*
X-9647Y5675D01*
Y7041D01*
X-8379Y8309D01*
X-8379Y8309D01*
X-8348Y8355D01*
X-8337Y8410D01*
X-8337Y8410D01*
Y9061D01*
X-8097Y9301D01*
X-8028D01*
Y9289D01*
X-7308D01*
Y9599D01*
X-7525D01*
Y10673D01*
X-6897Y11301D01*
X-6894Y11300D01*
D02*
G37*
G36*
X-6152Y5826D02*
X-6173Y5776D01*
X-6183Y5700D01*
X-6173Y5624D01*
X-6171Y5621D01*
X-6249Y5543D01*
X-6270D01*
X-6325Y5532D01*
X-6371Y5501D01*
X-6402Y5455D01*
X-6409Y5421D01*
X-6437D01*
Y5079D01*
X-6100D01*
Y5250D01*
X-6000D01*
Y5079D01*
X-5883D01*
Y5107D01*
X-5667D01*
Y5079D01*
X-5498D01*
X-5478Y5033D01*
X-6044Y4467D01*
X-6075Y4421D01*
X-6086Y4366D01*
X-6086Y4366D01*
Y3700D01*
X-6075Y3645D01*
X-6057Y3619D01*
X-6078Y3581D01*
X-6087Y3573D01*
X-6815D01*
X-6835Y3623D01*
X-6699Y3759D01*
X-6699Y3759D01*
X-6668Y3805D01*
X-6657Y3860D01*
X-6657Y3860D01*
Y4350D01*
X-6657Y4350D01*
X-6668Y4405D01*
X-6692Y4441D01*
X-6670Y4476D01*
X-6662Y4483D01*
X-6626Y4467D01*
X-6600Y4464D01*
Y4700D01*
X-6836D01*
X-6833Y4674D01*
X-6819Y4642D01*
X-6861Y4613D01*
X-6899Y4651D01*
X-6945Y4682D01*
X-7000Y4693D01*
X-7000Y4693D01*
X-7302D01*
X-7404Y4794D01*
X-7397Y4804D01*
X-7367Y4874D01*
X-7361Y4926D01*
X-7155Y5132D01*
X-6850D01*
Y5350D01*
X-6800D01*
Y5400D01*
X-6594D01*
Y5469D01*
X-6549Y5499D01*
X-6194Y5854D01*
X-6152Y5826D01*
D02*
G37*
G36*
X-11231Y10571D02*
X-11587Y10215D01*
X-12097D01*
Y9385D01*
X-11189D01*
Y10209D01*
X-10941Y10457D01*
X-10560D01*
Y10400D01*
X-10393D01*
Y10300D01*
X-10560D01*
Y10179D01*
X-10536D01*
Y10016D01*
X-10551Y10001D01*
X-10582Y9955D01*
X-10585Y9938D01*
X-10719D01*
Y9770D01*
X-10513D01*
Y9720D01*
X-10463D01*
Y9502D01*
X-10158D01*
X-9895Y9239D01*
X-9914Y9193D01*
X-10000D01*
X-10000Y9193D01*
X-10055Y9182D01*
X-10101Y9151D01*
X-10101Y9151D01*
X-10244Y9008D01*
X-10275Y8961D01*
X-10286Y8907D01*
X-10286Y8907D01*
Y8421D01*
X-10314D01*
Y8250D01*
Y8079D01*
X-9976D01*
Y8421D01*
X-10001D01*
Y8848D01*
X-9941Y8907D01*
X-9760D01*
Y8895D01*
X-9400D01*
Y8811D01*
X-9760D01*
Y8501D01*
X-9543D01*
Y8209D01*
X-10059Y7693D01*
X-10341D01*
X-10907Y8259D01*
Y8400D01*
X-10918Y8455D01*
X-10949Y8501D01*
X-10949Y8501D01*
X-11199Y8751D01*
X-11245Y8782D01*
X-11300Y8793D01*
X-11300Y8793D01*
X-13214D01*
X-13501Y9079D01*
Y9385D01*
X-13189D01*
Y10215D01*
X-13918D01*
X-13937Y10261D01*
X-13581Y10617D01*
X-11250D01*
X-11231Y10571D01*
D02*
G37*
G36*
X-10658Y6488D02*
Y5606D01*
X-10101D01*
X-10082Y5560D01*
X-11054Y4588D01*
X-11101Y4607D01*
Y6111D01*
X-10704Y6507D01*
X-10658Y6488D01*
D02*
G37*
G36*
X-3436Y9597D02*
Y8567D01*
X-3464D01*
Y8543D01*
X-3679D01*
Y8567D01*
X-4021D01*
Y8322D01*
X-4279D01*
Y8567D01*
X-4466D01*
X-4485Y8613D01*
X-3482Y9616D01*
X-3436Y9597D01*
D02*
G37*
%LPC*%
G36*
X-2500Y4687D02*
X-2621D01*
Y4570D01*
X-2500D01*
Y4687D01*
D02*
G37*
G36*
X-2279D02*
X-2400D01*
Y4570D01*
X-2279D01*
Y4687D01*
D02*
G37*
G36*
X-3743Y4537D02*
X-3864D01*
Y4420D01*
X-3743D01*
Y4537D01*
D02*
G37*
G36*
X-3522D02*
X-3643D01*
Y4420D01*
X-3522D01*
Y4537D01*
D02*
G37*
G36*
X-2250Y5050D02*
X-2486D01*
X-2483Y5024D01*
X-2453Y4954D01*
X-2407Y4893D01*
X-2346Y4847D01*
X-2276Y4817D01*
X-2250Y4814D01*
Y5050D01*
D02*
G37*
G36*
X-11250Y7586D02*
Y7350D01*
X-11014D01*
X-11017Y7376D01*
X-11047Y7446D01*
X-11093Y7507D01*
X-11154Y7553D01*
X-11224Y7583D01*
X-11250Y7586D01*
D02*
G37*
G36*
X-13189Y8097D02*
X-13593D01*
Y7732D01*
X-13189D01*
Y8097D01*
D02*
G37*
G36*
X-11350Y7586D02*
X-11376Y7583D01*
X-11446Y7553D01*
X-11507Y7507D01*
X-11553Y7446D01*
X-11583Y7376D01*
X-11586Y7350D01*
X-11350D01*
Y7586D01*
D02*
G37*
G36*
Y7250D02*
X-11586D01*
X-11583Y7224D01*
X-11553Y7154D01*
X-11507Y7093D01*
X-11446Y7047D01*
X-11376Y7017D01*
X-11350Y7014D01*
Y7250D01*
D02*
G37*
G36*
X-11014D02*
X-11250D01*
Y7014D01*
X-11224Y7017D01*
X-11154Y7047D01*
X-11093Y7093D01*
X-11047Y7154D01*
X-11017Y7224D01*
X-11014Y7250D01*
D02*
G37*
G36*
X-11072Y6837D02*
X-11193D01*
Y6720D01*
X-11072D01*
Y6837D01*
D02*
G37*
G36*
X-11900Y6956D02*
X-12730D01*
Y6244D01*
X-11900D01*
Y6956D01*
D02*
G37*
G36*
X-11293Y6837D02*
X-11414D01*
Y6720D01*
X-11293D01*
Y6837D01*
D02*
G37*
G36*
X-8350Y8036D02*
X-8376Y8033D01*
X-8446Y8003D01*
X-8507Y7957D01*
X-8553Y7896D01*
X-8583Y7826D01*
X-8586Y7800D01*
X-8350D01*
Y8036D01*
D02*
G37*
G36*
X-6550Y11200D02*
X-6846D01*
X-6841Y11159D01*
X-6806Y11073D01*
X-6750Y11000D01*
X-6677Y10944D01*
X-6591Y10909D01*
X-6550Y10904D01*
Y11200D01*
D02*
G37*
G36*
X-8250Y8036D02*
Y7800D01*
X-8014D01*
X-8017Y7826D01*
X-8047Y7896D01*
X-8093Y7957D01*
X-8154Y8003D01*
X-8224Y8033D01*
X-8250Y8036D01*
D02*
G37*
G36*
X-6264Y4700D02*
X-6500D01*
Y4464D01*
X-6474Y4467D01*
X-6404Y4497D01*
X-6343Y4543D01*
X-6297Y4604D01*
X-6267Y4674D01*
X-6264Y4700D01*
D02*
G37*
G36*
X-6600Y5036D02*
X-6626Y5033D01*
X-6696Y5003D01*
X-6757Y4957D01*
X-6803Y4896D01*
X-6833Y4826D01*
X-6836Y4800D01*
X-6600D01*
Y5036D01*
D02*
G37*
G36*
X-6594Y5300D02*
X-6750D01*
Y5132D01*
X-6594D01*
Y5300D01*
D02*
G37*
G36*
X-6500Y5036D02*
Y4800D01*
X-6264D01*
X-6267Y4826D01*
X-6297Y4896D01*
X-6343Y4957D01*
X-6404Y5003D01*
X-6474Y5033D01*
X-6500Y5036D01*
D02*
G37*
G36*
X-10563Y9670D02*
X-10719D01*
Y9502D01*
X-10563D01*
Y9670D01*
D02*
G37*
G36*
X-10414Y8421D02*
X-10531D01*
Y8300D01*
X-10414D01*
Y8421D01*
D02*
G37*
G36*
Y8200D02*
X-10531D01*
Y8079D01*
X-10414D01*
Y8200D01*
D02*
G37*
%LPD*%
D10*
X-8793Y3000D02*
D03*
Y4000D02*
D03*
X-8787Y5600D02*
D03*
Y6600D02*
D03*
X-12315Y5600D02*
D03*
Y6600D02*
D03*
D11*
X-10250Y3500D02*
D03*
X-10243Y6100D02*
D03*
X-13772D02*
D03*
D12*
X-5280Y5250D02*
D03*
X-5500D02*
D03*
X-10143Y8250D02*
D03*
X-10364D02*
D03*
X-7593Y1750D02*
D03*
X-7373D02*
D03*
X-10173Y10350D02*
D03*
X-10393D02*
D03*
X-5570Y8350D02*
D03*
X-5350D02*
D03*
X-9123Y10350D02*
D03*
X-9343D02*
D03*
X-6270Y5250D02*
D03*
X-6050D02*
D03*
X-13850Y1950D02*
D03*
X-13630D02*
D03*
D13*
X-6800Y5350D02*
D03*
X-7139D02*
D03*
X-10174Y9720D02*
D03*
X-10513D02*
D03*
X-8874Y1800D02*
D03*
X-9213D02*
D03*
X-5739D02*
D03*
X-5400D02*
D03*
D14*
X-5453Y4200D02*
D03*
Y3700D02*
D03*
Y3200D02*
D03*
Y2700D02*
D03*
X-7393D02*
D03*
Y3200D02*
D03*
Y3700D02*
D03*
Y4200D02*
D03*
X-5443Y7550D02*
D03*
Y7050D02*
D03*
Y6550D02*
D03*
Y6050D02*
D03*
X-7383D02*
D03*
Y6550D02*
D03*
Y7050D02*
D03*
Y7550D02*
D03*
X-11853Y4350D02*
D03*
Y3850D02*
D03*
Y3350D02*
D03*
Y2850D02*
D03*
X-13793D02*
D03*
Y3350D02*
D03*
Y3850D02*
D03*
Y4350D02*
D03*
D15*
X-11643Y8147D02*
D03*
X-13643Y9800D02*
D03*
Y8147D02*
D03*
X-11643Y9800D02*
D03*
D16*
X-7668Y9444D02*
D03*
Y9247D02*
D03*
Y9050D02*
D03*
Y8853D02*
D03*
Y8656D02*
D03*
X-9400D02*
D03*
Y8853D02*
D03*
Y9050D02*
D03*
Y9247D02*
D03*
Y9444D02*
D03*
D17*
X-3600Y5311D02*
D03*
Y5650D02*
D03*
D18*
X-3543Y2950D02*
D03*
Y2750D02*
D03*
Y2550D02*
D03*
Y2350D02*
D03*
X-2343D02*
D03*
Y2550D02*
D03*
Y2750D02*
D03*
Y2950D02*
D03*
D19*
X-2943Y2650D02*
D03*
D20*
X-1643Y4620D02*
D03*
Y4400D02*
D03*
X-1700Y1430D02*
D03*
Y1650D02*
D03*
X-4450Y8180D02*
D03*
Y8400D02*
D03*
X-11243Y6670D02*
D03*
Y6450D02*
D03*
X-3293Y8400D02*
D03*
Y8180D02*
D03*
X-3850D02*
D03*
Y8400D02*
D03*
X-12000Y1850D02*
D03*
Y2070D02*
D03*
X-4393Y4350D02*
D03*
Y4130D02*
D03*
Y5150D02*
D03*
Y5370D02*
D03*
X-3043Y4150D02*
D03*
Y4370D02*
D03*
X-1550Y3750D02*
D03*
Y3530D02*
D03*
X-4393Y3270D02*
D03*
Y3050D02*
D03*
X-2450Y4300D02*
D03*
Y4520D02*
D03*
X-3693Y4370D02*
D03*
Y4150D02*
D03*
X-1550Y2970D02*
D03*
Y2750D02*
D03*
D21*
X-3648Y6550D02*
D03*
X-2900D02*
D03*
X-3274Y7416D02*
D03*
D22*
X-13940Y6100D02*
Y7580D01*
X-8050Y1750D02*
X-7593D01*
X-9250Y550D02*
X-8050Y1750D01*
X-13470Y550D02*
X-9250D01*
X-13900Y980D02*
X-13470Y550D01*
X-3450Y1950D02*
X-2790D01*
X-3800Y1600D02*
X-3450Y1950D01*
X-3800Y1250D02*
Y1600D01*
X-2080Y1430D02*
X-1700D01*
X-2250Y1600D02*
X-2080Y1430D01*
X-2250Y1600D02*
Y1750D01*
X-2500Y2350D02*
X-2343D01*
X-2790Y1950D02*
X-2500Y2240D01*
X-1250Y2150D02*
Y3550D01*
X-7650Y4839D02*
X-7539Y4950D01*
X-5600Y2200D02*
X-5400Y2000D01*
X-6210Y2200D02*
X-5600D01*
X-6450Y1960D02*
X-6210Y2200D01*
X-5400Y1800D02*
Y2000D01*
X-6450Y1200D02*
Y1960D01*
X-4480Y3050D02*
X-4393D01*
X-4690Y3260D02*
X-4480Y3050D01*
X-4690Y3260D02*
Y5160D01*
X-6750Y11650D02*
X-5950D01*
X-7668Y10732D02*
X-6750Y11650D01*
X-7668Y9444D02*
Y10732D01*
X-5550Y11930D02*
X-5200Y11580D01*
Y10970D02*
Y11580D01*
Y10970D02*
X-5040Y10810D01*
X-6000Y10600D02*
Y10800D01*
Y9450D02*
Y9800D01*
X-6597Y8853D02*
X-6000Y9450D01*
X-6144Y8656D02*
X-6000Y8800D01*
X-13400Y11250D02*
X-11250D01*
X-14423Y10227D02*
X-13400Y11250D01*
X-11250D02*
X-11214D01*
X-9343Y11157D02*
X-9250Y11250D01*
X-9100Y11700D02*
X-8870Y11470D01*
X-9800Y11700D02*
X-9100D01*
X-10250Y11250D02*
X-9800Y11700D01*
X-8870Y8350D02*
Y11470D01*
X-3950Y4150D02*
X-3693D01*
X-3043Y4370D02*
X-2960D01*
X-1840Y3750D02*
X-1550D01*
X-3400Y7950D02*
X-3274Y7824D01*
Y7416D02*
Y7824D01*
X-5280Y5030D02*
Y5250D01*
X-13793Y3850D02*
X-13260D01*
X-3180Y4370D02*
X-3043D01*
X-3274Y6174D02*
Y7416D01*
X-6450Y10150D02*
X-6000Y10600D01*
X-6450Y9450D02*
Y10150D01*
X-6850Y9050D02*
X-6450Y9450D01*
X-6800Y3860D02*
Y4350D01*
X-7000Y4550D02*
X-6800Y4350D01*
X-7361Y4550D02*
X-7000D01*
X-7650Y4839D02*
X-7361Y4550D01*
X-7539Y4950D02*
X-7139Y5350D01*
X-7650Y4950D02*
X-7539D01*
X-9450Y3000D02*
X-8793D01*
X-8380Y5600D02*
X-8150Y5370D01*
Y3820D02*
Y5370D01*
Y3820D02*
X-7760Y3430D01*
X-10173Y10350D02*
Y10473D01*
X-10400Y7550D02*
X-10000D01*
X-11050Y8200D02*
X-10400Y7550D01*
X-11050Y8200D02*
Y8400D01*
X-10174Y9720D02*
X-9701Y9247D01*
X-9400D01*
X-3274Y6174D02*
X-2200Y5100D01*
X-2480Y5960D02*
X-1643Y5123D01*
X-4650Y6650D02*
X-4150Y7150D01*
X-3850Y7950D02*
X-3400D01*
X-3850D02*
Y8180D01*
X-4450D02*
X-3850D01*
X-4550Y8400D02*
X-4450D01*
X-4300Y6000D02*
X-3750Y6550D01*
X-3648D01*
X-3293Y8193D02*
X-2500Y7400D01*
X-2900Y6550D02*
X-2500Y6950D01*
Y7400D01*
X-4650Y5850D02*
Y6650D01*
Y5850D02*
X-4450Y5650D01*
X-3600D01*
X-11243Y4107D02*
Y6170D01*
X-11502Y3848D02*
X-11243Y4107D01*
X-11852Y3848D02*
X-11502D01*
X-11010Y4430D02*
X-9790Y5650D01*
X-1550Y3750D02*
X-1450D01*
X-10513Y9720D02*
X-10450Y9783D01*
Y9900D01*
X-5933Y6840D02*
Y7696D01*
X-3300Y10400D02*
Y11250D01*
X-5350Y8350D02*
X-3300Y10400D01*
X-4050Y10200D02*
Y11250D01*
X-6460Y7790D02*
X-4050Y10200D01*
X-6460Y7460D02*
Y7790D01*
X-5700Y8350D02*
X-5570D01*
X-6213Y7837D02*
X-5700Y8350D01*
X-6213Y7477D02*
Y7837D01*
X-5750Y8100D02*
X-5500D01*
X-6073Y7777D02*
X-5750Y8100D01*
X-6073Y6705D02*
Y7777D01*
X-2950Y10350D02*
Y11430D01*
X-5350Y7950D02*
X-2950Y10350D01*
X-5680Y7950D02*
X-5350D01*
Y8250D02*
Y8350D01*
X-5500Y8100D02*
X-5350Y8250D01*
X-7776Y6550D02*
X-7383D01*
X-8300Y7074D02*
X-7776Y6550D01*
X-8300Y7074D02*
Y7750D01*
X-8270Y6690D02*
Y6796D01*
X-9210Y6960D02*
X-8434D01*
X-8270Y6796D01*
X-8000Y3200D02*
X-7393D01*
X-5943Y3700D02*
X-5453D01*
X-5853Y3200D02*
X-5453D01*
X-6960Y3700D02*
X-6800Y3860D01*
X-8270Y6690D02*
X-7920Y6340D01*
X-6890D01*
X-4450Y2150D02*
X-3850D01*
X-3650Y2350D01*
X-2343Y2550D02*
X-2050D01*
X-2343Y2750D02*
X-2080D01*
X-3650Y2350D02*
X-3543D01*
X-3490Y2950D02*
Y3232D01*
X-4100Y4300D02*
X-3950Y4150D01*
X-4100Y4300D02*
Y5150D01*
X-3400Y4150D02*
X-3180Y4370D01*
X-3693Y4150D02*
X-3400D01*
X-4100Y5150D02*
X-3939Y5311D01*
X-3600D01*
X-7668Y9050D02*
X-6850D01*
X-7668Y8853D02*
X-6597D01*
X-5933Y7696D02*
X-5680Y7950D01*
X-5200Y7750D02*
X-4550Y8400D01*
X-10000Y9050D02*
X-9400D01*
X-10143Y8907D02*
X-10000Y9050D01*
X-10143Y8250D02*
Y8907D01*
X-10450Y9900D02*
X-10393Y9957D01*
Y10350D01*
X-10000Y7550D02*
X-9400Y8150D01*
X-11300Y8650D02*
X-11050Y8400D01*
X-13273Y8650D02*
X-11300D01*
X-13643Y9020D02*
X-13273Y8650D01*
X-9400Y8150D02*
Y8656D01*
X-10070Y7150D02*
X-8870Y8350D01*
X-10263Y7150D02*
X-10070D01*
X-11243Y6170D02*
X-10263Y7150D01*
X-11243Y6170D02*
Y6450D01*
X-13643Y9020D02*
Y9800D01*
X-9400Y9444D02*
Y9650D01*
X-9123Y9927D01*
Y10350D01*
X-8156Y9444D02*
X-7668D01*
X-8480Y9120D02*
X-8156Y9444D01*
X-7668Y8656D02*
X-6144D01*
X-10173Y10350D02*
X-9343D01*
X-10173Y9721D02*
Y10350D01*
X-10174Y9720D02*
X-10173Y9721D01*
X-1844Y2970D02*
X-1550D01*
X-1892Y2923D02*
X-1844Y2970D01*
X-1550D02*
Y3530D01*
X-1450Y3750D02*
X-1250Y3550D01*
X-1892Y2708D02*
Y2923D01*
X-2050Y2550D02*
X-1892Y2708D01*
X-5950Y11650D02*
X-5550Y11250D01*
X-8380Y5600D02*
X-6650D01*
X-5910Y6340D01*
X-6960Y7050D02*
X-6550Y6640D01*
Y6300D02*
Y6640D01*
X-4320Y3270D02*
X-4100D01*
X-4393D02*
X-4320D01*
X-4050Y2780D02*
Y3000D01*
X-4320Y3270D02*
X-4050Y3000D01*
X-5910Y6340D02*
X-4953D01*
X-6190Y5400D02*
X-5890Y5700D01*
X-4114Y3850D02*
X-4050D01*
X-4393Y4130D02*
X-4114Y3850D01*
X-3810Y3110D02*
X-3043Y3877D01*
X-3810Y2750D02*
Y3110D01*
X-4100Y3270D02*
X-4021Y3350D01*
X-4000D01*
X-5040Y7550D02*
X-4690D01*
X-5200D02*
X-5040D01*
X-5443D02*
X-5200D01*
X-4690Y5160D02*
X-4570Y5280D01*
X-6960Y7050D02*
X-6640D01*
X-7383D02*
X-6960D01*
X-8787Y5600D02*
X-8380D01*
X-13900Y1950D02*
X-13850D01*
X-2780Y3270D02*
X-2450Y3600D01*
Y4300D01*
X-13993Y3850D02*
X-13793D01*
X-14283Y3560D02*
X-13993Y3850D01*
X-14283Y3140D02*
Y3560D01*
Y3140D02*
X-13410D01*
X-12340Y2070D01*
X-12000D01*
X-3043Y3877D02*
Y4150D01*
X-3810Y2750D02*
X-3543D01*
X-3293Y8180D02*
Y8193D01*
X-4393Y5150D02*
X-4100D01*
X-13772Y5442D02*
Y6100D01*
Y5442D02*
X-13670Y5340D01*
X-13350D01*
X-12730Y5960D01*
X-11920D01*
X-11810Y5850D01*
Y5100D02*
Y5850D01*
X-12350Y4560D02*
X-11810Y5100D01*
X-12350Y3350D02*
Y4560D01*
Y3350D02*
X-11853D01*
X-8300Y3500D02*
X-8000Y3200D01*
X-10250Y3500D02*
X-8300D01*
X-13940Y6100D02*
X-13772D01*
X-14237Y7877D02*
X-13940Y7580D01*
X-5040Y10810D02*
X-4490D01*
X-4050Y11250D01*
X-9145Y2345D02*
X-8793Y2697D01*
Y3000D01*
X-7393Y3700D02*
X-6960D01*
X-4800Y11250D02*
X-4450Y11600D01*
X-3120D01*
X-2950Y11430D01*
X-5933Y6840D02*
X-5038D01*
X-4953Y6755D01*
Y6340D02*
Y6755D01*
X-14423Y3073D02*
X-14200Y2850D01*
X-13793D01*
X-8480Y8410D02*
Y9120D01*
X-9790Y7100D02*
X-8480Y8410D01*
X-9790Y5650D02*
Y7100D01*
X-11010Y2950D02*
Y4430D01*
X-11340Y2620D02*
X-11010Y2950D01*
X-12510Y2620D02*
X-11340D01*
X-13240Y3350D02*
X-12510Y2620D01*
X-13793Y3350D02*
X-13240D01*
X-6620Y7300D02*
X-6460Y7460D01*
X-7873Y7300D02*
X-6620D01*
X-7873Y6845D02*
Y7300D01*
Y6845D02*
X-7035D01*
X-6890Y6700D01*
Y6340D02*
Y6700D01*
X-9210Y5840D02*
Y6960D01*
X-10250Y4800D02*
X-9210Y5840D01*
X-10250Y3500D02*
Y4800D01*
X-6270Y5400D02*
X-6190D01*
X-2080Y2750D02*
X-2032Y2798D01*
Y3558D01*
X-1840Y3750D01*
X-3820Y2550D02*
X-3543D01*
X-4050Y2780D02*
X-3820Y2550D01*
X-10243Y6100D02*
Y6760D01*
X-13260Y3850D02*
X-12315Y4795D01*
Y5600D01*
X-8140Y6050D02*
X-7383D01*
X-6270Y5250D02*
Y5400D01*
X-1870Y4620D02*
X-1643D01*
X-2270Y4220D02*
X-1870Y4620D01*
X-2343Y2950D02*
X-2270D01*
X-3543D02*
X-3490D01*
Y3232D02*
X-2870Y3852D01*
Y4280D01*
X-2960Y4370D02*
X-2870Y4280D01*
X-4480Y5370D02*
X-4393D01*
X-1643Y4620D02*
Y5123D01*
X-6083Y3430D02*
X-5853Y3200D01*
X-7760Y3430D02*
X-6083D01*
X-5943Y3700D02*
Y4366D01*
X-5280Y5030D01*
Y5250D02*
Y5510D01*
X-4810Y5980D01*
Y7320D01*
X-5040Y7550D02*
X-4810Y7320D01*
X-6073Y6705D02*
X-5918Y6550D01*
X-5443D01*
X-6640Y7050D02*
X-6213Y7477D01*
X-9840Y1800D02*
X-9213D01*
X-10250Y2210D02*
X-9840Y1800D01*
X-10250Y2210D02*
Y3500D01*
X-2550Y10423D02*
Y11250D01*
X-3293Y9680D02*
X-2550Y10423D01*
X-3293Y8400D02*
Y9680D01*
X-4480Y4350D02*
X-4393D01*
X-4570Y4440D02*
X-4480Y4350D01*
X-4570Y4440D02*
Y5280D01*
X-4480Y5370D01*
X-13793Y2427D02*
Y2850D01*
X-13850Y2370D02*
X-13793Y2427D01*
X-13850Y1950D02*
Y2370D01*
X-7393Y2320D02*
Y2700D01*
X-7593Y2120D02*
X-7393Y2320D01*
X-7593Y1750D02*
Y2120D01*
X-6050Y5250D02*
X-5500D01*
X-3850Y8400D02*
X-3293D01*
X-9343Y10350D02*
Y11157D01*
X-14237Y7877D02*
Y10163D01*
X-13640Y10760D01*
X-10300Y10600D02*
X-10173Y10473D01*
X-11643Y9800D02*
Y9957D01*
X-11000Y10600D01*
X-10300D01*
X-10995Y10760D02*
X-10650Y11105D01*
X-13640Y10760D02*
X-10995D01*
X-10650Y11105D02*
Y11850D01*
X-10570Y11930D01*
X-5550D01*
X-14423Y3073D02*
Y10227D01*
X-2500Y2240D02*
Y2350D01*
X-13900Y980D02*
Y1950D01*
X-2270Y2950D02*
Y4220D01*
X-5200Y7550D02*
Y7750D01*
D23*
X-2800Y1250D02*
D03*
X-4800D02*
D03*
X-3800D02*
D03*
X-6000Y9800D02*
D03*
X-11250Y11250D02*
D03*
X-10250D02*
D03*
X-6000Y10800D02*
D03*
Y8800D02*
D03*
X-9250Y11250D02*
D03*
D24*
X-6500D02*
D03*
X-6450Y1200D02*
D03*
X-5550Y11250D02*
D03*
X-4800D02*
D03*
X-4050D02*
D03*
X-12250Y1250D02*
D03*
X-2550Y11250D02*
D03*
X-3300D02*
D03*
X-1800D02*
D03*
D25*
X-2250Y1750D02*
D03*
X-1250Y2150D02*
D03*
X-6550Y4750D02*
D03*
X-7650Y4950D02*
D03*
X-9450Y3000D02*
D03*
X-2200Y5100D02*
D03*
X-2480Y5960D02*
D03*
X-4150Y7150D02*
D03*
X-4300Y6000D02*
D03*
X-8300Y7750D02*
D03*
X-4450Y2150D02*
D03*
X-11300Y7300D02*
D03*
X-6550Y6300D02*
D03*
X-5890Y5700D02*
D03*
X-4050Y3850D02*
D03*
X-4000Y3350D02*
D03*
X-2780Y3270D02*
D03*
X-9145Y2345D02*
D03*
X-10243Y6760D02*
D03*
X-8140Y6050D02*
D03*
X-4690Y7550D02*
D03*
M02*
