G04 Layer_Physical_Order=2*
G04 Layer_Color=16711680*
%FSLAX24Y24*%
%MOIN*%
G70*
G01*
G75*
%ADD22C,0.0080*%
%ADD23C,0.0550*%
%ADD24C,0.0500*%
%ADD25C,0.0380*%
D22*
X-2200Y3800D02*
X-900Y2500D01*
Y1400D02*
Y2500D01*
X-1650Y650D02*
X-900Y1400D01*
X-7350Y650D02*
X-1650D01*
X-7900Y1200D02*
X-7350Y650D01*
X-1250Y1300D02*
Y2150D01*
X-1750Y800D02*
X-1250Y1300D01*
X-4350Y800D02*
X-1750D01*
X-4800Y1250D02*
X-4350Y800D01*
X-10750Y1200D02*
X-7900D01*
X-1250Y2150D02*
Y2250D01*
X-2200Y3800D02*
Y5100D01*
X-3200Y4200D02*
X-1250Y2250D01*
X-7450Y1200D02*
X-6450D01*
X-8595Y2345D02*
X-7450Y1200D01*
X-9145Y2345D02*
X-8595D01*
X-7550Y12050D02*
X-6500Y11250D01*
X-14050Y12050D02*
X-7550D01*
X-9500Y11000D02*
X-9250Y11250D01*
X-9500Y9600D02*
Y11000D01*
X-8850Y9450D02*
Y11450D01*
X-9100Y11700D02*
X-8850Y11450D01*
X-9800Y11700D02*
X-9100D01*
X-11214Y11250D02*
X-11000Y11035D01*
Y8700D02*
Y11035D01*
X-7200Y4750D02*
X-6550D01*
X-10750Y1200D02*
X-7200Y4750D01*
X-9450Y3150D02*
X-7650Y4950D01*
X-8963Y5480D02*
X-7160D01*
X-9450Y3000D02*
Y3150D01*
X-3525Y4375D02*
Y4505D01*
X-3200Y4632D02*
X-2050Y5782D01*
X-3200Y4200D02*
Y4632D01*
X-2060Y10990D02*
X-1800Y11250D01*
X-2060Y6148D02*
Y10990D01*
Y6148D02*
X-2050Y6138D01*
Y5782D02*
Y6138D01*
X-2200Y6090D02*
X-2190Y6080D01*
Y5840D02*
Y6080D01*
X-3525Y4505D02*
X-2190Y5840D01*
X-2200Y6090D02*
Y11395D01*
X-3510Y5960D02*
X-2480D01*
X-4050Y3850D02*
X-3525Y4375D01*
X-2550Y8750D02*
Y11250D01*
X-2950Y11600D02*
X-2405D01*
X-3300Y11250D02*
X-2950Y11600D01*
X-2405D02*
X-2200Y11395D01*
X-4150Y7150D02*
X-2550Y8750D01*
X-4690Y7140D02*
X-3510Y5960D01*
X-4690Y7140D02*
Y7550D01*
X-7250Y7350D02*
X-5650D01*
X-4300Y6000D01*
X-5890Y5700D02*
Y6190D01*
X-14450Y10450D02*
X-11300Y7300D01*
X-14450Y10450D02*
Y11650D01*
X-14050Y12050D01*
X-4890Y2150D02*
X-4450D01*
X-2710D01*
X-5890Y3150D02*
X-4890Y2150D01*
X-11000Y8700D02*
X-8350Y6050D01*
X-8140D01*
X-6550Y6090D02*
Y6300D01*
X-7160Y5480D02*
X-6550Y6090D01*
X-6490Y6790D02*
X-5890Y6190D01*
X-7400Y6790D02*
X-6490D01*
X-5890Y3150D02*
Y5700D01*
X-4000Y3350D02*
X-2860D01*
X-2780Y3270D01*
X-5000Y7860D02*
X-4690Y7550D01*
X-7260Y7860D02*
X-5000D01*
X-8850Y9450D02*
X-7260Y7860D01*
X-10243Y6760D02*
X-8963Y5480D01*
X-8140Y6050D02*
X-7400Y6790D01*
X-12200Y1200D02*
X-10750D01*
X-12250Y1250D02*
X-12200Y1200D01*
X-12250Y1250D02*
Y6350D01*
X-11300Y7300D01*
X-10250Y11250D02*
X-9800Y11700D01*
X-9500Y9600D02*
X-7250Y7350D01*
X-2710Y2150D02*
X-2280Y1720D01*
D23*
X-2800Y1250D02*
D03*
X-4800D02*
D03*
X-3800D02*
D03*
X-6000Y9800D02*
D03*
X-11250Y11250D02*
D03*
X-10250D02*
D03*
X-6000Y10800D02*
D03*
Y8800D02*
D03*
X-9250Y11250D02*
D03*
D24*
X-6500D02*
D03*
X-6450Y1200D02*
D03*
X-5550Y11250D02*
D03*
X-4800D02*
D03*
X-4050D02*
D03*
X-12250Y1250D02*
D03*
X-2550Y11250D02*
D03*
X-3300D02*
D03*
X-1800D02*
D03*
D25*
X-2250Y1750D02*
D03*
X-1250Y2150D02*
D03*
X-6550Y4750D02*
D03*
X-7650Y4950D02*
D03*
X-9450Y3000D02*
D03*
X-2200Y5100D02*
D03*
X-2480Y5960D02*
D03*
X-4150Y7150D02*
D03*
X-4300Y6000D02*
D03*
X-8300Y7750D02*
D03*
X-4450Y2150D02*
D03*
X-11300Y7300D02*
D03*
X-6550Y6300D02*
D03*
X-5890Y5700D02*
D03*
X-4050Y3850D02*
D03*
X-4000Y3350D02*
D03*
X-2780Y3270D02*
D03*
X-9145Y2345D02*
D03*
X-10243Y6760D02*
D03*
X-8140Y6050D02*
D03*
X-4690Y7550D02*
D03*
M02*
