G04 Layer_Physical_Order=1*
G04 Layer_Color=255*
%FSLAX24Y24*%
%MOIN*%
G70*
G01*
G75*
%ADD10R,0.0409X0.0181*%
%ADD11R,0.0213X0.0236*%
%ADD12R,0.0142X0.0134*%
%ADD13R,0.0134X0.0142*%
%ADD14R,0.0780X0.0210*%
%ADD15R,0.0394X0.0551*%
%ADD16R,0.0630X0.0787*%
%ADD17R,0.0630X0.0512*%
%ADD18R,0.0630X0.0740*%
%ADD19R,0.0320X0.0120*%
%ADD20R,0.0236X0.0213*%
%ADD21R,0.0520X0.0110*%
%ADD22R,0.0708X0.0629*%
%ADD23C,0.0080*%
%ADD24C,0.0500*%
%ADD25C,0.0550*%
%ADD26C,0.0380*%
%ADD27C,0.0400*%
G36*
X0Y50D02*
X-15515Y0D01*
X-15550Y35D01*
Y12750D01*
X0D01*
Y50D01*
D02*
G37*
%LPC*%
G36*
X-7750Y1091D02*
X-8005D01*
Y950D01*
X-7750D01*
Y1091D01*
D02*
G37*
G36*
X-8332D02*
X-8942D01*
Y1043D01*
X-9127D01*
Y1091D01*
X-9736D01*
Y709D01*
X-9127D01*
Y757D01*
X-8942D01*
Y709D01*
X-8332D01*
Y1091D01*
D02*
G37*
G36*
X-7395D02*
X-7650D01*
Y950D01*
X-7395D01*
Y1091D01*
D02*
G37*
G36*
X-4800Y1628D02*
X-4898Y1615D01*
X-4989Y1578D01*
X-5067Y1517D01*
X-5128Y1439D01*
X-5165Y1348D01*
X-5178Y1250D01*
X-5165Y1152D01*
X-5128Y1061D01*
X-5067Y983D01*
X-4989Y922D01*
X-4898Y885D01*
X-4800Y872D01*
X-4702Y885D01*
X-4611Y922D01*
X-4533Y983D01*
X-4472Y1061D01*
X-4435Y1152D01*
X-4422Y1250D01*
X-4435Y1348D01*
X-4472Y1439D01*
X-4533Y1517D01*
X-4611Y1578D01*
X-4702Y1615D01*
X-4800Y1628D01*
D02*
G37*
G36*
X-2850Y1200D02*
X-3172D01*
X-3165Y1152D01*
X-3128Y1061D01*
X-3067Y983D01*
X-2989Y922D01*
X-2898Y885D01*
X-2850Y878D01*
Y1200D01*
D02*
G37*
G36*
X-2428D02*
X-2750D01*
Y878D01*
X-2702Y885D01*
X-2611Y922D01*
X-2533Y983D01*
X-2472Y1061D01*
X-2435Y1152D01*
X-2428Y1200D01*
D02*
G37*
G36*
X-1529Y1817D02*
X-1650D01*
Y1700D01*
X-1529D01*
Y1817D01*
D02*
G37*
G36*
X-2850Y1622D02*
X-2898Y1615D01*
X-2989Y1578D01*
X-3067Y1517D01*
X-3128Y1439D01*
X-3165Y1348D01*
X-3172Y1300D01*
X-2850D01*
Y1622D01*
D02*
G37*
G36*
X-5789Y1750D02*
X-5945D01*
Y1582D01*
X-5789D01*
Y1750D01*
D02*
G37*
G36*
X-2750Y1622D02*
Y1300D01*
X-2428D01*
X-2435Y1348D01*
X-2472Y1439D01*
X-2533Y1517D01*
X-2611Y1578D01*
X-2702Y1615D01*
X-2750Y1622D01*
D02*
G37*
G36*
X-2250Y2042D02*
X-2326Y2033D01*
X-2396Y2003D01*
X-2457Y1957D01*
X-2503Y1896D01*
X-2533Y1826D01*
X-2542Y1750D01*
X-2533Y1674D01*
X-2503Y1604D01*
X-2457Y1543D01*
X-2396Y1497D01*
X-2326Y1467D01*
X-2318Y1467D01*
X-2180Y1329D01*
X-2180Y1329D01*
X-2134Y1298D01*
X-2080Y1287D01*
X-2080Y1287D01*
X-1871D01*
Y1263D01*
X-1529D01*
Y1483D01*
Y1600D01*
X-1700D01*
X-1871D01*
Y1572D01*
X-1958D01*
X-1967Y1579D01*
X-1989Y1622D01*
X-1967Y1674D01*
X-1957Y1750D01*
X-1967Y1826D01*
X-1997Y1896D01*
X-2043Y1957D01*
X-2104Y2003D01*
X-2174Y2033D01*
X-2250Y2042D01*
D02*
G37*
G36*
X-1472Y4350D02*
X-1593D01*
Y4233D01*
X-1472D01*
Y4350D01*
D02*
G37*
G36*
X-1750Y1817D02*
X-1871D01*
Y1700D01*
X-1750D01*
Y1817D01*
D02*
G37*
G36*
X-11250Y1096D02*
Y850D01*
X-11004D01*
X-11008Y878D01*
X-11038Y951D01*
X-11086Y1014D01*
X-11149Y1062D01*
X-11222Y1092D01*
X-11250Y1096D01*
D02*
G37*
G36*
X-4963Y2905D02*
X-5403D01*
Y2750D01*
X-4963D01*
Y2905D01*
D02*
G37*
G36*
X-11350Y750D02*
X-11596D01*
X-11592Y722D01*
X-11562Y649D01*
X-11514Y586D01*
X-11451Y538D01*
X-11378Y508D01*
X-11350Y504D01*
Y750D01*
D02*
G37*
G36*
X-5503Y2650D02*
X-5943D01*
Y2495D01*
X-5503D01*
Y2650D01*
D02*
G37*
G36*
X-4963D02*
X-5403D01*
Y2495D01*
X-4963D01*
Y2650D01*
D02*
G37*
G36*
X-5503Y2905D02*
X-5943D01*
Y2750D01*
X-5503D01*
Y2905D01*
D02*
G37*
G36*
X-8668Y2018D02*
X-8824D01*
Y1850D01*
X-8668D01*
Y2018D01*
D02*
G37*
G36*
X-7395Y850D02*
X-7650D01*
Y709D01*
X-7395D01*
Y850D01*
D02*
G37*
G36*
X-11350Y1096D02*
X-11378Y1092D01*
X-11451Y1062D01*
X-11514Y1014D01*
X-11562Y951D01*
X-11592Y878D01*
X-11596Y850D01*
X-11350D01*
Y1096D01*
D02*
G37*
G36*
X-7750Y850D02*
X-8005D01*
Y709D01*
X-7750D01*
Y850D01*
D02*
G37*
G36*
X-5550Y12343D02*
X-5550Y12343D01*
X-10300D01*
X-10300Y12343D01*
X-10355Y12332D01*
X-10401Y12301D01*
X-10401Y12301D01*
X-10851Y11851D01*
X-10882Y11805D01*
X-10893Y11750D01*
X-10893Y11750D01*
Y11483D01*
X-10943Y11466D01*
X-10983Y11517D01*
X-11061Y11578D01*
X-11152Y11615D01*
X-11250Y11628D01*
X-11348Y11615D01*
X-11439Y11578D01*
X-11517Y11517D01*
X-11578Y11439D01*
X-11597Y11393D01*
X-13550D01*
X-13550Y11393D01*
X-13605Y11382D01*
X-13651Y11351D01*
X-13651Y11351D01*
X-14601Y10401D01*
X-14632Y10355D01*
X-14643Y10300D01*
X-14643Y10300D01*
Y3150D01*
X-14643Y3150D01*
X-14632Y3095D01*
X-14601Y3049D01*
X-14301Y2749D01*
X-14301Y2749D01*
X-14283Y2737D01*
Y2645D01*
X-13993D01*
Y2121D01*
X-14017D01*
Y1779D01*
X-13993D01*
Y1400D01*
X-13993Y1400D01*
X-13982Y1345D01*
X-13951Y1299D01*
X-13251Y599D01*
X-13251Y599D01*
X-13205Y568D01*
X-13150Y557D01*
X-12150D01*
X-12150Y557D01*
X-12095Y568D01*
X-12049Y599D01*
X-11291Y1357D01*
X-10410D01*
X-10391Y1311D01*
X-10469Y1232D01*
X-10500Y1186D01*
X-10511Y1132D01*
X-10539Y1091D01*
X-10673D01*
Y709D01*
X-10064D01*
Y1091D01*
X-10104D01*
X-10129Y1141D01*
X-10117Y1157D01*
X-8000D01*
X-8000Y1157D01*
X-7945Y1168D01*
X-7899Y1199D01*
X-7791Y1307D01*
X-7349D01*
X-7349Y1307D01*
X-7294Y1318D01*
X-7248Y1349D01*
X-6780Y1817D01*
X-6593D01*
Y1520D01*
X-6627Y1506D01*
X-6700Y1450D01*
X-6756Y1377D01*
X-6791Y1291D01*
X-6803Y1200D01*
X-6791Y1109D01*
X-6756Y1023D01*
X-6700Y950D01*
X-6627Y894D01*
X-6541Y859D01*
X-6450Y847D01*
X-6359Y859D01*
X-6273Y894D01*
X-6200Y950D01*
X-6144Y1023D01*
X-6109Y1109D01*
X-6097Y1200D01*
X-6109Y1291D01*
X-6144Y1377D01*
X-6200Y1450D01*
X-6273Y1506D01*
X-6307Y1520D01*
Y1900D01*
X-6150Y2057D01*
X-5971D01*
X-5945Y2018D01*
Y1850D01*
X-5739D01*
Y1800D01*
X-5689D01*
Y1582D01*
X-5194D01*
Y2018D01*
X-5261D01*
X-5268Y2055D01*
X-5299Y2101D01*
X-5299Y2101D01*
X-5499Y2301D01*
X-5545Y2332D01*
X-5600Y2343D01*
X-5600Y2343D01*
X-6210D01*
X-6210Y2343D01*
X-6264Y2332D01*
X-6310Y2301D01*
X-6310Y2301D01*
X-6509Y2102D01*
X-6839D01*
X-6839Y2102D01*
X-6894Y2091D01*
X-6940Y2060D01*
X-6940Y2060D01*
X-7160Y1841D01*
X-7206Y1860D01*
Y1921D01*
X-7323D01*
Y1750D01*
X-7423D01*
Y1921D01*
X-7451D01*
Y2061D01*
X-7292Y2219D01*
X-7292Y2219D01*
X-7261Y2265D01*
X-7251Y2320D01*
X-7251Y2320D01*
Y2495D01*
X-6903D01*
Y2905D01*
X-7883D01*
Y2495D01*
X-7536D01*
Y2379D01*
X-7694Y2221D01*
X-7725Y2175D01*
X-7736Y2120D01*
X-7736Y2120D01*
Y1921D01*
X-7760D01*
Y1893D01*
X-8250D01*
X-8305Y1882D01*
X-8351Y1851D01*
X-8351Y1851D01*
X-8559Y1643D01*
X-8668D01*
Y1750D01*
X-8874D01*
Y1800D01*
X-8924D01*
Y2018D01*
X-9046D01*
X-9056Y2068D01*
X-8999Y2092D01*
X-8938Y2138D01*
X-8892Y2199D01*
X-8862Y2269D01*
X-8852Y2345D01*
X-8862Y2421D01*
X-8864Y2424D01*
X-8692Y2596D01*
X-8692Y2596D01*
X-8661Y2642D01*
X-8661Y2644D01*
X-8378D01*
Y3306D01*
X-8328Y3326D01*
X-8101Y3099D01*
X-8101Y3099D01*
X-8055Y3068D01*
X-8000Y3057D01*
X-8000Y3057D01*
X-7883D01*
Y2995D01*
X-6903D01*
Y3287D01*
X-6142D01*
X-5954Y3099D01*
X-5954Y3099D01*
X-5943Y3092D01*
Y2995D01*
X-4963D01*
Y3405D01*
X-5856D01*
X-5896Y3445D01*
X-5876Y3495D01*
X-4963D01*
Y3905D01*
X-5801D01*
Y3995D01*
X-4963D01*
Y4405D01*
X-5637D01*
X-5656Y4451D01*
X-5179Y4929D01*
X-5179Y4929D01*
X-5148Y4975D01*
X-5137Y5030D01*
X-5137Y5030D01*
Y5079D01*
X-5113D01*
Y5421D01*
X-5113D01*
X-5117Y5471D01*
X-4822Y5766D01*
X-4758Y5760D01*
X-4751Y5749D01*
X-4582Y5580D01*
X-4564Y5537D01*
X-4564Y5537D01*
Y5483D01*
X-4581Y5471D01*
X-4581Y5471D01*
X-4791Y5261D01*
X-4822Y5215D01*
X-4833Y5160D01*
X-4833Y5160D01*
Y4657D01*
X-4834Y4648D01*
X-4833Y4640D01*
Y3260D01*
X-4833Y3260D01*
X-4822Y3205D01*
X-4791Y3159D01*
X-4581Y2949D01*
X-4581Y2949D01*
X-4564Y2938D01*
Y2883D01*
X-4222D01*
X-4193Y2845D01*
Y2780D01*
X-4193Y2780D01*
X-4182Y2725D01*
X-4151Y2679D01*
X-3921Y2449D01*
X-3921Y2449D01*
X-3875Y2418D01*
X-3858Y2415D01*
X-3841Y2361D01*
X-3909Y2293D01*
X-4195D01*
X-4197Y2296D01*
X-4243Y2357D01*
X-4304Y2403D01*
X-4374Y2433D01*
X-4450Y2442D01*
X-4526Y2433D01*
X-4596Y2403D01*
X-4657Y2357D01*
X-4703Y2296D01*
X-4733Y2226D01*
X-4742Y2150D01*
X-4733Y2074D01*
X-4703Y2004D01*
X-4657Y1943D01*
X-4596Y1897D01*
X-4526Y1867D01*
X-4450Y1857D01*
X-4374Y1867D01*
X-4304Y1897D01*
X-4243Y1943D01*
X-4197Y2004D01*
X-4195Y2007D01*
X-3850D01*
X-3850Y2007D01*
X-3795Y2018D01*
X-3749Y2049D01*
X-3608Y2190D01*
X-3358D01*
Y2180D01*
X-2781D01*
X-2761Y2134D01*
X-2802Y2093D01*
X-3450D01*
X-3450Y2093D01*
X-3505Y2082D01*
X-3551Y2051D01*
X-3551Y2051D01*
X-3901Y1701D01*
X-3932Y1655D01*
X-3943Y1600D01*
X-3943Y1600D01*
Y1597D01*
X-3989Y1578D01*
X-4067Y1517D01*
X-4128Y1439D01*
X-4165Y1348D01*
X-4178Y1250D01*
X-4165Y1152D01*
X-4128Y1061D01*
X-4067Y983D01*
X-3989Y922D01*
X-3898Y885D01*
X-3800Y872D01*
X-3702Y885D01*
X-3611Y922D01*
X-3533Y983D01*
X-3472Y1061D01*
X-3435Y1152D01*
X-3422Y1250D01*
X-3435Y1348D01*
X-3472Y1439D01*
X-3533Y1517D01*
X-3576Y1551D01*
X-3581Y1617D01*
X-3391Y1807D01*
X-2743D01*
X-2743Y1807D01*
X-2689Y1818D01*
X-2642Y1849D01*
X-2301Y2190D01*
X-2083D01*
Y2374D01*
X-2050Y2407D01*
X-1995Y2418D01*
X-1949Y2449D01*
X-1791Y2608D01*
X-1791Y2608D01*
X-1771Y2637D01*
X-1721Y2622D01*
Y2583D01*
X-1600D01*
Y2750D01*
X-1500D01*
Y2583D01*
X-1393D01*
Y2405D01*
X-1396Y2403D01*
X-1457Y2357D01*
X-1503Y2296D01*
X-1533Y2226D01*
X-1542Y2150D01*
X-1533Y2074D01*
X-1503Y2004D01*
X-1457Y1943D01*
X-1396Y1897D01*
X-1326Y1867D01*
X-1250Y1857D01*
X-1174Y1867D01*
X-1104Y1897D01*
X-1043Y1943D01*
X-997Y2004D01*
X-967Y2074D01*
X-957Y2150D01*
X-967Y2226D01*
X-997Y2296D01*
X-1043Y2357D01*
X-1104Y2403D01*
X-1107Y2405D01*
Y3550D01*
X-1107Y3550D01*
X-1118Y3605D01*
X-1149Y3651D01*
X-1149Y3651D01*
X-1349Y3851D01*
X-1379Y3871D01*
Y3917D01*
X-1721D01*
Y3893D01*
X-1840D01*
X-1840Y3893D01*
X-1895Y3882D01*
X-1941Y3851D01*
X-1941Y3851D01*
X-2081Y3711D01*
X-2127Y3730D01*
Y4161D01*
X-1864Y4424D01*
X-1814Y4403D01*
Y4233D01*
X-1693D01*
Y4400D01*
X-1643D01*
Y4450D01*
X-1472D01*
Y4454D01*
Y4787D01*
X-1501D01*
Y5123D01*
X-1511Y5178D01*
X-1542Y5224D01*
X-1542Y5224D01*
X-2199Y5881D01*
X-2197Y5884D01*
X-2188Y5960D01*
X-2197Y6036D01*
X-2227Y6106D01*
X-2273Y6167D01*
X-2334Y6213D01*
X-2404Y6243D01*
X-2480Y6252D01*
X-2553Y6243D01*
X-2566Y6243D01*
X-2603Y6268D01*
Y6645D01*
X-2399Y6849D01*
X-2399Y6849D01*
X-2368Y6895D01*
X-2357Y6950D01*
Y7386D01*
X-2357Y7386D01*
X-2368Y7441D01*
X-2399Y7487D01*
X-2399Y7487D01*
X-3122Y8211D01*
Y8567D01*
X-3151D01*
Y9621D01*
X-2449Y10322D01*
X-2418Y10369D01*
X-2407Y10423D01*
X-2407Y10423D01*
Y10930D01*
X-2373Y10944D01*
X-2300Y11000D01*
X-2244Y11073D01*
X-2209Y11159D01*
X-2200Y11225D01*
X-2200Y11225D01*
X-2150D01*
X-2150Y11225D01*
X-2141Y11159D01*
X-2106Y11073D01*
X-2050Y11000D01*
X-1977Y10944D01*
X-1891Y10909D01*
X-1800Y10897D01*
X-1709Y10909D01*
X-1623Y10944D01*
X-1550Y11000D01*
X-1494Y11073D01*
X-1459Y11159D01*
X-1447Y11250D01*
X-1459Y11341D01*
X-1494Y11427D01*
X-1550Y11500D01*
X-1623Y11556D01*
X-1709Y11591D01*
X-1800Y11603D01*
X-1891Y11591D01*
X-1977Y11556D01*
X-2050Y11500D01*
X-2106Y11427D01*
X-2141Y11341D01*
X-2150Y11275D01*
X-2150Y11275D01*
X-2200D01*
X-2200Y11275D01*
X-2209Y11341D01*
X-2244Y11427D01*
X-2300Y11500D01*
X-2373Y11556D01*
X-2459Y11591D01*
X-2550Y11603D01*
X-2641Y11591D01*
X-2727Y11556D01*
X-2779Y11516D01*
X-2836Y11519D01*
X-2844Y11524D01*
X-2849Y11531D01*
X-3069Y11751D01*
X-3115Y11782D01*
X-3170Y11793D01*
X-3170Y11793D01*
X-4400D01*
X-4455Y11782D01*
X-4501Y11751D01*
X-4501Y11751D01*
X-4675Y11577D01*
X-4709Y11591D01*
X-4800Y11603D01*
X-4891Y11591D01*
X-4977Y11556D01*
X-5007Y11532D01*
X-5057Y11557D01*
Y11850D01*
X-5057Y11850D01*
X-5068Y11905D01*
X-5099Y11951D01*
X-5099Y11951D01*
X-5449Y12301D01*
X-5495Y12332D01*
X-5550Y12343D01*
D02*
G37*
G36*
X-11004Y750D02*
X-11250D01*
Y504D01*
X-11222Y508D01*
X-11149Y538D01*
X-11086Y586D01*
X-11038Y649D01*
X-11008Y722D01*
X-11004Y750D01*
D02*
G37*
%LPD*%
G36*
X-10393Y4775D02*
Y3994D01*
X-10665D01*
Y3006D01*
X-10393D01*
Y2210D01*
X-10393Y2210D01*
X-10382Y2155D01*
X-10351Y2109D01*
X-9941Y1699D01*
X-9941Y1699D01*
X-9931Y1693D01*
X-9947Y1643D01*
X-11350D01*
X-11350Y1643D01*
X-11405Y1632D01*
X-11451Y1601D01*
X-11451Y1601D01*
X-11853Y1199D01*
X-11856Y1200D01*
X-12596D01*
X-12591Y1159D01*
X-12556Y1073D01*
X-12500Y1000D01*
X-12427Y944D01*
X-12341Y909D01*
X-12272Y900D01*
X-12246Y855D01*
X-12246Y848D01*
X-12249Y843D01*
X-13091D01*
X-13707Y1459D01*
Y1779D01*
X-13680D01*
Y1950D01*
Y2121D01*
X-13707D01*
Y2645D01*
X-13303D01*
Y2766D01*
X-13257Y2785D01*
X-12441Y1970D01*
X-12441Y1970D01*
X-12395Y1939D01*
X-12340Y1928D01*
X-12340Y1928D01*
X-12171D01*
Y1900D01*
X-12000D01*
X-11829D01*
Y1904D01*
Y2237D01*
X-12171D01*
Y2213D01*
X-12281D01*
X-12495Y2427D01*
X-12475Y2477D01*
X-11340D01*
X-11340Y2477D01*
X-11285Y2488D01*
X-11239Y2519D01*
X-10909Y2849D01*
X-10909Y2849D01*
X-10878Y2895D01*
X-10867Y2950D01*
Y4371D01*
X-10443Y4795D01*
X-10393Y4775D01*
D02*
G37*
G36*
X-6152Y5826D02*
X-6173Y5776D01*
X-6183Y5700D01*
X-6173Y5624D01*
X-6171Y5621D01*
X-6249Y5543D01*
X-6270D01*
X-6325Y5532D01*
X-6371Y5501D01*
X-6402Y5455D01*
X-6409Y5421D01*
X-6437D01*
Y5079D01*
X-6100D01*
Y5250D01*
X-6000D01*
Y5079D01*
X-5883D01*
Y5107D01*
X-5667D01*
Y5079D01*
X-5498D01*
X-5478Y5033D01*
X-6044Y4467D01*
X-6075Y4421D01*
X-6086Y4366D01*
X-6086Y4366D01*
Y3700D01*
X-6075Y3645D01*
X-6057Y3619D01*
X-6078Y3581D01*
X-6087Y3573D01*
X-6815D01*
X-6835Y3623D01*
X-6699Y3759D01*
X-6699Y3759D01*
X-6668Y3805D01*
X-6657Y3860D01*
X-6657Y3860D01*
Y4350D01*
X-6657Y4350D01*
X-6668Y4405D01*
X-6692Y4441D01*
X-6670Y4476D01*
X-6662Y4483D01*
X-6626Y4467D01*
X-6600Y4464D01*
Y4700D01*
X-6836D01*
X-6833Y4674D01*
X-6819Y4642D01*
X-6861Y4613D01*
X-6899Y4651D01*
X-6945Y4682D01*
X-7000Y4693D01*
X-7000Y4693D01*
X-7302D01*
X-7404Y4794D01*
X-7397Y4804D01*
X-7367Y4874D01*
X-7361Y4926D01*
X-7155Y5132D01*
X-6850D01*
Y5350D01*
X-6800D01*
Y5400D01*
X-6594D01*
Y5469D01*
X-6549Y5499D01*
X-6194Y5854D01*
X-6152Y5826D01*
D02*
G37*
G36*
X-9208Y3356D02*
X-9208Y3239D01*
X-9258Y3218D01*
X-9304Y3253D01*
X-9374Y3283D01*
X-9450Y3293D01*
X-9526Y3283D01*
X-9596Y3253D01*
X-9657Y3207D01*
X-9703Y3146D01*
X-9733Y3076D01*
X-9743Y3000D01*
X-9733Y2924D01*
X-9703Y2854D01*
X-9657Y2793D01*
X-9596Y2747D01*
X-9526Y2717D01*
X-9450Y2707D01*
X-9374Y2717D01*
X-9304Y2747D01*
X-9258Y2782D01*
X-9208Y2761D01*
Y2644D01*
X-9247Y2617D01*
X-9291Y2598D01*
X-9352Y2552D01*
X-9398Y2491D01*
X-9428Y2421D01*
X-9438Y2345D01*
X-9428Y2269D01*
X-9398Y2199D01*
X-9352Y2138D01*
X-9291Y2092D01*
X-9234Y2068D01*
X-9244Y2018D01*
X-9419D01*
Y1943D01*
X-9781D01*
X-10107Y2269D01*
Y3006D01*
X-9835D01*
Y3357D01*
X-9258D01*
X-9208Y3356D01*
D02*
G37*
G36*
X-12693Y4150D02*
Y3700D01*
X-12693Y3700D01*
X-12682Y3645D01*
X-12651Y3599D01*
X-12343Y3291D01*
Y3145D01*
X-11363D01*
Y3555D01*
X-12203D01*
X-12247Y3599D01*
X-12228Y3645D01*
X-11363D01*
Y3785D01*
X-11199Y3949D01*
X-11153Y3930D01*
Y3009D01*
X-11317Y2845D01*
X-11363Y2864D01*
Y3055D01*
X-12343D01*
Y2763D01*
X-12451D01*
X-13139Y3451D01*
X-13185Y3482D01*
X-13240Y3493D01*
X-13240Y3493D01*
X-13303D01*
Y3555D01*
X-14021D01*
X-14040Y3601D01*
X-13996Y3645D01*
X-13303D01*
Y3688D01*
X-13260Y3707D01*
X-13205Y3718D01*
X-13159Y3749D01*
X-12739Y4169D01*
X-12693Y4150D01*
D02*
G37*
G36*
X-13914Y7013D02*
Y6594D01*
X-14187D01*
Y5606D01*
X-13357D01*
Y5957D01*
X-12779D01*
X-12730Y5956D01*
Y5244D01*
X-12458D01*
Y4854D01*
X-13270Y4041D01*
X-13303Y4055D01*
Y4055D01*
X-14283D01*
Y3772D01*
X-14308Y3752D01*
X-14357Y3775D01*
Y7390D01*
X-14311Y7409D01*
X-13914Y7013D01*
D02*
G37*
G36*
X-9202Y5581D02*
Y5244D01*
X-8372D01*
Y5324D01*
X-8325Y5344D01*
X-8293Y5311D01*
Y3820D01*
X-8293Y3820D01*
X-8282Y3765D01*
X-8251Y3719D01*
X-8181Y3649D01*
X-8212Y3610D01*
X-8245Y3632D01*
X-8300Y3643D01*
X-8300Y3643D01*
X-8329D01*
X-8378Y3644D01*
X-8378Y3693D01*
Y4356D01*
X-9208D01*
X-9208Y3644D01*
X-9258Y3643D01*
X-9835D01*
Y3994D01*
X-10107D01*
Y4741D01*
X-9248Y5600D01*
X-9202Y5581D01*
D02*
G37*
G36*
X-3641Y11159D02*
X-3606Y11073D01*
X-3550Y11000D01*
X-3477Y10944D01*
X-3443Y10930D01*
Y10459D01*
X-5381Y8521D01*
X-5462D01*
X-5481Y8567D01*
X-3949Y10099D01*
X-3918Y10145D01*
X-3907Y10200D01*
X-3907Y10200D01*
Y10930D01*
X-3873Y10944D01*
X-3800Y11000D01*
X-3744Y11073D01*
X-3709Y11159D01*
X-3700Y11225D01*
X-3650D01*
X-3641Y11159D01*
D02*
G37*
G36*
X-3436Y9597D02*
Y8567D01*
X-3464D01*
Y8543D01*
X-3679D01*
Y8567D01*
X-4021D01*
Y8322D01*
X-4279D01*
Y8567D01*
X-4466D01*
X-4485Y8613D01*
X-3482Y9616D01*
X-3436Y9597D01*
D02*
G37*
G36*
X-4400Y8013D02*
X-4279D01*
Y8037D01*
X-4021D01*
Y8013D01*
X-3993D01*
Y7950D01*
X-3982Y7895D01*
X-3951Y7849D01*
X-3905Y7818D01*
X-3850Y7807D01*
X-3614D01*
X-3571Y7792D01*
Y7466D01*
X-3274D01*
Y7366D01*
X-3571D01*
Y7041D01*
X-3417D01*
Y6926D01*
X-3894D01*
X-3918Y6976D01*
X-3897Y7004D01*
X-3867Y7074D01*
X-3857Y7150D01*
X-3867Y7226D01*
X-3897Y7296D01*
X-3943Y7357D01*
X-4004Y7403D01*
X-4074Y7433D01*
X-4150Y7442D01*
X-4226Y7433D01*
X-4296Y7403D01*
X-4357Y7357D01*
X-4403Y7296D01*
X-4433Y7226D01*
X-4442Y7150D01*
X-4433Y7074D01*
X-4431Y7071D01*
X-4601Y6901D01*
X-4647Y6920D01*
Y7263D01*
X-4614Y7267D01*
X-4544Y7297D01*
X-4483Y7343D01*
X-4437Y7404D01*
X-4407Y7474D01*
X-4397Y7550D01*
X-4407Y7626D01*
X-4437Y7696D01*
X-4483Y7757D01*
X-4544Y7803D01*
X-4547Y7805D01*
Y8013D01*
X-4500D01*
Y8180D01*
X-4400D01*
Y8013D01*
D02*
G37*
G36*
X-7591Y12011D02*
X-8170Y11432D01*
X-8201Y11385D01*
X-8212Y11331D01*
X-8212Y11331D01*
Y10968D01*
X-8276D01*
Y10746D01*
X-8581Y10440D01*
X-8612Y10394D01*
X-8623Y10339D01*
X-8623Y10339D01*
Y8469D01*
X-8681Y8411D01*
X-8727Y8430D01*
Y11470D01*
X-8727Y11470D01*
X-8738Y11525D01*
X-8769Y11571D01*
X-8769Y11571D01*
X-8999Y11801D01*
X-9045Y11832D01*
X-9100Y11843D01*
X-9100Y11843D01*
X-9800D01*
X-9800Y11843D01*
X-9855Y11832D01*
X-9901Y11801D01*
X-9901Y11801D01*
X-10106Y11596D01*
X-10152Y11615D01*
X-10250Y11628D01*
X-10348Y11615D01*
X-10439Y11578D01*
X-10517Y11517D01*
X-10557Y11466D01*
X-10607Y11483D01*
Y11691D01*
X-10241Y12057D01*
X-7610D01*
X-7591Y12011D01*
D02*
G37*
G36*
X-9525Y11507D02*
X-9578Y11439D01*
X-9615Y11348D01*
X-9628Y11250D01*
X-9615Y11152D01*
X-9578Y11061D01*
X-9517Y10983D01*
X-9493Y10964D01*
Y10321D01*
X-9517D01*
Y10293D01*
X-10033D01*
Y10321D01*
X-10057D01*
Y10450D01*
X-10057Y10450D01*
X-10068Y10505D01*
X-10099Y10551D01*
X-10249Y10701D01*
X-10295Y10732D01*
X-10350Y10743D01*
X-10350Y10743D01*
X-10735D01*
X-10755Y10793D01*
X-10649Y10899D01*
X-10618Y10945D01*
X-10607Y11000D01*
X-10607Y11000D01*
Y11017D01*
X-10557Y11034D01*
X-10517Y10983D01*
X-10439Y10922D01*
X-10348Y10885D01*
X-10250Y10872D01*
X-10152Y10885D01*
X-10061Y10922D01*
X-9983Y10983D01*
X-9922Y11061D01*
X-9885Y11152D01*
X-9872Y11250D01*
X-9885Y11348D01*
X-9904Y11394D01*
X-9741Y11557D01*
X-9541D01*
X-9525Y11507D01*
D02*
G37*
G36*
X-5977Y11775D02*
X-5991Y11741D01*
X-6003Y11650D01*
X-5991Y11559D01*
X-5956Y11473D01*
X-5900Y11400D01*
X-5827Y11344D01*
X-5741Y11309D01*
X-5650Y11297D01*
X-5559Y11309D01*
X-5473Y11344D01*
X-5400Y11400D01*
X-5393Y11410D01*
X-5343Y11393D01*
Y11050D01*
X-5343Y11050D01*
X-5332Y10995D01*
X-5301Y10949D01*
X-5061Y10709D01*
X-5061Y10709D01*
X-5015Y10678D01*
X-4960Y10667D01*
X-4490D01*
X-4490Y10667D01*
X-4435Y10678D01*
X-4389Y10709D01*
X-4239Y10859D01*
X-4193Y10840D01*
Y10259D01*
X-5585Y8867D01*
X-5633Y8883D01*
X-5635Y8898D01*
X-5672Y8989D01*
X-5733Y9067D01*
X-5811Y9128D01*
X-5902Y9165D01*
X-5999Y9178D01*
X-6011Y9193D01*
X-6026Y9223D01*
X-5899Y9349D01*
X-5899Y9349D01*
X-5868Y9395D01*
X-5857Y9450D01*
Y9453D01*
X-5811Y9472D01*
X-5733Y9533D01*
X-5672Y9611D01*
X-5635Y9702D01*
X-5622Y9800D01*
X-5635Y9898D01*
X-5672Y9989D01*
X-5733Y10067D01*
X-5811Y10128D01*
X-5902Y10165D01*
X-6000Y10178D01*
X-6098Y10165D01*
X-6189Y10128D01*
X-6257Y10075D01*
X-6307Y10091D01*
Y10291D01*
X-6144Y10454D01*
X-6098Y10435D01*
X-6000Y10422D01*
X-5902Y10435D01*
X-5811Y10472D01*
X-5733Y10533D01*
X-5672Y10611D01*
X-5635Y10702D01*
X-5622Y10800D01*
X-5635Y10898D01*
X-5672Y10989D01*
X-5733Y11067D01*
X-5811Y11128D01*
X-5902Y11165D01*
X-6000Y11178D01*
X-6098Y11165D01*
X-6189Y11128D01*
X-6267Y11067D01*
X-6328Y10989D01*
X-6365Y10898D01*
X-6378Y10800D01*
X-6365Y10702D01*
X-6346Y10656D01*
X-6551Y10451D01*
X-6582Y10405D01*
X-6593Y10350D01*
X-6593Y10350D01*
Y9509D01*
X-6909Y9193D01*
X-7308D01*
Y9205D01*
X-8028D01*
Y8895D01*
Y8501D01*
X-7308D01*
Y8514D01*
X-6243D01*
X-6189Y8472D01*
X-6098Y8435D01*
X-6083Y8433D01*
X-6067Y8385D01*
X-6145Y8307D01*
X-6146Y8306D01*
X-6146Y8306D01*
X-6561Y7891D01*
X-6592Y7845D01*
X-6603Y7790D01*
X-6603Y7790D01*
Y7519D01*
X-6679Y7443D01*
X-6890D01*
Y7785D01*
X-7870D01*
Y7443D01*
X-7873D01*
X-7928Y7432D01*
X-7974Y7401D01*
X-8005Y7355D01*
X-8016Y7300D01*
Y7057D01*
X-8062Y7038D01*
X-8157Y7133D01*
Y7495D01*
X-8154Y7497D01*
X-8093Y7543D01*
X-8047Y7604D01*
X-8017Y7674D01*
X-8014Y7700D01*
X-8586D01*
X-8583Y7674D01*
X-8553Y7604D01*
X-8507Y7543D01*
X-8446Y7497D01*
X-8443Y7495D01*
Y7169D01*
X-8474Y7143D01*
X-8474Y7143D01*
X-9300D01*
X-9355Y7132D01*
X-9401Y7101D01*
X-9432Y7055D01*
X-9443Y7000D01*
Y5809D01*
X-9597Y5655D01*
X-9647Y5675D01*
Y7041D01*
X-8379Y8309D01*
X-8379Y8309D01*
X-8348Y8355D01*
X-8337Y8410D01*
X-8337Y8410D01*
Y10255D01*
X-8321Y10267D01*
X-8271Y10242D01*
Y9883D01*
X-7935D01*
X-7810Y9759D01*
Y9599D01*
X-8028D01*
Y9289D01*
Y9289D01*
X-7308D01*
Y9599D01*
X-7525D01*
Y9818D01*
X-7525Y9818D01*
X-7536Y9872D01*
X-7567Y9919D01*
X-7567Y9919D01*
X-7799Y10151D01*
X-7845Y10182D01*
X-7900Y10193D01*
X-7929Y10229D01*
Y10437D01*
X-7957D01*
Y10532D01*
X-7781D01*
Y10750D01*
Y10968D01*
X-7927D01*
Y11272D01*
X-7291Y11907D01*
X-6957D01*
X-6932Y11857D01*
X-6956Y11827D01*
X-6991Y11741D01*
X-6996Y11700D01*
X-6304D01*
X-6309Y11741D01*
X-6344Y11827D01*
X-6368Y11857D01*
X-6343Y11907D01*
X-6109D01*
X-5977Y11775D01*
D02*
G37*
G36*
X-9517Y9979D02*
X-9338D01*
X-9319Y9933D01*
X-9501Y9751D01*
X-9532Y9705D01*
X-9543Y9650D01*
X-9543Y9650D01*
Y9599D01*
X-9760D01*
Y9390D01*
X-9868D01*
X-9974Y9496D01*
Y9718D01*
X-10038D01*
Y9979D01*
X-10033D01*
Y10007D01*
X-9517D01*
Y9979D01*
D02*
G37*
G36*
X-12945Y10657D02*
X-13337Y10265D01*
X-14004D01*
Y9435D01*
X-13096D01*
Y10102D01*
X-12741Y10457D01*
X-10409D01*
X-10343Y10391D01*
Y10321D01*
X-10370D01*
Y10150D01*
X-10420D01*
Y10100D01*
X-10587D01*
Y9979D01*
X-10587Y9979D01*
X-10587D01*
X-10612Y9940D01*
X-10620Y9932D01*
X-10651Y9885D01*
X-10662Y9831D01*
X-10662Y9831D01*
Y9718D01*
X-10726D01*
Y9550D01*
X-10519D01*
Y9450D01*
X-10726D01*
Y9282D01*
X-10662D01*
Y8849D01*
X-10662Y8849D01*
X-10651Y8794D01*
X-10620Y8748D01*
X-10587Y8715D01*
Y8579D01*
X-10563D01*
Y8520D01*
X-10563Y8520D01*
X-10552Y8466D01*
X-10521Y8420D01*
X-10495Y8393D01*
X-10515Y8343D01*
X-10591D01*
X-10757Y8509D01*
Y9200D01*
X-10757Y9200D01*
X-10768Y9255D01*
X-10799Y9301D01*
X-10799Y9301D01*
X-11096Y9598D01*
Y10265D01*
X-12004D01*
Y9435D01*
X-11337D01*
X-11043Y9141D01*
Y8450D01*
X-11043Y8450D01*
X-11032Y8395D01*
X-11001Y8349D01*
X-10751Y8099D01*
X-10751Y8099D01*
X-10705Y8068D01*
X-10650Y8057D01*
X-9600D01*
X-9600Y8057D01*
X-9545Y8068D01*
X-9499Y8099D01*
X-9299Y8299D01*
X-9299Y8299D01*
X-9268Y8345D01*
X-9257Y8400D01*
X-9257Y8400D01*
Y8501D01*
X-9040D01*
X-9013Y8463D01*
Y8409D01*
X-10029Y7393D01*
X-10300D01*
X-10300Y7393D01*
X-10355Y7382D01*
X-10401Y7351D01*
X-10401Y7351D01*
X-11026Y6726D01*
X-11072Y6745D01*
Y6837D01*
X-11193D01*
Y6670D01*
X-11243D01*
Y6620D01*
X-11414D01*
Y6504D01*
Y6283D01*
X-11386D01*
Y4555D01*
X-12018D01*
X-12037Y4601D01*
X-11549Y5089D01*
X-11549Y5089D01*
X-11518Y5135D01*
X-11507Y5190D01*
X-11507Y5190D01*
Y5850D01*
X-11518Y5905D01*
X-11549Y5951D01*
X-11549Y5951D01*
X-11799Y6201D01*
X-11845Y6232D01*
X-11854Y6234D01*
X-11900Y6244D01*
X-11900Y6293D01*
Y6956D01*
X-12730D01*
X-12730Y6244D01*
X-12779Y6243D01*
X-13357D01*
Y6594D01*
X-13629D01*
Y7072D01*
X-13629Y7072D01*
X-13640Y7126D01*
X-13671Y7173D01*
X-13671Y7173D01*
X-14207Y7709D01*
Y10193D01*
X-13693Y10707D01*
X-12965D01*
X-12945Y10657D01*
D02*
G37*
G36*
X-3945Y6879D02*
Y6557D01*
X-4221Y6281D01*
X-4224Y6283D01*
X-4300Y6292D01*
X-4376Y6283D01*
X-4446Y6253D01*
X-4457Y6245D01*
X-4507Y6270D01*
Y6591D01*
X-4229Y6869D01*
X-4226Y6867D01*
X-4150Y6858D01*
X-4074Y6867D01*
X-4004Y6897D01*
X-3995Y6903D01*
X-3945Y6879D01*
D02*
G37*
G36*
X-3417Y6174D02*
X-3406Y6119D01*
X-3375Y6073D01*
X-2481Y5179D01*
X-2483Y5176D01*
X-2486Y5150D01*
X-2200D01*
Y5100D01*
X-2150D01*
Y4814D01*
X-2124Y4817D01*
X-2054Y4847D01*
X-1993Y4893D01*
X-1947Y4954D01*
X-1917Y5024D01*
X-1908Y5100D01*
X-1910Y5117D01*
X-1862Y5141D01*
X-1786Y5064D01*
Y4787D01*
X-1814D01*
Y4763D01*
X-1870D01*
X-1924Y4752D01*
X-1970Y4721D01*
X-1970Y4721D01*
X-2232Y4460D01*
X-2253Y4470D01*
X-2450D01*
X-2621D01*
Y4354D01*
Y4133D01*
X-2593D01*
Y3659D01*
X-2701Y3551D01*
X-2704Y3553D01*
X-2780Y3562D01*
X-2856Y3553D01*
X-2926Y3523D01*
X-2959Y3561D01*
X-2769Y3751D01*
X-2769Y3751D01*
X-2738Y3797D01*
X-2727Y3852D01*
Y4280D01*
X-2738Y4335D01*
X-2769Y4381D01*
X-2769Y4381D01*
X-2859Y4471D01*
X-2872Y4480D01*
Y4537D01*
X-3214D01*
Y4506D01*
X-3234Y4502D01*
X-3280Y4471D01*
X-3280Y4471D01*
X-3459Y4293D01*
X-3522D01*
Y4320D01*
X-3693D01*
X-3903D01*
X-3914Y4316D01*
X-3957Y4359D01*
Y5091D01*
X-3879Y5169D01*
X-3818D01*
Y5105D01*
X-3382D01*
Y5444D01*
Y5856D01*
X-3818D01*
Y5793D01*
X-4030D01*
X-4055Y5843D01*
X-4047Y5854D01*
X-4017Y5924D01*
X-4008Y6000D01*
X-4017Y6076D01*
X-4019Y6079D01*
X-3924Y6174D01*
X-3464D01*
X-3417Y6174D01*
D02*
G37*
G36*
X-10534Y6744D02*
X-10526Y6684D01*
X-10509Y6644D01*
X-10542Y6594D01*
X-10658D01*
Y5606D01*
X-10101D01*
X-10082Y5560D01*
X-11054Y4588D01*
X-11101Y4607D01*
Y6248D01*
X-10582Y6766D01*
X-10534Y6744D01*
D02*
G37*
G36*
X-6824Y6205D02*
X-6803Y6154D01*
X-6757Y6093D01*
X-6696Y6047D01*
X-6626Y6017D01*
X-6550Y6008D01*
X-6510Y6013D01*
X-6486Y5965D01*
X-6709Y5743D01*
X-7993D01*
X-8003Y5793D01*
X-7994Y5797D01*
X-7933Y5843D01*
X-7916Y5865D01*
X-7870Y5875D01*
X-7870Y5875D01*
X-6890D01*
Y6197D01*
X-6835Y6208D01*
X-6824Y6205D01*
D02*
G37*
G36*
X-7345Y5346D02*
X-7494Y5196D01*
X-7504Y5203D01*
X-7574Y5233D01*
X-7650Y5242D01*
X-7726Y5233D01*
X-7796Y5203D01*
X-7857Y5157D01*
X-7903Y5096D01*
X-7933Y5026D01*
X-7943Y4950D01*
X-7933Y4874D01*
X-7903Y4804D01*
X-7857Y4743D01*
X-7796Y4697D01*
X-7726Y4667D01*
X-7674Y4661D01*
X-7468Y4455D01*
X-7472Y4431D01*
X-7486Y4405D01*
X-7883D01*
Y3995D01*
X-6943D01*
Y3919D01*
X-6957Y3905D01*
X-7883D01*
Y3821D01*
X-7929Y3801D01*
X-8007Y3879D01*
Y5370D01*
X-8007Y5370D01*
X-8015Y5407D01*
X-7984Y5457D01*
X-7345D01*
Y5346D01*
D02*
G37*
%LPC*%
G36*
X-12050Y1800D02*
X-12171D01*
Y1683D01*
X-12050D01*
Y1800D01*
D02*
G37*
G36*
X-13463Y1900D02*
X-13580D01*
Y1779D01*
X-13463D01*
Y1900D01*
D02*
G37*
G36*
X-12300Y1596D02*
X-12341Y1591D01*
X-12427Y1556D01*
X-12500Y1500D01*
X-12556Y1427D01*
X-12591Y1341D01*
X-12596Y1300D01*
X-12300D01*
Y1596D01*
D02*
G37*
G36*
X-11829Y1800D02*
X-11950D01*
Y1683D01*
X-11829D01*
Y1800D01*
D02*
G37*
G36*
X-12200Y1596D02*
Y1300D01*
X-11904D01*
X-11909Y1341D01*
X-11944Y1427D01*
X-12000Y1500D01*
X-12073Y1556D01*
X-12159Y1591D01*
X-12200Y1596D01*
D02*
G37*
G36*
X-13463Y2121D02*
X-13580D01*
Y2000D01*
X-13463D01*
Y2121D01*
D02*
G37*
G36*
X-6264Y4700D02*
X-6500D01*
Y4464D01*
X-6474Y4467D01*
X-6404Y4497D01*
X-6343Y4543D01*
X-6297Y4604D01*
X-6267Y4674D01*
X-6264Y4700D01*
D02*
G37*
G36*
X-6594Y5300D02*
X-6750D01*
Y5132D01*
X-6594D01*
Y5300D01*
D02*
G37*
G36*
X-6600Y5036D02*
X-6626Y5033D01*
X-6696Y5003D01*
X-6757Y4957D01*
X-6803Y4896D01*
X-6833Y4826D01*
X-6836Y4800D01*
X-6600D01*
Y5036D01*
D02*
G37*
G36*
X-6500D02*
Y4800D01*
X-6264D01*
X-6267Y4826D01*
X-6297Y4896D01*
X-6343Y4957D01*
X-6404Y5003D01*
X-6474Y5033D01*
X-6500Y5036D01*
D02*
G37*
G36*
X-13303Y4555D02*
X-14283D01*
Y4145D01*
X-13303D01*
Y4555D01*
D02*
G37*
G36*
X-6304Y11600D02*
X-6996D01*
X-6991Y11559D01*
X-6956Y11473D01*
X-6900Y11400D01*
X-6874Y11381D01*
X-6871Y11331D01*
X-7309Y10893D01*
X-7524D01*
Y10968D01*
X-7681D01*
Y10750D01*
Y10532D01*
X-7524D01*
Y10607D01*
X-7250D01*
X-7250Y10607D01*
X-7195Y10618D01*
X-7149Y10649D01*
X-6549Y11249D01*
X-6549Y11249D01*
X-6518Y11295D01*
X-6512Y11329D01*
X-6473Y11344D01*
X-6400Y11400D01*
X-6344Y11473D01*
X-6309Y11559D01*
X-6304Y11600D01*
D02*
G37*
G36*
X-8350Y8036D02*
X-8376Y8033D01*
X-8446Y8003D01*
X-8507Y7957D01*
X-8553Y7896D01*
X-8583Y7826D01*
X-8586Y7800D01*
X-8350D01*
Y8036D01*
D02*
G37*
G36*
X-8250D02*
Y7800D01*
X-8014D01*
X-8017Y7826D01*
X-8047Y7896D01*
X-8093Y7957D01*
X-8154Y8003D01*
X-8224Y8033D01*
X-8250Y8036D01*
D02*
G37*
G36*
X-10950Y7786D02*
Y7550D01*
X-10714D01*
X-10717Y7576D01*
X-10747Y7646D01*
X-10793Y7707D01*
X-10854Y7753D01*
X-10924Y7783D01*
X-10950Y7786D01*
D02*
G37*
G36*
X-13096Y8612D02*
X-14004D01*
Y7782D01*
X-13096D01*
Y8612D01*
D02*
G37*
G36*
X-11600Y8147D02*
X-12004D01*
Y7782D01*
X-11600D01*
Y8147D01*
D02*
G37*
G36*
X-11050Y7450D02*
X-11286D01*
X-11283Y7424D01*
X-11253Y7354D01*
X-11207Y7293D01*
X-11146Y7247D01*
X-11076Y7217D01*
X-11050Y7214D01*
Y7450D01*
D02*
G37*
G36*
X-10714D02*
X-10950D01*
Y7214D01*
X-10924Y7217D01*
X-10854Y7247D01*
X-10793Y7293D01*
X-10747Y7354D01*
X-10717Y7424D01*
X-10714Y7450D01*
D02*
G37*
G36*
X-11096Y8147D02*
X-11500D01*
Y7782D01*
X-11190D01*
X-11173Y7732D01*
X-11207Y7707D01*
X-11253Y7646D01*
X-11283Y7576D01*
X-11286Y7550D01*
X-11050D01*
Y7789D01*
X-11093Y7822D01*
X-11096Y7828D01*
Y8147D01*
D02*
G37*
G36*
Y8612D02*
X-11500D01*
Y8247D01*
X-11096D01*
Y8612D01*
D02*
G37*
G36*
X-10470Y10321D02*
X-10587D01*
Y10200D01*
X-10470D01*
Y10321D01*
D02*
G37*
G36*
X-11600Y8612D02*
X-12004D01*
Y8247D01*
X-11600D01*
Y8612D01*
D02*
G37*
G36*
X-11293Y6837D02*
X-11414D01*
Y6720D01*
X-11293D01*
Y6837D01*
D02*
G37*
G36*
X-3522Y4537D02*
X-3643D01*
Y4420D01*
X-3522D01*
Y4537D01*
D02*
G37*
G36*
X-2500Y4687D02*
X-2621D01*
Y4570D01*
X-2500D01*
Y4687D01*
D02*
G37*
G36*
X-3743Y4537D02*
X-3864D01*
Y4420D01*
X-3743D01*
Y4537D01*
D02*
G37*
G36*
X-2250Y5050D02*
X-2486D01*
X-2483Y5024D01*
X-2453Y4954D01*
X-2407Y4893D01*
X-2346Y4847D01*
X-2276Y4817D01*
X-2250Y4814D01*
Y5050D01*
D02*
G37*
G36*
X-2279Y4687D02*
X-2400D01*
Y4570D01*
X-2279D01*
Y4687D01*
D02*
G37*
%LPD*%
D10*
X-8637Y900D02*
D03*
X-7700D02*
D03*
X-9431D02*
D03*
X-10368D02*
D03*
D11*
X-5400Y1800D02*
D03*
X-5739D02*
D03*
X-9213D02*
D03*
X-8874D02*
D03*
X-10519Y9500D02*
D03*
X-10181D02*
D03*
X-7139Y5350D02*
D03*
X-6800D02*
D03*
X-7731Y10750D02*
D03*
X-8069D02*
D03*
D12*
X-1550Y2750D02*
D03*
Y2970D02*
D03*
X-3693Y4150D02*
D03*
Y4370D02*
D03*
X-2450Y4520D02*
D03*
Y4300D02*
D03*
X-4393Y3050D02*
D03*
Y3270D02*
D03*
X-1550Y3530D02*
D03*
Y3750D02*
D03*
X-3043Y4370D02*
D03*
Y4150D02*
D03*
X-4393Y5370D02*
D03*
Y5150D02*
D03*
Y4130D02*
D03*
Y4350D02*
D03*
X-12000Y2070D02*
D03*
Y1850D02*
D03*
X-3850Y8400D02*
D03*
Y8180D02*
D03*
X-3293D02*
D03*
Y8400D02*
D03*
X-11243Y6450D02*
D03*
Y6670D02*
D03*
X-4450Y8400D02*
D03*
Y8180D02*
D03*
X-1700Y1650D02*
D03*
Y1430D02*
D03*
X-1643Y4400D02*
D03*
Y4620D02*
D03*
X-8100Y10270D02*
D03*
Y10050D02*
D03*
D13*
X-13630Y1950D02*
D03*
X-13850D02*
D03*
X-6050Y5250D02*
D03*
X-6270D02*
D03*
X-9350Y10150D02*
D03*
X-9130D02*
D03*
X-5350Y8350D02*
D03*
X-5570D02*
D03*
X-10420Y10150D02*
D03*
X-10200D02*
D03*
X-7373Y1750D02*
D03*
X-7593D02*
D03*
X-10420Y8750D02*
D03*
X-10200D02*
D03*
X-5500Y5250D02*
D03*
X-5280D02*
D03*
D14*
X-13793Y4350D02*
D03*
Y3850D02*
D03*
Y3350D02*
D03*
Y2850D02*
D03*
X-11853D02*
D03*
Y3350D02*
D03*
Y3850D02*
D03*
Y4350D02*
D03*
X-7393Y4200D02*
D03*
Y3700D02*
D03*
Y3200D02*
D03*
Y2700D02*
D03*
X-5453D02*
D03*
Y3200D02*
D03*
Y3700D02*
D03*
Y4200D02*
D03*
X-7380Y7580D02*
D03*
Y7080D02*
D03*
Y6580D02*
D03*
Y6080D02*
D03*
X-5440D02*
D03*
Y6580D02*
D03*
Y7080D02*
D03*
Y7580D02*
D03*
D15*
X-3274Y7416D02*
D03*
X-2900Y6550D02*
D03*
X-3648D02*
D03*
D16*
X-13772Y6100D02*
D03*
X-10243D02*
D03*
X-10250Y3500D02*
D03*
D17*
X-12315Y6600D02*
D03*
Y5600D02*
D03*
X-8787Y6600D02*
D03*
Y5600D02*
D03*
X-8793Y4000D02*
D03*
Y3000D02*
D03*
D18*
X-2943Y2650D02*
D03*
D19*
X-2343Y2950D02*
D03*
Y2750D02*
D03*
Y2550D02*
D03*
Y2350D02*
D03*
X-3543D02*
D03*
Y2550D02*
D03*
Y2750D02*
D03*
Y2950D02*
D03*
D20*
X-3600Y5650D02*
D03*
Y5311D02*
D03*
D21*
X-9400Y9444D02*
D03*
Y9247D02*
D03*
Y9050D02*
D03*
Y8853D02*
D03*
Y8656D02*
D03*
X-7668D02*
D03*
Y8853D02*
D03*
Y9050D02*
D03*
Y9247D02*
D03*
Y9444D02*
D03*
D22*
X-13550Y8197D02*
D03*
X-11550Y9850D02*
D03*
Y8197D02*
D03*
X-13550Y9850D02*
D03*
D23*
X-13150Y700D02*
X-12150D01*
X-13850Y1400D02*
X-13150Y700D01*
X-13850Y1400D02*
Y1950D01*
X-12150Y700D02*
X-11350Y1500D01*
X-8500D01*
X-7349Y1450D02*
X-6839Y1960D01*
X-7850Y1450D02*
X-7349D01*
X-6839Y1960D02*
X-6450D01*
X-9431Y900D02*
X-8637D01*
X-8000Y1300D02*
X-7850Y1450D01*
X-10200Y1300D02*
X-8000D01*
X-10368Y1132D02*
X-10200Y1300D01*
X-10368Y900D02*
Y1132D01*
X-8250Y1750D02*
X-7593D01*
X-8500Y1500D02*
X-8250Y1750D01*
X-6050Y5250D02*
X-5500D01*
X-7393Y2320D02*
Y2700D01*
X-4690Y5160D02*
X-4480Y5370D01*
X-10250Y2210D02*
Y3500D01*
X-6640Y7050D02*
X-6213Y7477D01*
X-5918Y6550D02*
X-5443D01*
X-6073Y6705D02*
X-5918Y6550D01*
X-5280Y5250D02*
Y5510D01*
X-5943Y4366D02*
X-5280Y5030D01*
X-5943Y3700D02*
Y4366D01*
X-7760Y3430D02*
X-6083D01*
X-5853Y3200D01*
X-4480Y5370D02*
X-4393D01*
X-2870Y3852D02*
Y4280D01*
X-3490Y3232D02*
X-2870Y3852D01*
X-3543Y2950D02*
X-3490D01*
X-2343D02*
X-2270D01*
X-6270Y5250D02*
Y5400D01*
X-8140Y6050D02*
X-7383D01*
X-12315Y4795D02*
Y5600D01*
X-13260Y3850D02*
X-12315Y4795D01*
X-10243Y6100D02*
Y6760D01*
X-4050Y2780D02*
X-3820Y2550D01*
X-3543D01*
X-2032Y2798D02*
Y3558D01*
X-2080Y2750D02*
X-2032Y2798D01*
X-6270Y5400D02*
X-6190D01*
X-10250Y3500D02*
Y4800D01*
X-7873Y6845D02*
Y7300D01*
X-6620D01*
X-6460Y7460D01*
X-13793Y3350D02*
X-13240D01*
X-12510Y2620D01*
X-11340D01*
X-11010Y2950D01*
Y4430D01*
X-9790Y5650D02*
Y7100D01*
X-8480Y8410D01*
Y10339D01*
X-14200Y2850D02*
X-13793D01*
X-7393Y3700D02*
X-6960D01*
X-8793Y2697D02*
Y3000D01*
X-9145Y2345D02*
X-8793Y2697D01*
X-4393Y5150D02*
X-4100D01*
X-3810Y2750D02*
X-3543D01*
X-14283Y3140D02*
X-13410D01*
X-14283D02*
Y3560D01*
X-13993Y3850D01*
X-13793D01*
X-8787Y5600D02*
X-8380D01*
X-6960Y7050D02*
X-6640D01*
X-4021Y3350D02*
X-4000D01*
X-4100Y3270D02*
X-4021Y3350D01*
X-3810Y2750D02*
Y3110D01*
X-6190Y5400D02*
X-5890Y5700D01*
X-4320Y3270D02*
X-4050Y3000D01*
Y2780D02*
Y3000D01*
X-4393Y3270D02*
X-4320D01*
X-4100D01*
X-6550Y6300D02*
Y6640D01*
X-6960Y7050D02*
X-6550Y6640D01*
X-6650Y5600D02*
X-5910Y6340D01*
X-8380Y5600D02*
X-6650D01*
X-2050Y2550D02*
X-1892Y2708D01*
Y2923D01*
X-1450Y3750D02*
X-1250Y3550D01*
X-1550Y2970D02*
Y3530D01*
X-9400Y9650D02*
X-9130Y9920D01*
X-9400Y9444D02*
Y9650D01*
X-9900Y9050D02*
X-9400D01*
X-7668Y8853D02*
X-6597D01*
X-7668Y9050D02*
X-6850D01*
X-3693Y4150D02*
X-3400D01*
X-3180Y4370D01*
X-4100Y4300D02*
Y5150D01*
Y4300D02*
X-3950Y4150D01*
X-3650Y2350D02*
X-3543D01*
X-2343Y2750D02*
X-2080D01*
X-2343Y2550D02*
X-2050D01*
X-6960Y3700D02*
X-6800Y3860D01*
X-5853Y3200D02*
X-5453D01*
X-5943Y3700D02*
X-5453D01*
X-8000Y3200D02*
X-7393D01*
X-8300Y7074D02*
Y7750D01*
Y7074D02*
X-7776Y6550D01*
X-7383D01*
X-5500Y8100D02*
X-5350Y8250D01*
Y8350D01*
Y7950D02*
X-2950Y10350D01*
Y11430D01*
X-5750Y8100D02*
X-5500D01*
X-5700Y8350D02*
X-5570D01*
X-1550Y3750D02*
X-1450D01*
X-11010Y4430D02*
X-9790Y5650D01*
X-11852Y3848D02*
X-11502D01*
X-11243Y4107D01*
X-4650Y5850D02*
Y6650D01*
X-3750Y6550D02*
X-3648D01*
X-4300Y6000D02*
X-3750Y6550D01*
X-4450Y8180D02*
X-3850D01*
Y7950D02*
Y8180D01*
Y7950D02*
X-3400D01*
X-4650Y6650D02*
X-4150Y7150D01*
X-3274Y6174D02*
X-2200Y5100D01*
X-9928Y9247D02*
X-9400D01*
X-8150Y3820D02*
X-7760Y3430D01*
X-8150Y3820D02*
Y5370D01*
X-8380Y5600D02*
X-8150Y5370D01*
X-9450Y3000D02*
X-8793D01*
X-7650Y4950D02*
X-7539D01*
X-7139Y5350D01*
X-7650Y4839D02*
X-7361Y4550D01*
X-7000D01*
X-6800Y4350D01*
Y3860D02*
Y4350D01*
X-6850Y9050D02*
X-6450Y9450D01*
X-3274Y6174D02*
Y7416D01*
X-3180Y4370D02*
X-3043D01*
X-13793Y3850D02*
X-13260D01*
X-5280Y5030D02*
Y5250D01*
X-3274Y7416D02*
Y7824D01*
X-3400Y7950D02*
X-3274Y7824D01*
X-3950Y4150D02*
X-3693D01*
X-8870Y8350D02*
Y11470D01*
X-9100Y11700D02*
X-8870Y11470D01*
X-11250Y11250D02*
X-11214D01*
X-4690Y3260D02*
X-4480Y3050D01*
X-4393D01*
X-1250Y2150D02*
Y3550D01*
X-2250Y1600D02*
Y1750D01*
X-13850Y1950D02*
Y2793D01*
X-13793Y2850D01*
X-10250Y2210D02*
X-9840Y1800D01*
X-9213D01*
X-7593Y1750D02*
Y2120D01*
X-7393Y2320D01*
X-6450Y1200D02*
Y1960D01*
X-6210Y2200D01*
X-5600D01*
X-5400Y2000D01*
Y1800D02*
Y2000D01*
X-3800Y1250D02*
Y1600D01*
X-3450Y1950D01*
X-2250Y1600D02*
X-2080Y1430D01*
X-1700D01*
X-4450Y2150D02*
X-3850D01*
X-3650Y2350D01*
X-3450Y1950D02*
X-2743D01*
X-2343Y2350D01*
X-1892Y2923D02*
X-1844Y2970D01*
X-1550D01*
X-2032Y3558D02*
X-1840Y3750D01*
X-1550D01*
X-2270Y4220D02*
X-1870Y4620D01*
X-1643D02*
Y5123D01*
X-2480Y5960D02*
X-1643Y5123D01*
X-1870Y4620D02*
X-1643D01*
X-2780Y3270D02*
X-2450Y3600D01*
Y4300D01*
X-3810Y3110D02*
X-3043Y3877D01*
Y4150D01*
Y4370D02*
X-2960D01*
X-2870Y4280D01*
X-4393Y4130D02*
X-4114Y3850D01*
X-4050D01*
X-4690Y3260D02*
Y4647D01*
Y5160D01*
X-4692Y4648D02*
X-4690Y4647D01*
X-4393Y4350D01*
X-4650Y5850D02*
X-4450Y5650D01*
X-3600D01*
X-4100Y5150D02*
X-3939Y5311D01*
X-3600D01*
X-2900Y6550D02*
X-2500Y6950D01*
X-3293Y8180D02*
X-2500Y7386D01*
Y6950D02*
Y7386D01*
X-3293Y8400D02*
Y9680D01*
X-3850Y8400D02*
X-3293D01*
Y9680D02*
X-2550Y10423D01*
Y11250D01*
X-5350Y8350D02*
X-3300Y10400D01*
Y11250D01*
X-4050Y10200D02*
Y11250D01*
X-4490Y10810D02*
X-4050Y11250D01*
X-5933Y6800D02*
X-4998D01*
X-6144Y8656D02*
X-6000Y8800D01*
X-7668Y8656D02*
X-6144D01*
X-6597Y8853D02*
X-6000Y9450D01*
Y9800D01*
X-6450Y9450D02*
Y10350D01*
X-6000Y10800D01*
X-10250Y11250D02*
X-9800Y11700D01*
X-9100D01*
X-13772Y6100D02*
Y7072D01*
Y6100D02*
X-11900D01*
X-11650Y5850D01*
Y5190D02*
Y5850D01*
X-13410Y3140D02*
X-12340Y2070D01*
X-12000D01*
X-10250Y3500D02*
X-8300D01*
X-8000Y3200D01*
X-13550Y11250D02*
X-11250D01*
X-14500Y3150D02*
X-14200Y2850D01*
X-14500Y3150D02*
Y10300D01*
X-13550Y11250D01*
X-14350Y7650D02*
X-13772Y7072D01*
X-14350Y7650D02*
Y10252D01*
X-13550Y9850D02*
X-12800Y10600D01*
X-11550Y8197D02*
X-11300Y7947D01*
X-11550Y8197D02*
X-11497Y8250D01*
X-10200Y8750D02*
X-9900Y9050D01*
X-3490Y2950D02*
Y3232D01*
X-7650Y4839D02*
X-7539Y4950D01*
X-7873Y6845D02*
X-6995D01*
X-6890Y6740D01*
Y6340D02*
Y6740D01*
X-4998Y6800D02*
X-4950Y6752D01*
X-5910Y6340D02*
X-4960D01*
X-4950Y6350D01*
Y6752D01*
X-4550Y8400D02*
X-4450D01*
X-5702Y7950D02*
X-5350D01*
X-5871Y7785D02*
X-5867D01*
X-5702Y7950D01*
X-5929Y7925D02*
X-5925D01*
X-5987Y8065D02*
X-5985D01*
X-5700Y8350D01*
X-6045Y8205D02*
X-6045D01*
X-4050Y10200D01*
X-5925Y7925D02*
X-5750Y8100D01*
X-6460Y7790D02*
X-6045Y8205D01*
X-6213Y7839D02*
X-5987Y8065D01*
X-6073Y7781D02*
X-5929Y7925D01*
X-5933Y6800D02*
Y7723D01*
X-5871Y7785D01*
X-6073Y6705D02*
Y7781D01*
X-6213Y7477D02*
Y7839D01*
X-6460Y7460D02*
Y7790D01*
X-5280Y5510D02*
X-4790Y6000D01*
Y7450D01*
X-5440Y7080D02*
X-5160D01*
X-4790Y7450D01*
X-4690Y7550D01*
Y8260D02*
X-4550Y8400D01*
X-4690Y7550D02*
Y8260D01*
X-7814Y6340D02*
X-6890D01*
X-7383Y7050D02*
X-6960D01*
X-7668Y9444D02*
Y9818D01*
X-7900Y10050D02*
X-7668Y9818D01*
X-8100Y10050D02*
X-7900D01*
X-8100Y10270D02*
Y10719D01*
X-8069Y10750D01*
X-7731D02*
X-7250D01*
X-6650Y11350D01*
Y11650D01*
X-10300Y12200D02*
X-5550D01*
X-6050Y12050D02*
X-5650Y11650D01*
X-8069Y10750D02*
Y11331D01*
X-7350Y12050D01*
X-6050D01*
X-8480Y10339D02*
X-8100Y10719D01*
X-11243Y4107D02*
Y6307D01*
Y6450D01*
X-10300Y7250D02*
X-9970D01*
X-8870Y8350D01*
X-11243Y6307D02*
X-10300Y7250D01*
X-2270Y2950D02*
Y4220D01*
X-8474Y7000D02*
X-7814Y6340D01*
X-10250Y4800D02*
X-9300Y5750D01*
Y7000D01*
X-8474D01*
X-11550Y9850D02*
X-10900Y9200D01*
X-12550Y4290D02*
X-11650Y5190D01*
X-12550Y3700D02*
Y4290D01*
Y3700D02*
X-12200Y3350D01*
X-11853D01*
X-10519Y9500D02*
Y9831D01*
X-10181Y9500D02*
X-9928Y9247D01*
X-10519Y8849D02*
X-10420Y8750D01*
X-10519Y8849D02*
Y9500D01*
X-10750Y11750D02*
X-10300Y12200D01*
X-10750Y11000D02*
Y11750D01*
X-9130Y9920D02*
Y10150D01*
X-10200D02*
X-9350D01*
X-12800Y10600D02*
X-10350D01*
X-10200Y10450D01*
Y10150D02*
Y10450D01*
X-10519Y9831D02*
X-10420Y9930D01*
Y10150D01*
X-10181Y9500D02*
Y10131D01*
X-10200Y10150D02*
X-10181Y10131D01*
X-9350Y10150D02*
Y11150D01*
X-9250Y11250D01*
X-4960Y10810D02*
X-4490D01*
X-5550Y12200D02*
X-5200Y11850D01*
Y11050D02*
X-4960Y10810D01*
X-5200Y11050D02*
Y11850D01*
X-4800Y11250D02*
X-4400Y11650D01*
X-3170D01*
X-2950Y11430D01*
X-10900Y10850D02*
X-10750Y11000D01*
X-14350Y10252D02*
X-13752Y10850D01*
X-10900D01*
Y8450D02*
Y9200D01*
Y8450D02*
X-10650Y8200D01*
X-9600D01*
X-9400Y8400D01*
Y8656D01*
X-9797Y8853D02*
X-9400D01*
X-9900Y8750D02*
X-9797Y8853D01*
X-9900Y8550D02*
Y8750D01*
X-10000Y8450D02*
X-9900Y8550D01*
X-10420Y8520D02*
Y8750D01*
X-10350Y8450D02*
X-10000D01*
X-10420Y8520D02*
X-10350Y8450D01*
D24*
X-1800Y11250D02*
D03*
X-3300D02*
D03*
X-2550D02*
D03*
X-12250Y1250D02*
D03*
X-4050Y11250D02*
D03*
X-4800D02*
D03*
X-5650Y11650D02*
D03*
X-6450Y1200D02*
D03*
X-6650Y11650D02*
D03*
D25*
X-9250Y11250D02*
D03*
X-6000Y8800D02*
D03*
Y10800D02*
D03*
X-10250Y11250D02*
D03*
X-11250D02*
D03*
X-6000Y9800D02*
D03*
X-3800Y1250D02*
D03*
X-4800D02*
D03*
X-2800D02*
D03*
D26*
X-6550Y4750D02*
D03*
X-4690Y7550D02*
D03*
X-8140Y6050D02*
D03*
X-10243Y6760D02*
D03*
X-9145Y2345D02*
D03*
X-2780Y3270D02*
D03*
X-4000Y3350D02*
D03*
X-4050Y3850D02*
D03*
X-5890Y5700D02*
D03*
X-6550Y6300D02*
D03*
X-4450Y2150D02*
D03*
X-8300Y7750D02*
D03*
X-4300Y6000D02*
D03*
X-4150Y7150D02*
D03*
X-2480Y5960D02*
D03*
X-2200Y5100D02*
D03*
X-9450Y3000D02*
D03*
X-7650Y4950D02*
D03*
X-1250Y2150D02*
D03*
X-2250Y1750D02*
D03*
X-11000Y7500D02*
D03*
D27*
X-11300Y800D02*
D03*
M02*
